<svg width="166" height="166" viewBox="0 0 166 166" fill="none" xmlns="http://www.w3.org/2000/svg">
<path opacity="0.9" d="M36.729 26.8175H36.739C36.739 26.8175 36.729 26.8175 36.719 26.8175H36.729ZM36.7791 26.7874C37.2096 26.4258 37.7301 26.1245 38.0305 25.6726C38.8614 24.4472 39.1517 23.1014 38.3808 21.7355C37.59 20.3394 36.3786 19.6866 34.7268 19.8673C33.1451 20.0481 32.2141 20.942 31.7636 22.3983C30.8726 25.2909 33.2052 27.3197 36.7791 26.7874ZM36.8091 26.7874L36.729 26.8276C36.729 26.8276 36.7591 26.8276 36.7691 26.8276C36.7891 26.8175 36.7991 26.7975 36.8091 26.7874ZM48.6421 6.901C49.2528 7.29271 49.8434 6.68004 50.394 6.30843C50.4141 5.60537 50.2038 4.92241 49.6132 4.6211C49.0526 4.34992 48.3718 4.7818 48.0815 5.20363C47.651 5.83638 48.1616 6.58965 48.6421 6.901ZM25.0262 30.2123C26.5578 30.5437 27.8893 30.383 28.54 28.6254C29.1207 27.0586 28.6702 25.8634 27.1285 25.2106C25.4967 24.5075 24.2553 24.9996 23.5746 26.6669C22.9238 28.2437 23.5746 29.3285 25.0262 30.2123ZM39.5221 11.1495C40.1328 11.5211 40.7234 10.9285 41.264 10.5368C41.264 9.84379 41.0738 9.14074 40.4631 8.85951C39.9025 8.60842 39.2017 9.03026 38.9314 9.46213C38.531 10.0949 39.0115 10.8482 39.5221 11.1595V11.1495ZM36.8091 26.7774C36.8091 26.7774 36.7891 26.7774 36.7791 26.7774C36.7691 26.7774 36.7591 26.7975 36.739 26.8075L36.8091 26.7774ZM3.32231 79.8882C2.59151 81.8467 3.45245 83.7449 5.4046 84.4781C7.36675 85.2113 9.25883 84.3576 9.98964 82.4091C10.7204 80.4506 9.85949 78.5523 7.90735 77.8192C5.94519 77.0759 4.05311 77.9397 3.32231 79.8882ZM6.27556 61.0864C7.77721 61.6991 9.07864 61.0664 9.6793 59.6C10.29 58.0934 9.54915 56.9485 8.21769 56.1349C6.65597 55.7734 5.36455 56.1851 4.7739 57.6817C4.18326 59.1782 4.80394 60.4939 6.26554 61.0864H6.27556ZM58.0725 2.4115C58.7332 2.65254 58.9635 2.33115 59.1637 1.77875C59.4039 1.12591 59.0936 0.854732 58.523 0.704077C57.8823 0.412811 57.642 0.784426 57.4418 1.32678C57.2015 1.97962 57.5319 2.22067 58.0725 2.42154V2.4115ZM1.60042 73.9724C2.67159 74.3943 3.92297 73.862 4.33342 72.7873C4.74387 71.7227 4.1332 70.6781 3.14211 69.9851C1.99085 69.8546 0.81956 70.1559 0.399098 71.2406C-0.0113533 72.3152 0.509219 73.5607 1.60042 73.9825V73.9724ZM11.3712 47.3769C12.7427 47.9092 13.6737 47.4773 14.1943 45.9909C14.6648 44.635 14.3444 43.7511 12.9629 43.2088C11.5514 42.6664 10.5703 42.9175 9.99965 44.424C9.44904 45.8804 9.80944 46.8345 11.3712 47.3869V47.3769ZM16.5769 33.1752C17.4679 33.4564 17.9584 33.0647 18.2187 32.2512C18.499 31.3673 18.1086 30.8752 16.8772 30.4835C16.4267 30.383 15.9061 30.7145 15.6459 31.5381C15.3756 32.4219 15.766 32.914 16.5769 33.1752ZM157.542 75.7301C156.991 77.317 157.542 78.462 159.114 79.0646C160.815 79.7074 161.937 79.0344 162.737 77.2165C162.848 75.951 162.697 74.6655 161.006 74.093C159.324 73.5205 158.122 74.0528 157.532 75.7301H157.542ZM135.798 29.7503C134.977 31.9498 135.478 33.0446 137.66 33.838C139.832 34.6315 140.883 34.1092 141.674 31.8494C142.385 29.8206 141.835 28.7359 139.742 27.9726C137.69 27.2193 136.549 27.7416 135.798 29.7503ZM133.656 23.8145C134.917 24.2765 135.888 23.5634 136.609 22.4486C136.559 21.3036 136.348 20.1486 135.167 19.7468C133.926 19.325 132.735 19.8372 132.334 21.1128C131.984 22.2376 132.504 23.3927 133.646 23.8045L133.656 23.8145ZM151.866 36.6603C152.526 36.9014 152.757 36.58 152.957 36.0276C153.197 35.3747 152.887 35.1035 152.316 34.9529C151.675 34.6616 151.435 35.0332 151.235 35.5756C150.995 36.2284 151.325 36.4695 151.876 36.6704L151.866 36.6603ZM156.441 46.3524C156.901 46.493 157.402 46.1214 157.662 45.2878C157.942 44.404 157.552 43.9118 156.731 43.6507C155.84 43.3695 155.349 43.7612 155.089 44.5747C154.809 45.4585 155.209 45.9507 156.441 46.3524ZM2.35124 92.8545C1.38018 92.503 0.579296 92.9047 0.188867 93.8086C-0.261628 94.8331 0.108779 95.7169 1.13991 96.1488C2.19107 96.5907 2.9519 96.0885 3.4925 95.1545C3.69272 94.0798 3.42242 93.2361 2.35124 92.8545ZM160.425 55.2812C160.946 55.3114 161.716 55.0904 161.836 54.4677C161.957 53.8349 161.596 53.2122 161.006 52.8105C160.385 53.0214 159.514 53.0616 159.444 53.7948C159.404 54.3472 159.614 55.2511 160.415 55.2913L160.425 55.2812ZM119.7 20.1184C121.132 20.7612 123.745 19.6263 124.325 18.1198C124.866 16.7337 123.785 14.273 122.363 13.6403C120.932 12.9975 118.329 14.1324 117.748 15.639C117.207 17.025 118.279 19.4857 119.7 20.1184ZM92.9408 10.356C94.3123 10.9285 96.755 9.9141 97.4457 8.47785C98.1165 7.07175 97.0253 4.4604 95.5136 3.82765C94.1421 3.25516 91.6994 4.26957 91.0087 5.70581C90.3379 7.11192 91.4191 9.72327 92.9408 10.356ZM70.5962 9.35165C72.4983 10.0648 73.9099 9.432 74.6106 7.55384C75.3214 5.65559 74.6807 4.23944 72.7886 3.53638C70.8866 2.82329 69.475 3.45604 68.7742 5.3342C68.0634 7.23244 68.7041 8.6486 70.5962 9.35165ZM79.8864 4.16913C81.1378 4.86214 82.0688 3.9783 82.8797 3.17481C83.1801 1.8591 82.7896 0.784426 81.7485 0.252113C80.5171 -0.39068 79.3659 0.2722 78.8053 1.377C78.2246 2.52198 78.8853 3.62678 79.8764 4.17918L79.8864 4.16913ZM102.932 4.11892C103.793 4.42022 104.323 4.11892 104.614 3.28529C104.914 2.43158 104.604 1.88923 103.152 1.38704C102.912 1.29665 102.371 1.59796 102.081 2.44163C101.781 3.30538 102.081 3.83769 102.922 4.12896L102.932 4.11892ZM116.266 8.99008C117.097 9.30143 117.678 9.09052 117.998 8.25689C118.309 7.43332 118.108 6.85079 117.247 6.52939C116.417 6.21804 115.846 6.42895 115.526 7.27262C115.215 8.0962 115.415 8.66868 116.266 9.00012V8.99008ZM106.285 15.7093C107.937 16.3019 110.76 14.9962 111.351 13.349C111.942 11.7119 110.62 8.88964 108.968 8.28703C107.327 7.68441 104.493 9.00012 103.903 10.6372C103.312 12.2844 104.634 15.1067 106.275 15.7093H106.285ZM150.564 123.809C149.423 123.317 148.302 123.919 147.801 124.964C147.19 126.23 148.011 127.164 149.123 128.108C150.114 127.927 151.315 127.897 151.795 126.732C152.326 125.466 151.735 124.331 150.554 123.819L150.564 123.809ZM136.449 141.817C135.397 141.436 134.536 141.817 134.166 142.882C133.796 143.946 134.296 144.7 135.498 145.282C136.288 145.192 137.239 145.091 137.53 143.936C137.77 142.972 137.41 142.169 136.459 141.827L136.449 141.817ZM127.559 145.222C126.137 145.162 124.716 145.584 124.295 146.869C123.875 148.135 124.586 149.661 125.887 150.093C127.158 150.515 128.68 149.802 129.111 148.516C129.531 147.251 128.72 146.015 127.569 145.222H127.559ZM141.985 126.772C140.023 126.009 138.11 126.832 137.36 128.771C136.599 130.729 137.43 132.637 139.372 133.401C141.334 134.164 143.246 133.34 143.997 131.402C144.758 129.443 143.927 127.535 141.985 126.772ZM145.328 138.412C144.788 138.212 144.387 138.181 144.147 138.834C143.947 139.377 143.917 139.788 144.568 140.019C145.098 140.22 145.549 140.271 145.739 139.598C145.989 139.065 145.979 138.664 145.328 138.422V138.412ZM6.81615 101.542C5.3145 100.99 4.45355 101.502 3.94299 102.948C3.47247 104.314 3.8629 105.188 5.2244 105.72C6.66598 106.283 7.64706 105.941 8.21769 104.324C8.73826 103.019 8.30779 102.075 6.81615 101.542ZM118.369 149.33C116.907 149.059 115.666 149.32 115.085 150.957C114.474 152.634 115.025 153.839 116.697 154.442C118.279 155.025 119.43 154.482 120.051 152.915C120.711 151.228 120.021 150.103 118.379 149.32L118.369 149.33ZM146.339 121.258C144.848 121.609 143.406 119.912 142.395 120.695C141.504 121.378 141.975 123.186 140.964 124.392C139.512 126.109 137.73 126.912 135.778 126.621C134.897 127.726 133.986 128.811 133.045 129.855C133.235 130.106 133.575 130.317 134.016 130.548C136.118 131.643 136.619 134.003 135.498 136.494C134.627 138.433 132.464 139.326 130.352 138.603C129.471 138.302 128.54 138.081 127.809 137.057C127.379 138.734 127.529 140.23 126.608 141.516C125.066 143.655 122.513 144.358 120.161 143.093C119.69 142.842 119.049 141.807 118.729 143.374C117.788 148.044 113.764 149.47 109.619 146.98C109.379 149.199 108.448 150.887 106.275 151.821C104.073 152.765 102.181 152.393 100.349 150.756C99.6782 152.594 99.5781 154.633 97.5559 155.507C96.4046 156.009 95.3234 156.531 93.9819 156.109C91.8095 155.436 90.5482 154.091 90.2278 152.192C89.5671 152.273 88.9064 152.343 88.2356 152.403C90.4681 154.05 90.5582 155.135 89.4369 157.566C88.626 159.323 86.9842 160.036 85.0821 159.464C81.8986 158.5 81.5182 157.586 82.3291 152.915C82.2691 152.875 82.219 152.815 82.1589 152.805C79.9765 152.624 77.2035 153.398 75.4416 154.673C73.6296 155.989 71.3471 156.089 69.3649 154.603C68.2036 153.729 67.4027 152.504 67.4227 151.088C65.791 150.726 64.1792 150.304 62.5974 149.832C60.2549 151.921 56.9012 151.519 54.6487 148.828C54.038 148.105 53.7377 147.271 53.6676 146.447C52.2361 145.784 50.8145 145.091 49.433 144.328C48.1416 146.046 45.6889 146.267 42.9959 145.021C41.264 144.218 40.1428 141.797 40.8836 139.889C41.0237 139.527 41.0938 139.226 41.1138 138.965C40.5232 138.523 39.9426 138.061 39.3719 137.599C39.2218 137.549 39.0816 137.488 38.9715 137.408C37.3597 136.223 36.3286 135.962 35.5577 138.443C34.9871 140.301 32.4944 140.552 30.1618 139.407C28.3298 138.513 27.7492 136.765 28.56 134.556C29.3609 132.346 30.9026 131.472 32.9148 131.854C32.9749 131.864 33.035 131.884 33.105 131.914C32.5644 131.362 32.0339 130.789 31.5033 130.207C29.6913 131.924 27.4288 132.276 25.4867 131.02C23.064 129.464 22.5034 126.852 24.0851 123.97C24.6658 122.915 24.0351 122.885 23.3743 122.935C19.5501 123.156 16.7471 117.291 19.8104 114.177C17.4478 113.755 15.4456 112.861 14.5246 110.541C13.7137 108.523 14.1642 106.664 15.4256 104.786C13.5836 103.762 10.9807 103.712 10.36 100.96C9.79943 98.4689 10.7004 96.6209 12.6125 94.813C9.9596 94.8934 7.62704 94.4916 6.63595 91.7698C5.98524 90.0021 6.52583 88.4152 7.69712 87.1095C9.1387 85.4825 10.9707 85.3117 12.8828 86.2257C12.9829 86.1453 13.073 86.0951 13.1431 86.0449C13.083 84.8296 13.053 83.6143 13.053 82.389C13.053 82.2785 13.053 82.1781 13.053 82.0676C12.7226 81.6056 12.2822 81.1436 11.6515 80.6816C9.18876 78.8336 9.59921 75.941 12.0018 72.2952C9.70933 72.2851 7.93738 71.2607 7.3167 69.1214C6.24552 65.4454 9.20878 62.583 12.9429 63.5773C14.0141 63.8685 14.4045 63.979 14.4746 62.5729C14.5346 61.3978 14.9951 60.1323 16.0663 59.2886C11.7516 56.7677 11.0608 55.4319 12.4023 52.3183C13.4334 49.9179 15.4757 49.4057 19.2598 50.6411C19.8605 49.7874 19.2498 48.6826 19.7404 47.859C20.2209 47.0655 20.8516 46.3625 21.4222 45.6092C16.9973 43.0581 16.4067 42.0236 17.6581 39.111C18.4389 37.3232 20.5613 36.5097 22.5735 37.2428C25.0562 38.1468 25.5968 39.4123 24.7659 43.1987C25.4066 42.2245 26.0773 41.2603 26.7681 40.3162C25.1163 38.7594 24.6357 36.4795 25.6168 34.6516C27.0784 31.9298 29.6412 30.835 32.3642 32.0001C33.055 32.2913 33.3853 32.6127 33.5756 31.7691C34.0361 29.7001 35.2374 28.1534 36.7891 26.8075C37.8603 26.9381 38.9114 26.6468 40.0026 26.6769C41.264 25.6927 42.5454 24.7385 43.8669 23.8446C43.9369 23.3525 43.4764 23.0512 42.5855 22.7197C40.4731 21.9464 39.7624 19.797 40.6734 17.497C41.4242 15.5988 43.4864 14.6346 45.4286 15.2874C47.7812 16.0708 48.8624 17.949 48.2817 20.1285C48.2016 20.4398 47.9914 20.942 47.9213 21.3136C49.3529 20.48 50.7945 19.6866 52.2861 18.9634C50.7745 18.3206 49.6632 17.4368 49.3529 15.5586C48.9925 13.4093 49.9135 11.973 51.6154 11.1394C53.3273 10.2958 55.0792 10.4765 56.5108 12.0634C57.622 13.2888 57.9624 15.0163 57.3317 16.7639C58.9534 16.1311 60.6053 15.5486 62.2871 15.0364C62.177 14.8355 61.6764 14.6346 61.3961 14.494C58.9835 13.2486 58.0424 11.27 58.8734 9.17087C59.5941 7.34292 61.8666 6.24817 63.7387 6.8307C65.9211 7.50362 66.9823 9.5927 66.3115 12.1137C66.0412 13.1281 66.1614 13.2687 67.2826 13.6202C67.3527 13.6403 67.4127 13.6503 67.4828 13.6704C68.6141 13.4193 69.7553 13.1984 70.8966 13.0075C71.1869 12.7263 71.4772 12.3848 71.7775 11.963C73.6496 9.32152 77.0133 9.37174 80.1467 11.7521C80.4771 10.4163 80.4671 8.94991 81.6284 8.04598C82.7095 7.21236 83.8408 6.53943 85.3524 6.60974C87.8752 6.75035 90.0476 8.74903 89.7473 11.4106C89.6972 11.8425 89.7172 12.194 89.7673 12.4953C91.2589 12.6661 92.7205 12.887 94.1822 13.1481C95.894 10.9787 98.4568 10.5971 100.099 11.0992C102.021 11.6918 103.392 13.3088 103.693 15.5687C105.254 16.0909 106.796 16.6634 108.308 17.2962C109.909 15.7695 112.022 15.3879 113.884 16.1412C115.976 16.9848 117.428 19.2949 117.177 21.7857C118.419 22.5289 119.64 23.3023 120.831 24.1258C121.072 23.9652 121.292 23.7241 121.512 23.3424C122.703 21.2935 124.776 20.8918 126.798 21.4141C128.54 21.866 129.571 23.4027 129.971 25.2206C130.312 26.7272 130.002 28.083 128.55 29.4389C130.562 29.5293 132.204 29.7001 133.435 31.066C134.997 32.7835 135.337 34.7621 135.087 36.9516C135.077 37.052 135.077 37.1324 135.077 37.2228C135.478 37.7049 135.868 38.207 136.248 38.6992C136.949 38.9201 137.79 39.0005 138.231 39.5629C138.741 40.2158 139.031 38.89 139.292 38.3778C140.303 36.4293 142.515 35.5254 144.467 36.2987C146.289 37.0219 147.391 39.3118 146.82 41.1799C146.169 43.2791 144.037 44.3839 141.744 43.8315C141.194 43.7009 140.143 43.0079 140.223 44.0725C140.223 44.1529 140.223 44.2433 140.213 44.3236C140.964 45.4987 141.674 46.704 142.355 47.9293C142.966 47.8188 143.466 47.2664 144.037 46.4127C145.188 44.6952 147.1 44.4743 148.932 45.0869C150.784 45.7096 152.116 48.4415 151.505 50.3498C150.904 52.228 149.433 53.1821 147.441 53.5135C146.68 53.6441 145.669 52.8105 145.028 53.3328C145.649 54.7288 146.239 56.145 146.77 57.5812C146.94 57.6616 147.08 57.8122 147.23 57.9327C149.113 54.0459 150.294 53.4332 153.327 54.6987C155.429 55.5725 156.14 57.2598 155.349 59.5297C154.338 62.4323 153.007 62.9244 149.193 61.8096C148.632 64.3707 149.603 66.5703 152.106 68.3982C152.106 68.3982 152.116 68.3982 152.126 68.4083C152.306 68.8 152.496 69.2017 152.686 69.5834C152.686 69.5834 152.686 69.6035 152.686 69.6135C152.266 71.4414 153.397 73.5406 151.645 75.1576C151.225 75.5493 151.866 75.5292 152.166 75.6397C155.149 76.7646 156.591 79.155 156.13 82.1078C155.84 83.9759 153.728 85.4624 151.105 85.7737C151.035 87.1798 150.925 88.5759 150.774 89.9619C150.774 89.9619 150.784 89.972 150.794 89.982C152.807 85.6532 153.788 85.0506 156.841 86.2458C159.113 87.1397 159.854 88.8169 159.023 91.1772C157.982 94.1501 156.811 94.5217 152.356 93.2562C152.066 94.8431 152.396 96.5907 150.975 97.8663C150.564 98.2379 150.734 98.5894 151.515 98.8003C154.498 99.6139 155.5 102.296 154.889 104.887C154.378 107.066 150.935 108.543 148.582 107.779C148.332 107.699 148.141 107.438 147.921 107.247C147.311 108.723 146.92 110.26 146.239 111.716C145.859 112.53 147.04 112.43 147.511 112.63C149.383 113.464 150.124 115.001 150.084 116.859L150.104 116.839C150.054 118.998 148.312 120.736 146.349 121.198L146.339 121.258ZM14.0641 94.4816C14.0241 94.2405 13.974 94.0095 13.944 93.7685C13.7338 94.0095 13.5235 94.2807 13.3533 94.6423C13.6136 94.6121 13.8539 94.5418 14.0741 94.4816H14.0641ZM160.305 96.6912C159.043 96.2693 157.512 96.9724 157.091 98.268C156.671 99.5436 157.392 101.06 158.683 101.492C159.954 101.914 161.186 101.11 161.977 99.9654C162.027 98.5392 161.606 97.123 160.315 96.6912H160.305ZM152.686 69.6436C153.387 70.638 154.538 70.8288 155.57 71.0899C157.091 71.4917 158.733 70.1559 159.314 68.1974C159.814 66.4899 159.184 65.134 157.672 64.3707C154.488 62.7637 152.156 64.5113 152.106 68.4083C152.106 68.4284 152.116 68.4384 152.126 68.4585C152.656 68.6895 152.847 69.0912 152.686 69.6436ZM164.96 84.1467C164.029 83.8052 163.008 84.2672 162.727 85.2515C162.487 86.0851 162.948 87.0593 163.839 87.3204C164.7 87.5816 165.46 87.0593 165.981 86.306C166.081 85.3619 165.791 84.458 164.96 84.1567V84.1467ZM155.469 109.929C153.878 109.396 152.726 109.959 152.156 111.526C151.535 113.233 152.216 114.348 153.998 115.111C155.359 115.332 156.601 115.041 157.151 113.394C157.712 111.706 157.171 110.501 155.469 109.929ZM109.349 153.709C107.847 153.157 106.536 153.769 105.975 155.246C105.404 156.742 106.035 158.058 107.517 158.63C109.028 159.213 110.17 158.48 111.001 157.063C111.241 155.587 110.88 154.271 109.359 153.709H109.349ZM36.729 142.289C35.6979 141.988 34.5867 142.55 34.0261 144.248C33.4454 145.995 34.0861 147.04 35.778 147.612C37.5199 148.205 38.571 147.552 39.1417 145.885C39.7323 144.137 39.0616 143.093 36.729 142.289ZM23.6647 138.935C22.8337 138.623 22.2631 138.834 21.9428 139.678C21.6324 140.502 21.8427 141.074 22.6936 141.405C23.5245 141.727 24.1051 141.496 24.3154 140.933C24.7258 139.849 24.5156 139.256 23.6647 138.935ZM39.6723 153.799C39.452 154.362 39.8525 155.055 40.3029 155.316C40.9437 155.687 41.6945 155.225 41.9748 154.703C42.3152 154.091 41.7545 153.498 41.3241 152.976C40.6333 153.016 39.9225 153.167 39.6622 153.799H39.6723ZM53.3473 151.128C54.0781 149.069 53.2872 147.391 51.235 146.638C49.0526 145.825 47.3807 146.598 46.5999 148.798C45.8691 150.857 46.6599 152.534 48.7122 153.287C50.8946 154.101 52.5664 153.327 53.3473 151.128ZM19.6603 128.881C18.4489 128.811 17.3377 129.092 16.8872 130.207C16.3967 131.462 16.9573 132.637 18.1987 133.079C19.3299 133.491 20.4712 132.939 20.9216 131.844C21.4522 130.578 20.6914 129.624 19.6603 128.871V128.881ZM12.8328 113.735C13.4334 112.068 12.8828 110.863 11.211 110.25C9.62924 109.678 8.46796 110.22 7.8673 111.777C7.20658 113.474 7.89734 114.589 9.55916 115.372C11.0007 115.644 12.2521 115.372 12.8328 113.735ZM15.4657 119.41C13.954 118.918 12.6526 119.52 12.142 121.057C11.6314 122.584 12.3723 123.729 13.7838 124.462C15.3255 124.703 16.6269 124.291 17.1275 122.744C17.608 121.238 17.0073 119.912 15.4657 119.41ZM54.6387 157.465C53.8078 157.294 52.8167 157.706 52.6165 158.63C52.4363 159.474 52.9068 160.277 53.7477 160.729C54.6587 160.739 55.5897 160.478 55.84 159.625C56.1003 158.711 55.6698 157.666 54.6387 157.455V157.465ZM67.9734 162.788C67.3927 162.718 66.5318 162.959 66.4417 163.722C66.3816 164.235 66.6419 165.008 67.2425 165.159C67.8933 165.329 68.4839 164.928 68.9945 164.285C68.6341 163.793 68.7342 162.879 67.9633 162.788H67.9734ZM77.6039 157.164C76.2024 156.702 74.961 156.953 74.3003 158.721C73.6796 160.378 74.06 161.553 75.7719 162.216C77.4237 162.859 78.595 162.467 79.2658 160.77C79.9165 159.112 79.476 157.947 77.6039 157.174V157.164ZM90.6182 163.371C89.7573 163.08 89.2267 163.371 88.9364 164.205C88.6361 165.058 88.9364 165.601 89.7773 165.892C90.6383 166.193 91.1688 165.892 91.6093 164.646C91.7395 164.225 91.4692 163.662 90.6282 163.371H90.6182ZM99.9685 158.329C98.8473 157.977 97.696 158.49 97.2755 159.635C96.815 160.89 97.5358 161.864 98.6571 162.587C99.7983 162.547 100.96 162.336 101.35 161.161C101.77 159.926 101.25 158.731 99.9585 158.329H99.9685ZM64.6797 151.539C62.4773 150.716 60.8155 151.479 60.0246 153.659C59.2738 155.728 60.0547 157.405 62.0969 158.178C64.2993 159.002 65.9611 158.239 66.752 156.059C67.5028 154 66.722 152.313 64.6797 151.539Z" fill="#7E65DF"/>
</svg>
