<svg width="166" height="166" viewBox="0 0 166 166" fill="none" xmlns="http://www.w3.org/2000/svg">
<path opacity="0.9" d="M36.73 26.8175H36.74C36.74 26.8175 36.73 26.8175 36.72 26.8175H36.73ZM36.7801 26.7874C37.2105 26.4258 37.7311 26.1245 38.0314 25.6726C38.8623 24.4472 39.1527 23.1014 38.3818 21.7355C37.5909 20.3394 36.3796 19.6866 34.7278 19.8673C33.1461 20.0481 32.215 20.942 31.7645 22.3983C30.8736 25.2909 33.2061 27.3197 36.7801 26.7874ZM36.8101 26.7874L36.73 26.8276C36.73 26.8276 36.76 26.8276 36.77 26.8276C36.7901 26.8175 36.8001 26.7975 36.8101 26.7874ZM48.6431 6.901C49.2538 7.29271 49.8444 6.68004 50.395 6.30843C50.415 5.60537 50.2048 4.92241 49.6142 4.6211C49.0535 4.34992 48.3728 4.7818 48.0825 5.20363C47.652 5.83638 48.1626 6.58965 48.6431 6.901ZM25.0271 30.2123C26.5588 30.5437 27.8903 30.383 28.541 28.6254C29.1216 27.0586 28.6711 25.8634 27.1294 25.2106C25.4977 24.5075 24.2563 24.9996 23.5755 26.6669C22.9248 28.2437 23.5755 29.3285 25.0271 30.2123ZM39.5231 11.1495C40.1337 11.5211 40.7244 10.9285 41.265 10.5368C41.265 9.84379 41.0748 9.14074 40.4641 8.85951C39.9035 8.60842 39.2027 9.03026 38.9324 9.46213C38.532 10.0949 39.0125 10.8482 39.5231 11.1595V11.1495ZM36.8101 26.7774C36.8101 26.7774 36.7901 26.7774 36.7801 26.7774C36.77 26.7774 36.76 26.7975 36.74 26.8075L36.8101 26.7774ZM3.32329 79.8882C2.59248 81.8467 3.45343 83.7449 5.40557 84.4781C7.36773 85.2113 9.25981 84.3576 9.99061 82.4091C10.7214 80.4506 9.86047 78.5523 7.90832 77.8192C5.94617 77.0759 4.05409 77.9397 3.32329 79.8882ZM6.27653 61.0864C7.77818 61.6991 9.07961 61.0664 9.68027 59.6C10.2909 58.0934 9.55013 56.9485 8.21867 56.1349C6.65695 55.7734 5.36553 56.1851 4.77488 57.6817C4.18423 59.1782 4.80491 60.4939 6.26652 61.0864H6.27653ZM58.0734 2.4115C58.7342 2.65254 58.9644 2.33115 59.1646 1.77875C59.4049 1.12591 59.0946 0.854732 58.5239 0.704077C57.8832 0.412811 57.643 0.784426 57.4428 1.32678C57.2025 1.97962 57.5329 2.22067 58.0734 2.42154V2.4115ZM1.60139 73.9724C2.67257 74.3943 3.92395 73.862 4.3344 72.7873C4.74485 71.7227 4.13418 70.6781 3.14309 69.9851C1.99182 69.8546 0.820536 70.1559 0.400074 71.2406C-0.0103768 72.3152 0.510195 73.5607 1.60139 73.9825V73.9724ZM11.3721 47.3769C12.7436 47.9092 13.6747 47.4773 14.1952 45.9909C14.6658 44.635 14.3454 43.7511 12.9639 43.2088C11.5523 42.6664 10.5713 42.9175 10.0006 44.424C9.45002 45.8804 9.81041 46.8345 11.3721 47.3869V47.3769ZM16.5779 33.1752C17.4688 33.4564 17.9594 33.0647 18.2197 32.2512C18.5 31.3673 18.1095 30.8752 16.8782 30.4835C16.4277 30.383 15.9071 30.7145 15.6468 31.5381C15.3765 32.4219 15.767 32.914 16.5779 33.1752ZM157.543 75.7301C156.992 77.317 157.543 78.462 159.114 79.0646C160.816 79.7074 161.938 79.0344 162.738 77.2165C162.849 75.951 162.698 74.6655 161.007 74.093C159.325 73.5205 158.123 74.0528 157.533 75.7301H157.543ZM135.799 29.7503C134.978 31.9498 135.478 33.0446 137.661 33.838C139.833 34.6315 140.884 34.1092 141.675 31.8494C142.386 29.8206 141.835 28.7359 139.743 27.9726C137.691 27.2193 136.55 27.7416 135.799 29.7503ZM133.656 23.8145C134.918 24.2765 135.889 23.5634 136.61 22.4486C136.56 21.3036 136.349 20.1486 135.168 19.7468C133.927 19.325 132.735 19.8372 132.335 21.1128C131.985 22.2376 132.505 23.3927 133.646 23.8045L133.656 23.8145ZM151.867 36.6603C152.527 36.9014 152.757 36.58 152.958 36.0276C153.198 35.3747 152.888 35.1035 152.317 34.9529C151.676 34.6616 151.436 35.0332 151.236 35.5756C150.996 36.2284 151.326 36.4695 151.877 36.6704L151.867 36.6603ZM156.442 46.3524C156.902 46.493 157.403 46.1214 157.663 45.2878C157.943 44.404 157.553 43.9118 156.732 43.6507C155.841 43.3695 155.35 43.7612 155.09 44.5747C154.81 45.4585 155.21 45.9507 156.442 46.3524ZM2.35222 92.8545C1.38115 92.503 0.580272 92.9047 0.189843 93.8086C-0.260652 94.8331 0.109755 95.7169 1.14089 96.1488C2.19204 96.5907 2.95288 96.0885 3.49347 95.1545C3.69369 94.0798 3.4234 93.2361 2.35222 92.8545ZM160.426 55.2812C160.946 55.3114 161.717 55.0904 161.837 54.4677C161.958 53.8349 161.597 53.2122 161.007 52.8105C160.386 53.0214 159.515 53.0616 159.445 53.7948C159.405 54.3472 159.615 55.2511 160.416 55.2913L160.426 55.2812ZM119.701 20.1184C121.133 20.7612 123.746 19.6263 124.326 18.1198C124.867 16.7337 123.786 14.273 122.364 13.6403C120.933 12.9975 118.33 14.1324 117.749 15.639C117.208 17.025 118.28 19.4857 119.701 20.1184ZM92.9418 10.356C94.3133 10.9285 96.7559 9.9141 97.4467 8.47785C98.1174 7.07175 97.0263 4.4604 95.5146 3.82765C94.1431 3.25516 91.7004 4.26957 91.0096 5.70581C90.3389 7.11192 91.4201 9.72327 92.9418 10.356ZM70.5972 9.35165C72.4993 10.0648 73.9108 9.432 74.6116 7.55384C75.3224 5.65559 74.6817 4.23944 72.7896 3.53638C70.8875 2.82329 69.476 3.45604 68.7752 5.3342C68.0644 7.23244 68.7051 8.6486 70.5972 9.35165ZM79.8874 4.16913C81.1388 4.86214 82.0698 3.9783 82.8807 3.17481C83.181 1.8591 82.7906 0.784426 81.7495 0.252113C80.5181 -0.39068 79.3668 0.2722 78.8062 1.377C78.2256 2.52198 78.8863 3.62678 79.8774 4.17918L79.8874 4.16913ZM102.933 4.11892C103.794 4.42022 104.324 4.11892 104.615 3.28529C104.915 2.43158 104.605 1.88923 103.153 1.38704C102.913 1.29665 102.372 1.59796 102.082 2.44163C101.781 3.30538 102.082 3.83769 102.923 4.12896L102.933 4.11892ZM116.267 8.99008C117.098 9.30143 117.679 9.09052 117.999 8.25689C118.31 7.43332 118.109 6.85079 117.248 6.52939C116.418 6.21804 115.847 6.42895 115.527 7.27262C115.216 8.0962 115.416 8.66868 116.267 9.00012V8.99008ZM106.286 15.7093C107.938 16.3019 110.761 14.9962 111.352 13.349C111.943 11.7119 110.621 8.88964 108.969 8.28703C107.328 7.68441 104.494 9.00012 103.904 10.6372C103.313 12.2844 104.635 15.1067 106.276 15.7093H106.286ZM150.565 123.809C149.424 123.317 148.303 123.919 147.802 124.964C147.191 126.23 148.012 127.164 149.124 128.108C150.115 127.927 151.316 127.897 151.796 126.732C152.327 125.466 151.736 124.331 150.555 123.819L150.565 123.809ZM136.45 141.817C135.398 141.436 134.537 141.817 134.167 142.882C133.797 143.946 134.297 144.7 135.499 145.282C136.289 145.192 137.24 145.091 137.531 143.936C137.771 142.972 137.411 142.169 136.46 141.827L136.45 141.817ZM127.56 145.222C126.138 145.162 124.717 145.584 124.296 146.869C123.876 148.135 124.587 149.661 125.888 150.093C127.159 150.515 128.681 149.802 129.112 148.516C129.532 147.251 128.721 146.015 127.57 145.222H127.56ZM141.986 126.772C140.023 126.009 138.111 126.832 137.361 128.771C136.6 130.729 137.431 132.637 139.373 133.401C141.335 134.164 143.247 133.34 143.998 131.402C144.759 129.443 143.928 127.535 141.986 126.772ZM145.329 138.412C144.789 138.212 144.388 138.181 144.148 138.834C143.948 139.377 143.918 139.788 144.568 140.019C145.099 140.22 145.55 140.271 145.74 139.598C145.99 139.065 145.98 138.664 145.329 138.422V138.412ZM6.81713 101.542C5.31548 100.99 4.45453 101.502 3.94397 102.948C3.47345 104.314 3.86388 105.188 5.22538 105.72C6.66696 106.283 7.64804 105.941 8.21867 104.324C8.73924 103.019 8.30876 102.075 6.81713 101.542ZM118.37 149.33C116.908 149.059 115.667 149.32 115.086 150.957C114.475 152.634 115.026 153.839 116.698 154.442C118.28 155.025 119.431 154.482 120.052 152.915C120.712 151.228 120.022 150.103 118.38 149.32L118.37 149.33ZM146.34 121.258C144.849 121.609 143.407 119.912 142.396 120.695C141.505 121.378 141.976 123.186 140.965 124.392C139.513 126.109 137.731 126.912 135.779 126.621C134.898 127.726 133.987 128.811 133.046 129.855C133.236 130.106 133.576 130.317 134.017 130.548C136.119 131.643 136.62 134.003 135.499 136.494C134.628 138.433 132.465 139.326 130.353 138.603C129.472 138.302 128.541 138.081 127.81 137.057C127.38 138.734 127.53 140.23 126.609 141.516C125.067 143.655 122.514 144.358 120.162 143.093C119.691 142.842 119.05 141.807 118.73 143.374C117.789 148.044 113.765 149.47 109.62 146.98C109.38 149.199 108.449 150.887 106.276 151.821C104.074 152.765 102.182 152.393 100.35 150.756C99.6792 152.594 99.5791 154.633 97.5568 155.507C96.4056 156.009 95.3244 156.531 93.9829 156.109C91.8105 155.436 90.5491 154.091 90.2288 152.192C89.5681 152.273 88.9073 152.343 88.2366 152.403C90.469 154.05 90.5591 155.135 89.4379 157.566C88.627 159.323 86.9852 160.036 85.0831 159.464C81.8996 158.5 81.5192 157.586 82.3301 152.915C82.27 152.875 82.22 152.815 82.1599 152.805C79.9775 152.624 77.2045 153.398 75.4425 154.673C73.6305 155.989 71.348 156.089 69.3659 154.603C68.2046 153.729 67.4037 152.504 67.4237 151.088C65.7919 150.726 64.1802 150.304 62.5984 149.832C60.2558 151.921 56.9022 151.519 54.6497 148.828C54.039 148.105 53.7387 147.271 53.6686 146.447C52.237 145.784 50.8155 145.091 49.434 144.328C48.1425 146.046 45.6898 146.267 42.9969 145.021C41.265 144.218 40.1437 141.797 40.8846 139.889C41.0247 139.527 41.0948 139.226 41.1148 138.965C40.5242 138.523 39.9435 138.061 39.3729 137.599C39.2227 137.549 39.0826 137.488 38.9725 137.408C37.3607 136.223 36.3296 135.962 35.5587 138.443C34.9881 140.301 32.4953 140.552 30.1628 139.407C28.3308 138.513 27.7501 136.765 28.561 134.556C29.3619 132.346 30.9036 131.472 32.9158 131.854C32.9759 131.864 33.0359 131.884 33.106 131.914C32.5654 131.362 32.0348 130.789 31.5043 130.207C29.6923 131.924 27.4298 132.276 25.4876 131.02C23.065 129.464 22.5044 126.852 24.0861 123.97C24.6667 122.915 24.036 122.885 23.3753 122.935C19.5511 123.156 16.748 117.291 19.8114 114.177C17.4488 113.755 15.4466 112.861 14.5256 110.541C13.7147 108.523 14.1652 106.664 15.4266 104.786C13.5846 103.762 10.9817 103.712 10.361 100.96C9.8004 98.4689 10.7014 96.6209 12.6135 94.813C9.96058 94.8934 7.62802 94.4916 6.63693 91.7698C5.98621 90.0021 6.52681 88.4152 7.69809 87.1095C9.13968 85.4825 10.9717 85.3117 12.8838 86.2257C12.9839 86.1453 13.074 86.0951 13.1441 86.0449C13.084 84.8296 13.054 83.6143 13.054 82.389C13.054 82.2785 13.054 82.1781 13.054 82.0676C12.7236 81.6056 12.2831 81.1436 11.6524 80.6816C9.18973 78.8336 9.60018 75.941 12.0028 72.2952C9.7103 72.2851 7.93836 71.2607 7.31768 69.1214C6.2465 65.4454 9.20976 62.583 12.9439 63.5773C14.015 63.8685 14.4055 63.979 14.4755 62.5729C14.5356 61.3978 14.9961 60.1323 16.0673 59.2886C11.7525 56.7677 11.0618 55.4319 12.4033 52.3183C13.4344 49.9179 15.4766 49.4057 19.2608 50.6411C19.8615 49.7874 19.2508 48.6826 19.7413 47.859C20.2219 47.0655 20.8525 46.3625 21.4232 45.6092C16.9983 43.0581 16.4077 42.0236 17.659 39.111C18.4399 37.3232 20.5622 36.5097 22.5744 37.2428C25.0572 38.1468 25.5978 39.4123 24.7668 43.1987C25.4076 42.2245 26.0783 41.2603 26.769 40.3162C25.1172 38.7594 24.6367 36.4795 25.6178 34.6516C27.0794 31.9298 29.6422 30.835 32.3652 32.0001C33.056 32.2913 33.3863 32.6127 33.5765 31.7691C34.037 29.7001 35.2384 28.1534 36.7901 26.8075C37.8612 26.9381 38.9124 26.6468 40.0036 26.6769C41.265 25.6927 42.5464 24.7385 43.8678 23.8446C43.9379 23.3525 43.4774 23.0512 42.5864 22.7197C40.4741 21.9464 39.7633 19.797 40.6743 17.497C41.4252 15.5988 43.4874 14.6346 45.4296 15.2874C47.7821 16.0708 48.8633 17.949 48.2827 20.1285C48.2026 20.4398 47.9924 20.942 47.9223 21.3136C49.3539 20.48 50.7955 19.6866 52.2871 18.9634C50.7754 18.3206 49.6642 17.4368 49.3539 15.5586C48.9935 13.4093 49.9145 11.973 51.6164 11.1394C53.3282 10.2958 55.0802 10.4765 56.5117 12.0634C57.623 13.2888 57.9633 15.0163 57.3326 16.7639C58.9544 16.1311 60.6062 15.5486 62.2881 15.0364C62.178 14.8355 61.6774 14.6346 61.3971 14.494C58.9845 13.2486 58.0434 11.27 58.8743 9.17087C59.5951 7.34292 61.8676 6.24817 63.7397 6.8307C65.9221 7.50362 66.9832 9.5927 66.3125 12.1137C66.0422 13.1281 66.1623 13.2687 67.2836 13.6202C67.3536 13.6403 67.4137 13.6503 67.4838 13.6704C68.615 13.4193 69.7563 13.1984 70.8975 13.0075C71.1879 12.7263 71.4782 12.3848 71.7785 11.963C73.6506 9.32152 77.0143 9.37174 80.1477 11.7521C80.4781 10.4163 80.4681 8.94991 81.6293 8.04598C82.7105 7.21236 83.8418 6.53943 85.3534 6.60974C87.8762 6.75035 90.0486 8.74903 89.7483 11.4106C89.6982 11.8425 89.7182 12.194 89.7683 12.4953C91.2599 12.6661 92.7215 12.887 94.1831 13.1481C95.895 10.9787 98.4578 10.5971 100.1 11.0992C102.022 11.6918 103.393 13.3088 103.694 15.5687C105.255 16.0909 106.797 16.6634 108.309 17.2962C109.91 15.7695 112.023 15.3879 113.885 16.1412C115.977 16.9848 117.429 19.2949 117.178 21.7857C118.42 22.5289 119.641 23.3023 120.832 24.1258C121.073 23.9652 121.293 23.7241 121.513 23.3424C122.704 21.2935 124.777 20.8918 126.799 21.4141C128.541 21.866 129.572 23.4027 129.972 25.2206C130.313 26.7272 130.002 28.083 128.551 29.4389C130.563 29.5293 132.205 29.7001 133.436 31.066C134.998 32.7835 135.338 34.7621 135.088 36.9516C135.078 37.052 135.078 37.1324 135.078 37.2228C135.478 37.7049 135.869 38.207 136.249 38.6992C136.95 38.9201 137.791 39.0005 138.232 39.5629C138.742 40.2158 139.032 38.89 139.293 38.3778C140.304 36.4293 142.516 35.5254 144.468 36.2987C146.29 37.0219 147.392 39.3118 146.821 41.1799C146.17 43.2791 144.038 44.3839 141.745 43.8315C141.195 43.7009 140.144 43.0079 140.224 44.0725C140.224 44.1529 140.224 44.2433 140.214 44.3236C140.965 45.4987 141.675 46.704 142.356 47.9293C142.967 47.8188 143.467 47.2664 144.038 46.4127C145.189 44.6952 147.101 44.4743 148.933 45.0869C150.785 45.7096 152.117 48.4415 151.506 50.3498C150.905 52.228 149.434 53.1821 147.442 53.5135C146.681 53.6441 145.67 52.8105 145.029 53.3328C145.65 54.7288 146.24 56.145 146.771 57.5812C146.941 57.6616 147.081 57.8122 147.231 57.9327C149.113 54.0459 150.295 53.4332 153.328 54.6987C155.43 55.5725 156.141 57.2598 155.35 59.5297C154.339 62.4323 153.008 62.9244 149.194 61.8096C148.633 64.3707 149.604 66.5703 152.107 68.3982C152.107 68.3982 152.117 68.3982 152.127 68.4083C152.307 68.8 152.497 69.2017 152.687 69.5834C152.687 69.5834 152.687 69.6035 152.687 69.6135C152.267 71.4414 153.398 73.5406 151.646 75.1576C151.226 75.5493 151.867 75.5292 152.167 75.6397C155.15 76.7646 156.592 79.155 156.131 82.1078C155.841 83.9759 153.729 85.4624 151.106 85.7737C151.036 87.1798 150.925 88.5759 150.775 89.9619C150.775 89.9619 150.785 89.972 150.795 89.982C152.808 85.6532 153.789 85.0506 156.842 86.2458C159.114 87.1397 159.855 88.8169 159.024 91.1772C157.983 94.1501 156.812 94.5217 152.357 93.2562C152.067 94.8431 152.397 96.5907 150.976 97.8663C150.565 98.2379 150.735 98.5894 151.516 98.8003C154.499 99.6139 155.501 102.296 154.89 104.887C154.379 107.066 150.935 108.543 148.583 107.779C148.333 107.699 148.142 107.438 147.922 107.247C147.312 108.723 146.921 110.26 146.24 111.716C145.86 112.53 147.041 112.43 147.512 112.63C149.384 113.464 150.125 115.001 150.085 116.859L150.105 116.839C150.055 118.998 148.313 120.736 146.35 121.198L146.34 121.258ZM14.0651 94.4816C14.025 94.2405 13.975 94.0095 13.945 93.7685C13.7347 94.0095 13.5245 94.2807 13.3543 94.6423C13.6146 94.6121 13.8549 94.5418 14.0751 94.4816H14.0651ZM160.306 96.6912C159.044 96.2693 157.513 96.9724 157.092 98.268C156.672 99.5436 157.393 101.06 158.684 101.492C159.955 101.914 161.187 101.11 161.978 99.9654C162.028 98.5392 161.607 97.123 160.316 96.6912H160.306ZM152.687 69.6436C153.388 70.638 154.539 70.8288 155.571 71.0899C157.092 71.4917 158.734 70.1559 159.315 68.1974C159.815 66.4899 159.185 65.134 157.673 64.3707C154.489 62.7637 152.157 64.5113 152.107 68.4083C152.107 68.4284 152.117 68.4384 152.127 68.4585C152.657 68.6895 152.848 69.0912 152.687 69.6436ZM164.961 84.1467C164.03 83.8052 163.009 84.2672 162.728 85.2515C162.488 86.0851 162.949 87.0593 163.84 87.3204C164.701 87.5816 165.461 87.0593 165.982 86.306C166.082 85.3619 165.792 84.458 164.961 84.1567V84.1467ZM155.47 109.929C153.879 109.396 152.727 109.959 152.157 111.526C151.536 113.233 152.217 114.348 153.999 115.111C155.36 115.332 156.602 115.041 157.152 113.394C157.713 111.706 157.172 110.501 155.47 109.929ZM109.35 153.709C107.848 153.157 106.537 153.769 105.976 155.246C105.405 156.742 106.036 158.058 107.518 158.63C109.029 159.213 110.171 158.48 111.002 157.063C111.242 155.587 110.881 154.271 109.36 153.709H109.35ZM36.73 142.289C35.6989 141.988 34.5876 142.55 34.027 144.248C33.4464 145.995 34.0871 147.04 35.779 147.612C37.5209 148.205 38.572 147.552 39.1426 145.885C39.7333 144.137 39.0626 143.093 36.73 142.289ZM23.6656 138.935C22.8347 138.623 22.2641 138.834 21.9437 139.678C21.6334 140.502 21.8436 141.074 22.6946 141.405C23.5255 141.727 24.1061 141.496 24.3164 140.933C24.7268 139.849 24.5166 139.256 23.6656 138.935ZM39.6732 153.799C39.453 154.362 39.8534 155.055 40.3039 155.316C40.9446 155.687 41.6955 155.225 41.9758 154.703C42.3161 154.091 41.7555 153.498 41.325 152.976C40.6343 153.016 39.9235 153.167 39.6632 153.799H39.6732ZM53.3483 151.128C54.0791 149.069 53.2882 147.391 51.2359 146.638C49.0535 145.825 47.3817 146.598 46.6008 148.798C45.87 150.857 46.6609 152.534 48.7132 153.287C50.8956 154.101 52.5674 153.327 53.3483 151.128ZM19.6612 128.881C18.4499 128.811 17.3387 129.092 16.8882 130.207C16.3977 131.462 16.9583 132.637 18.1996 133.079C19.3309 133.491 20.4721 132.939 20.9226 131.844C21.4532 130.578 20.6924 129.624 19.6612 128.871V128.881ZM12.8337 113.735C13.4344 112.068 12.8838 110.863 11.212 110.25C9.63022 109.678 8.46894 110.22 7.86828 111.777C7.20755 113.474 7.89831 114.589 9.56014 115.372C11.0017 115.644 12.2531 115.372 12.8337 113.735ZM15.4666 119.41C13.955 118.918 12.6535 119.52 12.143 121.057C11.6324 122.584 12.3732 123.729 13.7848 124.462C15.3265 124.703 16.6279 124.291 17.1285 122.744C17.609 121.238 17.0083 119.912 15.4666 119.41ZM54.6397 157.465C53.8088 157.294 52.8177 157.706 52.6175 158.63C52.4373 159.474 52.9078 160.277 53.7487 160.729C54.6597 160.739 55.5907 160.478 55.841 159.625C56.1013 158.711 55.6708 157.666 54.6397 157.455V157.465ZM67.9743 162.788C67.3937 162.718 66.5327 162.959 66.4426 163.722C66.3826 164.235 66.6429 165.008 67.2435 165.159C67.8942 165.329 68.4849 164.928 68.9954 164.285C68.6351 163.793 68.7352 162.879 67.9643 162.788H67.9743ZM77.6049 157.164C76.2034 156.702 74.962 156.953 74.3013 158.721C73.6806 160.378 74.061 161.553 75.7729 162.216C77.4247 162.859 78.596 162.467 79.2667 160.77C79.9175 159.112 79.477 157.947 77.6049 157.174V157.164ZM90.6192 163.371C89.7583 163.08 89.2277 163.371 88.9374 164.205C88.637 165.058 88.9374 165.601 89.7783 165.892C90.6392 166.193 91.1698 165.892 91.6103 164.646C91.7404 164.225 91.4701 163.662 90.6292 163.371H90.6192ZM99.9695 158.329C98.8483 157.977 97.697 158.49 97.2765 159.635C96.816 160.89 97.5368 161.864 98.658 162.587C99.7993 162.547 100.961 162.336 101.351 161.161C101.771 159.926 101.251 158.731 99.9595 158.329H99.9695ZM64.6807 151.539C62.4783 150.716 60.8165 151.479 60.0256 153.659C59.2748 155.728 60.0556 157.405 62.0979 158.178C64.3003 159.002 65.9621 158.239 66.753 156.059C67.5038 154 66.723 152.313 64.6807 151.539Z" fill="#E065BE"/>
</svg>
