<svg width="126" height="130" viewBox="0 0 126 130" fill="none" xmlns="http://www.w3.org/2000/svg">
<g clip-path="url(#clip0_188_2774)">
<path opacity="0.95" d="M66.0598 6.58383C66.0598 7.94647 64.3455 9.66349 62.9851 9.66848C61.6246 9.66848 59.9104 7.95146 59.9104 6.58882C59.9104 5.22618 61.6246 3.50915 62.9851 3.50915C64.3455 3.50915 66.0598 5.22618 66.0648 6.58882L66.0598 6.58383ZM113.645 37.071C114.861 36.9562 115.703 35.5337 115.609 33.9464C115.524 32.5588 114.702 31.7353 113.396 31.5805C110.65 31.2561 109.405 33.1578 110.401 36.0278C110.65 36.2774 110.9 36.5269 111.149 36.7715C111.926 37.3206 112.818 37.1459 113.645 37.066V37.071ZM68.5913 120.337C66.7674 120.322 65.7508 121.325 65.7558 123.132C65.7558 124.844 66.7674 125.872 68.4617 125.887C70.2856 125.902 71.3022 124.899 71.2972 123.092C71.2972 121.38 70.2856 120.352 68.5913 120.337ZM57.4835 120.337C55.6746 120.327 54.663 121.34 54.6729 123.157C54.6829 124.859 55.7045 125.877 57.4038 125.882C59.2127 125.892 60.2243 124.879 60.2144 123.062C60.2044 121.36 59.1828 120.342 57.4835 120.337ZM7.62057 81.494C5.99103 81.4791 4.8349 82.6121 4.81995 84.2343C4.805 85.8665 5.93621 87.0245 7.55579 87.0394C9.18533 87.0544 10.3415 85.9214 10.3564 84.2992C10.3714 82.667 9.24014 81.509 7.62057 81.494ZM115.614 84.1944C115.579 85.8315 116.69 87.0095 118.31 87.0444C119.944 87.0794 121.12 85.9663 121.155 84.3441C121.19 82.7069 120.079 81.529 118.459 81.494C116.825 81.4591 115.649 82.5722 115.614 84.1944ZM15.1553 36.4221C15.3746 36.0278 15.6935 35.6535 15.7982 35.2292C16.0822 34.1111 15.9327 33.043 15.0108 32.2494C14.064 31.4408 13.0075 31.281 11.8514 31.86C10.7451 32.4191 10.3016 33.3175 10.3614 34.5054C10.476 36.8713 12.7285 37.7299 15.2052 36.3672L15.1553 36.4171V36.4221ZM49.1863 6.4291C49.0667 7.637 50.5517 9.25919 51.8324 9.31909C52.9886 9.37399 54.4985 7.97641 54.6231 6.73856C54.7427 5.53065 53.2527 3.90846 51.977 3.84857C50.8208 3.79366 49.3109 5.19124 49.1863 6.4291ZM74.1776 3.84857C72.9616 3.76371 71.362 5.29107 71.3371 6.55388C71.3122 7.71686 72.7474 9.22924 73.9533 9.3141C75.1692 9.39895 76.7739 7.8716 76.7988 6.60878C76.8237 5.4458 75.3885 3.93342 74.1826 3.84857H74.1776ZM88.2604 12.0593C88.2454 13.8862 88.9032 14.56 90.7022 14.555C92.5012 14.555 93.1291 13.8912 93.1091 12.0244C93.0892 10.3523 92.4015 9.69843 90.6673 9.69843C88.973 9.69843 88.2753 10.3872 88.2604 12.0543V12.0593ZM35.3178 9.70342C33.743 9.68845 32.876 10.532 32.861 12.0993C32.8461 13.6765 33.6882 14.545 35.253 14.56C36.8277 14.575 37.6948 13.7314 37.7098 12.1642C37.7247 10.5869 36.8825 9.7184 35.3178 9.70342ZM77.5214 123.022C77.5064 124.4 78.0945 125.158 79.5197 125.188C80.8951 125.218 81.6475 124.619 81.6874 123.192C81.7223 121.804 81.0944 121.065 79.5197 121.001C78.3735 121.041 77.5363 121.55 77.5214 123.022ZM44.2827 123.192C44.3226 124.624 45.0701 125.223 46.4505 125.188C47.8807 125.158 48.4737 124.4 48.4488 123.022C48.4189 121.585 47.6465 120.996 45.7379 121.031C44.9056 121.085 44.2429 121.794 44.2827 123.192ZM125.994 67.6331C125.959 66.2505 125.246 65.5117 123.851 65.5467C122.546 65.5816 121.858 66.3004 121.853 67.6031C121.848 69.0207 122.645 69.6546 124.15 69.7344C125.202 69.5298 126.034 68.9857 125.999 67.6331H125.994ZM20.7366 106.516C20.7316 105.123 20.0091 104.389 18.6287 104.389C17.3231 104.389 16.6204 105.098 16.5905 106.406C16.5606 107.823 17.3579 108.457 18.7782 108.587C19.8994 108.397 20.7416 107.868 20.7316 106.511L20.7366 106.516ZM118.414 37.7997C117.034 37.8347 116.296 38.5435 116.311 39.931C116.326 41.2388 117.039 41.9326 118.345 41.9525C119.755 41.9725 120.398 41.1789 120.502 39.6266C120.248 38.6682 119.795 37.7648 118.414 37.7997ZM105.229 106.406C105.229 107.798 105.951 108.532 107.331 108.532C108.637 108.532 109.34 107.828 109.375 106.521C109.41 105.103 108.607 104.469 107.202 104.334C106.066 104.524 105.229 105.048 105.234 106.406H105.229ZM9.65874 39.931C9.66871 38.6283 9.02088 37.8796 7.72522 37.8097C6.34485 37.7349 5.57243 38.4237 5.51263 39.8262C5.45782 41.1539 6.22026 41.7729 7.51094 42.0374C8.7169 41.8677 9.64878 41.3985 9.65874 39.936V39.931ZM26.2482 111.961C26.1983 110.728 25.411 109.92 24.1552 109.965C22.9243 110.01 22.127 110.798 22.1619 112.061C22.1967 113.314 23.0339 113.958 24.2648 114.113C25.4508 113.878 26.298 113.229 26.2482 111.961ZM101.785 109.965C100.539 109.965 99.7419 110.758 99.722 111.991C99.7021 113.239 100.509 114.033 101.74 114.058C103.001 114.083 103.639 113.234 103.868 111.981C103.654 110.838 103.041 109.97 101.78 109.965H101.785ZM0.00110032 67.5732C-0.0337828 68.831 0.763546 69.6246 1.99442 69.6695C3.25021 69.7144 4.03758 68.9059 4.08741 67.673C4.13724 66.4052 3.29008 65.7613 2.10405 65.5217C0.868195 65.6764 0.0359834 66.3203 0.00110032 67.5732ZM123.881 54.5507C122.845 54.5807 121.918 55.5041 121.948 56.5672C121.977 57.6104 122.904 58.5338 123.961 58.5039C125.002 58.4739 125.685 57.5555 125.959 56.5023C125.62 55.4442 124.933 54.5208 123.876 54.5507H123.881ZM110.87 100.955C110.9 101.999 111.821 102.922 112.883 102.892C113.924 102.862 114.846 101.934 114.816 100.875C114.787 99.8323 113.87 99.1484 112.818 98.8739C111.762 99.2133 110.84 99.9021 110.87 100.96V100.955ZM13.1072 99.1684C11.8663 99.1684 11.368 99.7724 11.383 100.97C11.3979 102.098 11.9162 102.632 13.0524 102.657C14.2533 102.682 14.8763 102.168 14.8663 100.836C14.8962 99.7374 14.3381 99.1634 13.1072 99.1684ZM3.78841 56.4973C3.77346 55.3743 3.30503 54.8053 2.1489 54.7803C0.977828 54.7604 0.325015 55.2046 0.305082 56.4624C0.285149 57.6753 0.808396 58.2793 2.0891 58.2643C3.23526 58.2892 3.79838 57.7202 3.78343 56.4924L3.78841 56.4973ZM28.0571 117.502C28.0272 118.545 28.7498 119.254 29.7714 119.254C30.7082 119.254 31.3909 118.545 31.4358 117.621C31.4906 116.553 30.6833 116.059 29.7265 115.78C28.8245 116.049 28.082 116.553 28.0521 117.497L28.0571 117.502ZM97.918 117.577C97.8931 116.558 97.2004 115.82 96.1539 115.869C95.242 115.914 94.5344 116.598 94.5344 117.547C94.5344 118.59 95.3118 119.109 96.3234 119.343C97.1456 119.004 97.938 118.545 97.913 117.577H97.918ZM85.1558 4.89176C84.1392 4.91672 83.4017 5.61051 83.4515 6.6587C83.4964 7.57211 84.1791 8.28089 85.1259 8.28089C86.1674 8.28089 86.6857 7.50224 86.9199 6.48899C86.581 5.66542 86.1226 4.87179 85.1558 4.89675V4.89176ZM40.9838 4.89675C39.9124 4.75699 39.2546 5.55062 39.135 6.50896C39.0104 7.50224 39.7928 8.13614 40.6599 8.27589C41.7562 8.45059 42.2047 7.55215 42.5834 6.74355C42.4539 5.70036 41.8808 5.01654 40.9838 4.90174V4.89675ZM125.615 78.8287C125.665 77.7605 124.933 77.0867 123.941 77.0268C122.979 76.9719 122.321 77.7156 122.232 78.609C122.117 79.6972 122.969 80.1663 124.031 80.5557C124.708 80.1564 125.575 79.812 125.62 78.8287H125.615ZM0.399765 78.6789C0.384815 79.5724 1.09743 80.346 1.99941 80.366C2.89142 80.386 3.66383 79.6622 3.68376 78.7638C3.70369 77.8703 2.98112 77.2714 2.06917 77.0268C1.19211 77.2414 0.419698 77.7755 0.399765 78.6789ZM7.54582 93.9974C6.74351 94.0074 6.2701 94.5115 6.22026 95.2802C6.16545 96.1536 6.66378 96.6977 7.53585 96.7376C8.42288 96.7776 8.84646 96.2085 8.99098 95.38C8.85643 94.5414 8.43285 93.9924 7.54582 94.0024V93.9974ZM119.75 95.2602C119.67 94.4865 119.197 93.9974 118.404 93.9974C117.532 93.9974 117.009 94.5165 117.019 95.385C117.029 96.2684 117.597 96.6827 118.629 96.7875C119.182 96.508 119.85 96.1836 119.755 95.2552L119.75 95.2602ZM64.2857 128.632C64.2359 127.889 63.6429 127.245 62.8356 127.365C62.1877 127.464 61.5698 128.028 61.6695 128.762C61.7642 129.426 62.3173 129.89 63.0498 130C63.7176 129.765 64.3306 129.321 64.2857 128.627V128.632ZM123.951 44.1188C123.183 44.1188 122.56 44.7327 122.615 45.5214C122.66 46.1952 123.258 46.7842 123.976 46.7393C124.668 46.6993 125.092 46.1103 125.266 45.4215C125.087 44.7078 124.638 44.1188 123.951 44.1188ZM90.6574 122.069C89.9497 122.084 89.6408 122.443 89.6507 123.132C89.6607 123.841 90.0245 124.15 90.7122 124.14C91.4198 124.13 91.7288 123.761 91.7188 122.738C91.6989 122.393 91.36 122.054 90.6623 122.069H90.6574ZM35.3128 122.069C34.6251 122.064 34.2613 122.368 34.2513 123.077C34.2414 123.766 34.5503 124.13 35.258 124.14C35.9506 124.15 36.3094 123.831 36.3194 123.357C36.3294 122.448 36.0204 122.074 35.3128 122.069ZM1.01271 45.5114C1.04759 46.2351 1.46121 46.4897 2.12897 46.4647C2.85155 46.4348 3.1057 46.0155 3.08078 45.3467C3.05088 44.6229 2.63228 44.3684 1.63562 44.4083C1.27683 44.4532 0.982811 44.8375 1.01271 45.5164V45.5114ZM56.4071 1.06339C56.4171 1.77216 56.7809 2.08163 57.4686 2.07164C58.1762 2.06166 58.4851 1.69729 58.4752 1.00849C58.4652 0.299715 58.0964 -0.00974902 56.9054 0.00522504C56.7111 0.00522504 56.3922 0.369594 56.4021 1.06339H56.4071ZM68.5564 0.000233685C67.8687 -0.00974902 67.4999 0.299715 67.49 1.0035C67.48 1.6923 67.784 2.05667 68.4916 2.07164C69.1793 2.08163 69.5481 1.76717 69.5581 1.06838C69.568 0.384568 69.264 0.0102164 68.5514 0.000233685H68.5564ZM108.338 17.5997C108.308 16.876 107.89 16.6214 107.222 16.6464C106.499 16.6763 106.245 17.0956 106.27 17.7645C106.3 18.4882 106.719 18.7428 107.73 18.7028C108.104 18.6829 108.368 18.2736 108.338 17.5997ZM18.6835 16.7113C18.2001 16.6564 17.8164 17.1605 17.7167 17.5448C17.5672 18.1238 18.1403 18.5381 18.5789 18.6379C19.132 18.7627 19.3961 18.1588 19.7001 17.7345C19.5307 17.2104 19.1968 16.7662 18.6835 16.7063V16.7113ZM13.1321 22.2617C12.6537 22.2217 12.255 22.7209 12.1703 23.1052C12.0457 23.6742 12.5989 24.0985 13.0474 24.1883C13.5956 24.2981 13.8647 23.7092 14.1587 23.2699C13.9693 22.7608 13.6504 22.3016 13.1321 22.2567V22.2617ZM111.891 23.3448C112.006 23.7641 112.4 24.363 112.998 24.1783C113.381 24.0585 113.894 23.6942 113.815 23.2C113.735 22.7009 113.311 22.3465 112.768 22.2068C112.37 22.5312 111.742 22.7907 111.891 23.3448ZM50.9404 128.677C50.9255 129.146 51.4039 129.551 51.8025 129.621C52.3656 129.72 52.7942 129.181 52.864 128.722C52.9487 128.178 52.3856 127.899 51.9271 127.629C51.4338 127.844 50.9554 128.143 50.9354 128.677H50.9404ZM73.9782 127.699C73.5347 127.804 72.9716 128.213 73.1111 128.792C73.2058 129.181 73.5945 129.681 74.0779 129.631C74.5962 129.581 74.9201 129.126 75.1244 128.523C74.7307 128.258 74.5613 127.559 73.9782 127.699ZM101.072 12.1941C101.072 12.7382 101.371 12.823 101.825 12.823C102.368 12.823 102.453 12.5235 102.453 12.0693C102.453 11.5303 102.154 11.4105 101.7 11.4504C101.152 11.4105 101.077 11.7449 101.072 12.1941ZM23.5173 12.1941C23.5173 12.7382 23.8163 12.823 24.2698 12.823C24.813 12.823 24.8977 12.5235 24.8977 12.0693C24.8977 11.5303 24.5987 11.4105 24.1452 11.4504C23.597 11.4105 23.5223 11.7449 23.5173 12.1941ZM123.986 89.1258C123.537 89.1258 123.233 89.2057 123.233 89.7497C123.233 90.199 123.318 90.5084 123.856 90.5034C124.3 90.5034 124.638 90.4286 124.599 89.8795C124.638 89.4253 124.529 89.1258 123.986 89.1258ZM15.1553 36.4221C15.1553 36.4221 15.1753 36.4171 15.1852 36.4121C15.1952 36.3972 15.2002 36.3822 15.2052 36.3722L15.1553 36.4221ZM121.783 72.0903C122.316 73.6876 121.509 75.4246 120.193 76.2881C119.197 76.9419 117.697 76.0884 117.164 76.9319C116.695 77.6707 117.517 78.8686 117.099 80.0266C116.461 81.7736 115.285 82.8766 113.64 83.1013C111.941 83.3359 112.649 84.409 112.509 85.2226C112.345 86.146 112.818 86.2857 113.66 86.3955C115.489 86.6351 116.476 88.2274 116.311 90.3537C116.187 92.0058 114.846 93.2437 113.112 93.2786C112.39 93.2936 111.652 93.3834 110.845 92.8294C110.974 94.1771 111.483 95.2302 111.149 96.4182C110.591 98.3997 108.911 99.5927 106.858 99.2982C106.449 99.2383 105.707 98.6543 105.891 99.8872C106.444 103.561 103.878 105.682 100.195 104.968C100.609 106.66 100.375 108.143 99.0393 109.406C97.6838 110.688 96.1988 110.918 94.4297 110.209C94.4297 111.737 94.8932 113.254 93.6473 114.437C92.9397 115.111 92.2869 115.785 91.1956 115.84C88.674 115.969 87.1043 114.612 86.7803 111.926C85.4182 112.113 84.5528 112.88 84.184 114.227C87.8817 114.966 88.4796 115.535 88.2654 118.121C88.1408 119.628 87.1292 120.591 85.5844 120.676C83.008 120.821 82.4847 120.257 81.8419 116.613C81.7871 116.603 81.7323 116.568 81.6874 116.578C80.0429 117.027 78.224 118.335 77.2772 119.748C76.3054 121.195 74.661 121.884 72.8221 121.32C71.4916 120.916 70.4002 119.972 70.3006 118.47C70.2358 117.472 69.6826 117.412 69.0747 117.587C68.4069 117.776 67.4451 116.873 67.0764 118.415C66.3388 121.535 63.299 122.633 60.5432 121.031C59.5516 120.457 59.0184 119.478 58.9137 118.54C58.7194 116.843 57.5682 117.756 56.8506 117.577C55.9686 117.357 55.7942 117.836 55.6646 118.695C55.3805 120.596 53.5317 121.575 51.0351 121.365C49.5551 121.24 48.0999 119.763 48.1348 118.166C48.1548 117.062 47.796 116.693 46.7594 116.853C46.5352 116.888 46.281 116.913 46.0717 116.853C44.5817 116.419 43.7545 116.498 43.8542 118.525C43.9289 120.042 42.1748 120.886 40.1715 120.676C38.5968 120.511 37.7098 119.388 37.7147 117.552C37.7147 115.72 38.6068 114.667 40.1765 114.407C40.7446 114.312 41.9206 115.181 41.7861 113.509C41.6565 111.851 40.4805 111.971 39.424 111.886C38.8958 111.841 39.1699 112.381 39.0851 112.655C38.3626 115.011 36.5736 116.254 34.5354 115.79C32.3527 115.295 31.2514 113.534 31.6451 110.998C31.7896 110.07 31.3261 110.219 30.8477 110.429C28.1119 111.612 24.514 108.068 25.9292 104.968C24.0904 105.288 22.3961 105.168 21.1054 103.721C19.9792 102.458 19.8147 100.98 20.2433 99.2633C18.6287 99.0037 16.7151 99.6626 15.5341 97.8158C14.4676 96.1437 14.6371 94.5464 15.549 92.7096C13.6304 93.4783 11.8265 93.8077 10.3763 92.0757C9.43449 90.9527 9.40958 89.6499 9.91289 88.3771C10.5358 86.7949 11.8265 86.1859 13.466 86.3406C13.5407 86.2258 13.6354 86.146 13.6404 86.0661C13.6902 84.2493 13.1371 83.2161 11.0989 82.6021C8.81158 81.9083 8.34315 79.6822 9.13051 76.3629C7.45114 76.9669 5.88638 76.6924 4.86979 75.2948C3.11566 72.884 4.52096 69.994 7.50596 69.7294C8.36807 69.6546 8.68202 69.6346 8.3581 68.5864C8.089 67.7129 8.09399 66.6597 8.65212 65.7563C4.83491 65.0675 3.97778 64.2689 4.12728 61.6285C4.24687 59.597 5.59735 58.6736 8.687 58.5638C8.90128 57.7801 8.15877 57.1312 8.30328 56.3925C8.44282 55.6838 8.72188 54.9999 8.93616 54.2962C5.02925 53.6074 4.32162 53.0084 4.47112 50.5427C4.56581 49.0203 5.90133 47.8623 7.56575 47.8573C9.77834 47.8573 10.4561 48.7607 10.8348 52.3695C11.5325 52.1149 12.265 51.9752 12.853 51.6058C13.4162 51.2514 13.1122 50.5477 13.0873 50.0036C13.0623 49.4645 12.6138 49.3497 12.1255 49.2249C10.0973 48.7058 8.84148 46.9589 9.1056 45.152C9.45443 42.7661 11.0292 41.2787 13.3265 41.4035C13.9045 41.4334 14.2334 41.5832 14.1487 40.9094C13.9394 39.2722 14.4078 37.8147 15.1802 36.4171C16.3563 36.1426 17.2583 35.2342 18.6436 35.2641C19.7449 35.2891 19.1171 33.9564 19.3862 33.2826C19.8496 32.1146 19.4958 31.87 18.3297 31.87C16.5805 31.87 15.4942 30.4824 15.549 28.5558C15.5939 26.9635 16.8447 25.7057 18.4343 25.6608C20.3629 25.6059 21.6436 26.694 21.7981 28.441C21.8379 28.8852 21.7532 29.9284 22.112 29.6788C22.8894 29.1348 24.3994 30.3576 24.5738 28.6007C24.6435 27.8969 24.9077 27.2081 25.0771 26.5343C23.5024 26.5442 22.2167 26.3196 21.3695 24.8122C20.5373 23.3348 20.8313 22.0371 21.8529 20.9689C22.8794 19.8958 24.205 19.5564 25.6701 20.335C26.9458 21.0088 27.6883 22.4214 27.484 24.1184C28.1468 23.9388 28.7797 23.6692 29.4325 23.6193C31.2364 23.4845 30.2398 21.9422 30.6933 21.1336C30.8477 20.8541 30.1999 20.8491 29.881 20.8092C27.788 20.5396 26.5771 19.3417 26.6269 17.5848C26.6717 16.0524 28.0372 14.6449 29.5621 14.565C31.3311 14.4752 32.6617 15.718 32.8411 17.7445C32.9108 18.5581 33.0404 18.633 33.9474 18.593C35.6915 18.5181 36.3393 17.8293 36.7928 16.1772C37.4606 13.7414 39.9273 12.8779 42.8475 13.7863C42.7329 12.7182 42.3392 11.6451 42.9472 10.6767C43.5153 9.7733 44.1581 8.97968 45.2894 8.63028C47.1681 8.05628 49.281 8.93974 49.7693 10.9762C50.2328 12.9129 51.5235 12.4537 52.7444 12.4686C53.3773 12.4786 53.2228 11.9845 53.3025 11.6151C53.8108 9.16935 55.7942 8.05128 57.2443 7.97641C59.0981 7.88158 60.7725 9.03458 61.4552 11.2457C61.7542 12.2141 62.2675 12.1292 62.9502 12.1492C63.7126 12.1642 64.2558 12.1841 64.5548 11.1559C65.1628 9.07451 66.8322 7.91652 68.6511 7.98141C70.4451 8.0413 72.1693 9.40893 72.5929 11.3855C72.7723 12.234 72.9716 12.5385 73.8437 12.5136C74.8702 12.4836 75.8669 12.6683 76.126 11.2208C76.4549 9.40394 77.8552 8.55042 79.4748 8.39569C80.8701 8.26092 82.0263 9.11444 82.8037 10.3373C83.4515 11.3506 83.586 12.4287 82.8784 13.8063C84.3734 13.3321 85.6143 13.0227 86.88 13.6915C88.4747 14.5301 89.2471 15.8877 89.6457 17.5648C90.0643 19.3168 91.669 18.044 92.6357 18.6379C93.1839 18.9774 93.0394 17.9292 93.0992 17.4849C93.3234 15.7879 94.6988 14.5301 96.3284 14.58C97.8532 14.6249 99.2585 16.0025 99.3383 17.5249C99.423 19.2369 98.1572 20.6145 96.3333 20.8291C95.8948 20.8791 94.943 20.6544 95.2819 21.4131C95.6008 22.1319 94.9579 23.21 96.2785 23.6443C97.918 24.1833 98.3366 23.5395 98.6855 22.1069C99.0692 20.5446 100.41 19.8658 101.91 19.8259C103.43 19.786 105.124 21.4281 105.184 22.9954C105.243 24.5327 104.421 25.6258 103.056 26.3995C102.408 26.7689 101.087 26.1599 101.137 27.4776C101.192 28.9451 102.169 29.579 103.604 29.549C103.758 29.549 103.918 29.6389 104.077 29.6888C104.426 26.3396 105.119 25.5709 107.67 25.6857C109.439 25.7656 110.401 26.8138 110.426 28.6855C110.456 31.0864 109.619 31.8001 106.539 32.0048C106.812 34.0313 108.102 35.3806 110.411 36.0528C110.885 36.0727 111.134 36.3223 111.159 36.7965C111.333 38.249 112.713 39.4818 111.866 41.139C111.662 41.5383 112.125 41.3486 112.375 41.3536C114.851 41.3835 116.536 42.7462 116.979 45.0372C117.283 46.6095 115.913 48.4313 113.805 49.2948C113.212 49.5394 112.823 49.8439 112.803 50.6575C112.783 51.5509 113.252 51.6957 113.88 51.8554C114.313 51.9652 114.737 52.1 115.17 52.2247C115.494 48.5162 116.052 47.8124 118.599 47.8723C120.497 47.9172 121.479 48.9454 121.499 50.902C121.524 53.3578 120.766 53.9418 117.183 54.2063C117.393 55.4442 118.095 56.6371 117.398 57.9548C117.193 58.3392 117.413 58.5488 118.041 58.4939C120.433 58.2942 121.873 59.9913 122.117 62.0477C122.321 63.7797 120.198 65.7813 118.28 65.8511C118.075 65.8611 117.866 65.7164 117.657 65.6415C117.597 66.8843 117.722 68.1172 117.612 69.37C117.547 70.0688 118.384 69.6745 118.783 69.6995C120.368 69.8093 121.32 70.7377 121.778 72.1103L121.783 72.0903ZM11.2883 63.2457C11.7069 62.4171 13.1919 63.3754 13.0873 61.9729C13.0025 60.8248 11.8265 61.1942 11.1139 60.8149C11.0541 61.6135 10.9195 62.3372 11.2883 63.2407V63.2457ZM13.1172 73.2633C13.0823 71.8458 11.7119 72.8241 11.2085 71.9156C10.9145 73.0087 11.2584 73.8972 10.8049 74.7108C11.5923 74.1667 13.157 74.8755 13.1172 73.2633ZM17.1287 89.4253C16.137 89.1907 16.6204 90.0542 16.6254 90.3337C16.6254 90.9976 16.147 91.4618 16.0473 92.3702C16.7301 92.0158 17.0639 91.4318 17.7217 91.5466C18.6885 91.7163 18.6387 91.0675 18.6785 90.3886C18.7632 89.036 17.7217 89.5651 17.1287 89.4253ZM24.2 95.924C24.1352 95.1903 23.602 95.365 23.1984 95.38C21.9725 95.4149 22.6303 96.2984 22.4309 97.2567C23.0788 96.4731 24.3146 97.2517 24.195 95.929L24.2 95.924ZM29.7415 101.474C29.7066 101.01 29.4574 100.915 29.0787 100.92C27.788 100.935 28.7298 102.078 28.2365 102.533C28.7597 102.163 29.8262 102.657 29.7415 101.474ZM35.4972 108.078C34.9739 107.594 35.7762 106.151 34.361 106.511C33.6185 106.695 33.444 107.769 33.6484 108.118C34.1018 108.897 34.8194 107.893 35.4972 108.078ZM46.6996 16.7462C46.6398 15.4235 45.5186 15.9576 44.8309 15.698C45.2296 16.4018 44.786 17.6347 46.0618 17.6796C46.7843 17.7046 46.7196 17.2004 46.6996 16.7512V16.7462ZM81.4681 15.3686C80.4416 15.9326 79.3453 15.4285 79.2655 16.7362C79.2406 17.1755 79.1559 17.7195 79.8835 17.6746C81.1941 17.5947 80.7705 16.4018 81.4681 15.3686ZM91.5544 106.491C90.2138 106.231 90.9514 107.574 90.5128 108.093C91.1706 107.968 91.953 108.702 92.3268 107.928C92.4513 107.669 92.3367 106.64 91.5544 106.486V106.491ZM97.7336 102.533C97.1606 102.113 98.232 100.915 96.8865 100.92C96.5078 100.92 96.2536 101.005 96.2187 101.474C96.139 102.652 97.1954 102.173 97.7336 102.533ZM102.667 95.39C102.313 95.3301 101.85 95.2302 101.77 95.8442C101.586 97.2567 102.871 96.4881 103.355 96.9922C103.574 96.2036 103.609 95.5497 102.667 95.385V95.39ZM109.694 92.0607C109.544 91.2072 109.385 90.7181 109.39 90.2339C109.41 89.2606 108.732 89.5002 108.199 89.4752C107.71 89.4503 107.346 89.4852 107.282 90.164C107.107 92.0008 108.722 91.327 109.689 92.0607H109.694ZM112.848 62.0777C112.858 63.1907 113.73 62.6267 114.228 62.7715C115.489 63.1458 114.527 62.3173 114.592 62.1026C114.637 61.6734 115.38 60.9446 114.303 61.0994C113.82 61.1693 112.838 61.0345 112.848 62.0727V62.0777ZM114.931 73.3881C114.692 73.0836 115.33 72.2451 114.413 72.4347C113.84 72.5545 112.813 71.9855 112.823 73.3432C112.828 74.5012 113.775 74.3764 114.348 74.4862C115.21 74.6459 114.791 73.7974 114.931 73.3881Z" fill="#E065BE"/>
<path d="M34.1035 57.24H27.6835C26.1235 57.24 25.8035 57.26 25.1035 57.34C25.2235 56.2 25.3635 55.5 25.6235 54.78C26.1635 53.32 27.0635 52.04 28.3635 50.86C29.0635 50.24 29.6635 49.78 31.6635 48.44C33.5035 47.18 34.0635 46.52 34.0635 45.5C34.0635 44.14 33.0035 43.3 31.3035 43.3C30.1435 43.3 29.2635 43.7 28.7635 44.48C28.4235 44.96 28.2835 45.4 28.1435 46.32L25.2835 45.98C25.5635 44.46 25.9235 43.64 26.6635 42.78C27.6635 41.62 29.2435 41 31.2435 41C34.7435 41 36.9035 42.68 36.9035 45.42C36.9035 46.74 36.4635 47.7 35.4835 48.62C34.9235 49.14 34.7235 49.3 32.1235 51.08C31.2435 51.7 30.2435 52.54 29.7435 53.08C29.1435 53.72 28.9035 54.12 28.6035 54.88H34.2035C35.4635 54.88 36.4635 54.82 37.1235 54.72V57.36C36.1835 57.28 35.3835 57.24 34.1035 57.24Z" fill="white"/>
<path d="M45.3618 57.56C43.6618 57.56 42.2218 57 41.1618 55.94C40.5618 55.34 40.1018 54.64 39.8418 53.92C39.3218 52.5 39.0618 50.94 39.0618 49.32C39.0618 47.2 39.5418 45 40.2818 43.78C41.3618 41.98 43.1618 41 45.3818 41C47.0818 41 48.5418 41.56 49.6018 42.62C50.2018 43.22 50.6618 43.92 50.9218 44.64C51.4418 46.04 51.7018 47.64 51.7018 49.28C51.7018 51.74 51.1618 53.9 50.2218 55.2C49.1018 56.76 47.4418 57.56 45.3618 57.56ZM45.3818 55.24C46.2618 55.24 47.0418 54.94 47.5418 54.4C48.4418 53.46 48.9418 51.6 48.9418 49.26C48.9418 46.94 48.4418 45.12 47.5418 44.14C47.0618 43.6 46.2618 43.3 45.3618 43.3C44.4018 43.3 43.7018 43.62 43.1218 44.32C42.2418 45.36 41.8018 47 41.8018 49.18C41.8018 51.28 42.1818 53.02 42.8218 53.94C43.4418 54.82 44.2818 55.24 45.3818 55.24Z" fill="white"/>
<path d="M62.5801 57.24H56.1601C54.6001 57.24 54.2801 57.26 53.5801 57.34C53.7001 56.2 53.8401 55.5 54.1001 54.78C54.6401 53.32 55.5401 52.04 56.8401 50.86C57.5401 50.24 58.1401 49.78 60.1401 48.44C61.9801 47.18 62.5401 46.52 62.5401 45.5C62.5401 44.14 61.4801 43.3 59.7801 43.3C58.6201 43.3 57.7401 43.7 57.2401 44.48C56.9001 44.96 56.7601 45.4 56.6201 46.32L53.7601 45.98C54.0401 44.46 54.4001 43.64 55.1401 42.78C56.1401 41.62 57.7201 41 59.7201 41C63.2201 41 65.3801 42.68 65.3801 45.42C65.3801 46.74 64.9401 47.7 63.9601 48.62C63.4001 49.14 63.2001 49.3 60.6001 51.08C59.7201 51.7 58.7201 52.54 58.2201 53.08C57.6201 53.72 57.3801 54.12 57.0801 54.88H62.6801C63.9401 54.88 64.9401 54.82 65.6001 54.72V57.36C64.6601 57.28 63.8601 57.24 62.5801 57.24Z" fill="white"/>
<path d="M67.5584 53.46L70.4184 52.9C70.6784 53.82 70.8584 54.14 71.3584 54.54C72.0184 55.06 72.8184 55.32 73.7784 55.32C75.7584 55.32 77.0184 54.3 77.0184 52.72C77.0184 51.8 76.6184 51.04 75.8984 50.62C75.4184 50.34 74.4784 50.14 73.5984 50.14C72.7184 50.14 72.1384 50.16 71.4584 50.24V47.76C72.0984 47.84 72.5384 47.86 73.3984 47.86C75.3984 47.86 76.5784 46.94 76.5784 45.4C76.5784 44.02 75.6384 43.24 73.9384 43.24C72.9584 43.24 72.2384 43.46 71.7584 43.86C71.3584 44.24 71.1584 44.58 70.9184 45.4L68.0584 44.92C68.5584 43.44 69.0184 42.74 69.9584 42.06C70.9784 41.32 72.2784 40.96 73.8784 40.96C77.2184 40.96 79.3784 42.64 79.3784 45.24C79.3784 46.44 78.8584 47.54 77.9984 48.18C77.5584 48.52 77.1184 48.68 76.0584 48.96C77.4784 49.18 78.2184 49.52 78.9184 50.3C79.5784 51.04 79.8784 51.88 79.8784 53.06C79.8784 54.14 79.4184 55.24 78.6784 55.98C77.5784 57.04 75.8984 57.6 73.7584 57.6C71.4184 57.6 69.8184 57 68.6784 55.7C68.1784 55.14 67.9184 54.62 67.5584 53.46Z" fill="white"/>
<path d="M85.1966 52.04V47.96C85.1966 47.52 85.1766 47.22 85.1366 46.8C85.5566 46.84 85.9966 46.86 86.5366 46.86H90.8966V44.26H86.7166C85.6766 45.88 84.6966 47.04 83.4166 48.2C82.8366 47.34 82.6166 47.08 81.9366 46.42C83.9766 44.68 85.0166 43.36 85.8366 41.4C86.1166 40.76 86.2566 40.34 86.3166 39.94L88.6966 40.42C88.5766 40.66 88.5366 40.72 88.3966 41.02C88.3766 41.08 88.1766 41.5 87.8166 42.28H97.1766C98.1166 42.28 98.6166 42.26 99.2166 42.18V44.36C98.5966 44.28 98.0766 44.26 97.1766 44.26H93.0966V46.86H96.3166C97.2366 46.86 97.7766 46.84 98.3766 46.76V48.88C97.7766 48.82 97.2366 48.8 96.3766 48.8H93.0966V52.04H97.7366C98.6566 52.04 99.2966 52 99.9166 51.92V54.2C99.2966 54.12 98.5966 54.08 97.7366 54.08H93.0966V56.58C93.0966 57.6 93.1166 58.14 93.2166 58.72H90.7766C90.8566 58.14 90.8966 57.6 90.8966 56.54V54.08H84.1766C83.2966 54.08 82.6566 54.12 81.9966 54.2V51.92C82.6366 52 83.2766 52.04 84.1766 52.04H85.1966ZM87.2966 52.04H90.8966V48.8H87.2966V52.04Z" fill="white"/>
<path d="M41.818 79.312L42.97 80.776C42.634 81.016 42.442 81.16 42.13 81.448C41.386 82.12 39.97 83.104 38.722 83.776C40.762 84.256 43.546 84.568 45.61 84.568C45.922 84.568 46.186 84.568 46.666 84.568C46.138 85.36 45.802 86.104 45.514 87.136C41.434 86.896 38.266 86.272 35.53 85.192C32.41 86.32 29.554 86.872 25.234 87.184C25.042 86.272 24.73 85.504 24.25 84.832C27.298 84.736 29.962 84.4 32.65 83.776C31.522 83.104 30.85 82.624 29.866 81.784C28.666 82.528 27.658 82.96 25.714 83.656C25.306 82.792 25.018 82.384 24.322 81.664C26.266 81.136 27.37 80.704 28.738 79.912C29.674 79.36 30.322 78.928 30.874 78.4H29.938C29.098 78.4 28.234 78.424 27.514 78.496C27.61 77.872 27.634 77.296 27.634 75.976V71.104C27.634 70.096 27.61 69.496 27.514 68.656C28.114 68.704 28.714 68.728 30.034 68.728H32.986C33.274 68.32 33.466 68.008 33.682 67.624H27.394C26.362 67.624 25.57 67.672 24.754 67.768V65.296C25.498 65.392 26.338 65.44 27.466 65.44H43.21C44.41 65.44 45.202 65.392 45.946 65.296V67.768C45.106 67.672 44.338 67.624 43.33 67.624H36.442C36.154 68.128 36.058 68.32 35.77 68.728H40.786C42.154 68.728 42.538 68.728 43.21 68.656C43.138 69.448 43.114 70.048 43.114 71.128V75.832C43.114 77.32 43.138 77.968 43.21 78.496C42.418 78.424 41.698 78.4 40.786 78.4H34.042C33.49 78.976 33.418 79.048 33.034 79.408H39.658C40.882 79.408 41.266 79.384 41.818 79.312ZM38.746 81.328H32.722C33.73 82 34.426 82.36 35.698 82.84C36.994 82.336 37.642 82.024 38.746 81.328ZM30.082 70.6V71.512H40.618V70.6H30.082ZM30.082 73.12V74.008H40.618V73.12H30.082ZM30.082 75.64V76.552H40.618V75.64H30.082Z" fill="white"/>
<path d="M57.394 75.352L57.13 73.744C56.746 76.264 56.29 77.944 55.498 79.864C56.458 80.656 56.866 81.04 57.97 82.168L56.362 84.448C55.378 83.344 54.994 82.936 54.25 82.24C53.074 84.04 52.042 85.168 50.026 86.68C49.498 85.84 48.994 85.264 48.226 84.592C50.122 83.272 51.202 82.216 52.306 80.56C51.082 79.6 50.53 79.216 48.898 78.208C49.81 76.072 50.386 74.2 50.914 71.656H50.386C49.786 71.656 49.21 71.704 48.682 71.776V69.184C49.282 69.28 49.906 69.328 50.626 69.328H51.346C51.682 67.36 51.85 65.944 51.85 65.008C51.85 64.96 51.85 64.84 51.85 64.72L54.562 64.96C54.49 65.248 54.418 65.68 54.298 66.448C54.154 67.336 54.13 67.552 53.818 69.328H55.402C56.386 69.328 57.034 69.304 57.586 69.232C57.538 69.64 57.538 69.64 57.49 70.336C57.418 71.272 57.394 71.704 57.274 72.64C57.562 72.664 57.706 72.664 57.97 72.664C58.306 72.664 58.33 72.664 58.858 72.664C59.002 72.28 59.002 72.28 59.29 71.632C60.322 69.184 61.21 66.16 61.33 64.72L64.258 65.296C64.114 65.584 64.066 65.704 63.754 66.688C62.962 69.208 62.578 70.24 61.594 72.496C64.45 72.28 64.474 72.28 66.586 72.04C65.962 70.96 65.53 70.288 64.402 68.752L66.706 67.672C68.77 70.648 69.37 71.656 70.786 74.656L68.434 76.072C68.05 75.112 67.978 74.944 67.642 74.176C64.306 74.608 62.698 74.776 59.434 75.064C58.21 75.184 57.874 75.232 57.394 75.352ZM55.042 71.656H53.386C52.978 73.672 52.498 75.4 51.85 77.224C52.81 77.848 53.122 78.064 53.506 78.352C54.37 76.384 54.754 74.632 55.042 71.656ZM60.85 85.792V86.992H58.234C58.282 86.464 58.33 85.864 58.33 84.832V78.616C58.33 77.704 58.282 76.96 58.234 76.36C58.786 76.432 59.434 76.456 60.274 76.456H67.018C68.122 76.456 68.77 76.432 69.25 76.36C69.178 77.008 69.154 77.608 69.154 78.784V84.592C69.154 85.672 69.178 86.368 69.298 86.992H66.634V85.792H60.85ZM60.826 78.808V83.464H66.634V78.808H60.826Z" fill="white"/>
<path d="M77.722 68.824V67.696C76.066 67.84 75.394 67.888 73.594 67.984C73.402 67.312 73.21 66.88 72.754 66.064C77.458 66.04 81.586 65.536 83.218 64.768L84.658 66.736C84.442 66.76 83.65 66.88 83.338 66.952C82.45 67.12 81.25 67.312 80.05 67.48V68.824H82.546C83.674 68.824 84.226 68.8 84.778 68.704V70.888C84.418 70.816 84.106 70.792 83.05 70.792H80.05V71.824H82.426C83.506 71.824 83.938 71.8 84.442 71.752C84.394 72.256 84.37 72.64 84.37 73.864V77.104C84.394 78.256 84.418 78.976 84.442 79.288C83.89 79.24 83.41 79.24 82.282 79.24H80.05V80.296H82.162C83.362 80.296 83.866 80.272 84.418 80.2V82.456C83.986 82.36 83.65 82.336 82.738 82.336H80.05V83.512C81.298 83.392 82.114 83.296 84.37 82.984V84.016C85.402 82.48 86.194 80.536 86.65 78.496C87.01 76.744 87.154 75.256 87.274 72.16C86.29 72.16 85.906 72.184 85.282 72.256V69.664C85.762 69.736 86.17 69.76 86.986 69.76H87.346C87.37 69.16 87.37 68.752 87.37 68.008C87.37 66.016 87.346 65.632 87.226 64.96H89.986C89.866 65.608 89.866 65.608 89.794 69.76H91.882C92.914 69.76 93.49 69.736 94.138 69.664C94.042 70.528 94.042 70.72 93.97 74.176C93.85 80.368 93.538 83.752 92.938 85.144C92.506 86.2 91.738 86.56 89.938 86.56C89.554 86.56 88.378 86.512 88.018 86.488C87.97 85.432 87.85 84.928 87.466 83.896C86.89 85.12 86.506 85.744 85.546 87.04C85.042 86.296 84.466 85.72 83.65 85.144C80.362 85.624 78.61 85.816 74.218 86.152C73.762 86.2 73.402 86.248 72.826 86.344L72.394 83.776C72.898 83.824 73.114 83.824 73.642 83.824C74.722 83.824 75.178 83.8 77.722 83.656V82.336H75.25C74.482 82.336 73.666 82.36 73.018 82.432V80.176C73.69 80.272 74.194 80.296 75.274 80.296H77.722V79.24H75.634C74.554 79.24 73.978 79.264 73.306 79.312C73.354 78.712 73.378 78.208 73.378 77.032V73.936C73.378 72.808 73.354 72.352 73.306 71.752C73.978 71.8 74.602 71.824 75.658 71.824H77.722V70.792H74.794C73.786 70.792 73.234 70.816 72.562 70.912V68.704C73.21 68.8 73.81 68.824 74.794 68.824H77.722ZM77.722 73.624H75.634V74.632H77.722V73.624ZM80.05 73.624V74.632H82.138V73.624H80.05ZM77.722 76.384H75.634V77.44H77.722V76.384ZM80.05 76.384V77.44H82.138V76.384H80.05ZM91.57 72.16H89.746C89.506 77.872 88.954 80.656 87.49 83.872C88.714 84.064 89.074 84.112 89.602 84.112C90.682 84.112 90.85 83.824 91.138 81.592C91.306 80.32 91.378 79.288 91.474 76.624C91.498 75.784 91.498 75.784 91.522 73.84C91.546 73.096 91.546 72.952 91.57 72.16Z" fill="white"/>
<path d="M100.906 80.032H98.098C98.122 79.528 98.146 79.288 98.146 79C98.146 78.736 98.146 78.736 98.074 77.272L97.738 69.112C97.69 68.056 97.618 66.856 97.522 66.184H101.458C101.386 66.832 101.29 68.08 101.242 69.112L100.906 77.272C100.858 78.688 100.858 78.688 100.858 79.024C100.858 79.312 100.858 79.552 100.906 80.032ZM101.242 85.288H97.762V82H101.242V85.288Z" fill="white"/>
</g>
<defs>
<clipPath id="clip0_188_2774">
<rect width="126" height="130" fill="white"/>
</clipPath>
</defs>
</svg>
