<svg width="328" height="210" viewBox="0 0 328 210" fill="none" xmlns="http://www.w3.org/2000/svg">
<rect width="328" height="210" fill="#9FE7E8"/>
<g clip-path="url(#clip0_188_2148)">
<path d="M136.867 154.154L112.025 138.682C110.389 137.663 108.419 137.335 106.545 137.767L105.815 137.935C102.336 138.739 99.9534 141.948 100.195 145.508L100.285 146.835C100.436 149.049 101.589 151.072 103.415 152.328L156.586 188.927C158.335 190.129 160.52 190.511 162.574 189.965L218.064 175.263C221.241 174.423 223.456 171.555 223.473 168.273L223.573 146.53C223.587 143.314 221.485 140.471 218.406 139.539L201.763 134.515C199.518 133.838 197.085 134.284 195.229 135.711L182.373 145.595C181.127 146.553 179.602 147.083 178.03 147.103L145.232 147.505C143.211 147.528 141.291 148.396 139.93 149.893L139.766 150.074C137.601 152.466 137.269 155.996 138.952 158.746C140.168 160.729 142.259 162.012 144.578 162.196L180.111 165.014" fill="white"/>
<path d="M160.705 192.387C161.516 192.387 162.327 192.283 163.127 192.072L218.617 177.37C222.736 176.278 225.624 172.544 225.644 168.286L225.745 146.544C225.765 142.397 223.004 138.662 219.029 137.463L202.387 132.438C199.478 131.56 196.305 132.143 193.895 133.992L181.04 143.877C180.172 144.544 179.089 144.919 177.993 144.932L145.192 145.334C142.574 145.368 140.064 146.497 138.305 148.436L138.141 148.617C137.407 149.428 136.834 150.345 136.432 151.32L113.174 136.833C111.036 135.503 108.509 135.081 106.053 135.647L105.322 135.815C100.775 136.863 97.705 141 98.02 145.653L98.1105 146.979C98.3049 149.87 99.7895 152.472 102.179 154.117L155.349 190.716C156.941 191.811 158.811 192.38 160.705 192.384V192.387ZM199.656 136.387C200.148 136.387 200.644 136.458 201.124 136.605L217.766 141.63C219.907 142.276 221.398 144.293 221.388 146.53L221.288 168.273C221.278 170.571 219.72 172.584 217.498 173.173L162.008 187.875C160.571 188.257 159.039 187.992 157.812 187.145L104.642 150.546C103.352 149.659 102.554 148.255 102.447 146.694L102.356 145.368C102.186 142.859 103.844 140.628 106.294 140.062L107.025 139.894C108.348 139.59 109.712 139.817 110.865 140.534L135.708 156.006L135.748 155.939C135.889 157.313 136.328 158.666 137.075 159.892C138.647 162.461 141.381 164.136 144.384 164.377L179.917 167.194L180.262 162.86L144.729 160.043C143.107 159.915 141.633 159.011 140.785 157.624C139.612 155.708 139.847 153.209 141.355 151.545L141.519 151.364C142.467 150.315 143.821 149.706 145.232 149.689L178.03 149.287C180.061 149.263 182.065 148.567 183.674 147.331L196.529 137.446C197.431 136.752 198.53 136.391 199.639 136.391L199.656 136.387Z" fill="#111111"/>
<path d="M240.293 180.777V136.923H223.989C221.794 136.923 220.011 138.702 220.011 140.899V176.804C220.011 178.998 221.791 180.78 223.989 180.78H240.293V180.777Z" fill="white"/>
<path d="M223.989 182.951H242.468V134.746H223.989C220.598 134.746 217.836 137.503 217.836 140.896V176.801C217.836 180.191 220.598 182.951 223.989 182.951ZM238.118 178.603H223.989C222.997 178.603 222.19 177.796 222.19 176.804V140.896C222.19 139.905 222.997 139.097 223.989 139.097H238.118V178.603Z" fill="#111111"/>
<path d="M280.752 128.174L240.192 128.797C238.332 128.82 236.841 130.338 236.854 132.197L237.223 187.473C237.236 189.329 238.744 190.826 240.601 190.826H281" fill="#F2FF59"/>
<path d="M240.601 193H281V188.652H240.601C239.941 188.652 239.401 188.116 239.398 187.456L239.029 132.18C239.026 131.52 239.559 130.978 240.219 130.971L280.786 130.348L280.718 126L240.159 126.623C237.119 126.66 234.659 129.165 234.679 132.21L235.048 187.486C235.068 190.528 237.558 193 240.601 193Z" fill="#111111"/>
</g>
<g clip-path="url(#clip1_188_2148)">
<path d="M202.422 56.5584H179.322L185.353 50.552C186.189 49.7191 186.189 48.3684 185.353 47.5301L176.448 38.662C176.03 38.2456 175.483 38.0374 174.931 38.0374C174.379 38.0374 173.832 38.2456 173.414 38.662L164.51 47.5301C163.673 48.363 163.673 49.7138 164.51 50.552L170.541 56.5584H129.99L136.021 50.552C136.858 49.7191 136.858 48.3684 136.021 47.5301L127.117 38.662C126.699 38.2456 126.152 38.0374 125.6 38.0374C125.047 38.0374 124.501 38.2456 124.082 38.662L115.178 47.5301C114.341 48.363 114.341 49.7138 115.178 50.552L121.209 56.5584H98.3979C93.6588 56.5584 89.8203 60.3812 89.8203 65.1009V111.017C89.8203 115.736 93.6588 119.559 98.3979 119.559H102.692C102.746 124.231 106.563 128 111.264 128C115.966 128 119.783 124.231 119.836 119.559H121.992C122.045 124.231 125.862 128 130.564 128C135.265 128 139.082 124.231 139.136 119.559H163.807C163.861 124.231 167.678 128 172.379 128C177.081 128 180.898 124.231 180.952 119.559H183.107C183.16 124.231 186.977 128 191.679 128C196.381 128 200.198 124.231 200.251 119.559H202.401C207.14 119.559 210.979 115.736 210.979 111.017V65.1009C210.979 60.3812 207.14 56.5584 202.401 56.5584H202.422ZM118.255 91.6946H106.997V69.8046H118.255V91.6946ZM118.984 49.0358L125.61 42.4367L132.236 49.0358L125.61 55.6348L118.984 49.0358ZM143.452 91.6946H132.194V69.8046H143.452V91.6946ZM168.648 91.6946H157.39V69.8046H168.648V91.6946ZM174.937 55.6401L168.31 49.0411L174.937 42.4421L181.563 49.0411L174.937 55.6401ZM193.845 91.6946H182.587V69.8046H193.845V91.6946Z" fill="#111111"/>
<circle cx="74.5" cy="48.5" r="28.5" fill="#F2FF59"/>
<path d="M74.8257 23.339C88.8661 23.339 100.29 34.7165 100.29 48.6994C100.29 62.6823 88.8661 74.0598 74.8257 74.0598C60.7852 74.0598 49.361 62.6823 49.361 48.6994C49.361 34.7165 60.7852 23.339 74.8257 23.339ZM74.8257 18C57.7992 18 44 31.7427 44 48.6994C44 65.6562 57.7992 79.3988 74.8257 79.3988C91.8521 79.3988 105.651 65.6562 105.651 48.6994C105.651 31.7427 91.8521 18 74.8257 18ZM89.4183 34.5723L84.9579 31.5985L77.3507 42.9226H72.2041L64.5969 31.5985L60.1366 34.5723L65.7495 42.9226H62.6509V48.267H69.3414L71.5501 51.5558L71.4697 51.6786L71.7699 51.8761L71.9093 52.0844H62.6455V57.4287H72.0969V66.8414H77.4633V57.4287H86.9147V52.0844H77.6509L77.7903 51.8761L78.0905 51.6786L78.0101 51.5558L80.2188 48.267H86.9093V42.9226H83.8107L89.4236 34.5723H89.4183Z" fill="#111111"/>
</g>
<defs>
<clipPath id="clip0_188_2148">
<rect width="183" height="67" fill="white" transform="matrix(-1 0 0 1 281 126)"/>
</clipPath>
<clipPath id="clip1_188_2148">
<rect width="167" height="110" fill="white" transform="translate(44 18)"/>
</clipPath>
</defs>
</svg>
