<svg width="245" height="54" viewBox="0 0 245 54" fill="none" xmlns="http://www.w3.org/2000/svg">
<path d="M160.934 26.5513L141.496 17.2964L147.233 5.428L166.671 15.5086L160.941 26.5513H160.934ZM180.766 13.1177L143.444 43.7471L152.798 54L190.299 22.509L180.766 13.1177ZM41.0607 10.2457L26.9226 10.6406C27.3738 8.83846 27.9324 6.65577 28.5914 4.11409L29.2002 1.75908L16.0433 0L15.5849 1.87396C14.6824 5.54289 13.9447 8.59433 13.3574 11.014L0.293649 11.4232L0 24.5983L9.81217 24.2752C9.53284 25.2948 9.25352 26.2712 8.97419 27.2118C6.91149 34.0901 4.4477 40.8823 1.6473 47.4089L0.587297 49.8859L13.9519 52.3917L14.575 50.6757C17.0674 43.8405 19.4095 36.8113 21.5366 29.7822C22.1383 27.7575 22.7327 25.7399 23.32 23.7367L30.5681 23.4926L24.0864 50.1588L37.8879 50.1731L46.3464 16.2338L41.0535 10.2529L41.0607 10.2457ZM80.03 18.9621L80.0157 18.9262L86.39 16.9302L81.6845 4.54489L75.2242 6.87835L75.2099 6.84963L67.6968 9.67132L72.1087 21.5469L80.03 18.9693V18.9621ZM66.5508 4.14998H52.8138L52.3841 51.3147H65.8991L66.1713 32.6255L80.954 41.0906L85.8028 29.136L66.3503 18.7539L66.558 4.14998H66.5508ZM139.061 14.0798L135.215 6.65576L90.3436 8.81691L90.1645 21.8341L118.075 20.7571L112.797 28.9709L105.792 23.0834L97.0259 33.3219L121.578 53.2748L129.836 43.2876L122.731 37.3139L139.061 14.0726V14.0798ZM239.925 20.434L244.416 28.7483L243.263 35.6626L230.65 40.5951L230.686 51.9753L218.797 51.6019L218.861 46.1093L218.546 49.2469L197.038 49.8285L196.437 30.8592L193.486 30.8807L193.601 19.7734L197.411 19.8739L197.289 16.923L194.804 16.9948L194.095 5.63622H203.255L203.499 0.983642L213.869 0.904674V5.63622H219.356L219.384 3.0371L241.623 2.93658L244.495 8.47227L239.925 20.4196V20.434ZM230.579 14.7978L230.729 14.4244H230.579V14.7978Z" fill="white"/>
<path d="M76.7352 8.61574L78.4756 7.98391L80.4166 7.28746L80.567 7.68953L81.7416 10.7841L82.8875 13.7996L83.5536 15.5515L79.6287 16.7793L78.9842 14.9628L78.7979 14.4315L76.7352 8.60856V8.61574ZM81.5339 29.3082L79.3638 28.1522L69.9885 23.1478L69.1004 22.674L64.1585 20.039L64.1871 18.2727L64.3017 10.4969L64.359 6.47613V6.30382H63.9579H61.5443H58.7296H54.9336L54.8978 10.2169L54.8835 12.1626L54.8333 17.6122L54.5468 49.1606H63.7789L64.0725 28.942L74.8587 35.1239L75.0665 35.246L79.8794 38.0031L81.7559 33.372L81.8204 33.2141L83.0738 30.1195L81.5411 29.301L81.5339 29.3082ZM81.2546 30.7873L81.1901 30.9452C81.1901 30.9452 81.1543 30.9237 81.14 30.9093C81.1543 30.8519 81.1686 30.8016 81.1829 30.7442L81.2546 30.7801V30.7873ZM64.9391 27.7932L65.0537 25.9265C65.684 25.9049 66.3143 25.8619 66.9374 25.8116C66.6581 26.6876 66.3644 27.5635 66.0708 28.4395L64.9391 27.7932ZM62.6687 26.4937L62.6329 28.9277L62.6043 30.8806C62.4825 32.8982 62.3608 34.9157 62.239 36.9333C62.0385 33.0777 61.9239 29.2149 62.06 25.3521C62.0671 25.108 62.0886 24.871 62.0958 24.6269C62.4252 24.1387 62.7475 23.6576 63.077 23.1694C63.077 23.2412 63.0698 23.3058 63.0627 23.3776C62.9051 23.7007 62.7404 24.0238 62.5971 24.3613C62.3751 24.8782 62.4968 25.4957 62.9194 25.7901C62.9051 26.0629 62.8836 26.3357 62.8693 26.6014L62.6759 26.4865L62.6687 26.4937ZM70.189 25.4311C69.8166 25.8188 69.4227 26.1921 69.0359 26.5655C69.0001 26.5942 68.9643 26.6229 68.9213 26.6588C69.0359 26.2927 69.1505 25.9337 69.2651 25.5675C69.5731 25.5244 69.881 25.4813 70.1818 25.4311H70.189ZM65.949 22.6237L67.6536 23.5356C67.6536 23.5356 67.6393 23.5858 67.6321 23.6074C66.8514 23.6864 66.0636 23.7438 65.2758 23.7797C65.4906 23.3848 65.7127 23.0042 65.949 22.6309V22.6237ZM62.7332 19.8307C62.6258 19.9959 62.5112 20.161 62.4037 20.3262C62.504 19.3999 62.6258 18.4738 62.7618 17.5547L62.726 19.8307H62.7332ZM70.4469 28.1882C70.7548 27.944 71.0556 27.6999 71.3636 27.463C70.6617 28.3964 69.9885 29.3513 69.3296 30.3134L68.599 29.897C69.2293 29.3369 69.8452 28.7769 70.454 28.1953L70.4469 28.1882ZM74.8373 29.0066C75.0664 28.583 75.2813 28.1522 75.4675 27.7071L76.8212 28.4323C75.9259 29.2508 75.045 30.0908 74.207 30.9668C74.3932 30.3062 74.6009 29.6528 74.8373 29.0066ZM78.8123 31.9576C78.9483 32.2663 79.2133 32.5248 79.5213 32.5894C79.55 32.5894 79.5714 32.6038 79.5929 32.611C79.1704 33.1136 78.7406 33.609 78.3181 34.1116C78.4828 33.3936 78.6475 32.6756 78.8123 31.9576ZM62.812 14.2879C62.2677 13.7781 61.2578 13.7996 61.0787 14.733C60.4771 18.1794 59.8755 21.6329 59.2739 25.0792L58.1637 26.7593C58.042 26.9388 57.9202 27.1183 57.8056 27.2978C58.6508 22.7889 59.7394 18.3301 61.0644 13.9289C61.6517 13.297 62.2533 12.6724 62.8478 12.0477L62.8191 14.2879H62.812ZM56.3016 13.4191C56.7456 13.175 57.1825 12.938 57.6194 12.6939C57.3258 13.2181 57.0751 13.7637 56.8459 14.3238C56.7456 14.4099 56.6597 14.5176 56.5952 14.6612C56.4878 14.9053 56.3875 15.1495 56.2801 15.3936L56.3016 13.4263V13.4191ZM56.939 32.4889C57.4189 31.7422 57.8916 30.9883 58.3786 30.2416C58.1852 31.3617 57.9847 32.4817 57.7913 33.6018C57.2685 36.5886 56.7958 39.5898 56.2013 42.5623C56.1512 42.8208 56.0867 43.0793 56.0294 43.3377L56.0581 40.1211C56.2801 37.5723 56.5666 35.0234 56.939 32.4961V32.4889ZM59.5246 36.4307C59.4887 36.5455 59.4601 36.6532 59.4314 36.7681C59.5532 36.0142 59.675 35.2675 59.8039 34.528C59.8612 34.1977 59.9185 33.8746 59.9758 33.5443C60.0044 34.2911 60.0331 35.0378 60.0689 35.7773C59.8325 35.8922 59.6248 36.1004 59.5317 36.4307H59.5246ZM61.7018 7.75415C60.6275 8.42188 59.5532 9.08244 58.4645 9.72145C59.0877 9.08244 59.6964 8.42188 60.2981 7.75415H61.7018ZM56.3589 7.75415H57.3974C57.0536 8.11314 56.7027 8.47215 56.3517 8.82397V7.75415H56.3589ZM60.341 47.739C60.4556 47.5021 60.5702 47.2651 60.6848 47.0354C60.6991 47.2723 60.7063 47.5021 60.7135 47.739H60.3339H60.341ZM76.1766 33.8675C76.1479 33.9752 76.1265 34.09 76.0978 34.1977L75.9689 34.1259L76.1694 33.8675H76.1766ZM77.1793 17.6409L76.6278 16.248L76.3914 15.652L75.6179 13.7063L75.5678 13.5842L74.8301 11.7247L73.9921 9.62811L70.454 10.9564L73.3977 18.883L77.1793 17.6552V17.6409ZM74.6582 15.171C74.4219 15.5228 74.1855 15.8746 73.942 16.2193L73.5696 15.2069C73.8489 14.9771 74.1282 14.7546 74.4004 14.5248L74.6582 15.1638V15.171ZM153.191 20.4985L153.929 20.8503L159.981 23.7294L163.763 16.4418L160.16 14.575L158.434 13.6847L155.977 12.4139L152.948 10.8415L148.192 8.37882L147.519 9.77172L146.638 11.6026L144.368 16.3054L153.184 20.5057L153.191 20.4985ZM156.894 14.4961C155.906 14.9269 154.925 15.372 153.951 15.8315C153.592 15.8674 153.234 15.9033 152.876 15.9249C153.514 15.0705 154.201 14.252 154.939 13.4837L156.894 14.4961ZM157.883 20.8862C157.897 21.0011 157.94 21.1016 157.997 21.1878L156.35 20.4051C156.83 19.9026 157.288 19.3856 157.718 18.8399C157.732 19.522 157.782 20.2041 157.883 20.8862ZM152.167 13.3473C152.06 13.4765 151.945 13.6058 151.838 13.735C151.838 13.656 151.838 13.5842 151.831 13.5053C151.945 13.4478 152.053 13.3904 152.174 13.3473H152.167ZM152.862 18.7466C153.413 18.4738 153.965 18.1865 154.516 17.9209C154.953 17.8778 155.383 17.8204 155.82 17.7629C155.347 18.3517 154.832 18.8974 154.302 19.4359L152.862 18.7466ZM158.986 21.6616C159.193 21.6544 159.387 21.5898 159.544 21.4678L159.351 21.8339L158.986 21.6616ZM161.614 17.4829C161.306 16.8367 160.418 16.5065 159.924 17.0808C159.945 16.9157 159.967 16.7506 159.995 16.5926C160.132 16.4993 160.253 16.3988 160.375 16.2982L161.843 17.0593L161.621 17.4901L161.614 17.4829ZM148.851 10.3246L149.374 10.5974C149.216 11.1718 149.044 11.739 148.865 12.3062C148.694 11.9831 148.529 11.66 148.357 11.3369L148.844 10.3246H148.851ZM147.197 13.7422C147.311 13.9576 147.426 14.1802 147.54 14.3956C147.218 14.8407 146.946 15.3218 146.71 15.8172L146.287 15.6161L147.197 13.735V13.7422ZM187.104 22.394L180.637 16.0254L152.532 39.0872L146.566 43.9839L152.998 51.0346L181.468 27.1327L185.192 24.0023L187.111 22.394H187.104ZM184.898 22.3724C184.884 22.3078 184.87 22.2504 184.855 22.1857L184.977 22.3006L184.898 22.3652V22.3724ZM179.462 23.3489C178.796 23.9735 178.123 24.5982 177.457 25.23C177.407 24.5551 177.22 23.873 176.855 23.2197C176.676 22.8966 176.339 22.7242 175.989 22.7027C176.69 22.1786 177.407 21.6688 178.116 21.159C178.152 21.2739 178.187 21.396 178.23 21.5108C178.338 21.8555 178.574 22.0781 178.853 22.2001C179.054 22.5807 179.262 22.9684 179.462 23.3489ZM174.792 23.6146C174.728 23.7366 174.664 23.8587 174.599 23.9879C174.57 23.9376 174.542 23.8874 174.506 23.8443C174.606 23.7725 174.699 23.6935 174.792 23.6217V23.6146ZM149.918 45.0465C149.918 45.0465 149.918 45.1183 149.911 45.1471C149.897 45.3337 149.94 45.4989 150.026 45.6497L149.582 45.1614C149.696 45.1255 149.804 45.0896 149.918 45.0465ZM150.312 45.9656C150.441 46.0589 150.584 46.1379 150.735 46.181C150.706 46.2312 150.677 46.2887 150.649 46.3389L150.312 45.9727V45.9656ZM152.153 47.897C152.633 46.8989 153.571 45.9225 154.072 45.3194C154.975 44.228 155.949 43.2013 156.944 42.1961C157.209 42.0741 157.474 41.952 157.747 41.8228C155.856 43.826 154.008 45.8722 152.153 47.8898V47.897ZM159.465 43.2229C160.704 41.9018 161.965 40.5878 163.261 39.317C163.34 39.676 163.591 39.8986 163.892 40.0063L157.302 45.542C158.026 44.7665 158.742 43.9911 159.465 43.2229ZM160.318 36.3804C161.414 35.2675 162.531 34.1834 163.655 33.1064C163.526 33.4869 163.412 33.8818 163.319 34.2767C162.287 34.9372 161.285 35.6409 160.311 36.3804H160.318ZM166.227 32.5464C166.334 32.3453 166.434 32.1371 166.556 31.9432C166.577 32.0725 166.606 32.2017 166.628 32.3309C166.492 32.4027 166.363 32.4745 166.234 32.5535L166.227 32.5464ZM168.124 29.0497C168.54 28.6907 168.955 28.3174 169.371 27.9656C169.091 28.9133 168.805 29.8611 168.526 30.8088C168.418 30.256 168.296 29.7103 168.167 29.1646C168.16 29.1287 168.139 29.0928 168.124 29.0569V29.0497ZM172.873 26.1275C172.837 26.6947 172.73 27.2476 172.601 27.8004C172.121 28.7195 171.634 29.6385 171.154 30.5575C171.147 30.5575 171.133 30.5719 171.118 30.579C171.004 30.6508 170.889 30.7227 170.774 30.7945C170.789 30.737 170.81 30.6796 170.825 30.615C171.097 29.7031 171.369 28.7913 171.641 27.8794C171.877 27.0896 172.028 26.1706 172.565 25.5172C172.622 25.4526 172.737 25.2803 172.83 25.2444C172.83 25.2444 172.83 25.2444 172.83 25.2587C172.959 25.4741 172.887 25.8978 172.866 26.1347L172.873 26.1275ZM182.048 20.1826C182.148 20.4554 182.241 20.7282 182.327 21.0011C182.091 21.0154 181.854 21.1016 181.647 21.3026C181.46 21.4749 181.274 21.6544 181.088 21.8267C180.995 21.6473 180.902 21.4749 180.809 21.2954L182.055 20.1826H182.048ZM154.867 39.0226C154.044 39.9345 153.234 40.8535 152.432 41.7869C152.389 41.8012 152.353 41.8228 152.318 41.8371C152.339 41.5786 152.361 41.3274 152.375 41.0689L154.867 39.0226ZM172.93 32.4243C172.93 32.4243 172.945 32.4028 172.952 32.3884L174.592 30.8519C174.592 30.8519 174.649 30.8088 174.678 30.7873C175.022 30.5073 175.344 30.1985 175.645 29.8611C177.263 28.3461 178.882 26.8311 180.501 25.3162C180.594 25.4885 180.68 25.6608 180.773 25.8331L172.923 32.4243H172.93ZM127.021 27.4773L136.546 13.9217L135.307 11.5308L135.143 11.2077L134.863 10.6692L134.634 10.224L133.939 8.8814L130.509 9.04654L126.419 9.24039L122.208 9.44143L118.62 9.61376L115.805 9.75018L113.62 9.85787L111.98 9.93684L109.731 10.0445L109.237 10.0661L106.286 10.2097L96.775 10.6692L93.7669 10.8128L92.4634 10.8774L92.4275 13.3114L92.3416 19.5938L95.5359 19.4717L105.348 19.0912L109.166 18.9476L110.125 18.9117L112.747 18.8112L117.982 18.6102L122.122 18.4522L119.407 22.674L113.291 32.2017L111.178 30.4283L110.14 29.5523L106.05 26.1131L100.105 33.0561L121.291 50.2735L126.254 44.2639L126.827 43.5747L119.844 37.7015L122.917 33.3218L127.028 27.4702L127.021 27.4773ZM116.786 38.4985C116.836 38.3333 116.894 38.161 116.944 37.9959C117.76 38.5487 118.584 39.1016 119.4 39.6473C119.372 39.8124 119.35 39.9704 119.321 40.1355C118.476 39.5898 117.631 39.0441 116.786 38.4985ZM118.956 42.4618C118.956 42.4618 118.956 42.4905 118.949 42.5049C118.928 42.4761 118.906 42.4402 118.885 42.4115C118.906 42.4259 118.935 42.4403 118.956 42.4618ZM112.396 34.966C112.396 35.1886 112.381 35.4183 112.374 35.6409C112.324 35.6122 112.274 35.5763 112.231 35.5475C112.152 35.2891 112.066 35.0234 111.987 34.7649C112.124 34.8224 112.26 34.887 112.396 34.966ZM110.72 37.9241C110.548 38.0677 110.383 38.2113 110.211 38.3477C110.154 38.2687 110.089 38.1897 110.039 38.1036C110.175 37.7518 110.319 37.4071 110.455 37.0553C110.548 37.3425 110.634 37.6297 110.727 37.9241H110.72ZM109.173 34.0613C108.965 34.1475 108.786 34.3054 108.664 34.5065C108.478 33.7167 108.328 32.9197 108.184 32.1299C108.378 31.5771 108.585 31.0314 108.786 30.4857C109.645 31.2827 109.509 32.7474 109.166 34.0613H109.173ZM105.792 30.8519C105.771 31.5986 105.713 32.3453 105.62 33.0848C105.499 33.4654 105.37 33.8387 105.255 34.2193C104.775 33.1566 104.238 32.1227 103.629 31.1319L105.527 28.9133C105.599 29.5595 105.692 30.2057 105.799 30.8519H105.792ZM107.081 36.804C107.081 36.804 107.103 36.8686 107.117 36.9045L107.067 36.8615C107.067 36.8615 107.081 36.8256 107.081 36.804ZM115.819 41.9376C116.793 43.1152 117.674 44.3716 118.441 45.6927C118.419 45.8148 118.405 45.944 118.383 46.0661L115.389 43.6321C115.533 43.0649 115.669 42.5049 115.819 41.9376ZM121.076 46.0302L121.664 44.2137L121.85 44.3357C122.086 44.4865 122.315 44.6445 122.544 44.8024C122.208 44.8742 121.914 45.104 121.814 45.5491C121.706 46.023 121.621 46.5041 121.549 46.9779C121.399 46.662 121.241 46.3461 121.083 46.0374L121.076 46.0302ZM122.344 42.0884C122.38 41.9807 122.416 41.873 122.444 41.7653L124.45 43.4526C123.748 43.0003 123.046 42.5408 122.344 42.0884ZM118.813 36.6604C118.612 36.524 118.412 36.3876 118.211 36.2583C118.913 35.3968 119.622 34.5424 120.339 33.688C120.281 34.0326 120.231 34.3772 120.174 34.7219L118.813 36.6604ZM122.895 23.9592C123.06 24.5838 123.218 25.2157 123.382 25.8403C122.709 26.5727 122.022 27.2907 121.334 28.0015C121.9 26.6588 122.416 25.3018 122.895 23.9592ZM94.2539 17.8347C94.3327 17.9281 94.433 18.0071 94.5404 18.0717L94.0605 18.0932C94.125 18.0071 94.1966 17.9281 94.2539 17.8347ZM98.1859 17.9281L96.1519 18.0071C97.0257 17.7558 97.8851 17.4686 98.7159 17.1167C98.5297 17.3824 98.365 17.6552 98.1859 17.9281ZM102.949 17.3752C103.55 16.6788 104.152 15.9823 104.754 15.2859C106 15.372 107.253 15.4654 108.499 15.5515C108.499 15.5659 108.499 15.5802 108.499 15.5946C106.659 16.2049 104.811 16.8008 102.956 17.3824L102.949 17.3752ZM132.629 10.3748C132.113 11.4087 131.669 12.4714 131.297 13.5627C130.358 14.1371 129.42 14.7186 128.482 15.293H128.468C129.671 13.6632 130.867 12.0334 132.07 10.4035L132.636 10.3748H132.629ZM127.73 18.2799C128.117 18.0429 128.503 17.806 128.89 17.5691C129.32 17.6624 129.742 17.7629 130.165 17.8706C129.614 18.5743 129.055 19.2779 128.482 19.9743C128.496 19.7518 128.525 19.5364 128.532 19.3138C128.554 18.8327 128.167 18.4307 127.723 18.2871L127.73 18.2799ZM127.587 12.8734C127.092 13.5411 126.598 14.2161 126.104 14.8838C125.574 14.8048 125.044 14.733 124.514 14.6684C125.538 14.0725 126.562 13.4765 127.587 12.8734ZM124.177 12.378C123.683 12.6652 123.182 12.9524 122.681 13.2396C122.573 13.1534 122.444 13.096 122.308 13.0601C122.931 12.8303 123.554 12.6078 124.17 12.378H124.177ZM120.818 14.2592C120.818 14.2592 120.818 14.2735 120.818 14.2807C120.818 14.2807 120.811 14.2807 120.804 14.2807C120.804 14.2735 120.811 14.2663 120.818 14.2592ZM120.145 11.3154C120.074 11.4303 119.995 11.5451 119.916 11.66C119.715 11.7318 119.515 11.8036 119.321 11.8754L120.145 11.3226V11.3154ZM120.46 17.009C120.46 17.009 120.489 17.0091 120.503 17.0162C120.503 17.0306 120.503 17.0521 120.496 17.0665H120.339C120.381 17.0521 120.417 17.0306 120.46 17.0019V17.009ZM123.168 16.6716C123.669 16.729 124.163 16.7865 124.657 16.8511C124.643 16.8726 124.629 16.887 124.614 16.9085L123.289 16.9588C123.246 16.8583 123.211 16.7577 123.168 16.6644V16.6716ZM124.865 20.0461L126.233 19.2061C125.588 20.1251 125.058 21.0944 124.65 22.1211C124.55 21.7406 124.457 21.3601 124.356 20.9795C124.292 20.7211 124.228 20.441 124.17 20.1682C124.407 20.2113 124.65 20.1897 124.865 20.0533V20.0461ZM115.748 11.538C115.769 11.4231 115.783 11.301 115.798 11.1862L116.313 11.1646L115.748 11.538ZM112.374 11.3513C112.002 11.8036 111.636 12.2703 111.286 12.737C111.393 12.2847 111.515 11.8395 111.629 11.3872L112.374 11.3513ZM109.38 11.4949C109.223 12.1339 109.072 12.7801 108.936 13.4263C108.127 13.3688 107.318 13.3114 106.516 13.254L107.969 11.5595L109.38 11.4949ZM103.178 11.7964C102.727 12.1913 102.254 12.5719 101.774 12.9237C100.428 12.8303 99.0884 12.737 97.7419 12.6365C96.3596 12.536 96.3667 14.6971 97.7419 14.7905C98.0069 14.812 98.2719 14.8263 98.5297 14.8479C97.8207 15.1782 97.0901 15.4726 96.3381 15.7167L96.6604 12.1052L103.171 11.7893L103.178 11.7964ZM122.981 30.7585C123.003 30.6149 123.024 30.4713 123.053 30.3277C123.096 30.0477 123.024 29.7606 122.881 29.5164C123.418 28.9564 123.97 28.4035 124.5 27.8292C124.571 27.8435 124.65 27.8363 124.722 27.8292C124.636 28.102 124.543 28.3748 124.457 28.6548L122.981 30.7514V30.7585ZM43.7606 17.8563L44.0185 16.8224L43.2593 15.968L40.1366 12.4426L38.5466 12.4857L35.6316 12.5647L26.4783 12.816L24.1793 12.8806C24.258 12.5503 24.344 12.1985 24.4371 11.8252C24.4586 11.7318 24.4872 11.6385 24.5087 11.538C24.5875 11.2221 24.6663 10.8918 24.7522 10.5471C24.7737 10.4753 24.788 10.3964 24.8095 10.3246C25.0316 9.42707 25.2822 8.43624 25.5616 7.35207C25.8552 6.19611 26.1775 4.94682 26.5356 3.57546L24.6305 3.32416L23.3914 3.15902L20.3475 2.74978L17.6975 2.39795C17.4397 3.44621 17.1961 4.42986 16.967 5.3776C16.967 5.3776 16.967 5.3848 16.967 5.39198C16.6661 6.62692 16.3868 7.76852 16.129 8.82397C16.129 8.83115 16.129 8.83833 16.129 8.85269C16.043 9.21169 15.9571 9.55631 15.8783 9.89376C15.7995 10.2169 15.7279 10.5256 15.6491 10.8343C15.6133 10.9851 15.5775 11.1359 15.5417 11.2867C15.4915 11.4805 15.4486 11.6744 15.4056 11.8682C15.377 11.9975 15.3483 12.1195 15.3125 12.2488C15.2409 12.5575 15.1692 12.8591 15.0976 13.1391L2.42775 13.534L2.23438 22.394L12.6911 22.0493C12.4118 23.0832 12.1397 24.0813 11.8675 25.0505C11.5953 26.0198 11.3303 26.9532 11.0725 27.8579C8.98114 34.8439 6.50303 41.6576 3.65965 48.2847L7.83519 49.0673L9.94087 49.4622L12.1611 49.8786L12.598 49.9576C14.6965 44.1993 16.659 38.3692 18.4997 32.4746C18.6644 31.9361 18.8363 31.3904 19.001 30.8519C19.1729 30.299 19.352 29.7462 19.5167 29.1861C20.2687 26.6588 21.0064 24.153 21.7226 21.6544L25.9197 21.5108L33.354 21.2596L30.5966 32.5966L29.5007 37.0912L29.4434 37.3138L28.9994 39.1375L27.9466 43.4813L26.8436 48.019H28.2689H32.9386H36.226L36.7847 45.7933L36.9637 45.0824L42.6863 22.1283L43.7535 17.8491L43.7606 17.8563ZM9.96235 35.9137C10.5425 34.2408 11.094 32.5679 11.624 30.8806C11.7887 30.7945 11.9606 30.7227 12.1253 30.6365C12.0537 32.0868 11.9749 33.53 11.8818 34.9803C11.2444 35.3034 10.6069 35.6122 9.96235 35.9209V35.9137ZM10.6714 37.9313C9.88357 39.4319 9.11006 40.9397 8.36519 42.4618C7.84235 43.2229 7.27654 43.9552 6.68924 44.6732C7.48424 42.6915 8.25776 40.6884 8.9883 38.6708C9.54695 38.4267 10.1128 38.1898 10.6642 37.9313H10.6714ZM23.4917 9.71427C22.5248 10.7051 21.4934 11.6241 20.4406 12.4713C19.8461 12.9452 19.2445 13.4119 18.6286 13.8642C20.1541 11.2579 22.1166 8.91013 24.2509 6.72026C23.9716 7.81161 23.7209 8.8096 23.4917 9.71427ZM19.6241 16.2049C18.6214 17.3537 17.6545 18.5384 16.7306 19.7661C16.5802 19.9672 16.5301 20.1754 16.5515 20.3764C16.2651 20.599 15.9786 20.8144 15.6992 21.0441C16.0717 20.2185 16.437 19.3928 16.8094 18.5671C16.9526 18.2512 16.9455 17.9424 16.8452 17.684C17.2105 17.447 17.5686 17.2173 17.9338 16.9803C18.4997 16.729 19.0655 16.4706 19.6241 16.2121V16.2049ZM16.8309 24.8423C17.6044 24.1171 18.3851 23.392 19.1586 22.674C18.4209 23.4351 17.6402 24.1602 16.8309 24.8423ZM17.2893 27.2619C16.573 28.583 15.8497 29.897 15.1334 31.2181C15.1191 31.2181 15.1048 31.2181 15.0905 31.2181C15.1836 30.3708 15.2695 29.5236 15.3626 28.6764C16.0215 28.224 16.6661 27.7645 17.2893 27.2691V27.2619ZM15.1406 14.575H15.3197C15.1334 15.0489 14.9544 15.53 14.804 16.0254C14.761 16.0398 14.7252 16.0613 14.6822 16.0828C14.6249 15.5659 14.5103 15.0705 14.2883 14.6038L15.1406 14.575ZM12.3832 15.5013C12.5837 15.8315 12.641 16.3844 12.641 16.9372C11.7601 17.3034 10.8863 17.6696 9.99816 18.0286C10.7574 17.1527 11.5452 16.3054 12.3832 15.5013ZM12.5121 20.319C12.5121 20.4195 12.5121 20.52 12.5049 20.6133L11.9463 20.6349C12.1325 20.5272 12.3259 20.4267 12.5192 20.319H12.5121ZM24.3511 14.3238L25.1461 14.3022C24.3941 14.7761 23.6493 15.2715 22.9115 15.7669C23.3843 15.2787 23.8641 14.7976 24.3511 14.3238ZM26.7147 15.8603C27.3449 15.3074 27.9824 14.7546 28.6126 14.2089H28.7917C28.7344 14.4674 28.6843 14.7402 28.6198 15.0202C27.9609 15.3792 27.2948 15.7239 26.6144 16.0541C26.6502 15.9895 26.686 15.9321 26.7147 15.8674V15.8603ZM36.3907 38.6923C36.4624 38.5631 36.534 38.441 36.5985 38.3118C36.6701 38.1682 36.7345 38.0246 36.7847 37.8738C37.0139 37.6297 37.2502 37.3856 37.4794 37.1486L37.3075 37.8236C36.9995 38.1108 36.6987 38.4051 36.3836 38.6852L36.3907 38.6923ZM35.2663 29.4446C35.4883 28.224 35.5385 26.9676 35.7676 25.7111C35.8393 25.3377 35.9324 24.9715 36.0255 24.6054C36.2762 24.6054 36.5268 24.5336 36.7489 24.3613C36.9494 24.2033 37.1571 24.0597 37.3576 23.9018C37.329 23.9664 37.3075 24.0238 37.2789 24.0884C36.5626 25.8547 35.8966 27.6425 35.2663 29.4446ZM34.3567 17.5332C34.8151 16.3341 35.4167 15.1997 36.1544 14.1514C36.1544 14.2376 36.1544 14.3166 36.1544 14.4027C36.1544 14.9915 36.7703 15.6233 37.4006 15.4725C36.3908 16.1618 35.3737 16.8511 34.3639 17.5404L34.3567 17.5332ZM32.1651 15.4079L29.7228 19.1127C30.0451 18.2368 30.2957 17.3321 30.5106 16.4203C31.0693 16.0972 31.6207 15.7526 32.1651 15.4079ZM34.8509 21.3457C34.8222 21.4175 34.7936 21.4893 34.7649 21.5683L34.8151 21.3672C34.8151 21.3672 34.8437 21.3529 34.8509 21.3529V21.3457ZM33.5044 26.7378C33.354 28.2169 33.2036 29.6887 32.473 30.9883L33.5044 26.7378ZM33.3039 33.5515C33.533 33.4582 33.7694 33.372 33.9986 33.293C33.9843 33.3361 33.9699 33.372 33.9628 33.4151C33.8983 33.6377 33.8339 33.8603 33.7694 34.0757C33.2179 34.4562 32.6807 34.8439 32.1436 35.2388C32.473 34.6501 32.8884 34.0972 33.311 33.5515H33.3039ZM33.6548 45.0394C33.7909 44.4865 33.9413 43.9337 34.0845 43.388C34.8652 42.7992 35.6316 42.1818 36.3836 41.5428L35.8035 43.8762C35.0944 44.2711 34.3782 44.666 33.6548 45.0394ZM38.0237 34.9516C37.7229 34.6644 37.2932 34.5352 36.8921 34.729C36.9208 34.6572 36.9422 34.5926 36.9709 34.5208C37.4221 34.2264 37.8876 33.9464 38.346 33.6592L38.0237 34.9516ZM39.0837 29.4446C39.2914 28.9779 39.5278 28.5256 39.7426 28.0661L39.4275 29.3369C39.3129 29.3728 39.1983 29.4087 39.0837 29.4518V29.4446ZM41.6621 18.5814C41.7982 18.1004 41.9271 17.6193 42.0274 17.1239C42.0918 17.0737 42.1563 17.0162 42.2136 16.9588L42.4428 17.2173L42.1706 18.3086C41.9987 18.4019 41.8268 18.4881 41.6621 18.5814ZM17.9625 7.3808C19.2159 6.36843 20.4907 5.37761 21.7728 4.40115L23.3413 4.60937C22.5893 5.36326 21.8516 6.12432 21.1425 6.91411C21.0064 6.92129 20.8703 6.95719 20.7414 7.0218C19.6671 7.55312 18.6357 8.1347 17.6187 8.75935C17.7261 8.3142 17.8407 7.85467 17.9553 7.3808H17.9625ZM6.15208 14.8551C5.35708 15.6161 4.56924 16.3844 3.78857 17.1598L3.8387 14.9269L6.15924 14.8551H6.15208ZM3.71694 20.398C4.46897 20.3836 5.17086 20.1969 5.82978 19.8882C5.62924 20.1826 5.6364 20.5344 5.77965 20.8359L3.70978 20.9077L3.72411 20.398H3.71694ZM11.3232 42.6844C11.2659 43.4024 11.2157 44.1132 11.1513 44.8311C11.1226 45.1901 11.0868 45.5635 11.051 45.9369C10.8003 46.6477 10.5497 47.3585 10.299 48.0693L8.56573 47.7462C9.48249 46.0589 10.4064 44.3788 11.3232 42.6915V42.6844ZM24.079 20.1395C24.301 19.8307 24.523 19.5292 24.7379 19.2133C25.7907 18.7897 26.8364 18.3373 27.8534 17.8347C27.5956 18.603 27.2733 19.3497 26.9009 20.039L24.0861 20.1323L24.079 20.1395ZM29.9663 41.3058C30.482 40.9253 30.9905 40.5447 31.5062 40.1642C30.969 40.6812 30.4175 41.1838 29.8732 41.6935L29.9663 41.3058ZM216.075 22.5447H215.667L216.132 19.3353L216.87 14.2663L219.09 14.2017L219.141 7.81878H211.742V3.10159H211.047L205.568 3.15185L205.325 7.81878H196.415L196.487 8.98909L196.558 10.102L196.723 12.7801L196.809 14.1802L196.83 14.5822L196.845 14.8048L199.38 14.733L199.681 22.1068L199.18 22.0924L197.69 22.0565L196.043 22.0134H195.756V22.1857L195.692 28.7266L207.409 28.6333L209.772 28.6118L219.105 28.5328H219.585L219.599 25.2013V24.3254V22.6237L216.082 22.5304L216.075 22.5447ZM197.138 26.8455C198.965 26.3716 200.827 26.0773 202.768 26.1634C202.832 26.1634 202.89 26.1706 202.954 26.1778C201.02 26.5009 199.087 26.7593 197.138 26.9747V26.8455ZM217.68 11.0641C217.15 11.2795 216.62 11.4949 216.082 11.6959C216.082 11.6457 216.082 11.6026 216.082 11.5523C216.612 11.3585 217.15 11.1933 217.68 11.0067V11.0569V11.0641ZM213.124 21.2954C213.425 20.8 213.712 20.2974 213.977 19.7805C213.977 20.3046 213.984 20.8287 213.977 21.3601C213.977 21.7047 213.955 22.0565 213.941 22.4012C213.862 22.4012 213.776 22.3868 213.697 22.3796C213.697 22.3365 213.712 22.3006 213.719 22.2575C213.776 21.7406 213.504 21.4175 213.132 21.2883L213.124 21.2954ZM213.124 15.3505C213.167 15.2069 213.217 15.0633 213.26 14.9197C213.275 14.9197 213.289 14.9125 213.303 14.9053C213.246 15.0561 213.182 15.1997 213.124 15.3505ZM208.276 24.3325C208.254 24.3828 208.24 24.4402 208.218 24.4905C208.218 24.5049 208.218 24.5192 208.211 24.5336C207.853 24.4905 207.488 24.4402 207.122 24.3972C207.122 24.3828 207.122 24.3684 207.13 24.3469C207.509 24.3325 207.889 24.3325 208.276 24.3254V24.3325ZM209.142 5.29145C209.228 5.14785 209.3 4.99708 209.386 4.85348C209.479 4.85348 209.572 4.85348 209.665 4.82476C209.486 4.97554 209.314 5.13349 209.142 5.29145ZM209.844 7.57465C209.909 7.51003 209.973 7.45261 210.045 7.38799C210.016 7.45261 209.98 7.51004 209.944 7.56748C209.916 7.56748 209.88 7.56748 209.851 7.56748L209.844 7.57465ZM210.388 14.453L210.245 15.7813L209.894 19.0122L209.529 22.3868L206.242 22.3006L206.156 14.5679L210.388 14.453ZM204.444 22.3581C204.344 22.3653 204.25 22.3724 204.15 22.3868C204.229 22.2647 204.315 22.1355 204.394 22.0134L204.444 22.3581ZM203.527 13.2611C203.663 13.2396 203.799 13.2109 203.942 13.1893C203.899 13.4837 203.864 13.7781 203.814 14.0653C203.534 14.8694 203.226 15.6592 202.868 16.4203L202.431 14.1012C202.797 13.8212 203.169 13.5412 203.534 13.2611H203.527ZM201.908 11.301C202.023 10.8774 202.152 10.4538 202.317 10.0445C202.804 10.0302 203.284 10.0087 203.771 9.99429C203.606 10.2528 203.441 10.5112 203.276 10.7697C203.097 10.8918 202.918 11.0282 202.739 11.1574C202.46 11.2077 202.188 11.2508 201.908 11.301ZM201.135 22.3868C201.335 22.2145 201.529 22.0422 201.715 21.8627L201.765 22.1211C201.643 22.3078 201.522 22.5017 201.393 22.6883C201.393 22.6883 201.393 22.6884 201.393 22.6955C201.314 22.7099 201.235 22.7242 201.149 22.7314L201.135 22.3796V22.3868ZM209.371 27.1183C209.371 27.1183 209.414 27.1686 209.429 27.1973H208.985C209.114 27.1758 209.242 27.1471 209.364 27.1183H209.371ZM211.14 27.183C211.183 27.1399 211.234 27.104 211.284 27.0609C211.606 27.0968 211.921 27.1327 212.243 27.1686H211.148L211.14 27.183ZM215.867 25.4382C216.641 25.2157 217.4 24.9716 218.167 24.7274V25.6967C217.393 25.6106 216.634 25.5244 215.867 25.4311V25.4382ZM198.793 10.0948C198.549 10.303 198.292 10.4897 198.027 10.6764L197.991 10.102C198.256 10.102 198.521 10.102 198.793 10.0948ZM206.707 31.0601L205.103 30.9955L198.621 30.7298L198.707 33.4079L198.922 40.0781L199.036 43.6249L199.051 44.0988L199.065 44.5368V44.824L199.165 47.6528L199.617 47.6385L202.789 47.5523L214.815 47.2292L216.462 47.1862H216.641L217.178 41.7797L217.945 34.1044L218.045 33.0992L218.202 31.534L206.707 31.0673V31.0601ZM215.38 45.305C215.187 45.4702 214.987 45.6209 214.8 45.7933L213.762 45.822C214.285 45.4414 214.836 45.104 215.423 44.867L215.38 45.305ZM200.261 37.3569V37.2635C200.526 37.0338 200.784 36.804 201.049 36.5743C202.195 36.3158 203.341 36.0286 204.48 35.7414V35.8419C203.083 36.3661 201.672 36.8686 200.261 37.3569ZM203.921 38.3405C203.849 38.4554 203.771 38.5703 203.699 38.6852C203.663 38.6062 203.613 38.5344 203.563 38.4769C203.685 38.4339 203.799 38.3908 203.921 38.3477V38.3405ZM204.63 41.112V41.1191C204.63 41.1191 204.63 41.1191 204.63 41.112ZM211.119 36.4737L210.732 41.155L206.07 41.2986L205.941 36.5025L211.126 36.4737H211.119ZM208.333 42.67H208.562C208.311 42.8279 208.061 42.9931 207.796 43.1511C207.975 42.9931 208.147 42.8351 208.326 42.67H208.333ZM210.267 45.9153C210.267 45.9153 210.317 45.8722 210.345 45.8579C210.324 45.8794 210.302 45.901 210.281 45.9153H210.267ZM200.734 39.4678C200.605 39.5755 200.469 39.6688 200.34 39.7765V39.6042C200.469 39.5611 200.605 39.518 200.734 39.4678ZM200.54 46.1738V46.0087C200.598 45.9656 200.648 45.9153 200.712 45.8651C200.72 45.8579 200.727 45.8507 200.734 45.8435C201.536 45.2332 202.209 44.4865 202.718 43.6465C203.269 43.5531 203.814 43.4526 204.365 43.3449C203.327 44.2783 202.288 45.2189 201.25 46.1522L200.54 46.1738ZM216.426 34.8367C215.123 35.4757 213.819 36.1219 212.53 36.7897C212.881 36.4522 213.253 36.1507 213.619 35.885C214.55 35.2101 215.524 34.5998 216.512 34.011L216.426 34.8367ZM242.203 29.1933V29.1503L238.45 22.2001L237.59 20.6133L239.624 15.3002L241.286 10.9492L242.167 8.63728L241.58 7.49568L240.663 5.7366L240.348 5.12632L232.326 5.16221H230.665L228.53 5.17657L224.419 5.1981L221.533 5.21248V5.41351L221.49 9.24758L221.175 35.3537L221.003 49.5412L225.064 49.6704H225.193L227.42 49.7422L228.566 49.7781L228.523 35.6265L228.473 20.4267L228.444 12.2703L233.923 12.3134L230.256 21.4462L231.266 23.1263L231.775 23.9807L233.207 26.3788L233.229 26.4147L234.862 29.1503L229.182 31.5986L231.481 37.4502L231.667 37.9241L232.484 37.601L234.704 36.7322L235.642 36.366L240.856 34.327L241.365 34.1259L241.429 33.7454L242.024 30.177L242.188 29.1861L242.203 29.1933ZM231.323 33.092C231.402 33.0633 231.474 33.0274 231.545 33.0059C231.495 33.092 231.438 33.1782 231.388 33.2643L231.323 33.092ZM223.925 15.968C224.276 14.4315 224.627 12.895 224.985 11.3657C225.157 11.2651 225.322 11.1718 225.493 11.0713C225.343 12.1698 225.2 13.2755 225.049 14.374C224.677 14.9053 224.305 15.4366 223.932 15.968H223.925ZM223.954 17.7701C223.903 17.8922 223.853 18.007 223.81 18.1291C223.567 18.6604 223.316 19.1917 223.065 19.723C223.237 18.962 223.416 18.2081 223.588 17.447C223.681 17.5762 223.81 17.684 223.954 17.7701ZM224.827 44.9819C225.064 45.1255 225.372 45.1614 225.665 45.0968C225.128 45.9368 224.562 46.7697 223.968 47.5739C224.269 46.7123 224.555 45.8507 224.835 44.9891L224.827 44.9819ZM224.87 31.6776C225.064 30.2344 225.257 28.7913 225.45 27.3553C225.551 27.5563 225.651 27.7573 225.758 27.9512C225.852 28.1163 225.952 28.2887 226.045 28.4538C225.63 29.5164 225.243 30.5934 224.87 31.6776ZM225.644 8.47214C225.644 8.47214 225.658 8.42189 225.665 8.39317C225.744 8.26393 225.816 8.13469 225.902 8.00545C225.887 8.12033 225.873 8.22803 225.859 8.3429C225.787 8.38598 225.723 8.42906 225.651 8.47214H225.644ZM226.596 43.5962C226.732 41.9376 226.897 40.2647 227.098 38.599L227.112 42.67C226.94 42.9787 226.775 43.2946 226.596 43.5962ZM227.062 25.4382C226.869 24.5408 226.904 23.5499 226.962 22.6022C226.99 22.6812 227.026 22.7601 227.055 22.8463V25.4382H227.062ZM228.33 9.34092C228.48 9.24758 228.63 9.15423 228.781 9.06089L228.394 9.61376C228.373 9.52042 228.358 9.42708 228.337 9.34092H228.33ZM233.121 6.60538L235.793 6.59101C234.016 8.01263 232.24 9.43426 230.457 10.8487H230.135C231.13 9.43426 232.118 8.01263 233.114 6.59819L233.121 6.60538ZM236.258 20.1036L236.022 20.7211L236.23 21.1016C235.528 21.6832 234.826 22.2647 234.124 22.8463C234.546 22.0924 234.998 21.3601 235.463 20.6349C235.75 20.441 236.015 20.2256 236.287 20.0246L236.258 20.0964V20.1036ZM233.902 19.1415C233.787 19.2133 233.68 19.2923 233.565 19.3641C233.823 19.0697 234.081 18.7681 234.339 18.4738C234.188 18.6963 234.052 18.9189 233.902 19.1415ZM235.972 13.2683C235.435 13.9073 234.876 14.532 234.332 15.171L234.854 13.8714C235.227 13.6704 235.606 13.4765 235.972 13.2683ZM236.545 29.0641C236.545 29.0641 236.523 29.0856 236.509 29.0928L236.466 29.021C236.588 28.8559 236.717 28.6907 236.845 28.5328C236.982 28.4969 237.11 28.4682 237.247 28.4323C237.168 28.5687 237.089 28.7123 237.01 28.8487C236.838 28.8989 236.681 28.9707 236.552 29.0713L236.545 29.0641ZM236.043 34.607C236.043 34.607 236.072 34.6501 236.086 34.6716L235.979 34.7147C236 34.6788 236.022 34.6429 236.043 34.607ZM239.968 28.0158L240.162 28.3748C239.61 29.1431 239.044 29.9041 238.457 30.6508C238.457 30.6508 238.457 30.6365 238.457 30.6293C238.965 29.7605 239.467 28.8918 239.968 28.0158ZM237.963 24.3038C237.146 25.0218 236.373 25.7829 235.657 26.6014C235.599 26.6157 235.542 26.6301 235.485 26.6445C236.036 25.5029 236.717 24.4259 237.483 23.4063L237.963 24.2966V24.3038ZM240.226 8.00545C238.794 9.04653 237.311 10.0086 235.793 10.9061H235.413C236.81 9.53477 238.206 8.1706 239.603 6.80642L240.226 8.00545ZM228.043 6.98591C228 6.85668 227.936 6.74179 227.857 6.64127H228.552C228.38 6.74897 228.215 6.87104 228.043 6.98591ZM232.72 35.8563C232.684 35.9137 232.641 35.9783 232.605 36.0358L232.57 36.0501C232.62 35.9855 232.663 35.9209 232.72 35.8563Z" fill="#FD8517"/>
</svg>
