<svg width="262" height="139" viewBox="0 0 262 139" fill="none" xmlns="http://www.w3.org/2000/svg">
<path d="M237 95H27C14.8497 95 5 104.85 5 117C5 129.15 14.8497 139 27 139H237C249.15 139 259 129.15 259 117C259 104.85 249.15 95 237 95Z" fill="black"/>
<path d="M235 93H25C12.8497 93 3 102.85 3 115C3 127.15 12.8497 137 25 137H235C247.15 137 257 127.15 257 115C257 102.85 247.15 93 235 93Z" fill="white"/>
<path d="M236 115C236 112.61 234.33 110.63 232.09 110.13C230.74 111.5 229.42 112.88 228.13 114.3C228.59 112.87 229.05 111.43 229.51 110H225.02C223.81 111.51 222.55 112.98 221.24 114.4C222.03 112.95 222.78 111.48 223.5 110H216.94C216.48 110.29 216.02 110.57 215.57 110.87C215.81 110.58 216.04 110.29 216.28 110H211.63C210.15 111.47 208.68 112.95 207.2 114.42C207.87 113.53 208.53 112.64 209.16 111.72C209.54 111.17 209.94 110.6 210.3 109.99H199.8C197.6 111.85 195.34 113.64 193.01 115.35C193.52 114.31 194.03 113.27 194.55 112.23C194.98 111.36 194.46 110.27 193.65 110H192.88C192.75 110.04 192.63 110.09 192.5 110.18C190.37 111.58 188.41 113.18 186.61 114.94C187.11 113.3 187.57 111.66 188.01 110H182.48C180.61 112.29 178.49 114.38 176.14 116.15C177.45 114.13 178.71 112.07 179.94 110H175.8C175.16 110.84 174.53 111.68 173.87 112.5C174.15 111.65 174.46 110.83 174.77 110H171.05C169.54 112.65 168.64 115.62 168.43 118.65C168.03 119.06 167.63 119.48 167.22 119.88C168.06 116.59 168.9 113.29 169.73 110H164.89C160.04 113.3 154.81 115.98 149.3 117.98C151.49 115.03 154.04 112.37 156.88 110H152.21C149.46 112.38 146.82 114.88 144.31 117.51C144.52 117.1 144.72 116.69 144.94 116.28C146.67 114.36 148.18 112.26 149.46 110H143.68C142.32 111.26 140.94 112.49 139.53 113.69L141.4 110H138.04C136.61 112.81 135.18 115.62 133.76 118.43C133.51 118.93 133.6 119.53 133.88 120H152.43C157.14 118.12 161.66 115.76 165.89 112.94C165.29 115.29 164.69 117.65 164.09 120H175.88C178.95 118 181.75 115.5 184.15 112.69C183.43 115.15 182.62 117.59 181.75 120H186.02C186.94 118.88 187.92 117.81 188.97 116.81C188.59 117.59 188.2 118.38 187.82 119.16C187.69 119.43 187.65 119.72 187.68 120H191.62C195.92 117.04 200.04 113.83 203.95 110.38C202.81 113.53 201.33 116.55 199.52 119.4C199.39 119.61 199.33 119.81 199.3 120H208.55C209.77 119.13 211.03 118.28 212.28 117.41C211.92 118.27 211.54 119.14 211.18 120H219.98C220.24 119.75 220.51 119.51 220.76 119.25C221.07 119.01 221.37 118.76 221.67 118.51C221.6 119.01 221.53 119.51 221.46 120H231.01C233.77 120 236.01 117.76 236.01 115H236ZM214.49 119.78C215.37 117.68 216.26 115.59 217.17 113.5C217.19 113.45 217.2 113.41 217.22 113.37C217.82 112.99 218.42 112.61 219.02 112.23C217.64 114.82 216.13 117.34 214.5 119.78H214.49Z" fill="#FE6F31"/>
<path d="M132.13 110C127.32 113.65 122.28 116.99 117.05 120H122.88C127.77 116.95 132.47 113.61 136.96 110H132.13Z" fill="#FE6F31"/>
<path d="M114.58 118.7C120.51 116.3 126.22 113.39 131.65 110H124.08C121.23 111.49 118.41 113.03 115.63 114.63C116.57 113.09 117.51 111.54 118.45 110H104.16C103.61 110.41 103.05 110.82 102.5 111.24C102.96 110.83 103.42 110.42 103.87 110H97.1902C96.7802 110.26 96.3702 110.51 95.9602 110.77C96.2002 110.52 96.4202 110.26 96.6502 110H83.5002C82.0802 110.91 80.6702 111.83 79.2502 112.74C80.1502 111.84 81.0402 110.92 81.9102 110H76.3302C74.5302 111.23 72.7202 112.44 70.9102 113.66C71.7602 112.46 72.5902 111.23 73.4002 110H66.4002C65.9202 110.32 65.4402 110.64 64.9502 110.95C65.0702 110.63 65.1702 110.31 65.2902 110H62.1002C61.6602 111.19 61.2102 112.38 60.7202 113.55C58.4502 114.88 56.1502 116.15 53.8102 117.36C55.5502 115.17 57.5302 113.18 59.7402 111.42C60.2602 111.01 60.3302 110.47 60.1502 110H56.2702C54.7602 110.86 53.2802 111.78 51.8702 112.79C52.2502 112.17 52.6302 111.56 53.0302 110.95C53.2402 110.63 53.2902 110.3 53.2402 110H45.9002C44.9902 110.74 44.1202 111.51 43.2802 112.33C43.5602 111.55 43.8302 110.78 44.1102 110H28.9702C28.2202 110 27.5102 110.18 26.8702 110.48C26.4902 110.73 26.1102 110.97 25.7302 111.22C24.6602 112.14 23.9702 113.48 23.9702 115C23.9702 116.99 25.1402 118.69 26.8202 119.5C27.7802 118.17 28.8002 116.89 29.8902 115.67C30.1402 115.56 30.3802 115.46 30.6302 115.35C29.7302 116.87 28.8402 118.39 27.9002 119.88C28.2502 119.96 28.6102 120 28.9802 120H37.3602C37.3602 120 37.3702 120 37.3802 119.99C37.3802 119.99 37.3802 119.99 37.3802 120H43.0302C44.5502 118.1 46.0602 116.19 47.5502 114.27C47.5502 114.27 47.5502 114.27 47.5602 114.27C46.8702 115.53 46.2202 116.82 45.6102 118.13C45.2802 118.84 45.5202 119.58 45.9902 120.01H47.8902C47.8902 120.01 47.9402 119.97 47.9702 119.95C48.2702 119.66 48.5902 119.39 48.9002 119.11C48.7102 119.41 48.5402 119.71 48.3602 120.01H55.2202C56.3702 119.41 57.5302 118.81 58.6602 118.18C58.3602 118.8 58.0302 119.4 57.7202 120.01H61.0902C61.7902 118.57 62.4602 117.11 63.0902 115.63C64.7602 114.63 66.4102 113.6 68.0402 112.53C66.3502 114.88 64.5802 117.18 62.7102 119.4C62.5602 119.58 62.4602 119.79 62.4102 120.01H66.9302C67.7102 119.45 68.5002 118.91 69.2902 118.36C68.7602 118.91 68.2302 119.45 67.7102 120.01H82.3202C82.9502 119.69 83.5802 119.37 84.2202 119.04C84.1202 119.36 84.0302 119.69 83.9502 120.01H88.1602C89.6402 118.71 91.2102 117.52 92.8202 116.39C91.9102 117.45 91.0502 118.55 90.3102 119.76C90.2602 119.84 90.2402 119.93 90.2102 120.01H95.4102C97.6102 118.61 99.7102 117.06 101.78 115.49C100.35 116.94 98.8402 118.26 97.2102 119.44C96.9002 119.63 96.5802 119.82 96.2702 120.01H101.79C103.66 118.76 105.52 117.48 107.34 116.15C106.84 116.97 106.34 117.78 105.84 118.6C105.48 119.06 105.12 119.54 104.77 120.01H112.36C113.09 119.57 113.82 119.14 114.55 118.71L114.58 118.7ZM38.8402 115.73C37.8802 116.27 36.9302 116.8 35.9702 117.34C37.0302 116.07 38.0802 114.8 39.2002 113.59C39.0902 114.31 38.9702 115.02 38.8402 115.73Z" fill="#FE6F31"/>
<path d="M104.47 101.71H86.7399C85.1699 101.71 83.8999 102.98 83.8999 104.55V108.61C83.8999 110.18 85.1699 111.45 86.7399 111.45H90.4399V125.45C90.4399 127.02 91.7099 128.29 93.2799 128.29H97.9299C99.4999 128.29 100.77 127.02 100.77 125.45V111.45H104.47C106.04 111.45 107.31 110.18 107.31 108.61V104.55C107.31 102.98 106.04 101.71 104.47 101.71ZM98.4699 125.44C98.4699 125.74 98.2299 125.99 97.9199 125.99C98.2199 125.99 98.4699 125.75 98.4699 125.44Z" fill="white"/>
<path d="M131.79 103.51C131.37 102.41 130.32 101.71 129.14 101.71H124.94C123.77 101.71 122.73 102.41 122.3 103.5L114.02 124.4C113.68 125.27 113.78 126.27 114.31 127.04C114.84 127.82 115.72 128.29 116.66 128.29H121.48C122.66 128.29 123.74 127.55 124.15 126.43L124.86 124.51H129.08L129.78 126.42C130.18 127.54 131.26 128.29 132.45 128.29H137.36C138.3 128.29 139.17 127.83 139.71 127.05C140.24 126.27 140.35 125.29 140.01 124.41L131.81 103.51H131.8H131.79ZM116.14 125.24C116.11 125.32 116.09 125.41 116.11 125.5C116.11 125.41 116.11 125.33 116.14 125.24ZM132.42 125.98C132.31 125.98 132.19 125.95 132.11 125.88C132.02 125.81 131.95 125.73 131.92 125.62C131.95 125.72 132.03 125.81 132.11 125.88C132.2 125.95 132.3 125.98 132.42 125.98ZM137.78 125.74C137.68 125.89 137.51 125.98 137.33 125.98C137.51 125.98 137.69 125.89 137.78 125.74C137.88 125.59 137.91 125.4 137.84 125.24C137.91 125.41 137.89 125.6 137.78 125.74Z" fill="white"/>
<path d="M169.25 110.03C169.25 108.51 168.87 107.1 168.12 105.83C167.35 104.55 166.26 103.53 164.85 102.78C163.51 102.07 161.91 101.71 160.11 101.71H151.14C149.57 101.71 148.3 102.98 148.3 104.55V125.45C148.3 127.02 149.57 128.29 151.14 128.29H160.05C161.97 128.29 163.68 127.92 165.14 127.19C166.66 126.42 167.87 125.33 168.7 123.96C169.54 122.6 169.96 121.05 169.96 119.38C169.96 117.38 169.33 115.54 168.13 114.08C168.87 112.89 169.25 111.51 169.25 110.04V110.03ZM166.09 115.22C166.35 115.51 166.58 115.8 166.78 116.11C167.17 116.74 167.44 117.44 167.57 118.2C167.43 117.44 167.17 116.75 166.78 116.11C166.59 115.79 166.36 115.49 166.09 115.22ZM166.15 106.99C166.42 107.45 166.62 107.93 166.76 108.43C166.62 107.93 166.42 107.44 166.15 106.99ZM163.79 104.8C163.29 104.54 162.72 104.33 162.11 104.2C162.73 104.34 163.29 104.53 163.79 104.8ZM161.22 110.05C161.24 110.18 161.25 110.31 161.25 110.47C161.25 111.09 161.08 111.52 160.75 111.81C160.57 111.96 160.34 112.07 160.09 112.15C160.34 112.07 160.56 111.96 160.75 111.81C161.09 111.54 161.25 111.1 161.25 110.47C161.25 110.32 161.25 110.18 161.22 110.05ZM160.97 109.4C160.9 109.31 160.83 109.23 160.74 109.16C160.82 109.23 160.9 109.31 160.97 109.4ZM166.76 122.77C166.45 123.27 166.07 123.72 165.64 124.12C166.09 123.72 166.45 123.27 166.76 122.77C166.91 122.52 167.05 122.27 167.16 121.99C167.05 122.25 166.91 122.52 166.76 122.77Z" fill="white"/>
<path d="M199.94 101.71H195.27C193.7 101.71 192.43 102.98 192.43 104.55V117.52C192.43 117.83 192.38 118.09 192.29 118.25C192.19 118.42 192.1 118.5 191.98 118.57C191.82 118.66 191.58 118.71 191.28 118.71C190.98 118.71 190.75 118.65 190.54 118.55C190.39 118.47 190.3 118.39 190.21 118.23C190.11 118.06 190.06 117.81 190.06 117.5V104.55C190.06 102.98 188.79 101.71 187.22 101.71H182.55C180.98 101.71 179.71 102.98 179.71 104.55V117.22C179.71 119.37 180.21 121.33 181.2 123.05C182.2 124.79 183.59 126.18 185.36 127.15C187.09 128.11 189.08 128.6 191.28 128.6C193.48 128.6 195.47 128.11 197.19 127.15C198.94 126.16 200.33 124.79 201.31 123.06C202.28 121.35 202.78 119.39 202.78 117.25V104.54C202.78 102.97 201.51 101.7 199.94 101.7H199.95L199.94 101.71ZM194.72 117.51V104.55V117.52C194.72 117.89 194.69 118.22 194.61 118.54C194.68 118.23 194.72 117.89 194.72 117.52V117.51ZM194.01 119.72C193.75 120.06 193.46 120.35 193.07 120.57C193.45 120.36 193.75 120.07 194.01 119.72ZM188.69 126.02C187.89 125.83 187.13 125.54 186.44 125.15C186.1 124.96 185.76 124.74 185.44 124.51C185.75 124.74 186.08 124.96 186.44 125.15C187.14 125.54 187.88 125.83 188.69 126.02C189.49 126.21 190.35 126.32 191.24 126.32C190.33 126.32 189.49 126.22 188.69 126.02ZM196.05 125.15C195.71 125.34 195.35 125.52 194.97 125.65C195.35 125.5 195.7 125.34 196.05 125.15Z" fill="white"/>
<path d="M62.7699 101.36C55.2399 101.36 49.1299 107.48 49.1299 115C49.1299 122.52 55.2499 128.64 62.7699 128.64C70.2899 128.64 76.4099 122.52 76.4099 115C76.4099 107.48 70.2799 101.36 62.7699 101.36ZM66.1399 104.17C66.8499 104.39 67.5299 104.69 68.1799 105.03C69.1399 105.56 70.0199 106.21 70.7899 106.99C70.0199 106.22 69.1399 105.56 68.1799 105.03C67.5399 104.67 66.8499 104.39 66.1399 104.17ZM59.1699 115.01C59.1699 113.03 60.7899 111.41 62.7699 111.41C64.7499 111.41 66.3699 113.03 66.3699 115.01C66.3699 116.99 64.7499 118.61 62.7699 118.61C60.7899 118.61 59.1699 116.99 59.1699 115.01ZM60.4799 109.59C61.1799 109.29 61.9599 109.13 62.7699 109.13C61.9599 109.13 61.1899 109.29 60.4799 109.59ZM62.7699 120.9C61.9599 120.9 61.1899 120.74 60.4799 120.44C61.1799 120.74 61.9599 120.9 62.7699 120.9ZM53.3599 121.36C52.1299 119.55 51.4199 117.36 51.4199 115.01C51.4199 112.66 52.1299 110.48 53.3599 108.66C52.1299 110.47 51.4199 112.66 51.4199 115.01C51.4199 117.36 52.1299 119.54 53.3599 121.36ZM68.1699 124.99C67.5299 125.35 66.8399 125.63 66.1299 125.85C66.8399 125.63 67.5199 125.33 68.1699 124.99C69.1299 124.46 70.0099 123.81 70.7799 123.03C70.0099 123.8 69.1299 124.46 68.1699 124.99Z" fill="white"/>
<path d="M104.47 104H86.7402C86.4402 104 86.1902 104.24 86.1902 104.55V108.61C86.1902 108.91 86.4302 109.16 86.7402 109.16H92.7302V125.45C92.7302 125.75 92.9702 126 93.2802 126H97.9302C98.2302 126 98.4802 125.76 98.4802 125.45V109.15H104.47C104.77 109.15 105.02 108.91 105.02 108.6V104.54C105.02 104.24 104.78 103.99 104.47 103.99V104ZM137.85 125.24L129.65 104.34C129.57 104.13 129.36 104 129.15 104H124.95C124.72 104 124.53 104.14 124.45 104.34L116.17 125.24C116.1 125.41 116.12 125.6 116.23 125.74C116.34 125.88 116.5 125.98 116.68 125.98H121.5C121.73 125.98 121.94 125.84 122.02 125.62L123.28 122.19H130.7L131.94 125.62C132.02 125.84 132.23 125.98 132.46 125.98H137.37C137.55 125.98 137.73 125.89 137.82 125.74C137.92 125.59 137.95 125.4 137.88 125.24H137.85ZM125.04 117.31L126.99 112.01L128.91 117.31H125.04ZM166.08 115.2C165.74 114.83 165.35 114.51 164.9 114.23C165.14 114.05 165.36 113.85 165.55 113.65C166.48 112.66 166.94 111.44 166.94 110.02C166.94 108.92 166.67 107.9 166.13 106.98C165.59 106.06 164.79 105.33 163.77 104.79C162.76 104.25 161.52 103.99 160.09 103.99H151.12C150.82 103.99 150.57 104.23 150.57 104.54V125.44C150.57 125.74 150.81 125.99 151.12 125.99H160.03C161.59 125.99 162.95 125.7 164.07 125.13C165.22 124.56 166.1 123.76 166.72 122.75C167.34 121.75 167.65 120.61 167.65 119.37C167.65 117.73 167.12 116.33 166.07 115.21H166.08V115.2ZM160.73 111.79C160.35 112.1 159.86 112.25 159.21 112.25H156.27V108.7H159.21C159.85 108.7 160.36 108.85 160.73 109.16C161.07 109.43 161.23 109.87 161.23 110.47C161.23 111.07 161.06 111.52 160.73 111.81V111.79ZM156.26 116.87H159.59C160.11 116.87 160.54 116.96 160.87 117.16C161.21 117.35 161.47 117.61 161.65 117.93C161.84 118.26 161.94 118.64 161.94 119.08C161.94 119.71 161.73 120.23 161.32 120.65C160.91 121.07 160.35 121.28 159.58 121.28H156.25V116.87H156.26ZM200.48 104.54V117.23C200.48 118.97 200.09 120.55 199.31 121.92C198.53 123.28 197.44 124.37 196.06 125.15C194.69 125.92 193.07 126.32 191.26 126.32C189.45 126.32 187.83 125.93 186.45 125.15C185.05 124.37 183.95 123.28 183.16 121.91C182.38 120.54 181.98 118.95 181.98 117.21V104.55C181.98 104.25 182.22 104 182.53 104H187.2C187.5 104 187.75 104.24 187.75 104.55V117.48C187.75 118.2 187.9 118.84 188.21 119.37C188.52 119.9 188.92 120.29 189.46 120.56C190 120.85 190.61 120.98 191.26 120.98C191.95 120.98 192.57 120.84 193.07 120.56C193.57 120.29 193.96 119.9 194.26 119.38C194.56 118.86 194.71 118.23 194.71 117.5V104.54C194.71 104.24 194.95 103.99 195.26 103.99H199.93C200.23 103.99 200.48 104.23 200.48 104.54ZM62.7602 103.65C56.4902 103.65 51.4102 108.74 51.4102 115C51.4102 121.26 56.5002 126.35 62.7602 126.35C69.0202 126.35 74.1102 121.26 74.1102 115C74.1102 108.74 69.0102 103.65 62.7602 103.65ZM62.7602 120.89C59.5202 120.89 56.8702 118.25 56.8702 115C56.8702 111.75 59.5102 109.11 62.7602 109.11C66.0102 109.11 68.6502 111.75 68.6502 115C68.6502 118.25 66.0102 120.89 62.7602 120.89Z" fill="black"/>
<g clip-path="url(#clip0_219_689)">
<path d="M83.069 21.3652L83.1128 49.5383L68.9196 49.7244L68.2958 95.0597L40.3581 94.4796L40.4128 78.9483L22.0283 95.3552L2.18848 73.596L29.9621 49.5821L10.2864 49.8448L9.65168 22.0766L41.0146 21.6826V4.90348L68.7554 4.26866V21.2776L83.069 21.3652ZM156.596 16.5055L166.959 31.402L129.14 98.9562L104.911 87.1025L116.807 64.9055L85.2905 59.1702L103.872 2.18906L132.368 6.50149L127.903 18.8259L156.585 16.5055H156.596ZM128.363 43.1134L129.041 43.2448L129.15 43.0587L128.363 43.1134ZM262 20.6318L255.39 9.51144L215.065 9.97115L215.01 14.5353H209.462V4.23582L185.836 4.42189L185.967 14.5244H170.691L172.201 38.5821H168.874L169.607 61.9612L174.542 61.7423L175.265 95.1582L214.025 94.2169L213.971 99L237.433 98.6607L237.859 73.607L253.081 71.79L258.859 57.408L253.771 39.9502L262 20.6318Z" fill="black"/>
<path d="M80.8805 19.1761L80.9243 47.3493L66.7311 47.5353L66.1073 92.8706L38.1696 92.2906L38.2243 76.7592L19.8399 93.1662L0 71.407L27.7736 47.393L8.0979 47.6557L7.4632 19.8876L38.8262 19.4935V2.71443L66.567 2.0796V19.0886L80.8805 19.1761ZM154.407 14.3164L164.77 29.2129L126.951 96.7672L102.723 84.9134L114.618 62.7164L83.102 56.9811L101.683 0L130.179 4.31244L125.714 16.6368L154.396 14.3164H154.407ZM126.174 40.9244L126.853 41.0557L126.962 40.8697L126.174 40.9244ZM259.811 18.4428L253.202 7.32239L212.876 7.78209L212.822 12.3463H207.273V2.04677L183.647 2.23284L183.779 12.3353H168.502L170.012 36.393H166.686L167.419 59.7721L172.354 59.5532L173.076 92.9692L211.837 92.0279L211.782 96.8109L235.244 96.4716L235.671 71.4179L250.893 69.601L256.671 55.2189L251.582 37.7612L259.811 18.4428Z" fill="white"/>
<path d="M75.9888 36.1851V32.7045V24.0796L61.6533 23.992V7.12536L52.0781 7.34427L43.7613 7.53034V24.3751L38.0818 24.4408H37.5566L32.4133 24.5065L12.5078 24.7582L12.5953 28.4358L12.7157 33.5473L12.8798 40.5741L12.9236 42.6647L18.7344 42.5881L20.4853 42.5662H21.4483L41.2334 42.2816L22.3019 58.6448L14.0726 65.7592L10.8116 68.5721L7.05811 71.8119L10.0237 75.0627L16.3379 81.9801L20.2227 86.2378L34.6895 73.3224L43.2141 65.7045L43.1813 75.194L43.1375 87.4527L53.3584 87.6607L61.2703 87.8249L61.3469 82.5711L61.4125 78.1164L61.4673 73.9353L61.5001 71.7463L61.5767 65.9124L61.6424 61.2607L61.6642 59.5642L61.708 55.9851L61.7737 51.5194L61.894 42.6647L76.0107 42.4786V36.1632L75.9888 36.1851ZM69.0399 40.399L67.6063 40.4209C69.6637 37.6517 71.721 34.8935 73.7892 32.1353V33.7443C71.896 35.6925 70.2655 37.9254 69.0508 40.3662C69.0508 40.3771 69.0508 40.399 69.0399 40.4099V40.399ZM58.2828 42.9492C55.9957 45.2368 53.7086 47.5244 51.4324 49.8229C51.5747 49.6149 51.7169 49.407 51.8592 49.199C53.1724 47.8199 54.4856 46.4517 55.8097 45.0726C57.1228 43.9343 58.4251 42.7741 59.7054 41.592V42.5443C59.202 42.4567 58.6768 42.5552 58.2828 42.9602V42.9492ZM47.9306 60.8885C48.0182 60.3741 48.1276 59.8816 48.2808 59.3781C48.434 58.8856 48.2918 58.3383 47.9744 57.9224C48.828 57.0686 49.6706 56.2149 50.5241 55.3612C50.4038 56.4995 50.2615 57.6378 50.1083 58.7761C49.5721 59.5204 49.0249 60.2647 48.4887 61.0089C48.2808 61.3045 48.0729 61.6 47.865 61.8846C47.865 61.5453 47.8978 61.206 47.9306 60.8667V60.8885ZM47.854 53.402C47.9635 53.2816 48.0838 53.1612 48.1933 53.0517C48.1933 53.0517 48.1933 53.0517 48.2042 53.0517C48.0838 53.1721 47.9744 53.2816 47.854 53.402ZM61.6205 26.1811H62.0363C62.0363 26.6408 61.9925 27.0895 61.8831 27.5274C61.8612 27.6149 61.8284 27.7025 61.8065 27.7791C60.8763 28.4468 59.9462 29.0925 59.016 29.7492C59.5413 28.5562 60.0775 27.3084 60.7122 26.1701H61.6095L61.6205 26.1811ZM69.5323 26.2358C69.4338 26.3343 69.3463 26.4328 69.2478 26.5204C69.2478 26.4876 69.2478 26.4547 69.2478 26.4328C69.3354 26.3672 69.4338 26.3015 69.5214 26.2358H69.5323ZM71.4911 29.7492C70.4844 31.0846 69.4667 32.4199 68.4709 33.7552C68.5365 33.4487 68.5912 33.1313 68.6459 32.8249C69.6089 31.807 70.561 30.7781 71.4911 29.7492ZM65.8226 28.9065C65.7898 29.3224 65.746 29.7274 65.6913 30.1433C64.7283 31.1283 63.7763 32.1025 62.8133 33.0876C63.3932 32.201 63.9295 31.2925 64.3562 30.3293C64.4328 30.1652 64.4876 29.99 64.5532 29.8149C64.9691 29.5084 65.3958 29.202 65.8117 28.9065H65.8226ZM58.7534 9.6975C58.6658 9.82885 58.5892 9.97113 58.5126 10.1134C57.9545 11.0109 57.3636 11.8866 56.7179 12.7293C56.2255 13.3751 55.7002 13.999 55.164 14.6119C54.9014 14.6995 54.6497 14.7871 54.3871 14.8965C54.4965 14.7652 54.6169 14.6338 54.7372 14.5025C56.0942 12.9154 57.4292 11.3174 58.7534 9.70845V9.6975ZM56.4225 18.0816C56.6085 17.8846 56.7836 17.6766 56.9696 17.4796C57.2213 17.4139 57.4621 17.3701 57.7247 17.3264C55.7331 19.2965 53.7195 21.2448 51.6841 23.1711C51.6841 23.0836 51.6841 22.996 51.6841 22.9194C51.6841 22.7114 51.6294 22.5144 51.5419 22.3174C53.2709 21.0587 54.9123 19.6577 56.4225 18.0816ZM57.8123 34.6308C57.2432 35.4627 56.6742 36.2945 56.1161 37.1264C56.3131 36.5353 56.5319 35.9552 56.7508 35.3751C57.1119 35.1234 57.4621 34.8716 57.8232 34.6199L57.8123 34.6308ZM55.8863 23.992C54.4527 26.9035 53.0192 29.8259 51.5747 32.7373C51.7826 31.0627 51.9796 29.3771 52.1875 27.7025C52.1875 27.7025 52.1875 27.6915 52.1875 27.6806C53.4241 26.4547 54.6606 25.2288 55.8863 23.992ZM51.892 39.5124C51.6294 40.3552 51.3777 41.2089 51.137 42.0627C50.94 42.7741 51.2026 43.3323 51.6403 43.6935C51.323 44.1642 51.0056 44.6348 50.6883 45.1055C50.4585 45.2915 50.2396 45.4776 50.0098 45.6637C50.0098 45.598 50.0208 45.5323 50.0317 45.4667C50.1521 44.5035 50.2615 43.5512 50.3819 42.5881C50.8853 41.5701 51.3886 40.5413 51.892 39.5234V39.5124ZM51.4762 79.9881C52.6471 77.6129 53.9056 75.2706 55.1969 72.9612C54.8795 73.8368 54.5293 74.7015 54.1244 75.5443C53.3694 77.0985 52.4939 78.5871 51.4762 79.9881ZM56.7398 66.3393C56.5647 66.5363 56.3787 66.7224 56.2036 66.9194C55.7002 66.7771 55.1421 66.8647 54.6825 67.3353C54.0259 68.0249 53.3584 68.7254 52.7018 69.4149C53.4131 67.8169 54.1682 66.2408 54.9452 64.6866C55.2187 65.4746 56.0395 66.0219 56.7836 65.9343C56.7727 66.0657 56.7617 66.197 56.7398 66.3283V66.3393ZM54.015 53.2269C54.0588 52.7343 54.1135 52.2418 54.1463 51.7492C54.4856 51.4099 54.8139 51.0816 55.1531 50.7423C54.792 51.5741 54.409 52.406 54.015 53.2269ZM61.8612 40.4866H60.8763C61.9706 39.4796 63.054 38.4617 64.1264 37.4109C63.8091 38.4398 63.4589 39.4577 63.0868 40.4647H61.8612V40.4866ZM45.9499 9.67561L49.5393 9.58805C48.3465 10.6497 47.1427 11.7224 45.9499 12.7841V9.67561ZM45.9499 17.1622C48.1714 15.2249 50.3819 13.2876 52.5815 11.3283C53.2599 10.7154 53.9384 10.0915 54.6169 9.4786H54.6716C51.8483 12.8607 48.9265 16.1552 45.9499 19.4169V17.1622ZM14.0726 68.6488L15.5609 67.3572C15.3749 67.598 15.1779 67.8388 14.9919 68.0686C14.2368 69.0318 14.587 70.2249 15.4296 70.6736C14.8277 71.6368 14.2368 72.6 13.6459 73.5632C13.5802 73.6288 13.5255 73.7055 13.4598 73.7711C13.7443 72.0746 13.9413 70.3672 14.0726 68.6488ZM36.1121 49.604C36.0574 49.6915 35.9917 49.7791 35.926 49.8667C34.6566 51.607 33.1793 53.1502 31.6801 54.6826C29.8198 56.598 27.9485 58.5134 26.0772 60.4398C26.6134 59.6627 27.1387 58.8856 27.6749 58.1084C28.4409 57.0139 29.2398 55.9413 30.0277 54.8577L36.1011 49.604H36.1121ZM31.0564 63.0119C33.1574 61.7423 35.2366 60.4398 37.283 59.0826C35.2694 61.2935 33.0261 63.3403 31.5707 65.9124C31.3409 66.1642 31.1111 66.4159 30.8813 66.6567C31.133 66.1642 31.3737 65.6607 31.6144 65.1682C32.0193 64.3144 31.6801 63.4388 31.0564 62.99V63.0119ZM15.1451 77.4488C15.539 76.7701 15.9439 76.0915 16.3488 75.4239C18.9861 72.4687 21.7438 69.6119 24.4905 66.7771C25.1252 66.4269 25.7599 66.0766 26.3946 65.7264C23.9652 68.0577 21.5358 70.389 19.0955 72.7204C17.848 73.9244 19.1831 75.6975 20.54 75.4895C19.194 76.7154 17.7167 77.7333 16.1081 78.4995L15.1451 77.4488ZM42.4153 63.5045C43.1485 62.7711 43.8817 62.0378 44.6149 61.3045C44.6149 61.3811 44.6149 61.4686 44.6149 61.5453L42.4262 63.5045H42.4153ZM42.2402 51.6617C39.2856 53.8179 36.2653 55.8866 33.1793 57.8567C33.8468 57.1672 34.5253 56.4885 35.1928 55.7881C36.7577 54.1682 38.1913 52.4278 39.4497 50.5562C40.1391 49.5383 41.0255 48.3343 41.1459 47.0756C41.1787 46.7363 41.1131 46.4627 40.9927 46.2328C42.9734 44.8975 44.9541 43.5403 46.9239 42.194C46.6722 42.7084 46.4205 43.2229 46.1578 43.7483C44.8666 46.3751 43.619 49.0677 42.2402 51.6726V51.6617ZM41.1897 40.1035L39.1652 40.1254C40.5769 38.8229 41.9995 37.5204 43.3892 36.196C44.0458 37.2139 44.7462 38.2209 45.4903 39.195C45.0635 39.4905 44.6368 39.7751 44.21 40.0597L41.1787 40.1035H41.1897ZM22.7724 26.8269C22.7068 26.9691 22.6302 27.1114 22.5645 27.2537C21.8423 27.7791 21.1638 28.3701 20.5291 29.0159C20.6713 28.2935 20.8136 27.5711 20.9668 26.8597L22.7834 26.8378L22.7724 26.8269ZM27.7953 28.403C26.5916 29.4099 25.3878 30.406 24.1841 31.402C24.5124 30.7343 24.8297 30.0776 25.158 29.4099C25.5629 29.1582 25.9897 28.9283 26.4165 28.7423C26.8214 28.5672 27.3248 28.392 27.7953 28.4139V28.403ZM21.4483 37.8706C24.1512 35.6816 26.8323 33.4706 29.5024 31.2487C29.5681 31.5552 29.6337 31.8617 29.6885 32.1681C29.3383 32.4199 28.9881 32.6716 28.6379 32.9124C26.5806 34.39 24.5452 35.9114 22.3894 37.2358C22.1705 37.3781 21.8313 37.6079 21.4374 37.8597L21.4483 37.8706ZM31.2314 39.3154C31.3299 39.6328 31.4612 39.9393 31.6035 40.2348L30.2575 40.2567C30.5858 39.9502 30.9141 39.6328 31.2314 39.3264V39.3154ZM46.4861 35.0358C46.2344 34.6746 46.0156 34.2915 45.7748 33.9194C46.2344 33.4816 46.6941 33.0438 47.1537 32.606C46.9567 33.4269 46.7269 34.2368 46.4861 35.0358ZM43.3345 28.2169C43.2251 28.3811 43.1266 28.5453 43.0172 28.7204C42.9953 28.6766 42.9734 28.6328 42.9625 28.6C43.0828 28.4796 43.2141 28.3482 43.3345 28.2279V28.2169ZM40.5112 30.9751C40.6753 31.3254 40.8285 31.6756 40.9927 32.0259C40.5003 32.8139 39.9859 33.602 39.4388 34.3572C37.7973 35.802 36.1449 37.2577 34.4706 38.6806C34.4487 38.6368 34.4268 38.593 34.3831 38.5164C34.1533 38.1333 34.1314 37.4438 34.0438 37.0169C34.0219 36.8965 33.9891 36.7761 33.9672 36.6448C35.7509 35.2 37.5018 33.7224 39.2199 32.19C39.6576 31.796 40.0735 31.3801 40.5003 30.9751H40.5112ZM37.4034 26.6408C36.6702 27.1662 35.937 27.7025 35.2038 28.2279C34.3393 28.8517 33.4748 29.4647 32.6103 30.0885C32.5227 29.6945 32.4242 29.2895 32.2929 28.8955C33.1684 28.1622 34.0438 27.4179 34.9083 26.6846L37.3924 26.6517L37.4034 26.6408ZM23.6916 40.3333C23.6916 40.3333 23.7245 40.3114 23.7354 40.3114C23.7245 40.3114 23.7135 40.3333 23.7026 40.3333H23.6916ZM10.4724 71.7572C10.4505 71.9214 10.4176 72.0746 10.3958 72.2388L10.1878 72.0089L10.4724 71.7572ZM19.7849 80.1851C19.9163 80.4806 20.1132 80.7433 20.3649 80.9293C20.0148 81.2905 19.6536 81.6408 19.3034 82.002L18.3952 81.006C18.8657 80.7542 19.3363 80.4806 19.7959 80.1851H19.7849ZM48.237 69.0537C47.7008 71.396 47.0661 73.7164 46.3876 76.0149C46.0375 76.3761 45.6982 76.7373 45.3481 77.0985V72.6547C46.3548 71.4726 47.3178 70.2796 48.237 69.0428V69.0537ZM59.1035 85.603L56.8712 85.5592C57.6372 85.0776 58.3704 84.5741 59.1254 84.0816L59.1035 85.603ZM58.8847 80.0209C58.9832 79.9005 59.0817 79.7801 59.1801 79.6597V79.791C59.0817 79.8677 58.9832 79.9443 58.8847 80.0209ZM56.8602 77.3393C57.9217 75.1721 58.7424 72.8955 59.3005 70.5642L59.2458 74.4388C58.447 75.402 57.6481 76.3652 56.8493 77.3393H56.8602ZM59.4866 56.9701C59.2458 57.0796 59.0051 57.1781 58.7753 57.2876C59.0269 56.8169 59.2568 56.3463 59.5084 55.8756V56.9701H59.4866ZM72.7934 40.3443C73.0998 39.8189 73.439 39.3154 73.7892 38.8119V40.3333L72.7934 40.3443ZM249.087 46.8677L246.34 37.4438L248.529 32.3104L254.285 18.804L250.4 12.2696H249.886L246.176 12.3134L242.477 12.3572L238.932 12.401L237.268 12.4229L226.15 12.5433L218.096 12.6308H217.735L217.593 24.4517L217.516 31.0189L217.461 35.0796V35.5831L217.363 43.4308L217.297 48.4657L217.253 52.2637L217.21 56.0617L216.914 79.9443L216.881 82.2647L216.849 84.5741V85.8876L216.761 91.8089L230.396 91.6119L230.462 88V87.3323L230.538 83.206L230.571 81.0716L230.702 73.0816L230.779 68.8786L230.812 67.0507L234.795 66.5801L238.428 66.1423L243.725 65.5075L246.701 65.1572L247.413 65.0696L251.473 54.9672L250.028 50.0199L249.109 46.8677H249.087ZM245.706 56.2478C246.373 55.4925 247.041 54.7373 247.686 53.9602C247.402 54.6497 247.128 55.3502 246.844 56.0398C246.461 56.0945 246.078 56.1602 245.706 56.2368V56.2478ZM242.806 54.5731C243.254 53.391 243.703 52.198 244.13 51.0159C244.152 50.9393 244.163 50.8627 244.184 50.797C244.6 50.3154 245.016 49.8448 245.432 49.3632L247.008 47.5463L247.435 49.0239C245.957 50.9284 244.425 52.8 242.806 54.5841V54.5731ZM243.966 33.4159C244.009 32.9781 244.053 32.5512 244.097 32.1244C244.239 30.789 244.381 29.4428 244.524 28.1075C244.896 27.7572 245.29 27.4288 245.662 27.0786C245.585 28.0527 245.519 29.0269 245.443 30.001C245.399 30.6468 245.344 31.2925 245.29 31.9383C245.224 31.9821 245.169 32.0368 245.115 32.0915C244.732 32.5403 244.349 32.9781 243.966 33.4159ZM244.009 40.2348C243.889 40.7274 243.747 41.2199 243.593 41.7124C243.572 41.2856 243.572 40.8587 243.561 40.4318C243.714 40.3662 243.856 40.3005 244.009 40.2348ZM246.231 21.19C246.198 21.4418 246.176 21.7045 246.143 21.9672C245.782 22.3393 245.421 22.7114 245.06 23.0726C245.158 21.989 245.268 20.9055 245.443 19.8328C245.826 19.603 246.22 19.3841 246.603 19.1542C246.439 19.8328 246.329 20.5224 246.242 21.19H246.231ZM249.076 25.3383C249.131 24.7254 249.185 24.1124 249.24 23.4995C249.656 23.0617 250.061 22.6129 250.466 22.1751L249.065 25.4696C249.065 25.4696 249.065 25.3821 249.065 25.3383H249.076ZM242.247 14.5681C242.116 15.6627 242.094 16.7791 242.237 17.9065C241.481 18.3443 240.715 18.7711 239.949 19.2089C240.431 17.6438 241 16.1005 241.591 14.5791H242.247V14.5681ZM235.605 64.2706L232.114 64.6866C234.084 62.4099 236.065 60.1333 238.034 57.8567C237.214 59.991 236.393 62.1254 235.594 64.2706H235.605ZM236.82 14.6338C235.999 15.3015 235.178 15.9801 234.336 16.6259C235.025 15.9691 235.714 15.3015 236.393 14.6338H236.809H236.82ZM234.062 36.207L233.679 37.2468L233.493 37.7393L234.139 39.9502L236.262 47.1851L237.826 52.5045L231.031 53.1065L231.195 26.3124L237.772 26.2139L234.062 36.207ZM224.848 34.1602C224.892 33.2517 224.935 32.3542 224.979 31.4458C226.314 30.7015 227.649 29.9572 228.984 29.2129V29.4318C227.617 31.0189 226.238 32.595 224.848 34.1602ZM228.229 35.2766C227.441 36.2507 226.851 37.3672 226.446 38.5711C225.844 39.0089 225.231 39.4468 224.618 39.8846C224.618 39.6985 224.629 39.5234 224.64 39.3373C225.833 37.9801 227.026 36.6338 228.229 35.2766ZM235.879 21.5403C234.357 22.4159 232.825 23.2696 231.293 24.1234H231.151L229.4 24.1562C231.852 22.5254 234.248 20.8179 236.579 19.0119C236.327 19.8547 236.097 20.6866 235.879 21.5403ZM229.006 25.4259C227.759 26.1264 226.511 26.8378 225.264 27.5383C225.286 27.2866 225.308 27.0348 225.329 26.7831C226.566 26.0169 227.792 25.2288 229.006 24.4298V25.4368V25.4259ZM228.952 34.4667V34.5104C228.886 34.5761 228.82 34.6308 228.755 34.6965C228.82 34.6199 228.886 34.5433 228.952 34.4667ZM228.952 14.7323C228.393 15.192 227.824 15.6517 227.266 16.1114C227.266 16.1114 227.266 16.1005 227.266 16.0895C227.332 15.8597 227.343 15.6517 227.321 15.4547C227.66 15.203 228.01 14.9731 228.361 14.7323H228.941H228.952ZM224.334 45.3134C224.76 45.2259 225.198 45.1492 225.625 45.0617C225.636 45.8716 225.669 46.6925 225.712 47.5025C225.165 47.8089 224.618 48.1154 224.071 48.4328C224.18 47.393 224.268 46.3642 224.334 45.3244V45.3134ZM225.22 55.4487C225.111 55.9084 225.001 56.3791 224.892 56.8497C224.016 57.408 223.163 57.999 222.331 58.6119C222.353 58.5134 222.375 58.4149 222.397 58.3164C223.316 57.3423 224.268 56.401 225.22 55.4487ZM224.815 74.7453C224.826 75.5881 224.892 76.4308 224.881 77.2298C224.881 78.0179 224.837 78.806 224.782 79.5831C224.366 79.9881 223.94 80.3711 223.491 80.7433C223.13 80.9622 222.78 81.1811 222.43 81.4C223.349 79.2219 224.148 77 224.826 74.7453H224.815ZM227.223 63.1433C227.485 62.607 227.748 62.0597 227.989 61.5124C230.516 59.3124 233.044 57.1124 235.572 54.9124L236.316 54.8468C233.176 58.4696 230.035 62.0816 226.894 65.7045C227.026 64.8507 227.124 63.997 227.223 63.1433ZM228.492 72.2716L228.47 73.3552C228.361 73.2239 228.251 73.0816 228.153 72.9502C228.218 72.6876 228.339 72.4577 228.492 72.2716ZM238.713 47.8308L237.958 45.2478C238.757 44.3284 239.545 43.4089 240.354 42.5005C240.431 43.6826 240.573 44.8647 240.792 46.0358C240.103 46.6378 239.413 47.2398 238.724 47.8418L238.713 47.8308ZM240.332 37.5532C240.07 37.8487 239.796 38.1552 239.534 38.4507C238.45 38.8119 237.345 39.1184 236.24 39.4139L235.769 37.8269L236.962 34.6308C238.275 33.5691 239.588 32.4856 240.869 31.3801C240.847 31.6318 240.814 31.8836 240.792 32.1353C240.595 33.9413 240.431 35.7473 240.332 37.5532ZM239.282 28.392L239.807 26.991L240.004 26.4547C240.54 25.8746 241.077 25.2836 241.591 24.6816C241.525 25.2945 241.46 25.9184 241.394 26.5313C240.704 27.1662 239.993 27.7791 239.282 28.392ZM223.042 14.798C221.915 15.805 220.843 16.8776 219.814 18.0159L219.858 14.8308L223.042 14.798ZM221.39 27.9652C221.445 27.9214 221.499 27.8776 221.554 27.8229C221.663 27.9214 221.784 27.998 221.915 28.0637C221.882 28.5234 221.85 28.994 221.817 29.4537C221.105 29.8477 220.383 30.2418 219.661 30.6358V29.3224C220.252 28.8736 220.821 28.4249 221.39 27.9761V27.9652ZM221.587 33.3283C221.51 34.9045 221.456 36.4806 221.39 38.0567C220.766 38.7682 220.153 39.4905 219.53 40.202L219.606 34.4119C220.263 34.0507 220.93 33.6895 221.587 33.3283ZM219.442 47.5244C219.934 47.1851 220.427 46.8458 220.919 46.5065C220.81 47.8199 220.668 49.1224 220.493 50.4249C220.121 50.6328 219.759 50.8408 219.387 51.0487L219.431 47.5353L219.442 47.5244ZM220.897 67.6746C220.569 68.1672 220.241 68.6597 219.902 69.1522C219.924 68.9333 219.945 68.7035 219.978 68.4846C220.285 68.2219 220.591 67.9482 220.897 67.6856V67.6746ZM219.836 54.5622C219.694 55.2846 219.541 56.007 219.376 56.7184C219.365 56.7403 219.344 56.7512 219.333 56.7731L219.354 54.8358C219.519 54.7482 219.672 54.6497 219.836 54.5622ZM220.044 78.5761C219.727 79.3861 219.387 80.1851 219.037 80.9841V79.7144C219.387 79.3313 219.716 78.9482 220.044 78.5652V78.5761ZM218.961 87.1463C219.453 86.8726 219.956 86.6099 220.46 86.3254C221.773 85.7562 223.02 85.0557 224.18 84.2567C224.06 84.9572 223.929 85.6577 223.786 86.3473C223.141 86.9492 222.517 87.5731 221.915 88.2189C221.554 88.602 221.434 89.0945 221.488 89.5542L218.939 89.5871L218.971 87.1244L218.961 87.1463ZM227.66 83.0965C227.693 82.8885 227.737 82.6696 227.759 82.4617C227.781 82.2756 227.803 82.0895 227.824 81.9035C227.989 81.794 228.153 81.6846 228.317 81.5751L228.295 82.6259C228.076 82.7791 227.857 82.9323 227.649 83.0965H227.66ZM239.818 62.2786C241.525 61.1184 243.375 60.2428 245.333 59.7065L243.878 63.2856L239.227 63.8438C239.424 63.3184 239.61 62.793 239.818 62.2786ZM212.92 41.3403H206.737L209.604 30.603L213.139 30.4278L213.183 25.4259L213.215 21.6278L213.248 17.2716H202.294V7.01591L199.394 7.0378L193.923 7.08158L188.582 7.12536L188.703 15.7283L188.725 17.2607H173.689L174.619 32.1244L178.985 31.9164L179.051 32.595L179.554 37.597L179.62 38.2428L179.926 41.3184H171.697L171.796 44.4816L171.938 49.0786L172.113 54.6279H172.277L191.537 53.7632L196.232 53.5552L207.996 53.0298L211.64 52.8657L213.303 52.789L213.369 51.6726L213.774 44.2627L213.938 41.3075H212.92V41.3403ZM176.665 52.2527C180.364 49.1881 184.347 46.3861 188.473 43.9124C185.168 46.605 181.918 49.3632 178.701 52.1652L176.665 52.2527ZM183.089 43.4199C183.702 42.7851 184.315 42.1393 184.938 41.5045C185.07 41.6686 185.245 41.8109 185.42 41.9204C184.632 42.4129 183.866 42.9164 183.089 43.4199ZM195.466 20.1283C195.203 20.4677 194.951 20.807 194.689 21.1463C194.776 20.9164 194.853 20.6975 194.94 20.4677C195.115 20.3582 195.291 20.2378 195.466 20.1283ZM194.087 13.7254C193.441 15.2358 192.839 16.7572 192.259 18.3005C191.909 18.5303 191.548 18.7602 191.198 18.99C191.844 17.8408 192.489 16.6806 193.124 15.5204C193.452 14.9293 193.769 14.3274 194.087 13.7254ZM207.109 22.394C207.963 22.0109 208.805 21.6388 209.67 21.2995C208.915 22.7224 208.072 24.0905 207.197 25.4368C207.251 24.4189 207.23 23.401 207.109 22.394ZM202.36 27.4398C202.841 26.9363 203.356 26.4657 203.881 26.0279C203.728 27.8119 203.345 29.596 202.962 31.3363C202.874 31.7522 202.94 32.1791 203.126 32.5403C201.791 33.5254 200.489 34.5323 199.164 35.5283L200.029 31.5771L200.368 30.0338C200.598 29.6617 200.817 29.2895 201.079 28.9393C201.123 28.8846 201.167 28.8189 201.211 28.7642C201.331 28.6109 201.462 28.4577 201.594 28.3045C201.835 28.0199 202.097 27.7353 202.36 27.4617V27.4398ZM197.271 31.1393L197.906 31.1065L195.685 41.3293H191.789V41.2418L191.296 31.391L197.282 31.1283L197.271 31.1393ZM196.462 46.7801C197.49 46.2438 198.53 45.7075 199.558 45.1711C198.431 46.4736 197.282 47.7542 196.111 49.0129C195.028 49.3303 193.956 49.6587 192.872 49.9871C194.065 48.9144 195.258 47.8418 196.462 46.7801ZM198.847 40.3224C198.574 40.5084 198.3 40.6836 198.026 40.8587L198.114 40.4318C199.712 39.1841 201.32 37.9582 202.951 36.7433C201.583 37.9363 200.215 39.1184 198.847 40.3224ZM202.973 46.2C203.06 46.4627 203.148 46.7254 203.235 46.9771C202.819 47.0866 202.393 47.207 201.977 47.3274C202.305 46.9443 202.655 46.5831 202.973 46.2ZM197.162 28.9612H197.052C197.151 28.8736 197.238 28.7751 197.337 28.6766C197.282 28.7751 197.217 28.8736 197.162 28.9612ZM189.775 23.7403C189.994 23.6089 190.202 23.4776 190.421 23.3463C190.322 23.6308 190.213 23.9045 190.114 24.189C190.027 24.0249 189.918 23.8716 189.786 23.7403H189.775ZM189.37 36.9075L189.513 39.6766C189.283 39.6875 189.031 39.7423 188.79 39.8846C188.506 40.0487 188.232 40.2348 187.948 40.399C188.265 39.392 188.593 38.3851 188.922 37.389C189.075 37.2358 189.228 37.0716 189.381 36.9184L189.37 36.9075ZM204.297 50.0965C204.406 50.403 204.505 50.7094 204.614 51.0159L200.39 51.202C201.692 50.8298 202.995 50.4577 204.297 50.0965ZM209.44 50.4358C209.681 49.8119 209.922 49.1771 210.162 48.5532C210.567 48.4547 210.972 48.3562 211.377 48.2468L211.333 49.1443C210.698 49.5821 210.075 50.0089 209.44 50.4468V50.4358ZM207.733 45.7731C207.295 45.8826 206.857 46.003 206.42 46.1234C206.179 45.401 205.916 44.6895 205.676 43.9672C205.949 43.8796 206.157 43.7154 206.343 43.5184H208.597C208.313 44.2736 208.017 45.0179 207.733 45.7731ZM210.972 26.9363C210.469 27.2866 209.965 27.6259 209.462 27.9761C209.998 27.188 210.491 26.389 210.983 25.5791V26.9363H210.972ZM201.659 19.4497C200.861 20.2816 200.062 21.1134 199.274 21.9234C198.508 22.7224 197.742 23.5214 196.965 24.3094C196.472 24.6925 195.991 25.0756 195.499 25.4587C197.031 23.4338 198.574 21.4199 200.106 19.395V19.4497H201.659ZM197.085 15.0388C197.95 13.0468 198.891 11.0985 199.996 9.22686H200.095V12.8279C199.088 13.5721 198.092 14.3274 197.074 15.0388H197.085ZM192.763 9.28158C192.128 10.4637 191.493 11.6458 190.859 12.8279L190.815 9.29253H192.774L192.763 9.28158ZM180.889 19.4607C179.751 22 178.712 24.594 177.793 27.2209C177.672 27.5492 177.694 27.8557 177.782 28.1293C177.42 28.4686 177.027 28.7751 176.644 29.0816L176.479 26.4766C177.388 24.2 178.121 21.8577 178.668 19.4607H180.889ZM180.966 29.6507H180.857C181.01 29.4975 181.174 29.3552 181.327 29.191C181.207 29.3662 181.086 29.5522 180.977 29.7274V29.6507H180.966ZM181.491 34.795C183.308 32.1134 185.081 29.399 186.755 26.6298C186.416 28.7423 186.076 30.8547 185.737 32.9672C185.562 33.208 185.387 33.4378 185.212 33.6786C184.03 34.6418 182.848 35.6159 181.677 36.59L181.491 34.795ZM177.803 44.0766C177.716 44.2189 177.617 44.3502 177.519 44.4925C176.392 45.6637 175.254 46.8348 174.127 48.0169L174.105 47.2617C175.341 46.2 176.567 45.1274 177.803 44.0766ZM154.309 22.8647L152.153 19.7672L151.945 19.4716L144.744 20.0517L140.05 20.4348L134.731 20.8617L129.216 21.3104L126.677 21.5184L118.448 22.1861L121.129 14.7761L122.212 11.7881L123.471 8.30745L113.95 6.86268L111.674 6.51243L105.032 5.50546L100.523 19.3184L93.6291 40.4647L91.4842 47.0537L89.4926 53.1612L93.2789 53.8507L105.721 56.1164L112.812 36.9403L135.64 35.3423L133.823 38.604L129.38 46.605L114.366 43.6279L111.948 50.5234L110.011 56.0398L109.726 56.8388L111.455 57.1562L122.103 59.0935L119.531 63.8876L109.431 82.7463L113.48 84.7274L123.033 89.401L124.084 89.9154L124.894 90.3094L126.546 87.3542L128.756 83.392L134.808 72.5781L136.22 70.0607L136.734 69.1413L140.4 62.596L145.51 53.4567L149.406 46.4955L154.057 38.188L156.06 34.6089L158.927 29.4975L154.298 22.8537L154.309 22.8647ZM156.355 29.6398L153.991 33.8537C153.663 33.8647 153.346 33.8866 153.017 33.9194C154.068 32.4199 155.14 30.9313 156.224 29.4537L156.344 29.6288L156.355 29.6398ZM153.63 25.7323C152.569 26.5751 151.507 27.4288 150.424 28.2607C150.424 27.8776 150.424 27.4945 150.424 27.1114C151.223 26.2577 152 25.3821 152.788 24.5174L153.63 25.7214V25.7323ZM146.353 47.5025C144.865 48.2468 143.398 49.0129 141.954 49.8229C143.595 47.4806 145.226 45.1274 146.867 42.7851C146.824 44.1313 146.791 45.4667 146.736 46.8129L146.353 47.5025ZM114.968 77.0876C116.872 76.2557 118.765 75.4239 120.669 74.592C120.319 75.0955 119.958 75.6099 119.608 76.1134C118.919 76.6388 118.218 77.1313 117.485 77.602C116.172 78.4557 114.815 79.2219 113.425 79.9552L114.968 77.0876ZM122.694 47.5244C122.53 47.8746 122.355 48.2249 122.202 48.5861C120.243 50.195 118.262 51.793 116.281 53.3801C116.062 53.0408 115.745 52.789 115.351 52.6905C117.135 50.797 118.951 48.9473 120.845 47.1632L122.694 47.5353V47.5244ZM131.941 46.5174C132.488 45.9045 133.024 45.2915 133.571 44.6786C135.257 43.5075 136.931 42.3363 138.605 41.1433C138.463 41.5483 138.321 41.9423 138.168 42.3473C137.292 43.1244 136.428 43.9015 135.596 44.6348C134.294 45.401 132.991 46.1672 131.7 46.9552L131.941 46.5174ZM121.403 34.1602L120.932 34.193C121.315 33.8428 121.72 33.5144 122.103 33.1532C121.873 33.4925 121.632 33.8209 121.403 34.1602ZM139.087 33.6567C139.087 33.6567 139.065 33.6786 139.054 33.7005L139.087 33.6458C139.087 33.6458 139.087 33.6458 139.087 33.6567ZM139.897 57.3313C138.671 59.4985 137.423 61.6547 136.143 63.8C136.187 62.793 136.263 61.7861 136.373 60.7791C136.493 60.6478 136.614 60.5055 136.734 60.3632C137.631 59.4 138.704 58.2507 139.897 57.3313ZM139.623 47.4478C139.853 46.8458 140.083 46.2547 140.323 45.6527C140.619 45.4776 140.925 45.3244 141.232 45.1492C140.695 45.9154 140.159 46.6816 139.623 47.4478ZM138.835 31.6756C138.616 32.0587 138.594 32.5184 138.704 32.9453L136.734 33.0876C137.402 31.7413 138.649 30.5592 139.667 29.7055C139.853 29.5522 140.061 29.399 140.247 29.2458C139.776 30.0557 139.295 30.8657 138.824 31.6756H138.835ZM134.327 50.0418C134.699 49.7244 135.082 49.396 135.454 49.0786C135.508 49.0348 135.563 48.991 135.607 48.9473C135.377 49.604 135.158 50.2607 134.961 50.9283C134.655 51.9682 134.403 53.0079 134.162 54.0587C133.812 54.19 133.462 54.3214 133.123 54.4746C133.506 53.2597 133.889 52.0448 134.272 50.8298C134.359 50.5453 134.37 50.2935 134.327 50.0637V50.0418ZM132.816 65.201C132.816 65.3761 132.805 65.5512 132.805 65.7264C132.63 65.803 132.444 65.8796 132.269 65.9672C132.455 65.7154 132.641 65.4637 132.827 65.2119L132.816 65.201ZM119.334 71.6259C121.578 69.2398 123.952 66.9632 126.415 64.796C126.097 65.7811 125.769 66.7662 125.452 67.7403L124.248 69.4696C122.606 70.192 120.976 70.9035 119.334 71.6259ZM121.775 78.8388C121.26 80.3602 120.746 81.8706 120.232 83.3811C119.542 83.5562 118.853 83.7313 118.153 83.8955C119.302 82.2537 120.451 80.601 121.6 78.9592C121.654 78.9154 121.709 78.8826 121.764 78.8388H121.775ZM126.338 75.5881C127.881 74.4826 129.435 73.3881 130.978 72.2826C128.942 75.5771 126.907 78.8716 124.894 82.188C124.609 82.2647 124.314 82.3522 124.029 82.4288C124.806 80.1522 125.583 77.8756 126.349 75.5881H126.338ZM121.972 52.997C121.917 53.0627 121.862 53.1283 121.808 53.194C121.676 53.2816 121.545 53.3691 121.403 53.4567C121.589 53.3035 121.775 53.1502 121.972 52.997ZM116.533 46.7801C116.631 46.6378 116.73 46.5065 116.818 46.3642L116.927 46.3861C116.796 46.5174 116.664 46.6488 116.533 46.7801ZM125.32 57.7473C126.841 56.4448 128.363 55.1423 129.884 53.8507C129.555 54.8905 129.227 55.9303 128.899 56.9701C127.093 58.2836 125.397 59.7831 123.657 61.2826C123.526 61.392 123.394 61.5015 123.252 61.6109L124.04 60.1443L125.331 57.7363L125.32 57.7473ZM147.042 34.9701C147.042 35.2547 147.042 35.5393 147.031 35.8239C145.565 36.5791 144.142 37.5094 142.775 38.5274C142.818 38.3741 142.851 38.2099 142.895 38.0567C144.285 37.0388 145.664 36.0099 147.042 34.9701ZM145.915 31.7303C146.298 31.3473 146.703 30.9751 147.086 30.5811C147.086 30.5811 147.097 30.5701 147.108 30.5592C147.108 30.6468 147.108 30.7343 147.108 30.8219C146.714 31.1283 146.32 31.4239 145.915 31.7303ZM145.226 27.0348C145.313 26.5423 145.182 26.0169 144.854 25.6448C145.609 25.0647 146.375 24.4955 147.119 23.9154C147.119 24.2876 147.119 24.6597 147.119 25.0318C146.484 25.6995 145.85 26.3672 145.215 27.0348H145.226ZM132.28 30.5701C130.868 31.5552 129.369 32.3542 127.75 32.9453C129.73 29.6288 132.258 26.6955 135.268 24.2C135.705 23.8388 135.848 23.401 135.804 22.996L138.08 22.8099C136.045 25.3164 134.097 27.8995 132.28 30.5701ZM126.951 23.7075C123.329 27.5274 119.52 31.1721 115.515 34.5761L112.637 34.7731L112.386 34.795C116.424 31.2816 120.363 27.6587 124.204 23.9373L126.951 23.7184V23.7075ZM96.4633 52.2308C96.5618 52.1323 96.6603 52.0229 96.7588 51.9244C96.9448 51.8149 97.1309 51.6945 97.3169 51.5851C97.1637 51.8259 96.9995 52.0667 96.8463 52.3075L96.4633 52.2418V52.2308ZM99.6478 29.0706C99.6478 29.0706 99.7134 29.0706 99.7572 29.0487C99.9651 28.994 100.162 28.9283 100.37 28.8627C99.7244 30.198 99.0678 31.5224 98.4222 32.8577L99.6587 29.0597L99.6478 29.0706ZM102.92 31.0846L104.627 27.5821C104.857 27.5055 105.087 27.4398 105.316 27.3632C104.988 28.2716 104.693 29.202 104.441 30.1433C103.937 30.4607 103.423 30.7781 102.92 31.0955V31.0846ZM103.368 36.0756C103.259 36.8746 103.139 37.6846 102.964 38.4726C101.278 39.8408 99.5821 41.1871 97.875 42.5224C97.9954 42.1065 98.1048 41.6796 98.2361 41.2637C98.8708 39.2497 100.096 36.1741 102.613 36.2398C102.909 36.2398 103.15 36.1851 103.368 36.0866V36.0756ZM104.507 20.3691C104.397 20.4786 104.288 20.5771 104.189 20.6756L104.463 20.194C104.539 20.1283 104.616 20.0517 104.703 19.9861C104.638 20.1174 104.583 20.2378 104.517 20.3691H104.507ZM103.861 47.4478C103.861 47.4478 103.905 47.4259 103.927 47.404C103.292 49.3522 102.624 51.2895 101.957 53.2269L100.326 52.9313C101.508 51.1144 102.701 49.2975 103.872 47.4478H103.861ZM109.464 25.9731C110.284 25.6885 111.094 25.393 111.915 25.0975C111.882 25.196 111.838 25.2945 111.806 25.3821C110.832 26.0279 109.858 26.6627 108.884 27.2975C109.07 26.8487 109.278 26.4109 109.475 25.9731H109.464ZM118.82 24.594C117.157 26.1592 115.472 27.7134 113.764 29.2348C114.016 28.6657 114.268 28.0965 114.498 27.5164C115.942 26.5532 117.387 25.5791 118.809 24.594H118.82ZM114.005 18.9572C113.797 19.6686 113.589 20.3801 113.359 21.0806C112.856 21.2667 112.364 21.4527 111.86 21.6388C112.407 20.796 112.998 19.9751 113.633 19.1871C113.753 19.1104 113.885 19.0448 114.005 18.9681V18.9572ZM109.42 30.8547C108.796 32.1572 108.162 33.4487 107.483 34.7293C107.242 34.9373 107.002 35.1453 106.761 35.3532C106.892 34.4667 107.023 33.591 107.209 32.7264C107.253 32.5512 107.308 32.3761 107.352 32.19C108.041 31.7522 108.742 31.3035 109.431 30.8657L109.42 30.8547ZM107.089 23.3134C106.947 23.3681 106.794 23.4119 106.651 23.4557C106.695 23.3572 106.739 23.2696 106.794 23.1711C106.969 23.0726 107.133 22.9741 107.308 22.8756C107.231 23.0179 107.166 23.1711 107.1 23.3134H107.089ZM109.354 38.188C109.606 37.7174 109.858 37.2468 110.109 36.7761C110.317 36.601 110.514 36.4259 110.722 36.2507L109.759 38.8557C109.683 38.593 109.551 38.3632 109.354 38.188ZM117.77 17.6109C117.857 17.2716 117.956 16.9433 118.032 16.604C118.076 16.5821 118.12 16.5492 118.164 16.5274L117.77 17.6109ZM119.914 11.7005C119.444 11.9741 118.973 12.2478 118.492 12.5323C118.043 11.6348 116.839 11.2736 115.898 12.0726C115.822 12.1383 115.767 12.204 115.69 12.2587C116.15 11.6129 116.621 10.9781 117.058 10.3104C117.211 10.0806 117.277 9.83979 117.288 9.60994L120.483 10.0915L119.903 11.7005H119.914ZM113.458 9.02984C112.889 9.42387 112.309 9.8179 111.751 10.2338C111.729 10.1572 111.707 10.0915 111.685 10.0149C111.959 9.64278 112.232 9.25969 112.506 8.88755L113.458 9.02984ZM108.271 8.24178C108.183 8.27462 108.085 8.29651 107.997 8.34029C106.64 9.00795 105.995 10.8139 105.294 12.0507C105.229 12.1602 105.174 12.2696 105.108 12.3791L106.542 7.99004L108.271 8.25273V8.24178ZM150.216 40.6179C150.216 40.4866 150.216 40.3662 150.227 40.2348C150.325 40.1801 150.413 40.1363 150.511 40.0816L150.216 40.6179ZM204.034 58.1084L198.519 58.0428L196.418 58.0209H195.794L177.191 57.802L177.234 59.7174L177.333 64.0955L177.388 66.7881L177.464 70.5313L177.552 74.6686V74.9642L177.836 87.9672L188.768 87.7045H188.867L190.377 87.6607L192.96 87.595L204.8 87.3104L208.324 87.2229L208.346 87.0806L208.948 82.2647L209.221 80.0537L211.946 58.196L204.034 58.1084ZM202.119 85.1871L200.193 85.2308C200.74 84.6289 201.309 84.0488 201.911 83.5015C202.36 83.5562 202.819 83.4468 203.213 83.0965C204.494 81.9801 205.774 80.8637 207.054 79.7473L206.759 82.0786C205.282 83.2169 203.728 84.2458 202.108 85.1761L202.119 85.1871ZM192.522 85.4169C192.555 85.2089 192.588 84.99 192.62 84.7821C192.96 84.607 193.288 84.4318 193.616 84.2567C193.54 84.6398 193.441 85.0229 193.365 85.395L192.522 85.4169ZM179.795 77.1751C179.894 77.1204 179.992 77.0657 180.08 77.0109C180.036 78.4776 179.959 79.9552 179.883 81.4219L179.795 77.1751ZM194.295 79.7363C194.273 79.9005 194.251 80.0756 194.24 80.2398C194.109 80.3055 193.988 80.3821 193.857 80.4478C193.988 80.196 194.131 79.9552 194.295 79.7254V79.7363ZM199.93 66.4597H198.77V66.4816C199.657 65.9781 200.543 65.4856 201.43 64.9821C200.926 65.4746 200.434 65.9672 199.93 66.4706V66.4597ZM187.893 61.6985C188.364 61.2716 188.834 60.8557 189.294 60.4288C188.976 61.5124 188.615 62.5741 188.21 63.6249C188.112 62.9791 188.013 62.3443 187.882 61.6985H187.893ZM188.9 68.802L194.787 68.7144L197.698 68.6706H198.814L198.289 75.7632L189.359 75.9821L189.348 75.7194L189.108 71.9214L188.911 68.791L188.9 68.802ZM197.293 82.2647C198.398 81.6408 199.504 80.995 200.587 80.3383C199.296 81.4438 198.092 82.6368 197.009 83.9393C197.107 83.3811 197.217 82.8338 197.293 82.2756V82.2647ZM200.893 70.1373C202.918 68.1343 204.931 66.1313 206.956 64.1283C205.325 67.0617 203.224 69.7214 200.751 72.0089L200.883 70.1373H200.893ZM195.597 64.5005C195.597 64.5005 195.597 64.4677 195.597 64.4567C196.954 63.3841 198.344 62.3443 199.733 61.3154C200.215 60.9652 200.696 60.6259 201.178 60.2756L203.038 60.2975C200.554 61.6985 198.07 63.0995 195.586 64.5005H195.597ZM192.96 60.1771C192.872 60.9871 192.774 61.7861 192.642 62.596C192.38 62.8259 192.106 63.0448 191.844 63.2746C192.194 62.2567 192.489 61.2279 192.763 60.1881H192.96V60.1771ZM185.661 70.0716C185.661 70.0716 185.639 70.1045 185.628 70.1154C185.584 70.1373 185.551 70.1592 185.507 70.1811C185.518 69.9841 185.529 69.7871 185.54 69.601C185.551 69.7761 185.595 69.9293 185.65 70.0716H185.661ZM184.118 80.8746C185.026 78.6089 185.923 76.3433 187.039 74.198L187.16 76.1353L187.215 76.9562L187.795 77.5363L188.265 78.0179C186.777 79.4955 185.289 80.9622 183.811 82.4288C183.921 81.9144 184.008 81.389 184.107 80.8746H184.118ZM208.389 69.0647C207.974 69.3164 207.569 69.5791 207.142 69.8199C207.634 69.1632 208.094 68.4955 208.543 67.806L208.389 69.0647ZM179.981 61.6547C180.025 62.5084 180.047 63.3622 180.08 64.2159C179.905 64.3691 179.719 64.5114 179.533 64.6647L179.478 62.1254C179.642 61.9721 179.817 61.808 179.981 61.6547ZM179.62 68.802C179.806 68.6487 179.992 68.5065 180.178 68.3532C180.2 69.9622 180.222 71.5821 180.2 73.191C180.047 73.2786 179.883 73.3662 179.729 73.4537L179.631 68.791L179.62 68.802Z" fill="#FE6F31"/>
</g>
<defs>
<clipPath id="clip0_219_689">
<rect width="262" height="99" fill="white"/>
</clipPath>
</defs>
</svg>
