<svg width="244" height="54" viewBox="0 0 244 54" fill="none" xmlns="http://www.w3.org/2000/svg">
<path d="M47.7691 16.7321L39.0509 51.7133L24.8258 51.6985L31.5065 24.2138L24.0359 24.4654C23.4379 26.5301 22.8252 28.6096 22.1978 30.6964C20.0053 37.9413 17.5914 45.1862 15.0224 52.2313L14.3802 54L0.605326 51.4173L1.69787 48.8642C4.58424 42.1447 7.13104 35.1366 9.24968 28.0471C9.5302 27.0777 9.81809 26.0639 10.1134 25.0204L0 25.3534L0.302663 11.7739L13.7675 11.3521C14.3654 8.85816 15.1332 5.71303 16.0633 1.93148L16.5357 0L30.0965 1.81307L29.469 4.24037C28.7899 6.86008 28.2141 9.10976 27.749 10.9672L42.3212 10.5602L47.7765 16.7247L47.7691 16.7321ZM82.472 19.5442L82.4572 19.5072L89.0272 17.4499L84.1772 4.68439L77.5187 7.08949L77.5039 7.05249L69.7601 9.9608L74.3075 22.2009L82.472 19.5442ZM68.579 4.27737H54.4203L53.9774 52.89H67.9073L68.1878 33.627L83.4243 42.3519L88.4145 30.0304L68.3649 19.3296L68.579 4.27737ZM141.565 10.5158L127.148 35.1366L118.43 30.2302L114.421 53.6226L101.067 50.7661L106.862 18.1085L93.1833 18.6636L92.7994 5.47622L137.749 4.10717L141.565 10.5158ZM120.349 19.0484L119.714 22.7263L122.542 17.4647L107.194 18.0863L120.342 19.041L120.349 19.0484ZM140.03 35.6768L139.734 49.4414L189.091 48.7754L189.46 34.7814L140.03 35.6768ZM184.3 11.6629L146.297 9.8054L144.99 23.3035L182.971 25.4422L184.292 11.6555L184.3 11.6629ZM239.259 21.0539L243.887 29.6234L242.699 36.7499L229.699 41.8339L229.736 53.5634L217.482 53.1786L217.548 47.5173L217.224 50.7513L195.055 51.3507L194.435 31.7991L191.394 31.8213L191.512 20.373L195.439 20.4766L195.314 17.4351L192.752 17.5091L192.021 5.80183H201.463L201.714 1.00644L212.396 0.925038V5.80183H218.05L218.08 3.12293L241.001 3.01932L243.961 8.72495L239.251 21.0391L239.259 21.0539ZM229.625 15.2446L229.78 14.8598H229.625V15.2446Z" fill="white"/>
<path d="M45.0675 18.3974L45.3332 17.3318L41.3322 12.8176L39.6934 12.862L33.3743 13.0396L31.396 13.0914L27.7345 13.195L24.8924 13.2764C24.9736 12.936 25.0622 12.5734 25.1581 12.1886C25.1803 12.0924 25.2098 11.9962 25.232 11.8926C25.3132 11.567 25.3944 11.2265 25.4903 10.8639C25.5125 10.7899 25.5272 10.7159 25.5494 10.6419C25.7856 9.71689 26.044 8.68825 26.3319 7.5708C26.546 6.73457 26.7748 5.84653 27.0184 4.89929C27.1218 4.49968 27.2251 4.10006 27.3358 3.68564L18.2264 2.4646C17.9607 3.54504 17.7097 4.55888 17.4735 5.53572C17.4735 5.53572 17.4735 5.54312 17.4735 5.55052C17.0527 7.25999 16.6762 8.80665 16.344 10.1905C16.2628 10.5235 16.189 10.8417 16.1078 11.16C16.0709 11.3154 16.034 11.4708 15.9971 11.6262C15.9454 11.826 15.9011 12.0258 15.8568 12.2256C15.8273 12.3588 15.7977 12.4846 15.7608 12.6178C15.687 12.936 15.6132 13.2468 15.5394 13.5354L2.48057 13.9425L2.28125 23.0744L3.82409 23.0226L9.35323 22.8376L13.059 22.7118C12.4832 24.8431 11.9296 26.8412 11.3907 28.6987C9.23512 35.8992 6.68094 42.922 3.75027 49.7525L12.963 51.4768C15.5246 44.4465 17.9016 37.3052 20.1015 30.0677C20.8766 27.4628 21.6369 24.8801 22.3751 22.3048L23.6448 22.2604L26.7084 22.1568L34.3709 21.8978L31.5288 33.5829L30.3994 38.2155L30.3403 38.4449L29.0042 43.9285L28.7901 44.7943L27.6533 49.4713L37.3237 49.4787L37.8995 47.1846L38.2686 45.7046L43.938 22.9486L45.0749 18.3826L45.0675 18.3974ZM12.4611 31.57C12.3872 33.0648 12.306 34.5523 12.2101 36.0472C11.5531 36.3802 10.8961 36.6984 10.2317 37.0166C10.8296 35.2923 11.3981 33.5681 11.9443 31.829C12.1141 31.7402 12.2913 31.6662 12.4611 31.5774V31.57ZM9.22774 39.8509C9.80354 39.5993 10.3867 39.3551 10.9551 39.0887C10.1431 40.6353 9.34585 42.1894 8.57812 43.7583C8.03923 44.5427 7.45605 45.2975 6.85072 46.0376C7.67013 43.9951 8.46739 41.9304 9.22035 39.8509H9.22774ZM11.6269 43.9877C11.5678 44.7277 11.5162 45.4603 11.4497 46.2004C11.4202 46.5704 11.3833 46.9552 11.3464 47.34C11.088 48.0727 10.8296 48.8053 10.5713 49.5379L8.78481 49.2049L11.6269 43.9951V43.9877ZM21.0316 12.8472C20.4189 13.3356 19.7988 13.8167 19.1639 14.2829C20.7363 11.5966 22.759 9.17666 24.9588 6.91957C24.6709 8.04442 24.4126 9.07306 24.1763 10.0055C23.1798 11.0267 22.1168 11.974 21.0316 12.8472ZM17.3037 25.5979C18.1009 24.8505 18.9056 24.1031 19.7028 23.363C18.9425 24.1475 18.1378 24.8949 17.3037 25.5979ZM17.7761 28.0918C17.0379 29.4535 16.2923 30.8078 15.5541 32.1694C15.5394 32.1694 15.5246 32.1694 15.5098 32.1694C15.6058 31.2962 15.6944 30.4229 15.7904 29.5497C16.4695 29.0835 17.1339 28.6099 17.7761 28.0992V28.0918ZM20.1827 16.6954C19.1492 17.8794 18.1526 19.1005 17.2003 20.3659C17.0453 20.5731 16.9936 20.7877 17.0158 20.9949C16.7205 21.2244 16.4252 21.4464 16.1373 21.6832C16.5212 20.8321 16.8977 19.9811 17.2815 19.1301C17.4292 18.8045 17.4218 18.4862 17.3184 18.2198C17.6949 17.9756 18.064 17.7388 18.4405 17.4946C19.0237 17.2356 19.6069 16.9692 20.1827 16.7028V16.6954ZM15.5689 15.0155H15.7534C15.5615 15.5039 15.377 15.9997 15.2219 16.5104C15.1777 16.5252 15.1407 16.5474 15.0964 16.5696C15.0374 16.0367 14.9193 15.5261 14.6904 15.0451L15.5689 15.0155ZM12.7268 15.9701C12.9335 16.3106 12.9926 16.8804 12.9926 17.4502C12.0846 17.8276 11.184 18.205 10.2686 18.575C11.0511 17.6722 11.8631 16.799 12.7268 15.9701ZM25.0622 14.7565L25.8816 14.7343C25.1065 15.2227 24.3387 15.7333 23.5784 16.244C24.0656 15.7407 24.5602 15.2449 25.0622 14.7565ZM27.4983 16.3402C28.1479 15.7703 28.8049 15.2005 29.4545 14.6381H29.639C29.58 14.9045 29.5283 15.1857 29.4619 15.4743C28.7827 15.8443 28.0962 16.1996 27.3949 16.54C27.4318 16.4734 27.4687 16.4142 27.4983 16.3476V16.3402ZM37.4714 39.8731C37.5452 39.7399 37.619 39.6141 37.6854 39.4809C37.7593 39.3329 37.8257 39.1849 37.8774 39.0295C38.1136 38.7779 38.3572 38.5263 38.5934 38.2821L38.4163 38.9777C38.0988 39.2737 37.7888 39.5771 37.464 39.8657L37.4714 39.8731ZM36.3124 30.3415C36.5412 29.0835 36.5929 27.7884 36.8291 26.4934C36.903 26.1086 36.9989 25.7311 37.0949 25.3537C37.3533 25.3537 37.6116 25.2797 37.8405 25.1021C38.0472 24.9393 38.2612 24.7913 38.4679 24.6285C38.4384 24.6951 38.4163 24.7543 38.3867 24.8209C37.6485 26.6414 36.962 28.4841 36.3124 30.3415ZM35.3749 18.0644C35.8473 16.8286 36.4674 15.6593 37.2278 14.5789C37.2278 14.6677 37.2278 14.7491 37.2278 14.8379C37.2278 15.4447 37.8626 16.0959 38.5122 15.9405C37.4714 16.651 36.4231 17.3614 35.3823 18.0718L35.3749 18.0644ZM33.116 15.8739C32.2744 17.1468 31.4329 18.4196 30.5987 19.6925C30.9309 18.7897 31.1893 17.8572 31.4107 16.9174C31.9865 16.5844 32.5549 16.2292 33.116 15.8739ZM35.8842 21.994C35.8547 22.068 35.8252 22.142 35.7957 22.2234L35.8473 22.0162C35.8473 22.0162 35.8769 22.0014 35.8842 22.0014V21.994ZM34.4964 27.5516C34.3414 29.0761 34.1864 30.5931 33.4334 31.9326L34.4964 27.5516ZM34.2897 34.5745C34.5259 34.4783 34.7695 34.3895 35.0058 34.3081C34.991 34.3525 34.9762 34.3895 34.9689 34.4339C34.9024 34.6633 34.836 34.8927 34.7695 35.1147C34.2011 35.5069 33.6475 35.9066 33.0938 36.3136C33.4334 35.7067 33.8616 35.1369 34.2971 34.5745H34.2897ZM34.6514 46.415C34.7917 45.8452 34.9467 45.2753 35.0944 44.7129C35.899 44.1061 36.6889 43.4697 37.464 42.811L36.866 45.2161C36.1352 45.6231 35.397 46.0302 34.6514 46.415ZM39.1545 36.0176C38.8444 35.7216 38.4015 35.5883 37.9881 35.7882C38.0176 35.7142 38.0398 35.6475 38.0693 35.5735C38.5344 35.2701 39.0142 34.9815 39.4867 34.6855L39.1545 36.0176ZM40.247 30.3415C40.4611 29.8605 40.7047 29.3943 40.9262 28.9207L40.6014 30.2305C40.4832 30.2675 40.3651 30.3045 40.247 30.3489V30.3415ZM42.9045 19.1449C43.0448 18.6491 43.1777 18.1532 43.281 17.6426C43.3475 17.5908 43.4139 17.5316 43.473 17.4724L43.7092 17.7388L43.4287 18.8637C43.2515 18.9599 43.0743 19.0487 42.9045 19.1449ZM18.4774 7.6004C19.7693 6.55696 21.0833 5.53572 22.4047 4.52928L24.0213 4.74389C23.2462 5.52093 22.4859 6.30535 21.755 7.11938C21.6148 7.12678 21.4745 7.16378 21.3416 7.23038C20.2343 7.77801 19.1713 8.37744 18.1231 9.02127C18.2338 8.56245 18.3519 8.08882 18.47 7.6004H18.4774ZM6.30445 15.3041C5.48505 16.0885 4.67303 16.8804 3.86839 17.6796L3.92006 15.3781L6.31184 15.3041H6.30445ZM3.79456 21.0171C4.56968 21.0023 5.29312 20.8099 5.97226 20.4917C5.76557 20.7951 5.77295 21.1578 5.92059 21.4686L3.78718 21.5426L3.80195 21.0171H3.79456ZM12.8671 20.9357C12.8671 21.0393 12.8671 21.143 12.8597 21.2392L12.2839 21.2614C12.4758 21.1504 12.6751 21.0467 12.8745 20.9357H12.8671ZM24.7817 20.7507C25.0105 20.4325 25.2394 20.1217 25.4608 19.7961C26.546 19.3595 27.6237 18.8933 28.672 18.3752C28.4062 19.1671 28.074 19.9367 27.6902 20.6471L24.789 20.7433L24.7817 20.7507ZM30.8497 42.5668C31.3812 42.1746 31.9053 41.7824 32.4368 41.3902C31.8832 41.9304 31.3148 42.441 30.7537 42.9664L30.8497 42.5668ZM74.603 16.6658L75.164 18.1754L75.6364 19.4483L79.5342 18.1828L78.3161 15.1265L77.9175 14.1275L77.8658 14.0017L77.1055 12.085L76.2418 9.9241L72.5951 11.2932L73.5178 13.7797L74.5956 16.6658H74.603ZM76.9357 15.6371C76.6921 15.9997 76.4485 16.3624 76.1975 16.7176L75.8136 15.6741C76.1015 15.4373 76.3894 15.2079 76.6699 14.9711L76.9357 15.6297V15.6371ZM84.0298 30.2231L81.7931 29.0317L76.9283 26.4342L72.3293 23.9773L66.121 20.6619L66.1505 18.8415L66.2687 10.8269L66.3277 6.50516H56.613L56.5761 10.5383L56.5613 12.5142L56.5096 18.1606L56.2143 50.6776H65.7298L66.0324 29.8383L67.3243 30.5783L69.5758 31.866L73.7097 34.2341L75.2157 35.0925L80.6046 38.1784L80.8998 38.3487L82.3319 39.1701L85.6243 31.052L84.0446 30.2083L84.0298 30.2231ZM64.5856 27.3222L64.5486 29.8309L64.5191 31.8438C64.3936 33.9233 64.2681 36.0028 64.1426 38.0822C63.9359 34.1083 63.8178 30.1269 63.9581 26.1456C63.9655 25.894 63.9876 25.6497 63.995 25.3981C64.3346 24.8949 64.6668 24.3991 65.0063 23.8959C65.0063 23.9699 64.9989 24.0365 64.9916 24.1105C64.8292 24.4435 64.6594 24.7765 64.5117 25.1243C64.2829 25.6571 64.4084 26.2936 64.8439 26.597C64.8292 26.8782 64.807 27.1594 64.7922 27.4332L64.5929 27.3148L64.5856 27.3222ZM72.3367 26.227C71.9528 26.6266 71.5468 27.0114 71.1482 27.3962C71.1113 27.4258 71.0744 27.4554 71.0301 27.4924C71.1482 27.115 71.2663 26.745 71.3844 26.3676C71.7018 26.3232 72.0193 26.2788 72.3293 26.227H72.3367ZM67.9665 23.3334L69.7234 24.2733C69.7234 24.2733 69.7087 24.3251 69.7013 24.3473C68.8967 24.4287 68.0846 24.4879 67.2726 24.5249C67.4941 24.1179 67.7229 23.7257 67.9665 23.3408V23.3334ZM64.652 20.4547C64.5413 20.6249 64.4231 20.7951 64.3124 20.9654C64.4158 20.0107 64.5413 19.0561 64.6815 18.1088L64.6446 20.4547H64.652ZM67.0438 26.745C67.6934 26.7228 68.343 26.6784 68.9852 26.6266C68.6973 27.5294 68.3947 28.4323 68.092 29.3351L66.9257 28.6691C66.9626 28.0252 67.0069 27.3888 67.0438 26.745ZM72.6024 29.0687C72.9199 28.8171 73.2299 28.5655 73.5473 28.3212C72.8239 29.2833 72.13 30.2675 71.4508 31.2592L70.6979 30.83C71.3475 30.2527 71.9823 29.6755 72.6098 29.0761L72.6024 29.0687ZM78.4195 35.2553L78.2866 35.1813C78.353 35.0925 78.4269 35.0037 78.4933 34.9149L78.4121 35.2553H78.4195ZM80.7079 35.1739C80.8777 34.4339 81.0475 33.6939 81.2173 32.9538C81.3575 33.2721 81.6306 33.5385 81.9481 33.6051C81.9776 33.6051 81.9998 33.6199 82.0219 33.6273C81.5864 34.1453 81.1434 34.6559 80.7079 35.1739ZM76.4706 31.9326C76.6625 31.2518 76.8766 30.5783 77.1202 29.9123C77.3565 29.4757 77.5779 29.0317 77.7699 28.5729L79.1651 29.3203C78.2423 30.1639 77.3343 31.0298 76.4706 31.9326ZM64.7258 14.7417C64.1648 14.2163 63.1239 14.2385 62.9394 15.2005C62.3193 18.7527 61.6992 22.3122 61.0791 25.8643L59.9349 27.596C59.8094 27.781 59.6839 27.966 59.5658 28.151C60.4369 23.5036 61.5589 18.9081 62.9246 14.3717C63.5299 13.7205 64.15 13.0766 64.7627 12.4328L64.7332 14.7417H64.7258ZM58.0155 13.8463C58.4732 13.5946 58.9235 13.3504 59.3812 13.0988C59.0786 13.6391 58.8202 14.2015 58.5766 14.7787C58.4732 14.8675 58.3847 14.9785 58.3182 15.1265C58.2075 15.3781 58.1041 15.6297 57.9934 15.8813L58.0155 13.8537V13.8463ZM58.6725 33.5015C59.1671 32.7318 59.6544 31.9548 60.1563 31.1852L59.551 34.6485C59.0121 37.727 58.5249 40.8204 57.9122 43.8841C57.8605 44.1505 57.7941 44.4169 57.735 44.6833L57.7646 41.368C57.9934 38.7409 58.2887 36.1138 58.6725 33.5089V33.5015ZM61.3375 37.5642C61.3006 37.6826 61.271 37.7936 61.2415 37.912C61.367 37.135 61.4925 36.3654 61.6254 35.6031C61.6844 35.2627 61.7435 34.9297 61.8025 34.5893C61.8321 35.3589 61.8616 36.1286 61.8985 36.8908C61.6549 37.0092 61.4408 37.2238 61.3448 37.5642H61.3375ZM63.5816 8.00742C62.4743 8.69565 61.367 9.37648 60.2449 10.0351C60.8872 9.37648 61.5146 8.69565 62.1347 8.00742H63.5816ZM58.0746 8.00742H59.145C58.7907 8.37743 58.4289 8.74745 58.0672 9.11007V8.00742H58.0746ZM62.179 49.2197C62.2971 48.9755 62.4152 48.7313 62.5334 48.4945C62.5481 48.7387 62.5555 48.9755 62.5629 49.2197H62.1716H62.179ZM83.7419 31.7624L83.6755 31.9252C83.6755 31.9252 83.6386 31.903 83.6238 31.8882C83.6386 31.829 83.6533 31.7772 83.6681 31.718L83.7419 31.755V31.7624ZM85.6391 16.2144L82.0662 17.3318L81.2099 14.9119L80.7817 13.6983L80.3019 12.344L79.0839 8.91026L82.8782 7.54121L84.2439 11.1451L85.0338 13.2172L86.1115 16.0589L85.6317 16.207L85.6391 16.2144ZM116.688 21.0393L116.083 20.9949L114.614 20.8913L113.159 20.7877L108.693 20.4621L107.704 26.0198L106.471 32.9686L105.969 35.8029L104.877 41.9452L104.449 44.3725L103.614 49.0717L104.198 49.1975L106.538 49.7007L109.018 50.2335L109.188 50.2705L112.62 51.0032L117.744 21.1208L116.681 21.0468L116.688 21.0393ZM113.049 39.8065C112.79 39.8065 112.532 39.8953 112.332 40.1321C111.668 40.9018 111.144 41.7306 110.738 42.6112C110.871 42.0414 111.004 41.4716 111.151 40.9092C111.823 39.7621 112.583 38.6817 113.418 37.653L113.049 39.8139V39.8065ZM108.708 29.6089C108.649 29.6607 108.597 29.7199 108.538 29.7791L108.641 29.1945C108.664 29.3351 108.686 29.4757 108.708 29.6089ZM111.351 23.2002C111.004 24.1697 110.686 25.1391 110.391 26.1234C110.295 25.5017 110.192 24.8801 110.096 24.2585C110.524 23.9181 110.937 23.5554 111.351 23.2002ZM113.528 34.1971C113.89 33.1462 114.23 32.088 114.554 31.0224L114.104 33.6569C113.912 33.8345 113.713 34.0121 113.528 34.1971ZM114.717 22.3862C114.008 23.4297 113.388 24.5175 112.842 25.6423C113.211 24.5249 113.617 23.4297 114.045 22.3418L114.717 22.3936V22.3862ZM108.331 33.0574C108.45 32.939 108.582 32.8206 108.701 32.7022C108.354 34.4043 108.066 36.1212 107.837 37.8602C107.785 38.2821 108.021 38.6077 108.354 38.7927C107.822 39.2071 107.268 39.5993 106.722 40.0063L107.866 33.5607C108.021 33.3979 108.169 33.2202 108.324 33.0648L108.331 33.0574ZM106.169 43.1588C106.552 42.885 106.944 42.6186 107.32 42.3448C106.811 43.8397 106.22 45.3123 105.534 46.7258L106.169 43.1588ZM107.276 48.3317C107.276 48.3317 107.276 48.3317 107.276 48.3391C107.276 48.3391 107.276 48.3391 107.276 48.3317ZM109.778 46.9996C109.778 47.6064 109.815 48.2429 109.8 48.8793L109.454 48.8053C109.557 48.2059 109.66 47.599 109.778 46.9996ZM131.939 22.5934L138.989 10.5531L137.321 7.75581L136.893 7.04538L136.509 6.40155L133.106 6.50516L130.005 6.60137L121.102 6.87517L117.441 6.98618L105.799 7.3414L103.651 7.408L100.278 7.5116L97.5242 7.593L95.0733 7.66701L95.1988 11.9518L95.3243 16.392L103.068 16.0738L105.261 15.9849L107.734 15.8813L109.483 15.8073L126.336 15.1191L119.301 28.2102L120.157 28.6913L121.649 29.5275L123.775 30.7263L126.344 32.1694L130.573 24.9467L131.947 22.5934H131.939ZM134.7 14.9489C135.409 13.3208 136.184 11.7224 137.025 10.1535L137.269 10.5605L134.7 14.9489ZM125.65 26.1086C125.982 25.6275 126.307 25.1317 126.617 24.6359C126.506 25.3611 126.425 26.0938 126.373 26.8264C126.27 26.4268 125.989 26.1974 125.65 26.1012V26.1086ZM126.521 28.9133C126.521 28.9133 126.521 28.8763 126.521 28.8615C126.521 28.8615 126.536 28.8689 126.536 28.8763L126.513 28.9133H126.521ZM121.981 11.2414C120.002 11.3598 118.024 11.4486 116.046 11.5078C116.186 11.3894 116.334 11.271 116.466 11.1525C118.305 11.1821 120.143 11.234 121.973 11.2488L121.981 11.2414ZM104.729 8.84366L105.297 8.82885C105.091 9.02866 104.877 9.21367 104.67 9.41348C104.175 9.48008 103.681 9.55408 103.186 9.63548C103.696 9.36167 104.212 9.11006 104.729 8.85105V8.84366ZM106.25 13.7649C106.781 14.0017 107.327 14.1645 107.881 14.2607C107.815 14.3125 107.748 14.3569 107.682 14.4013L105.962 14.4679C106.058 14.2311 106.146 13.9943 106.242 13.7649H106.25ZM110.465 11.53C110.841 11.382 111.225 11.2488 111.616 11.1303C111.779 11.1303 111.934 11.1303 112.096 11.1303C111.912 11.271 111.72 11.4116 111.535 11.5522C111.181 11.5522 110.827 11.5522 110.465 11.5374V11.53ZM110.856 8.98426C110.576 8.98426 110.288 8.99906 110.007 9.00646C110.118 8.89546 110.229 8.78446 110.339 8.67345L112.185 8.61425C111.735 8.72525 111.292 8.84366 110.856 8.98426ZM131.806 16.096C130.928 18.316 130.16 20.5731 129.525 22.8746C129.503 22.5046 129.488 22.142 129.474 21.772C130.027 19.7961 130.81 17.8868 131.799 16.096H131.806ZM129.422 8.11102C129.304 8.11102 129.186 8.11102 129.06 8.11102H129.422ZM99.5099 9.00646C99.4509 9.09527 99.3992 9.19147 99.3401 9.28027C99.1925 9.36907 99.0522 9.46529 98.912 9.55409C99.0227 9.37648 99.1408 9.19887 99.2515 9.02127H99.5099V9.00646ZM96.5866 9.09526H96.6162C96.6162 9.09526 96.594 9.12487 96.5866 9.14707V9.09526ZM96.7564 14.8453C97.6866 14.2237 98.5429 13.5206 99.3254 12.7214C99.9012 12.8176 100.47 12.9064 101.045 12.9878C100.418 13.5947 99.7757 14.1793 99.1187 14.7491L96.7564 14.8453ZM102.47 14.6159C102.728 14.3717 102.987 14.1201 103.238 13.8685C103.378 13.9869 103.541 14.0683 103.725 14.1127C103.666 14.2607 103.629 14.4161 103.57 14.5715L102.47 14.6159ZM126.277 13.6465L111.602 14.2459C111.808 14.0905 112.022 13.9351 112.229 13.7797C112.259 13.7649 112.296 13.7575 112.325 13.7427C117.566 13.7649 122.822 13.417 128.049 13.047C128.012 13.2246 127.982 13.3948 127.953 13.5724L126.27 13.639L126.277 13.6465ZM127.584 15.9257C127.488 16.688 127.407 17.4576 127.355 18.2198C125.945 20.1069 124.579 22.0384 123.251 23.9847L127.584 15.9183V15.9257ZM124.181 29.2611C124.232 29.2093 124.284 29.1501 124.336 29.0983C124.328 29.1723 124.306 29.2463 124.291 29.3203L124.181 29.2537V29.2611ZM187.149 38.6743L187.194 37.0832L162.951 37.5198L161.674 37.542L151.14 37.7344L147.117 37.8084L146.12 37.8232L143.891 37.8602L142.215 37.8898L142.149 41.0276L142.112 42.6334L142.016 47.2216L180.793 46.6962L184.366 46.6444L186.95 46.6074L186.994 45.0755L187.083 41.5974L187.164 38.6595L187.149 38.6743ZM144.201 42.182C144.142 42.2042 144.09 42.219 144.031 42.2412C144.053 42.182 144.075 42.1302 144.105 42.071C144.134 42.108 144.164 42.145 144.201 42.182ZM155.325 39.1405L158.212 39.0887C157.326 39.9693 156.44 40.8426 155.547 41.7232C155.414 41.8564 155.333 41.997 155.281 42.145C155.503 41.1756 155.525 40.1839 155.325 39.1405ZM153.266 40.4873C153.281 41.0202 153.192 41.553 153.022 42.0636C152.653 42.071 152.284 42.1006 151.922 42.1376C152.314 41.5308 152.756 40.9684 153.266 40.4873ZM149.11 42.5668C149.014 42.7444 148.91 42.922 148.814 43.0922C148.357 43.3587 147.929 43.6769 147.545 44.0395C147.7 43.7065 147.862 43.3735 148.039 43.0478C148.394 42.8924 148.755 42.7296 149.102 42.5668H149.11ZM146.903 40.6354C146.755 40.8574 146.615 41.0794 146.482 41.3088C146.415 41.3384 146.349 41.368 146.29 41.3902C146.467 41.109 146.681 40.8648 146.91 40.6354H146.903ZM150.32 44.9423C150.32 44.9423 150.365 44.8683 150.379 44.8313C150.933 44.5871 151.516 44.4243 152.055 44.3577C153.052 44.2393 154.07 44.2911 155.074 44.3799C154.196 44.8017 153.31 45.2087 152.424 45.6083L149.885 45.6453C150.033 45.4159 150.18 45.1791 150.313 44.9497L150.32 44.9423ZM158.271 45.2605C158.197 45.3493 158.131 45.4381 158.057 45.5269H157.717C157.902 45.4381 158.086 45.3493 158.271 45.2605ZM168.628 38.8963L171.839 38.8371C170.658 39.0295 169.477 39.2219 168.296 39.4217C168.465 39.2737 168.569 39.0887 168.628 38.8963ZM179.974 39.7399C181.273 39.5253 182.58 39.3107 183.879 39.0961C183.702 39.3255 183.517 39.5475 183.34 39.7769C183.17 39.7621 183.001 39.7325 182.838 39.7251C181.893 39.6585 180.934 39.6807 179.974 39.7399ZM181.657 41.8934C181.281 42.3374 180.889 42.7666 180.491 43.1737C177.339 43.2625 174.186 43.2699 171.042 43.1959C171.883 43.0626 172.725 42.9294 173.566 42.8036C176.187 42.3966 178.963 41.8638 181.665 41.8934H181.657ZM184.263 42.182C184.477 42.2412 184.676 42.3078 184.883 42.3892C184.684 42.6038 184.477 42.811 184.278 43.0256C184.041 43.0404 183.798 43.0404 183.562 43.0552C183.798 42.7666 184.034 42.478 184.27 42.182H184.263ZM169.322 45.3715L160.884 45.4825C161.024 45.2975 161.172 45.1199 161.312 44.9349C163.977 45.1421 166.649 45.2827 169.329 45.3641L169.322 45.3715ZM163.579 38.9777C163.047 39.4143 162.552 39.9027 162.095 40.4281C161.253 40.5687 160.419 40.702 159.577 40.8426C160.19 40.2357 160.81 39.6289 161.423 39.0147L163.579 38.9777ZM143.529 44.7277C144.038 44.5649 144.54 44.4021 145.042 44.2245C144.85 44.7129 144.681 45.2013 144.526 45.7046L143.507 45.7194L143.529 44.7351V44.7277ZM176.482 22.8746L180.985 23.1262L181.163 21.2836L181.879 13.7871L148.305 12.1516L147.707 18.3752L147.434 21.2392L168.237 22.4158L176.49 22.882L176.482 22.8746ZM158.418 20.3733C160.884 20.0033 163.342 19.6037 165.808 19.2559C165.527 19.5149 165.239 19.7591 164.966 20.0181C163.925 20.1809 162.885 20.3659 161.844 20.5657L158.426 20.3733H158.418ZM159.083 14.1497L162.774 14.3273C160.257 15.0377 157.739 15.7481 155.229 16.4586C156.514 15.6889 157.806 14.9193 159.09 14.1497H159.083ZM176.386 16.1033C176.091 16.1033 175.788 16.1034 175.493 16.1182C175.648 15.7407 175.781 15.3559 175.899 14.9711L178.261 15.0895C177.627 15.4225 176.999 15.7555 176.386 16.1107V16.1033ZM179.162 18.3752C178.52 18.7231 177.892 19.0931 177.28 19.4853C177.531 19.1375 177.774 18.7971 178.033 18.4567C178.062 18.4122 178.084 18.3752 178.106 18.3308C178.461 18.3382 178.815 18.3604 179.162 18.3826V18.3752ZM174.142 20.1291C174.009 20.3289 173.876 20.5287 173.744 20.7285C173.574 20.7433 173.404 20.7581 173.242 20.7729C173.537 20.5509 173.84 20.3437 174.142 20.1291ZM173.197 15.8591C173.138 15.9849 173.079 16.1108 173.02 16.2366C172.902 16.244 172.784 16.2514 172.673 16.2662C172.843 16.1256 173.028 15.9998 173.197 15.8665V15.8591ZM171.057 14.7343C170.281 15.3559 169.521 15.9997 168.761 16.6436C167.277 16.8212 165.793 17.0284 164.302 17.2504C166.561 16.4882 168.798 15.6445 171.005 14.7343H171.049H171.057ZM171.677 18.5603C171.499 18.8119 171.315 19.0561 171.123 19.3003C170.348 19.3595 169.573 19.4335 168.798 19.5149C169.086 19.2633 169.373 19.0117 169.669 18.7601C170.34 18.6861 171.005 18.6195 171.677 18.5603ZM150.062 13.7131C149.922 13.7501 149.774 13.7797 149.634 13.8167L149.649 13.6983L150.069 13.7205L150.062 13.7131ZM149.405 16.1477C150.512 15.8887 151.62 15.6297 152.727 15.3707C151.583 16.0589 150.431 16.7472 149.287 17.428L149.412 16.1404L149.405 16.1477ZM214.662 23.2298H214.241L214.721 19.9219L215.482 14.6973L217.77 14.6307L217.822 8.05182H210.196V3.18983H209.48L203.833 3.24162L203.582 8.05182H194.398L194.472 9.25807L194.546 10.4051L194.716 13.1654L194.804 14.6085L194.827 15.0229L194.841 15.2523L197.455 15.1783L197.765 22.7784L197.248 22.7636L195.712 22.7266L194.015 22.6822H193.719V22.8598L193.653 29.6015L205.73 29.5053L208.166 29.4831L217.785 29.4017H218.279L218.294 25.968V25.0651V23.3112L214.67 23.215L214.662 23.2298ZM195.144 27.6626C197.026 27.1742 198.946 26.8708 200.946 26.9596C201.013 26.9596 201.072 26.967 201.138 26.9744C199.145 27.3074 197.152 27.5738 195.144 27.7958V27.6626ZM216.316 11.3968C215.769 11.6188 215.223 11.8408 214.67 12.048C214.67 11.9962 214.67 11.9518 214.67 11.9C215.216 11.7002 215.769 11.53 216.316 11.3376V11.3894V11.3968ZM211.621 21.9422C211.931 21.4316 212.226 20.9135 212.499 20.3807C212.499 20.9209 212.507 21.4612 212.499 22.0088C212.499 22.364 212.477 22.7266 212.462 23.0818C212.381 23.0818 212.292 23.067 212.211 23.0596C212.211 23.0152 212.226 22.9782 212.233 22.9338C212.292 22.401 212.012 22.068 211.628 21.9348L211.621 21.9422ZM211.621 15.8147C211.665 15.6667 211.717 15.5187 211.761 15.3707C211.776 15.3707 211.791 15.3633 211.805 15.3559C211.746 15.5113 211.68 15.6593 211.621 15.8147ZM206.623 25.0725C206.601 25.1243 206.586 25.1835 206.564 25.2353C206.564 25.2501 206.564 25.2649 206.557 25.2797C206.188 25.2353 205.811 25.1835 205.435 25.1391C205.435 25.1243 205.435 25.1095 205.442 25.0873C205.833 25.0725 206.224 25.0725 206.623 25.0651V25.0725ZM207.516 5.44692C207.605 5.29891 207.679 5.14351 207.767 4.9955C207.863 4.9955 207.959 4.99549 208.055 4.96589C207.871 5.1213 207.694 5.28411 207.516 5.44692ZM208.24 7.80021C208.306 7.73361 208.373 7.67441 208.446 7.60781C208.417 7.67441 208.38 7.73361 208.343 7.79281C208.314 7.79281 208.277 7.79281 208.247 7.79281L208.24 7.80021ZM208.801 14.8897L208.653 16.2588L208.291 19.5889L207.915 23.067L204.527 22.9782L204.438 15.0081L208.801 14.8897ZM202.674 23.0374C202.57 23.0448 202.474 23.0522 202.371 23.067C202.452 22.9412 202.541 22.808 202.622 22.6822L202.674 23.0374ZM201.729 13.6612C201.869 13.639 202.009 13.6095 202.157 13.5873C202.113 13.8907 202.076 14.1941 202.024 14.4901C201.736 15.3189 201.419 16.133 201.05 16.9174L200.599 14.5271C200.976 14.2385 201.36 13.9499 201.736 13.6612H201.729ZM200.06 11.641C200.179 11.2044 200.311 10.7677 200.481 10.3459C200.983 10.3311 201.478 10.3089 201.98 10.2941C201.81 10.5605 201.64 10.8269 201.47 11.0933C201.286 11.2191 201.101 11.3598 200.917 11.493C200.629 11.5448 200.348 11.5892 200.06 11.641ZM199.263 23.067C199.47 22.8894 199.669 22.7118 199.861 22.5268L199.913 22.7932C199.787 22.9856 199.662 23.1854 199.529 23.3778C199.529 23.3778 199.529 23.3778 199.529 23.3852C199.448 23.4 199.367 23.4148 199.278 23.4222L199.263 23.0596V23.067ZM207.753 27.9438C207.753 27.9438 207.797 27.9956 207.812 28.0252H207.354C207.487 28.003 207.62 27.9734 207.745 27.9438H207.753ZM209.576 28.0104C209.62 27.966 209.672 27.929 209.724 27.8846C210.056 27.9216 210.381 27.9586 210.713 27.9956H209.583L209.576 28.0104ZM214.448 26.2122C215.245 25.9828 216.028 25.7311 216.818 25.4795V26.4786C216.02 26.3898 215.238 26.301 214.448 26.2048V26.2122ZM196.849 10.3977C196.598 10.6123 196.333 10.8047 196.059 10.9971L196.023 10.4051C196.296 10.4051 196.569 10.4051 196.849 10.3977ZM205.006 32.0066L203.353 31.94L196.672 31.6662L196.761 34.4265L196.982 41.3014L197.1 44.9571L197.115 45.4455L197.13 45.897V46.193L197.233 49.1087L197.698 49.0939L200.968 49.0051L213.363 48.6721L215.061 48.6277H215.245L215.799 43.0552L216.589 35.1443L216.692 34.1083L216.855 32.495L205.006 32.014V32.0066ZM213.946 46.6888C213.747 46.859 213.54 47.0144 213.348 47.192L212.278 47.2216C212.817 46.8294 213.385 46.4816 213.99 46.2374L213.946 46.6888ZM198.363 38.4967V38.4005C198.636 38.1637 198.902 37.9268 199.175 37.69C200.356 37.4236 201.537 37.1276 202.711 36.8316V36.9352C201.271 37.4754 199.817 37.9934 198.363 38.4967ZM202.135 39.5105C202.061 39.6289 201.98 39.7473 201.906 39.8657C201.869 39.7843 201.817 39.7103 201.766 39.6511C201.891 39.6067 202.009 39.5623 202.135 39.5179V39.5105ZM202.866 42.367V42.3744C202.866 42.3744 202.866 42.3744 202.866 42.367ZM209.554 37.5864L209.155 42.4114L204.349 42.5594L204.217 37.616L209.561 37.5864H209.554ZM206.682 43.9729H206.918C206.66 44.1357 206.402 44.3059 206.129 44.4687C206.313 44.3059 206.49 44.1431 206.675 43.9729H206.682ZM208.675 47.3178C208.675 47.3178 208.727 47.2734 208.757 47.2586C208.734 47.2808 208.712 47.303 208.69 47.3178H208.675ZM198.85 40.6723C198.717 40.7834 198.577 40.8796 198.444 40.9906V40.813C198.577 40.7686 198.717 40.7241 198.85 40.6723ZM198.651 47.5842V47.414C198.71 47.3696 198.761 47.3178 198.828 47.266C198.835 47.2586 198.842 47.2512 198.85 47.2438C199.677 46.6148 200.371 45.8452 200.895 44.9793C201.463 44.8831 202.024 44.7795 202.593 44.6685C201.522 45.6306 200.452 46.6 199.381 47.562L198.651 47.5842ZM215.024 35.8992C213.68 36.5578 212.337 37.2238 211.008 37.912C211.37 37.5642 211.754 37.2534 212.13 36.9796C213.09 36.284 214.094 35.6549 215.112 35.0481L215.024 35.8992ZM241.592 30.0825V30.0381L237.724 22.8746L236.838 21.2392L238.934 15.7629L240.647 11.2783L241.555 8.89545L240.95 7.71881L240.005 5.90574L239.68 5.2767L231.412 5.31371H229.699L227.499 5.32851L223.262 5.35071L220.287 5.36552V5.57272L220.243 9.52448L219.918 36.432L219.741 51.055L223.927 51.1882H224.059L226.355 51.2622L227.536 51.2992L227.492 36.7132L227.44 21.0468L227.411 12.64L233.058 12.6844L229.279 22.0976L230.319 23.8293L230.844 24.7099L232.32 27.1816L232.342 27.2186L234.025 30.0381L228.171 32.5616L230.541 38.5929L230.733 39.0813L231.574 38.7483L233.863 37.8528L234.83 37.4754L240.204 35.3737L240.728 35.1665L240.795 34.7743L241.407 31.0964L241.577 30.0751L241.592 30.0825ZM230.378 34.1009C230.46 34.0713 230.533 34.0343 230.607 34.0121C230.556 34.1009 230.497 34.1897 230.445 34.2785L230.378 34.1009ZM222.753 16.4512C223.115 14.8675 223.476 13.2838 223.845 11.7076C224.023 11.604 224.192 11.5078 224.369 11.4042C224.214 12.5364 224.067 13.6761 223.912 14.8083C223.528 15.3559 223.144 15.9035 222.76 16.4512H222.753ZM222.782 18.3086C222.731 18.4344 222.679 18.5528 222.635 18.6787C222.384 19.2263 222.125 19.7739 221.867 20.3215C222.044 19.5371 222.229 18.7601 222.406 17.9756C222.502 18.1088 222.635 18.2198 222.782 18.3086ZM223.683 46.3558C223.927 46.5038 224.244 46.5408 224.547 46.4742C223.993 47.34 223.41 48.1985 222.797 49.0273C223.107 48.1393 223.402 47.2512 223.69 46.3632L223.683 46.3558ZM223.727 32.643C223.927 31.1556 224.126 29.6681 224.325 28.188C224.429 28.3953 224.532 28.6025 224.643 28.8023C224.739 28.9725 224.842 29.1501 224.938 29.3203C224.51 30.4155 224.111 31.5256 223.727 32.643ZM224.525 8.72525C224.525 8.72525 224.539 8.67345 224.547 8.64384C224.628 8.51064 224.702 8.37744 224.79 8.24423C224.776 8.36264 224.761 8.47364 224.746 8.59205C224.672 8.63645 224.606 8.68085 224.532 8.72525H224.525ZM225.506 44.9275C225.647 43.2181 225.816 41.4938 226.023 39.7769L226.038 43.9729C225.861 44.2911 225.691 44.6167 225.506 44.9275ZM225.986 26.2122C225.787 25.2871 225.824 24.2659 225.883 23.289C225.912 23.3704 225.949 23.4519 225.979 23.5407V26.2122H225.986ZM227.293 9.62069C227.448 9.52449 227.603 9.42828 227.758 9.33208L227.359 9.90189C227.337 9.80569 227.322 9.70949 227.3 9.62069H227.293ZM232.231 6.80118L234.985 6.78637C233.154 8.25163 231.323 9.71689 229.485 11.1747H229.153C230.179 9.71689 231.198 8.25163 232.224 6.79377L232.231 6.80118ZM235.465 20.7137L235.221 21.3502L235.435 21.7424C234.712 22.3418 233.988 22.9412 233.265 23.5407C233.7 22.7636 234.165 22.0088 234.645 21.2614C234.941 21.0616 235.214 20.8395 235.494 20.6323L235.465 20.7063V20.7137ZM233.036 19.7221C232.918 19.7961 232.807 19.8775 232.689 19.9515C232.955 19.6481 233.221 19.3373 233.486 19.0339C233.331 19.2633 233.191 19.4927 233.036 19.7221ZM235.169 13.6687C234.616 14.3273 234.04 14.9711 233.479 15.6297L234.018 14.2903C234.402 14.0831 234.793 13.8833 235.169 13.6687ZM235.76 29.9493C235.76 29.9493 235.738 29.9715 235.723 29.9789L235.679 29.9049C235.804 29.7347 235.937 29.5645 236.07 29.4017C236.21 29.3647 236.343 29.3351 236.483 29.2981C236.402 29.4387 236.321 29.5867 236.24 29.7273C236.063 29.7791 235.9 29.8531 235.767 29.9567L235.76 29.9493ZM235.243 35.6624C235.243 35.6624 235.273 35.7067 235.288 35.729L235.177 35.7734C235.199 35.7363 235.221 35.6994 235.243 35.6624ZM239.289 28.8689L239.488 29.2389C238.919 30.0307 238.336 30.8151 237.731 31.5848C237.731 31.5848 237.731 31.57 237.731 31.5626C238.255 30.6671 238.772 29.7717 239.289 28.8689ZM237.222 25.0429C236.38 25.7829 235.583 26.5674 234.845 27.411C234.786 27.4258 234.726 27.4406 234.667 27.4554C235.236 26.2788 235.937 25.1687 236.727 24.1179L237.222 25.0355V25.0429ZM239.554 8.24423C238.078 9.31728 236.55 10.3089 234.985 11.2339H234.594C236.033 9.82049 237.473 8.41444 238.912 7.00838L239.554 8.24423ZM226.997 7.19339C226.953 7.06019 226.887 6.94177 226.806 6.83817H227.522C227.344 6.94917 227.175 7.07499 226.997 7.19339ZM231.818 36.95C231.781 37.0092 231.737 37.0758 231.7 37.135L231.663 37.1498C231.715 37.0832 231.759 37.0166 231.818 36.95Z" fill="#FD8517"/>
</svg>
