<svg width="255" height="102" viewBox="0 0 255 102" fill="none" xmlns="http://www.w3.org/2000/svg">
<path d="M142.853 10.4874L124.257 11.9952L127.102 4.14447L112.825 1.98311L102.215 33.5271L115.307 35.9707L115.403 35.7182L121.99 37.0551L114.351 50.9072L126.465 56.8268L148.136 18.0782L142.846 10.4874H142.853ZM119.678 24.1538L129.495 23.4705L127.695 26.7162C125.264 26.2409 122.805 25.7507 120.36 25.2456L119.345 25.0376L119.671 24.1538H119.678ZM113.825 62.0928L112.262 62.5681L111.95 74.9718L98.6067 75.1278C97.9621 78.8489 97.2805 82.6071 96.5766 86.3208C95.6134 91.1263 94.3169 95.8724 92.7313 100.433L92.1831 102L78.7875 101.391L79.5507 98.6874C81.7141 91.0372 83.4256 83.1865 84.6407 75.306L78.8913 75.4175L77.4021 88.0143L63.399 87.4201L67.4221 53.1874L81.4993 53.4845L80.299 63.3331L97.5991 62.8132L94.4576 54.554L101.007 52.1252L100.978 52.051L108.95 49.2806L113.817 62.0853L113.825 62.0928ZM154.1 68.9631L153.73 83.0082L114.721 83.699L115.018 69.8841L154.1 68.9631ZM170.044 25.8027L149.936 16.2288L155.871 3.95136L175.979 14.3794L170.052 25.8027H170.044ZM200.421 21.6211L161.62 54.1975L151.944 43.5912L190.553 11.9061L200.414 21.6211H200.421ZM72.3121 25.8027L52.204 16.2288L58.1386 3.95136L78.2467 14.3794L72.3195 25.8027H72.3121ZM102.689 21.6211L63.8954 54.1975L54.2192 43.5912L92.8277 11.9061L102.689 21.6211ZM9.29832 8.06612L23.5311 8.97226L14.5884 52.1401L0 49.9862L0.622358 47.5871C0.696448 47.3123 7.77947 19.7642 9.03901 10.1309L9.30573 8.06612H9.29832ZM40.268 17.0755L48.1586 49.0875L33.9481 51.2488L25.1833 13.6515L36.9636 12.9013L34.0815 5.266L40.6385 2.92638L40.6163 2.86696L48.5587 0L53.5006 12.8048L46.8991 14.8696L46.9139 14.9067L40.268 17.0681V17.0755ZM203.111 95.8576L190.034 101.488L186.693 93.6888L154.626 100.009L149.988 85.6078L155.908 84.7834L168.118 52.6155L183.062 54.0786L172.875 82.4289L181.217 81.2702L178.602 75.3878L190.664 70.1515L203.118 95.8501L203.111 95.8576ZM254.478 56.5445L251.507 50.818L228.502 50.922L228.472 53.6107H222.797V48.7087L212.068 48.7904L211.817 53.6033H202.34L203.074 65.3534L205.645 65.2791L205.771 68.3318L201.829 68.2278L201.711 79.7179L204.763 79.6956L205.386 99.3187L227.635 98.7171L227.961 95.4713L227.894 101.153L240.193 101.539L240.156 89.7671L253.203 84.6645L254.396 77.512L249.751 68.9111L254.478 56.552V56.5445Z" fill="white"/>
<path d="M136.466 34.3959L145.52 18.2042L141.764 12.8045L120.989 14.4831L121.708 12.5074L122.397 10.5911L123.641 7.15971L124.086 5.92676L114.336 4.44872L112.194 10.8065L111.75 12.1286L107.416 25.0299L105.208 31.5957L105.141 31.7889L105.682 31.8928L106.771 32.0934L108.734 32.4573L113.647 33.3709L113.884 33.4154L115.603 28.7585L116.862 25.3568L118.099 22.0144L121.33 21.7916L122.256 21.7248L130.45 21.1529L133.421 20.9449H133.443L133.429 20.9746L132.888 21.9476L128.872 29.1893C125.894 28.6099 122.915 28.0157 119.929 27.4067L118.499 31.4546L117.647 33.8759L123.019 34.9678L124.293 35.2277L125.412 35.458L122.774 40.2338L122.715 40.3452L117.44 49.919L119.603 50.9737L122.182 52.2364L122.308 52.2958L125.575 53.8927L128.946 47.8617L136.481 34.3884L136.466 34.3959ZM134.725 21.6802L134.903 21.3608C134.829 23.4034 134.666 25.4607 134.333 27.4661C133.925 27.986 133.518 28.5134 133.125 29.0482C133.043 28.0826 132.954 27.117 132.858 26.1515C132.888 26.0995 132.91 26.0475 132.932 25.9955C133.147 25.587 133.11 25.2008 132.932 24.9111L134.718 21.6876L134.725 21.6802ZM134.859 14.9139C134.859 14.9139 134.814 14.8767 134.799 14.8619H134.859C134.859 14.8619 134.859 14.8916 134.859 14.9139ZM118.366 6.57294L119.626 6.76606C119.018 7.11514 118.403 7.4568 117.788 7.80589C117.981 7.39738 118.173 6.98888 118.366 6.58037V6.57294ZM123.426 17.4763C122.582 17.8774 121.722 18.2265 120.841 18.5236C121.219 17.9888 121.559 17.4243 121.848 16.8301C121.996 16.7262 122.145 16.6296 122.293 16.5256C122.352 17.0232 122.7 17.4837 123.352 17.4763C123.375 17.4763 123.397 17.4763 123.419 17.4763H123.426ZM121.456 7.15971C121.441 7.11514 121.411 7.07058 121.389 7.02601L121.767 7.08543C121.663 7.10771 121.559 7.13 121.456 7.15971ZM119.966 9.9004C120.122 9.84841 120.278 9.80385 120.433 9.75186C118.951 11.8835 117.232 13.8369 115.306 15.5601C116.84 13.6512 118.396 11.7647 119.966 9.89298V9.9004ZM129.717 18.4716C129.776 18.8875 129.828 19.3034 129.88 19.712L126.82 19.9273C127.79 19.4446 128.754 18.9544 129.724 18.4716H129.717ZM131.932 15.1664C131.85 15.1441 131.769 15.1218 131.68 15.1218C131.621 15.1218 131.562 15.1218 131.502 15.1218L132.591 15.0327C132.562 15.0773 132.532 15.1144 132.502 15.159C132.31 15.159 132.125 15.159 131.932 15.159V15.1664ZM138.222 17.3352C139.23 17.3278 140.23 17.3203 141.238 17.3055C140.771 18.5904 140.297 19.8828 139.83 21.1677C139.674 20.8483 139.511 20.5364 139.341 20.2244C138.926 19.2737 138.548 18.3082 138.222 17.3278V17.3352ZM143.423 17.7883L143.557 17.9814C143.46 18.0631 143.364 18.1448 143.268 18.2265C143.32 18.0854 143.372 17.9368 143.423 17.7957V17.7883ZM134.592 34.7004C134.999 33.7422 135.362 32.7693 135.666 31.7666C136.007 30.6228 136.281 29.4715 136.496 28.3054C136.918 27.7855 137.355 27.2656 137.793 26.7531C137.022 28.8773 136.244 30.9941 135.474 33.1183L134.592 34.693V34.7004ZM137.029 24.2649C137.126 23.1508 137.178 22.0367 137.2 20.9152C137.222 20.9523 137.244 20.9895 137.266 21.0192C137.555 21.6876 137.874 22.3412 138.2 22.9874C137.8 23.4034 137.415 23.8267 137.029 24.2575V24.2649ZM131.384 35.7402C131.384 35.7402 131.354 35.7105 131.339 35.6882C131.354 35.6659 131.362 35.6437 131.376 35.6214C131.376 35.6585 131.376 35.7031 131.376 35.7402H131.384ZM130.228 33.2892C130.139 32.9995 130.043 32.7173 129.961 32.4499C129.954 32.4202 129.946 32.3905 129.932 32.3682C130.265 31.566 130.628 30.7713 130.991 29.984C131.043 30.6153 131.102 31.2392 131.147 31.8706C130.835 32.3385 130.532 32.8138 130.228 33.2892ZM130.428 37.961C130.05 38.5106 129.65 39.0454 129.213 39.5579C129.524 38.9488 129.843 38.3398 130.169 37.7382C130.25 37.8199 130.346 37.8867 130.428 37.9536V37.961ZM128.805 35.6734C128.665 35.9185 128.524 36.1636 128.383 36.4161C128.494 36.0967 128.598 35.7773 128.716 35.4654C128.746 35.5322 128.776 35.6065 128.805 35.6734ZM124.879 40.1372C124.834 40.0258 124.76 39.9292 124.686 39.8475L125.338 38.6592C125.182 39.1494 125.019 39.6396 124.879 40.1372ZM125.39 47.2081C125.694 47.3195 126.012 47.4012 126.331 47.4532C125.901 47.9359 125.471 48.4261 125.042 48.9089C125.145 48.337 125.271 47.7725 125.382 47.2081H125.39ZM121.419 46.8367C121.359 46.6139 121.27 46.391 121.196 46.1757L122.152 44.4451C121.952 45.2547 121.722 46.0568 121.426 46.8367H121.419ZM128.428 45.0838C128.309 45.0838 128.183 45.0913 128.042 45.1358C127.331 45.3661 126.538 45.3289 125.864 45.0021C125.864 44.9873 125.864 44.9798 125.871 44.965C126.116 45.017 126.375 44.9873 126.598 44.8387C128.613 43.4721 130.317 41.7638 131.725 39.8327L129.42 43.9474C129.087 44.3262 128.754 44.6976 128.428 45.0764V45.0838ZM141.542 15.0847C140.215 15.0996 138.889 15.107 137.57 15.1218C137.526 14.9659 137.496 14.8099 137.459 14.6539L141.038 14.3643L141.542 15.0921V15.0847ZM115.343 6.11245L116.084 6.22386C115.551 7.35282 115.025 8.47435 114.491 9.60331C114.358 9.67016 114.232 9.74443 114.098 9.81128L115.343 6.11245ZM108.208 27.3324C108.364 27.169 108.519 27.0131 108.682 26.8571C109.357 26.4931 110.046 26.1441 110.735 25.795C109.979 27.1765 108.979 28.4317 107.764 29.3898C107.719 29.4269 107.586 29.5235 107.438 29.6275L108.208 27.3324ZM111.505 31.4695C111.505 31.4695 111.513 31.4546 111.52 31.4546C111.698 31.3061 111.891 31.1724 112.091 31.0387C112.046 31.2095 111.987 31.3803 111.935 31.5512L111.505 31.4695ZM111.387 28.8773C111.765 28.3797 112.12 27.8523 112.439 27.3101C112.454 27.6072 112.461 27.8969 112.454 28.194C112.098 28.4243 111.742 28.6471 111.387 28.8773ZM110.646 21.4425C110.809 21.4425 110.979 21.4128 111.157 21.3237C110.698 21.7619 110.238 22.2075 109.786 22.6532L109.846 22.4824C110.112 22.1407 110.379 21.7916 110.653 21.45L110.646 21.4425ZM114.617 26.7902C114.543 25.8767 114.38 24.9631 114.121 24.0644C114.528 23.8416 114.936 23.6187 115.328 23.3736C115.632 23.1954 115.921 22.9948 116.217 22.8017L114.788 26.6788L114.617 26.7902ZM133.332 19.4594H133.258C133.295 18.739 133.451 18.0259 133.747 17.3649H134.347C134.555 17.5506 134.762 17.7511 134.955 17.9591C134.955 18.4196 134.955 18.8875 134.955 19.348L133.34 19.4594H133.332ZM120.893 29.1224C121.078 29.1596 121.27 29.1967 121.456 29.2338C121.189 29.4195 120.922 29.5978 120.663 29.7835L120.9 29.1224H120.893ZM124.923 33.8388C125.686 32.9327 126.449 32.0265 127.212 31.1278C127.316 31.3803 127.405 31.6329 127.494 31.8854C127.212 32.6504 126.953 33.4229 126.709 34.2027L125.701 33.9948L124.916 33.8388H124.923ZM119.574 49.102C119.574 49.1689 119.581 49.2432 119.589 49.31L119.485 49.258L119.574 49.102ZM100.444 63.9939L104.304 62.7684L103.563 60.8744L103.289 60.1762L102.377 57.8515L101.059 54.472L97.3541 55.8461L99.3027 60.9635L100.451 63.9865L100.444 63.9939ZM102.155 61.3498L102.244 61.58C102.029 61.684 101.814 61.7954 101.592 61.892C101.785 61.7137 101.97 61.528 102.148 61.3498H102.155ZM100.888 58.6759C100.94 58.6313 100.999 58.5868 101.059 58.5422L101.266 59.077C101.007 59.3518 100.74 59.6192 100.466 59.8791L100.125 58.9804C100.399 58.9656 100.666 58.8616 100.888 58.6759ZM99.4805 56.6408C99.436 56.7374 99.3916 56.8339 99.3397 56.9305L99.2582 56.7225L99.4731 56.6408H99.4805ZM106.897 61.8548L110.913 60.6293L109.379 56.5963L108.379 53.967L107.66 52.0804L103.852 53.4025L106.778 61.5206L106.897 61.8548ZM107.934 56.9676L107.964 57.0493C107.853 57.5024 107.579 57.9332 107.201 58.3343L107.097 58.0594C107.334 57.6658 107.601 57.3018 107.927 56.975L107.934 56.9676ZM83.151 65.4571L77.7943 65.6205L79.0168 55.6381L76.4681 55.5861H76.1495L74.7566 55.549L72.1856 55.497L69.4147 55.4376L67.4587 72.0972L67.0512 75.5583L65.9102 85.2733L75.4604 85.6818L76.0087 81.01L76.3051 78.5218L76.7496 74.7487L76.9348 73.2113L85.9664 73.033L87.2408 73.0107C87.0704 74.2065 86.8925 75.4023 86.6999 76.5981C86.6999 76.6279 86.6925 76.6501 86.6851 76.6798C86.4999 77.8534 86.2998 79.0269 86.0924 80.193C85.9368 81.062 85.7812 81.931 85.6108 82.7926C85.3589 84.0924 85.0996 85.3847 84.818 86.6771C84.1586 89.7669 83.4251 92.8492 82.6175 95.9093C82.3212 97.0382 82.0174 98.1598 81.6988 99.2813L85.5589 99.4596L87.5964 99.5487L89.8784 99.6527L90.6415 99.6898C92.1974 95.2111 93.4495 90.6136 94.3979 85.8898C95.2129 81.6116 95.9908 77.2815 96.7317 72.9067L107.571 72.7805L109.786 72.7582V72.4537H109.794L109.986 64.6624L83.8104 65.4497L83.1436 65.472L83.151 65.4571ZM73.786 57.0122L74.7195 57.0345C73.6452 58.1931 72.5783 59.3444 71.504 60.503C72.0004 59.1958 72.7784 58 73.786 57.0122ZM74.0453 61.0304C73.4822 62.5456 72.8599 64.0385 72.2301 65.5239C71.9856 65.108 71.6744 64.7069 71.2817 64.3356C71.2299 64.2836 71.1632 64.239 71.1039 64.2019C72.0819 63.1398 73.0673 62.0851 74.0453 61.023V61.0304ZM70.7261 56.9453H70.9483C70.8594 57.0716 70.7631 57.183 70.6816 57.3018L70.7261 56.9453ZM69.0442 72.5502C69.059 70.686 69.7333 68.9628 70.5705 67.3214C70.7261 67.8487 70.7705 68.4058 70.7335 68.9777C70.2593 70.0695 69.7925 71.1613 69.3406 72.2606C69.2368 72.3571 69.1405 72.4537 69.0368 72.5502H69.0442ZM70.6149 81.27C70.6372 80.5049 70.6594 79.7325 70.689 78.9675C70.7112 78.3213 70.7187 77.6008 70.7927 76.8655C70.8594 76.665 70.9335 76.4644 71.0002 76.2639C71.1336 76.2045 71.2669 76.1005 71.3781 75.952C71.4966 75.8034 71.5929 75.6474 71.6966 75.4915C72.03 75.4618 72.3709 75.4395 72.7043 75.4023C72.0078 77.3557 71.3114 79.3166 70.6149 81.27ZM73.0747 72.3126C73.3563 72.1714 73.6452 72.0452 73.9416 71.9263C73.8082 72.3051 73.6674 72.6839 73.5341 73.0701C73.3118 73.0999 73.0895 73.1296 72.8673 73.1593C72.9488 72.8845 73.0154 72.6022 73.0747 72.32V72.3126ZM74.149 84.1295L73.1266 84.0849C73.5193 83.6913 73.9119 83.2902 74.2972 82.8891L74.149 84.1295ZM74.7492 79.064C74.2083 79.7176 73.6526 80.3564 73.0747 80.9803C73.7786 79.0046 74.4824 77.0215 75.1863 75.0458C75.2011 75.0458 75.2085 75.0458 75.2233 75.0458L74.7492 79.0715V79.064ZM74.9788 64.6847C75.7568 62.8055 76.4903 60.9115 77.12 58.973L76.6311 62.9986C76.0457 63.526 75.4901 64.083 74.9863 64.6847H74.9788ZM80.0096 71.6515L76.9052 71.7109H76.3791C76.4384 71.5475 76.5051 71.3767 76.5644 71.1984C77.8313 70.9682 79.1427 70.8865 80.4467 70.8865C80.2985 71.139 80.1652 71.399 80.017 71.6515H80.0096ZM107.319 71.2801L102.459 71.3396C103.111 70.9979 103.733 70.6043 104.348 70.2032C105.03 69.7947 105.711 69.3862 106.386 68.9777C106.771 69.6907 107.075 70.4334 107.304 71.2133C107.304 71.2356 107.312 71.2653 107.319 71.2876V71.2801ZM101.74 67.6927C101.896 67.6704 102.051 67.6407 102.214 67.6185C102.94 67.5293 103.296 66.898 103.274 66.3261L107.253 66.2073C107.119 66.2444 106.986 66.289 106.86 66.3335C106.645 66.3112 106.423 66.3558 106.223 66.4821C105.867 66.6975 105.511 66.9054 105.156 67.1208C104.837 67.2991 104.519 67.4922 104.207 67.6927C103.607 68.0567 103 68.4132 102.4 68.7771C102.385 68.7846 102.37 68.7846 102.348 68.7994C101.881 69.0371 101.414 69.2748 100.94 69.505C101.177 68.8885 101.444 68.2869 101.74 67.6927ZM95.6945 69.9135C95.9982 69.5867 96.0575 69.2079 95.9612 68.8663C96.5465 68.7103 97.1318 68.5692 97.7245 68.428C97.48 68.9702 97.3245 69.5421 97.2578 70.1289C96.7095 70.1066 96.1612 70.0546 95.613 69.9952C95.6426 69.9655 95.6722 69.9358 95.7019 69.9061L95.6945 69.9135ZM86.737 84.7534C87.1815 84.278 87.626 83.8027 88.0558 83.3051C88.0261 83.4536 88.0261 83.617 88.0706 83.7953C88.1224 84.0255 88.1669 84.2558 88.2188 84.486C87.3667 86.3503 86.4925 88.1997 85.596 90.0342C85.9961 88.2814 86.3813 86.5137 86.737 84.746V84.7534ZM84.2772 97.5285C85.6478 94.9586 86.9518 92.359 88.2039 89.7372C87.7964 91.6905 86.9889 93.5771 85.9738 95.3225C85.4256 96.0727 84.8699 96.808 84.2772 97.5285ZM87.9891 98.0632L86.9074 98.0112C87.137 97.6621 87.3741 97.3131 87.5964 96.9566C87.7075 96.7857 87.8187 96.6149 87.9298 96.4441C88.115 96.1841 88.3077 95.9316 88.4855 95.6716C88.3595 96.4738 88.1817 97.2685 87.9965 98.0632H87.9891ZM89.1523 82.4212C89.0041 82.4212 88.8633 82.4583 88.73 82.5103C89.0189 82.1687 89.3005 81.8196 89.582 81.4631C89.4413 81.7824 89.3005 82.1018 89.1523 82.4212ZM90.9453 93.7851C91.0194 92.9978 91.0638 92.203 91.0786 91.4157C91.4343 90.7547 91.7751 90.0788 92.1011 89.3955C91.7455 90.8661 91.3602 92.3367 90.9379 93.7851H90.9453ZM90.7452 86.1126C90.7082 85.8452 90.6637 85.5704 90.6193 85.303C90.5971 85.1173 90.5674 84.9242 90.5304 84.7385C91.4713 82.6663 92.3975 80.5792 93.3088 78.4847C92.6271 81.0917 91.7603 83.6319 90.7452 86.1126ZM87.5371 80.5124C87.6779 79.7473 87.8039 78.9749 87.9372 78.2099C89.6339 76.3976 91.3231 74.5853 93.0198 72.7731C91.3231 75.3875 89.5302 78.0391 87.5371 80.5124ZM88.6929 73.3301C88.6929 73.2855 88.7078 73.241 88.7152 73.2038L88.7818 72.7285C88.9893 72.4908 89.219 72.2828 89.4709 72.1343C89.2338 72.5502 88.9671 72.9439 88.6929 73.3301ZM89.6783 68.5692C89.0708 68.7697 88.4707 68.9777 87.8631 69.1856C86.7444 69.0742 85.6256 68.9777 84.4994 68.8811C86.2257 68.7846 87.952 68.6806 89.6783 68.5692ZM126.412 71.8149L122.849 71.8966L117.203 72.0303L117.003 81.3962L121.611 81.3145L122.663 81.2997L128.709 81.1957L131.443 81.1437L139.052 81.01L141.156 80.9729L151.573 80.7872L151.825 71.2133L126.412 71.8149ZM118.655 73.4861H118.974C118.87 73.7015 118.766 73.9243 118.64 74.1248L118.655 73.4861ZM120.352 78.9749C120.063 79.2497 119.981 79.5691 120.026 79.8588L118.514 79.8885L118.544 78.403C119.463 78.2619 120.374 78.1282 121.285 77.9722C120.989 78.3139 120.678 78.6481 120.344 78.9675L120.352 78.9749ZM123.256 75.083C123.078 75.1275 122.9 75.1721 122.723 75.2092C123.012 74.7339 123.352 74.3105 123.76 73.9911C123.612 74.3625 123.434 74.7264 123.256 75.083ZM126.346 73.3004L131.05 73.189C129.354 73.5975 127.664 74.0134 125.968 74.4219C126.109 74.0506 126.227 73.6792 126.346 73.3004ZM128.998 78.0019C128.487 78.0093 127.968 78.0242 127.457 78.0465C128.628 77.3037 129.828 76.5981 131.043 75.9297C131.628 75.7811 132.206 75.6252 132.791 75.4766C131.532 76.3233 130.265 77.1626 129.005 78.0093L128.998 78.0019ZM133.192 78.0093C133.125 78.0093 133.058 78.0093 132.991 78.0093C133.799 77.4671 134.607 76.9249 135.422 76.3902C134.681 76.9398 133.94 77.482 133.192 78.0168V78.0093ZM137.289 78.143C137.192 78.143 137.089 78.1356 136.992 78.1282C137.126 78.0391 137.259 77.9425 137.385 77.8534C137.348 77.9499 137.318 78.0465 137.289 78.143ZM142.119 78.3361C141.297 78.3064 140.475 78.2767 139.652 78.247C140.082 77.43 140.927 76.7764 141.719 76.2119C141.942 76.8284 142.193 77.4226 142.475 78.0168C142.356 78.1282 142.238 78.2396 142.119 78.3436V78.3361ZM144.194 76.4199C143.964 75.8851 143.757 75.3355 143.579 74.7784C144.246 74.2065 144.839 73.5826 145.276 72.8548L147.728 72.7953C147.543 73.0256 147.358 73.2484 147.18 73.4786C146.202 74.4739 145.209 75.4543 144.194 76.4125V76.4199ZM150.166 78.299C149.625 78.3362 149.084 78.3584 148.543 78.3807C148.239 78.3881 147.935 78.3881 147.632 78.3956C148.491 77.8162 149.351 77.2295 150.21 76.6501L150.166 78.3064V78.299ZM150.284 73.9094C149.891 74.1768 149.491 74.4442 149.099 74.7116C149.506 74.2957 149.899 73.8649 150.299 73.4415L150.284 73.9094ZM158.612 17.8551L160.916 18.9544L169.081 22.8389L170.229 20.6255L170.637 19.8308L171.918 17.3575L172.563 16.1171L172.985 15.3001L168.836 13.1462L157.404 7.21913L156.886 6.95174L152.922 15.1515L158.597 17.8551H158.612ZM166.688 20.0536C166.473 19.3109 166.288 18.5681 166.125 17.818C166.502 18.1076 166.888 18.3973 167.273 18.6721C167.184 19.1698 167.029 19.6525 166.814 20.113L166.68 20.0536H166.688ZM165.495 13.5101C166.102 13.9186 166.703 14.3345 167.295 14.7653C167.169 14.9362 167.073 15.1367 167.058 15.3967C167.058 15.5081 167.058 15.6195 167.058 15.7309C166.562 15.3372 166.073 14.9362 165.599 14.5277C165.562 14.186 165.532 13.8518 165.51 13.5101H165.495ZM169.525 16.4736C169.637 16.5627 169.748 16.6593 169.866 16.7559C169.762 16.7707 169.659 16.8004 169.562 16.845C169.555 16.7187 169.54 16.5925 169.525 16.4662V16.4736ZM163.05 11.9578C163.028 12.0023 163.013 12.0469 162.991 12.0915C162.857 11.9578 162.724 11.8241 162.598 11.6904C162.746 11.7795 162.902 11.8687 163.05 11.9578ZM161.901 14.1414C161.59 14.6465 161.249 15.1293 160.894 15.5972C160.916 14.7876 160.938 13.978 160.968 13.1684C161.279 13.4952 161.583 13.8221 161.901 14.1414ZM158.479 10.3535C158.649 10.5614 158.819 10.762 158.99 10.9625C158.93 11.0516 158.871 11.1482 158.834 11.2596C158.434 12.4331 157.893 13.525 157.219 14.5351C157.486 13.1016 157.915 11.6978 158.486 10.346L158.479 10.3535ZM163.502 15.7235C163.643 16.7633 163.843 17.7957 164.08 18.8132L161.953 17.8031C162.516 17.1421 163.035 16.4513 163.502 15.7235ZM155.033 14.2083C155.019 14.3048 155.004 14.394 154.981 14.4905L154.907 14.4534L155.026 14.2008L155.033 14.2083ZM180.024 35.8293L197.131 21.4648L192.041 16.4588L190.434 14.8767L155.189 43.7989L158.545 47.4829L159.457 48.4781L161.842 51.0926L171.681 42.8333L180.024 35.8293ZM189.448 23.8787C188.767 24.2575 188.055 24.5992 187.359 24.926C188.181 23.537 188.981 22.1333 189.767 20.7221C189.663 21.7768 189.559 22.824 189.448 23.8787ZM191.856 22.0144C191.923 21.3237 191.997 20.6404 192.064 19.9496C192.182 20.165 192.264 20.3953 192.293 20.5512C192.397 21.1009 192.182 21.5911 191.856 22.0144ZM187.766 19.712C187.833 19.4594 187.811 19.2217 187.737 19.0064L188.5 18.3825C188.255 18.8281 188.018 19.2737 187.774 19.712H187.766ZM183.217 24.0495C183.106 24.2649 182.995 24.4729 182.884 24.6883C182.75 24.6957 182.61 24.7106 182.476 24.7254C182.721 24.5026 182.973 24.2798 183.217 24.057V24.0495ZM177.883 33.5566C177.32 34.4701 176.764 35.3911 176.179 36.2973C175.497 36.3641 174.808 36.4235 174.126 36.4755C175.416 35.5545 176.675 34.5815 177.883 33.5566ZM173.171 34.433C172.993 34.1582 172.704 33.9651 172.363 33.9131L173.385 32.9847C173.652 33.2966 174.126 33.46 174.564 33.4006C174.104 33.7571 173.645 34.0988 173.171 34.4404V34.433ZM177.008 29.9246C178.142 28.6396 179.646 27.6964 181.298 27.221C180.898 27.6518 180.491 28.0752 180.083 28.4911C179.061 28.9739 178.038 29.4492 177.008 29.9246ZM172.356 38.8374C168.77 40.36 165.317 42.1649 162.02 44.2445C161.672 44.2297 161.331 44.356 161.124 44.6605C161.072 44.6159 161.005 44.5788 160.953 44.5416C162.516 43.3013 164.265 42.3209 166.028 41.3701C167.48 40.5903 168.925 39.7955 170.34 38.9563C171.015 38.9265 171.689 38.882 172.37 38.8374H172.356ZM160.983 41.2365C160.575 41.5707 160.153 41.8158 159.708 42.0015L164.398 38.1541C163.265 39.1865 162.161 40.2635 160.983 41.2365ZM163.154 46.1608C165.302 44.809 167.518 43.5909 169.785 42.4768L163.168 48.0325C163.168 47.4086 163.154 46.7847 163.146 46.1682L163.154 46.1608ZM185.166 28.506C186.255 27.9638 187.337 27.3993 188.411 26.8348L183.684 30.8084C184.18 30.0434 184.684 29.2784 185.173 28.506H185.166ZM194.412 21.799C194.479 21.5391 194.523 21.2643 194.531 20.982L194.924 21.3683L194.412 21.799ZM57.5899 16.2879L59.7681 17.3278L61.776 18.2859L71.341 22.8389L75.253 15.3001L71.5262 13.369L69.7407 12.448L67.1994 11.1333L64.0654 9.50675L62.7317 8.81601L62.0279 8.45207L59.1458 6.95917L55.1819 15.159L57.0712 16.0577L57.575 16.2954L57.5899 16.2879ZM68.1403 13.2799C67.1179 13.7255 66.1028 14.186 65.0952 14.6613C64.7248 14.6985 64.3543 14.7356 63.9839 14.7579C64.6433 13.874 65.3545 13.0273 66.1176 12.2326L68.1403 13.2799ZM69.1628 19.8902C69.1776 20.009 69.222 20.113 69.2813 20.2022L67.5772 19.3926C68.0736 18.8727 68.5478 18.3379 68.9923 17.7734C69.0072 18.479 69.059 19.1846 69.1628 19.8902ZM63.2504 12.0915C63.1392 12.2252 63.0207 12.3589 62.9095 12.4926C62.9095 12.4109 62.9095 12.3366 62.9021 12.2549C63.0207 12.1955 63.1318 12.1435 63.2578 12.0915H63.2504ZM65.6805 16.8227C66.1325 16.7781 66.577 16.7113 67.029 16.6593C66.54 17.2683 66.0065 17.8328 65.4582 18.3899L63.969 17.6769C64.5395 17.3946 65.11 17.0975 65.6805 16.8227ZM70.3037 20.6924C70.5186 20.6849 70.7187 20.6181 70.8817 20.4918L70.6816 20.8706L70.3037 20.6924ZM73.0229 16.3696C72.7043 15.7012 71.7856 15.3595 71.2743 15.9537C71.2966 15.7829 71.3188 15.612 71.3484 15.4486C71.4892 15.3521 71.6151 15.2481 71.7337 15.1441L73.2525 15.9314L73.0229 16.3696ZM60.3682 9.2468C60.2052 9.84098 60.0274 10.4277 59.8422 11.0145C59.6644 10.6803 59.494 10.346 59.3162 10.0118L59.82 8.96456L60.3608 9.2468H60.3682ZM57.175 14.446L58.1159 12.5C58.2344 12.7228 58.353 12.9531 58.4715 13.1759C58.1381 13.6364 57.8566 14.134 57.6121 14.6465L57.175 14.4385V14.446ZM94.8795 25.2528L99.399 21.4574L93.3903 15.5452L93.1902 15.3447L92.7086 14.8693L63.6356 38.726L57.4639 43.7915L59.0569 45.5369L64.1172 51.0851L93.5681 26.3594L94.8869 25.2528H94.8795ZM97.117 21.4351C97.1022 21.3683 97.0874 21.3088 97.0725 21.242L97.1985 21.3608L97.117 21.4277V21.4351ZM91.4936 22.4452C90.8045 23.0914 90.1081 23.7376 89.419 24.3912C89.3672 23.693 89.1745 22.9874 88.7967 22.3115C88.6114 21.9773 88.2632 21.799 87.9002 21.7768C88.6263 21.2346 89.3672 20.7072 90.1007 20.1799C90.1377 20.2987 90.1747 20.425 90.2192 20.5438C90.3303 20.9003 90.5748 21.1306 90.8638 21.2568C91.0712 21.6505 91.2861 22.0516 91.4936 22.4452ZM86.6629 22.72C86.5962 22.8463 86.5295 22.9726 86.4628 23.1063C86.4332 23.0543 86.4036 23.0023 86.3665 22.9577C86.4702 22.8834 86.5666 22.8017 86.6629 22.7275V22.72ZM61.3388 45.8414C61.4722 45.938 61.6204 46.0197 61.776 46.0568C61.7463 46.1088 61.7167 46.1682 61.6871 46.2202L61.3388 45.8414ZM63.243 47.8394C63.7394 46.807 64.7099 45.7969 65.2286 45.173C66.1621 44.044 67.1697 42.9819 68.1996 41.9421C68.4737 41.8158 68.7479 41.6895 69.0294 41.5558C67.0734 43.6281 65.1619 45.7449 63.243 47.832V47.8394ZM70.8076 43.0042C72.0893 41.6375 73.3933 40.2783 74.7343 38.9637C74.8158 39.3351 75.0752 39.5653 75.3863 39.6767L68.57 45.4032C69.3183 44.6011 70.0593 43.7989 70.8076 43.0042ZM71.6892 35.9259C72.8228 34.7747 73.9786 33.6531 75.1418 32.539C75.0085 32.9327 74.8899 33.3412 74.7936 33.7497C73.7267 34.433 72.6895 35.1609 71.6818 35.9259H71.6892ZM77.8017 31.9597C77.9128 31.7517 78.0165 31.5363 78.1425 31.3358C78.1647 31.4695 78.1944 31.6032 78.2166 31.7369C78.0758 31.8111 77.9424 31.8854 77.8091 31.9671L77.8017 31.9597ZM79.7651 28.3426C80.1948 27.9712 80.6245 27.585 81.0542 27.221C80.7653 28.2014 80.4689 29.1818 80.18 30.1623C80.0688 29.5903 79.9429 29.0259 79.8095 28.4614C79.8021 28.4243 79.7799 28.3871 79.7651 28.35V28.3426ZM84.6773 25.3196C84.6402 25.9064 84.5291 26.4783 84.3957 27.0502C83.8993 28.0009 83.3955 28.9516 82.8991 29.9023C82.8917 29.9023 82.8769 29.9172 82.862 29.9246C82.7435 29.9989 82.625 30.0731 82.5064 30.1474C82.5212 30.088 82.5435 30.0286 82.5583 29.9617C82.8398 29.0184 83.1214 28.0752 83.4029 27.1319C83.6474 26.3149 83.803 25.3642 84.3587 24.6883C84.4179 24.6214 84.5365 24.4432 84.6328 24.406C84.6328 24.406 84.6328 24.406 84.6328 24.4209C84.7662 24.6437 84.6921 25.0819 84.6698 25.327L84.6773 25.3196ZM94.1682 19.1698C94.2719 19.452 94.3683 19.7342 94.4572 20.0165C94.2127 20.0313 93.9682 20.1205 93.7533 20.3284C93.5607 20.5067 93.368 20.6924 93.1754 20.8706C93.0791 20.6849 92.9828 20.5067 92.8864 20.321C93.3162 19.9348 93.7459 19.556 94.1756 19.1698H94.1682ZM66.051 38.6592C65.1989 39.6024 64.3617 40.5531 63.5319 41.5187C63.4874 41.5336 63.4504 41.5558 63.4134 41.5707L63.4726 40.776L66.051 38.6592ZM60.9313 44.8907C60.9313 44.8907 60.9313 44.965 60.9239 44.9947C60.9091 45.1878 60.9536 45.3586 61.0425 45.5146L60.5831 45.0096C60.7017 44.9724 60.8128 44.9353 60.9313 44.8907ZM84.7365 31.8334C84.7365 31.8334 84.7513 31.8111 84.7588 31.7963C85.3218 31.2689 85.8923 30.7342 86.4554 30.2068C86.4851 30.1845 86.5147 30.1623 86.5443 30.14C86.9 29.8503 87.2334 29.5309 87.5445 29.1818C89.219 27.6147 90.8934 26.0475 92.5679 24.4803C92.6642 24.6586 92.7531 24.8368 92.8494 25.0151L84.7291 31.8334H84.7365ZM49.9734 11.5567L50.5735 11.371L50.1438 10.2643L48.5138 6.03817L47.2691 2.8147L46.3059 3.16378L44.587 3.78768L43.4609 4.19619L45.0834 8.69717L45.7725 10.5986L46.5134 12.6485L47.9433 12.2029L49.9734 11.5641V11.5567ZM47.395 10.71C47.684 10.4352 47.8692 10.0192 47.7062 9.63302C47.3284 8.71945 47.0468 7.77618 46.8838 6.80319C46.869 6.70664 46.8542 6.60265 46.8394 6.5061C46.8394 6.48382 46.8171 6.31299 46.8171 6.30556C46.7875 6.06046 46.7727 5.81535 46.7579 5.57025L48.0174 8.83829C48.0174 9.1948 48.0026 9.54389 47.973 9.9004C47.9581 10.1084 47.9359 10.3089 47.9063 10.5169C47.9063 10.5392 47.8915 10.606 47.884 10.6654L47.4321 10.8065L47.4025 10.7174L47.395 10.71ZM11.2464 10.398C11.1427 11.1705 11.0093 12.0618 10.8389 13.0273C10.7648 13.4804 10.6759 13.9483 10.587 14.4311C10.587 14.4534 10.587 14.4682 10.5722 14.4905C10.4833 14.9807 10.387 15.4858 10.2833 16.0131C10.2314 16.2657 10.1795 16.533 10.1277 16.793C9.6609 19.1326 9.10522 21.7248 8.50509 24.3986C8.50509 24.3986 8.50509 24.406 8.50509 24.4135C8.06055 26.404 7.59378 28.4391 7.1196 30.4296C7.1196 30.4519 7.10479 30.4816 7.10479 30.5039C6.9492 31.1575 6.80102 31.8037 6.64543 32.4499C6.49725 33.0886 6.34166 33.7125 6.19348 34.3364C6.11939 34.6335 6.0527 34.9232 5.97861 35.2203C5.94157 35.3837 5.89712 35.5471 5.86007 35.7031C5.79339 35.9779 5.72671 36.2527 5.66003 36.5201C5.61557 36.6909 5.57853 36.8617 5.53407 37.0326C5.46739 37.3 5.40071 37.5748 5.34144 37.8347C5.30439 37.9758 5.27476 38.117 5.23771 38.2581C5.17103 38.5478 5.09694 38.83 5.03026 39.1122C5.00803 39.2088 4.98581 39.2979 4.96358 39.3945C4.61535 40.8131 4.28936 42.1203 4.00041 43.2641C3.70404 44.4302 3.45214 45.4403 3.25209 46.2276C3.23728 46.2796 3.22246 46.3316 3.21505 46.3836C3.178 46.5322 3.14096 46.6807 3.10391 46.807C3.0891 46.859 3.07428 46.9184 3.05946 46.9704C3.02241 47.1189 2.98537 47.2601 2.95573 47.3863C2.94832 47.416 2.94092 47.4457 2.93351 47.4754C2.91128 47.5794 2.88164 47.6686 2.86683 47.7428C2.8446 47.8245 2.82978 47.8914 2.81496 47.9434C2.78533 48.0474 2.77051 48.1216 2.77051 48.1216L4.60054 48.389L12.8394 49.6071L19.8113 15.9463L19.8705 15.6789L20.8337 11.0145L11.2316 10.4055L11.2464 10.398ZM18.7888 13.6364C18.3369 13.7701 17.8923 13.9186 17.4478 14.0746C17.4922 13.6958 17.5367 13.317 17.5663 12.9308C17.5886 12.656 17.5145 12.448 17.3959 12.2772L19.0407 12.3811L18.7814 13.6289L18.7888 13.6364ZM12.1503 45.6632C12.1503 45.626 12.1355 45.5889 12.1355 45.5518C12.0836 44.3188 12.4467 43.0339 12.6541 41.8306C12.7505 41.2365 12.8542 40.6423 12.9505 40.0481C13.158 39.699 13.3432 39.3351 13.5358 38.9785L12.1503 45.6632ZM10.8982 20.4473C11.4465 20.2244 11.9947 20.0016 12.5282 19.7565C11.565 21.9253 10.5648 24.0867 9.60904 26.2629C10.061 24.2798 10.4981 22.3115 10.8908 20.4398L10.8982 20.4473ZM12.506 29.3007C12.3207 30.4074 12.1355 31.514 11.9503 32.6207C10.7797 33.3635 9.6609 34.1805 8.594 35.0569C8.60882 35.0123 8.62364 34.9678 8.63845 34.9232C10.0906 33.1629 11.3872 31.2838 12.506 29.3007ZM7.62342 38.9563C8.80886 37.7679 10.0832 36.6761 11.4391 35.6808C11.3798 36.0299 11.3205 36.3715 11.2687 36.7206C11.1279 37.5673 10.9871 38.4215 10.8389 39.2682C9.79426 40.9616 8.53473 42.514 7.08256 43.8806C7.12701 42.2094 7.31965 40.568 7.63083 38.9488L7.62342 38.9563ZM9.95726 46.042C9.28304 46.042 8.61623 46.0568 7.94201 46.0642C8.6755 45.4106 9.37195 44.7273 10.0165 43.9994C9.92021 44.6828 9.87576 45.3661 9.94985 46.0345L9.95726 46.042ZM14.536 13.3096C14.7954 13.1462 15.0621 12.9753 15.3214 12.8119C15.0102 13.7032 14.6842 14.5945 14.336 15.4784C14.1952 15.5526 14.047 15.6343 13.9063 15.716C14.1359 15.0996 14.3434 14.4757 14.5138 13.8369C14.5657 13.6438 14.5657 13.473 14.536 13.317V13.3096ZM15.1584 31.1427C14.9287 31.0832 14.6842 31.0832 14.4323 31.1872C14.7287 29.4047 15.0176 27.6295 15.3288 25.847C15.5288 24.6957 15.7437 23.5445 16.0623 22.4229C16.2846 22.6383 16.5957 22.7423 16.8995 22.7497L15.1658 31.1352L15.1584 31.1427ZM4.88208 45.8563C4.88208 45.9528 4.88208 46.0568 4.8969 46.1534C4.86726 46.1534 4.83763 46.1534 4.80799 46.1534C4.83022 46.0568 4.85985 45.9528 4.88208 45.8563ZM17.7367 18.6721C17.7367 18.583 17.7219 18.4939 17.7219 18.4122C17.6923 17.9888 17.47 17.6694 17.1736 17.4837C17.4848 17.3129 17.7886 17.1272 18.0998 16.9564L17.7441 18.6721H17.7367ZM38.645 11.0888L39.4155 13.1165L40.0527 14.8099L43.9647 13.5398L43.2238 11.6904V11.6681L40.6677 5.29544L39.9712 5.54054L36.9557 6.61751L38.645 11.0962V11.0888ZM40.964 10.0341C40.8307 10.0787 40.6973 10.1232 40.5639 10.1678C40.6306 9.9524 40.6973 9.74443 40.764 9.52904L40.964 10.0267V10.0341ZM41.9939 12.6114L40.9344 12.9531L40.7566 12.4703C40.927 12.396 41.0974 12.3292 41.3493 12.24C41.4975 12.188 41.6456 12.1435 41.7938 12.0915L42.0013 12.604L41.9939 12.6114ZM39.1784 7.38995C39.1192 7.5385 39.0599 7.69448 39.0006 7.84302L38.8673 7.50137L39.1784 7.38995ZM37.4818 15.0996L32.8808 15.3967L31.7546 15.4709L27.9315 15.716L29.48 22.3635L29.8357 23.8861L32.0065 33.1926L33.9847 41.6821L35.6295 48.7381L37.7115 48.4187L39.5267 48.1439L45.402 47.2526L37.4744 15.0996H37.4818ZM42.631 44.8164C42.8681 44.705 43.0385 44.5194 43.1497 44.2742L43.5794 46.0271L43.0311 46.1088C42.8978 45.678 42.757 45.2472 42.631 44.8164ZM38.9339 27.8598C38.7635 26.8645 38.5561 25.8767 38.3264 24.8888C38.3264 24.822 38.3264 24.7551 38.3264 24.6883L41.5345 37.6862C40.8084 36.3418 40.0379 35.0049 39.5859 33.564C39.4748 31.6477 39.2599 29.7389 38.9414 27.8523L38.9339 27.8598ZM38.0671 23.6559C38.0671 23.6559 38.03 23.6113 38.0152 23.5965C37.6448 22.1853 37.2151 20.7815 36.7261 19.4074C36.7261 19.1623 36.6371 18.9469 36.4816 18.7687C36.2222 18.0779 35.9481 17.3872 35.6592 16.7039L36.3482 16.6593L38.0745 23.6559H38.0671ZM34.1181 35.6956C34.0144 34.7301 34.0588 33.7497 34.3996 32.8807C34.5552 33.2372 34.696 33.6011 34.8368 33.9651C35.0442 35.7328 35.1405 37.5302 34.9479 39.2608L34.1181 35.6956ZM31.3916 23.9901C31.9324 23.4702 32.5029 22.98 33.0808 22.5121C33.1475 22.8834 33.2068 23.2548 33.2735 23.6262C32.903 25.3567 32.6659 27.117 32.5325 28.8922L31.3916 23.9901ZM35.8147 25.4162C35.7258 24.8591 35.6295 24.2946 35.5332 23.7376C35.5628 23.589 35.5999 23.4405 35.6369 23.2919C35.7703 23.7524 35.8814 24.2204 36 24.6883C35.9407 24.9334 35.8814 25.1711 35.8147 25.4087V25.4162ZM29.7838 17.0827L32.0658 16.9341C32.0658 16.9341 32.0806 17.001 32.088 17.0307C31.436 17.8922 30.8803 18.8281 30.4284 19.8085L29.7912 17.0827H29.7838ZM36.0222 43.8583C36.3927 43.0413 36.6668 42.1946 36.852 41.333C37.1484 43.1973 37.2891 45.0913 37.2966 46.9852L36.7705 47.0669L36.0222 43.8583ZM40.3565 44.9873C40.5047 45.4775 40.6602 45.9603 40.8158 46.4505L40.3417 46.5247C40.4232 46.0271 40.4158 45.4923 40.3565 44.9873ZM194.894 96.9788L200.095 94.7358L191.441 76.873L190.767 75.484L189.582 73.0479L188.907 73.345L185.396 74.8676L181.535 76.5462L182.002 77.5934L182.825 79.4503L183.321 80.5718L184.432 83.0822L181.839 83.4462L169.525 85.1545L169.651 84.8054L179.994 56.0392L176.164 55.6678L173.289 55.3856L170.711 55.1331L170.592 55.1182L169.585 55.0216L158.842 83.3125L157.76 86.172L157.508 86.8331L157.263 86.8702L153.781 87.353L152.907 87.4718L153.233 88.4819L153.959 90.7324L154.5 92.411L155.759 96.3327L156.093 97.3651L156.122 97.4542L156.197 97.4393L156.974 97.2834L158.019 97.0754L160.768 96.5332L172.096 94.2976L173.623 93.993L181.943 92.3516L182.98 92.151L184.855 91.7797L185.988 91.5569L187.892 91.1781L188.003 91.1558L189.937 95.6716L191.175 98.5609L193.731 97.4616L194.872 96.9714L194.894 96.9788ZM197.065 94.4312C196.516 92.3664 195.931 90.3091 195.309 88.2665L198.087 93.993L197.065 94.4312ZM157.441 91.0889C157.538 91.1632 157.619 91.2523 157.686 91.3489C157.582 91.854 157.493 92.3664 157.404 92.8789C157.167 93.3691 156.93 93.8593 156.693 94.3495L155.804 91.594C156.048 91.3415 156.293 91.0815 156.537 90.829C156.856 90.8067 157.189 90.8884 157.441 91.0889ZM163.45 75.3652C164.272 74.6076 164.939 73.7015 165.487 72.7136C166.502 71.7481 167.532 70.8048 168.57 69.8838C168.184 70.6711 167.806 71.4584 167.421 72.2457C167.066 72.0897 166.658 72.1343 166.332 72.5502C164.635 74.719 163.161 77.0289 161.909 79.4354L163.45 75.3652ZM167.08 93.6885C167.177 93.384 167.273 93.0795 167.355 92.7675C168.985 91.698 170.496 90.4799 171.867 89.1133C171.778 89.2395 171.696 89.3732 171.607 89.5069C170.4 91.2375 168.91 92.7527 167.08 93.6885ZM167.658 87.962C168.873 87.5387 170.074 87.0707 171.244 86.5582C170.177 87.7318 168.999 88.7939 167.732 89.7669C167.74 89.1652 167.725 88.5636 167.651 87.962H167.658ZM177.305 90.933C177.083 91.2598 176.853 91.5717 176.631 91.8985L175.519 92.1139C175.601 91.9654 175.675 91.8168 175.756 91.6683C176.297 91.4529 176.808 91.2078 177.305 90.9255V90.933ZM185.67 80.8466C186.122 79.9256 186.544 78.9898 186.959 78.0539C187.048 78.6035 187.129 79.1457 187.203 79.6954C186.677 80.0742 186.166 80.4529 185.67 80.8466ZM187.685 84.1295C187.715 84.5306 187.752 84.9316 187.781 85.3327C187.715 85.3253 187.648 85.3179 187.574 85.3179C187.011 85.3327 186.455 85.4144 185.922 85.5555C186.499 85.0728 187.085 84.5974 187.685 84.1369V84.1295ZM192.619 87.0633C193.397 89.5366 194.123 92.0248 194.798 94.5352C194.005 92.6932 193.457 90.7176 192.968 88.7642C192.73 87.8357 192.508 86.8999 192.271 85.9715C192.39 86.3354 192.501 86.6994 192.619 87.0707V87.0633ZM184.01 78.455C184.195 78.299 184.388 78.143 184.566 77.9871C184.44 78.2693 184.299 78.5367 184.173 78.8189L184.017 78.4624L184.01 78.455ZM180.772 85.3773C179.861 86.276 178.92 87.145 177.912 87.9026C178.372 87.0633 178.787 86.2017 179.142 85.3179L180.95 85.0653C180.891 85.1693 180.839 85.2733 180.78 85.3773H180.772ZM166.473 86.0086C167.406 84.4117 168.37 82.8297 169.355 81.2625L168.14 84.6494L167.821 85.5258C167.377 85.6967 166.925 85.8601 166.473 86.0086ZM171.704 63.3032C171.704 63.3032 171.748 63.2883 171.763 63.2809C171.526 63.7637 171.296 64.2464 171.059 64.7292C170.407 65.2937 169.748 65.8656 169.088 66.4375C169.555 65.5314 169.992 64.6104 170.385 63.6671C170.852 63.5334 171.318 63.4294 171.704 63.3032ZM171.133 76.3011C170.837 76.1302 170.466 76.0708 170.14 76.2193C170.644 75.7737 171.141 75.3281 171.644 74.8824L171.133 76.3011ZM171.444 71.7258C171.674 71.0573 171.904 70.3814 172.119 69.713C171.933 70.3889 171.718 71.0648 171.444 71.7258ZM175.023 65.4645C175.045 64.9223 175.045 64.3801 175.023 63.8305C175.001 63.318 174.964 62.7832 174.919 62.2485C175.001 62.2188 175.09 62.1965 175.171 62.1668C176.06 61.8771 176.112 60.8596 175.66 60.3099C176.156 59.285 176.653 58.26 177.149 57.235L177.942 57.3093L175.015 65.4571L175.023 65.4645ZM172.622 60.659C172.2 60.7927 171.778 60.9338 171.355 61.0675C171.822 59.6638 172.207 58.2303 172.504 56.7819L172.852 56.8191C172.593 58.0594 172.563 59.3667 172.622 60.659ZM169.725 58.7948C169.422 59.8643 169.066 60.919 168.666 61.9514C168.607 61.9737 168.555 62.0034 168.496 62.0257L169.725 58.7948ZM155.345 88.6082C155.211 88.727 155.085 88.8459 154.952 88.9647L154.863 88.6825L155.345 88.6156V88.6082ZM164.228 89.9154C163.828 91.594 163.176 93.2057 162.324 94.6986L161.635 94.8323C162.479 93.1834 163.331 91.5346 164.228 89.9154ZM171.681 92.8566C172.215 92.2922 172.719 91.698 173.178 91.0667C173.185 91.2226 173.23 91.3712 173.311 91.5049C173.119 91.8762 172.941 92.255 172.771 92.6413L171.681 92.8566ZM187.737 89.6926L185.729 90.0862C185.633 89.4252 185.581 88.7642 185.581 88.0957C185.588 88.066 185.596 88.0363 185.603 87.9992C186.21 87.7095 186.885 87.5461 187.566 87.5312C187.677 87.5312 187.781 87.5089 187.878 87.4792C187.9 88.2071 187.915 88.9276 187.922 89.6554L187.752 89.6926H187.737ZM191.975 96.6075L190.108 92.2402C190.152 90.1902 190.13 88.1328 190.026 86.0903C190.893 89.5218 191.612 93.0126 193.079 96.1321L191.982 96.6075H191.975ZM225.063 71.0648H224.641L225.123 67.7447L225.886 62.501L228.183 62.4342L228.234 55.8312H220.581V50.9514H219.862L214.194 51.0034L213.942 55.8312H204.726L204.8 57.0419L204.874 58.1931L205.044 60.9635L205.133 62.4119L205.155 62.8278L205.17 63.0581L207.793 62.9838L208.104 70.6117L207.586 70.5968L206.044 70.5597L204.34 70.5151H204.044V70.6934L203.977 77.4597L216.098 77.3632L218.543 77.3409L228.197 77.2592H228.694L228.709 73.8129V72.9067V71.1465L225.071 71.0499L225.063 71.0648ZM205.474 75.5138C207.363 75.0235 209.29 74.719 211.297 74.8081C211.364 74.8081 211.423 74.8156 211.49 74.823C209.49 75.1572 207.489 75.4246 205.474 75.6474V75.5138ZM226.723 59.1884C226.175 59.4112 225.627 59.634 225.071 59.842C225.071 59.79 225.071 59.7455 225.071 59.6935C225.619 59.4929 226.175 59.3221 226.723 59.129V59.181V59.1884ZM222.011 69.7724C222.322 69.2599 222.618 68.74 222.893 68.2052C222.893 68.7474 222.9 69.2896 222.893 69.8392C222.893 70.1958 222.87 70.5597 222.856 70.9162C222.774 70.9162 222.685 70.9014 222.604 70.8939C222.604 70.8494 222.618 70.8122 222.626 70.7677C222.685 70.2329 222.404 69.8987 222.018 69.765L222.011 69.7724ZM222.011 63.6225C222.055 63.474 222.107 63.3254 222.152 63.1769C222.166 63.1769 222.181 63.1695 222.196 63.162C222.137 63.318 222.07 63.4666 222.011 63.6225ZM216.995 72.9142C216.973 72.9662 216.958 73.0256 216.936 73.0776C216.936 73.0924 216.936 73.1073 216.928 73.1221C216.558 73.0776 216.18 73.0256 215.802 72.981C215.802 72.9662 215.802 72.9513 215.81 72.929C216.202 72.9142 216.595 72.9142 216.995 72.9067V72.9142ZM217.891 53.2168C217.98 53.0683 218.054 52.9123 218.143 52.7637C218.24 52.7637 218.336 52.7637 218.432 52.734C218.247 52.89 218.069 53.0534 217.891 53.2168ZM218.618 55.5787C218.684 55.5119 218.751 55.4524 218.825 55.3856C218.795 55.4524 218.758 55.5119 218.721 55.5713C218.692 55.5713 218.655 55.5713 218.625 55.5713L218.618 55.5787ZM219.181 62.6941L219.032 64.0682L218.669 67.4105L218.292 70.9014L214.891 70.8122L214.802 62.813L219.181 62.6941ZM213.031 70.8716C212.927 70.8791 212.831 70.8865 212.727 70.9014C212.809 70.7751 212.898 70.6414 212.979 70.5151L213.031 70.8716ZM212.083 61.4612C212.224 61.4389 212.364 61.4092 212.513 61.3869C212.468 61.6914 212.431 61.9959 212.379 62.293C212.09 63.1249 211.772 63.9419 211.401 64.7292L210.949 62.3302C211.327 62.0405 211.712 61.7508 212.09 61.4612H212.083ZM210.408 59.4335C210.527 58.9953 210.66 58.5571 210.831 58.1337C211.334 58.1189 211.831 58.0966 212.335 58.0817C212.164 58.3491 211.994 58.6165 211.823 58.8839C211.638 59.0101 211.453 59.1513 211.268 59.285C210.979 59.3369 210.697 59.3815 210.408 59.4335ZM209.608 70.9014C209.816 70.7231 210.016 70.5448 210.208 70.3592L210.26 70.6265C210.134 70.8197 210.008 71.0202 209.875 71.2133C209.875 71.2133 209.875 71.2133 209.875 71.2207C209.793 71.2356 209.712 71.2504 209.623 71.2579L209.608 70.8939V70.9014ZM218.129 75.796C218.129 75.796 218.173 75.848 218.188 75.8777H217.728C217.862 75.8554 217.995 75.8257 218.121 75.796H218.129ZM219.959 75.8628C220.003 75.8183 220.055 75.7811 220.107 75.7366C220.44 75.7737 220.766 75.8108 221.1 75.848H219.966L219.959 75.8628ZM224.849 74.058C225.649 73.8277 226.434 73.5752 227.227 73.3227V74.3254C226.427 74.2362 225.641 74.1471 224.849 74.0506V74.058ZM207.185 58.1857C206.934 58.4011 206.667 58.5942 206.393 58.7873L206.356 58.1931C206.63 58.1931 206.904 58.1931 207.185 58.1857ZM215.372 79.8736L213.713 79.8068L207.008 79.532L207.097 82.3024L207.319 89.2024L207.437 92.8715L207.452 93.3617L207.467 93.8148V94.1119L207.571 97.0383L208.037 97.0234L211.32 96.9343L223.759 96.6L225.464 96.5555H225.649L226.204 90.9627L226.997 83.0228L227.101 81.983L227.264 80.3638L215.372 79.881V79.8736ZM224.345 94.6095C224.145 94.7803 223.937 94.9363 223.745 95.1146L222.67 95.1443C223.211 94.7506 223.782 94.4015 224.389 94.1564L224.345 94.6095ZM208.704 86.3874V86.2909C208.978 86.0532 209.245 85.8155 209.519 85.5778C210.705 85.3104 211.89 85.0134 213.068 84.7163V84.8202C211.623 85.3624 210.164 85.8824 208.704 86.3874ZM212.49 87.405C212.416 87.5238 212.335 87.6426 212.261 87.7615C212.224 87.6798 212.172 87.6055 212.12 87.5461C212.246 87.5015 212.364 87.457 212.49 87.4124V87.405ZM213.224 90.2719V90.2794C213.224 90.2794 213.224 90.2793 213.224 90.2719ZM219.936 85.4738L219.536 90.3165L214.713 90.465L214.58 85.5036L219.944 85.4738H219.936ZM217.054 91.8837H217.291C217.032 92.0471 216.773 92.2179 216.499 92.3813C216.684 92.2179 216.862 92.0545 217.047 91.8837H217.054ZM219.055 95.2408C219.055 95.2408 219.107 95.1963 219.136 95.1814C219.114 95.2037 219.092 95.226 219.07 95.2408H219.055ZM209.193 88.5711C209.06 88.6825 208.919 88.779 208.786 88.8904V88.7122C208.919 88.6676 209.06 88.623 209.193 88.5711ZM208.993 95.5082V95.3374C209.053 95.2928 209.104 95.2408 209.171 95.1888C209.178 95.1814 209.186 95.174 209.193 95.1666C210.023 94.5352 210.72 93.7628 211.246 92.8938C211.816 92.7972 212.379 92.6932 212.95 92.5818C211.875 93.5474 210.801 94.5204 209.727 95.4859L208.993 95.5082ZM225.426 83.7804C224.078 84.4414 222.73 85.1099 221.396 85.8007C221.759 85.4516 222.144 85.1396 222.522 84.8648C223.485 84.1666 224.493 83.5353 225.515 82.9263L225.426 83.7804ZM252.092 77.9425V77.8979L248.209 70.7082L247.32 69.0668L249.424 63.5705L251.143 59.0696L252.054 56.678L251.447 55.497L250.499 53.6773L250.173 53.046L241.874 53.0831H240.156L237.948 53.098L233.695 53.1202L230.709 53.1351V53.3431L230.665 57.3093L230.339 84.3152L230.161 98.9917L234.362 99.1253H234.495L236.799 99.1996L237.985 99.2368L237.94 84.5974L237.888 68.8737L237.859 60.4362L243.527 60.4808L239.733 69.9284L240.778 71.6664L241.304 72.5502L242.786 75.031L242.808 75.0681L244.497 77.8979L238.622 80.4307L241 86.484L241.193 86.9742L242.037 86.6399L244.334 85.7412L245.305 85.3624L250.699 83.2531L251.225 83.0451L251.291 82.6514L251.906 78.96L252.077 77.9351L252.092 77.9425ZM240.837 81.9756C240.919 81.9458 240.993 81.9087 241.067 81.8864C241.015 81.9756 240.956 82.0647 240.904 82.1538L240.837 81.9756ZM233.184 64.2613C233.547 62.6718 233.91 61.0824 234.28 59.5003C234.458 59.3964 234.628 59.2998 234.806 59.1958C234.651 60.3322 234.503 61.476 234.347 62.6124C233.962 63.162 233.576 63.7117 233.191 64.2613H233.184ZM233.213 66.1256C233.161 66.2518 233.11 66.3707 233.065 66.4969C232.813 67.0465 232.554 67.5962 232.295 68.1458C232.472 67.3585 232.658 66.5786 232.835 65.7913C232.932 65.925 233.065 66.0364 233.213 66.1256ZM234.117 94.2753C234.362 94.4238 234.68 94.461 234.984 94.3941C234.428 95.2631 233.843 96.1247 233.228 96.9566C233.539 96.0653 233.836 95.174 234.125 94.2827L234.117 94.2753ZM234.162 80.5124C234.362 79.0195 234.562 77.5266 234.762 76.0411C234.866 76.2491 234.969 76.457 235.08 76.6576C235.177 76.8284 235.28 77.0067 235.377 77.1775C234.947 78.2767 234.547 79.3908 234.162 80.5124ZM234.962 56.5071C234.962 56.5071 234.977 56.4551 234.984 56.4254C235.066 56.2917 235.14 56.158 235.229 56.0243C235.214 56.1432 235.199 56.2546 235.184 56.3734C235.11 56.418 235.043 56.4626 234.969 56.5071H234.962ZM235.947 92.8418C236.088 91.1261 236.258 89.3955 236.466 87.6723L236.481 91.8837C236.303 92.203 236.132 92.5298 235.947 92.8418ZM236.429 74.058C236.229 73.1296 236.266 72.1046 236.325 71.1242C236.355 71.2059 236.392 71.2876 236.421 71.3767V74.058H236.429ZM237.74 57.4058C237.896 57.3093 238.051 57.2127 238.207 57.1162L237.807 57.6881C237.785 57.5915 237.77 57.495 237.748 57.4058H237.74ZM242.697 54.576L245.46 54.5611C243.623 56.0318 241.786 57.5024 239.941 58.9656H239.607C240.637 57.5024 241.66 56.0318 242.689 54.5686L242.697 54.576ZM245.942 68.5395L245.698 69.1782L245.912 69.5719C245.186 70.1735 244.46 70.7751 243.734 71.3767C244.171 70.5968 244.638 69.8392 245.12 69.0891C245.416 68.8885 245.69 68.6657 245.972 68.4578L245.942 68.532V68.5395ZM243.504 67.5442C243.386 67.6185 243.275 67.7002 243.156 67.7744C243.423 67.4699 243.69 67.158 243.956 66.8534C243.801 67.0837 243.66 67.3139 243.504 67.5442ZM245.646 61.4686C245.09 62.1296 244.512 62.7758 243.949 63.4369L244.49 62.0925C244.875 61.8845 245.268 61.684 245.646 61.4686ZM246.238 77.8088C246.238 77.8088 246.216 77.8311 246.201 77.8385L246.157 77.7642C246.283 77.5934 246.416 77.4226 246.55 77.2592C246.69 77.222 246.824 77.1923 246.964 77.1552C246.883 77.2963 246.801 77.4449 246.72 77.586C246.542 77.638 246.379 77.7123 246.246 77.8162L246.238 77.8088ZM245.72 83.5427C245.72 83.5427 245.749 83.5873 245.764 83.6096L245.653 83.6541C245.675 83.617 245.698 83.5799 245.72 83.5427ZM249.78 76.7244L249.98 77.0958C249.409 77.8905 248.824 78.6778 248.217 79.4503C248.217 79.4503 248.217 79.4354 248.217 79.428C248.743 78.5293 249.261 77.6305 249.78 76.7244ZM247.705 72.8845C246.861 73.6272 246.061 74.4145 245.32 75.2612C245.26 75.2761 245.201 75.2909 245.142 75.3058C245.712 74.1248 246.416 73.0107 247.209 71.956L247.705 72.877V72.8845ZM250.047 56.0243C248.565 57.1013 247.031 58.0966 245.46 59.025H245.068C246.513 57.6064 247.957 56.1952 249.402 54.784L250.047 56.0243ZM237.444 54.9697C237.399 54.836 237.333 54.7171 237.251 54.6131H237.97C237.792 54.7246 237.622 54.8508 237.444 54.9697ZM242.282 84.8351C242.245 84.8945 242.2 84.9614 242.163 85.0208L242.126 85.0356C242.178 84.9688 242.223 84.9019 242.282 84.8351Z" fill="#FB4752"/>
</svg>
