<svg width="270" height="62" viewBox="0 0 270 62" fill="none" xmlns="http://www.w3.org/2000/svg">
<g clip-path="url(#clip0_299_709)">
<path d="M81.858 14.11L80.9596 12.7L79.4125 13.34L74.9308 15.2L73.723 15.7C73.8628 15.27 74.0025 14.84 74.1423 14.41C74.7112 12.65 75.2203 11.07 75.5896 10C76.1086 8.47002 76.5478 7.33002 76.9072 6.52002L77.9253 4.25002L75.4898 3.75002L69.8303 2.58002L67.7341 2.15002L67.4547 4.28002C67.3349 5.20002 67.1752 6.24002 66.746 7.79002C65.8776 10.95 63.9212 17.31 62.3741 21.62C61.6554 21.62 60.8569 21.63 60.1681 21.63V11.95L58.0321 12.1C57.8325 12.11 57.5929 12.13 57.3434 12.15C56.5149 12.22 55.4968 12.3 54.5486 12.3H38.8975C37.4901 12.3 35.0746 12.18 33.9467 12.1L32.0402 11.95V8.61002L32.5493 8.39002L34.4757 7.56002L33.5474 5.68002C32.9785 4.52002 31.8705 2.54002 31.082 1.37002L30.1737 0.0200195L28.6665 0.64002L26.5803 1.50002L26.5504 1.46002L25.0332 2.08002L22.2583 3.22002L19.9826 4.16002L21.37 6.20002C21.6994 6.68002 22.0487 7.29002 22.3881 7.93002H17.6868C17.8864 7.42002 18.116 6.86002 18.3157 6.44002L19.4136 4.13002L16.9083 3.63002L11.3985 2.52002L9.14264 2.07002L9.01288 4.37002C8.96297 5.22002 8.72341 6.36002 8.41399 7.28002C8.14449 8.08002 7.5955 9.72002 6.85687 10.95C5.35964 13.39 3.78256 15.29 2.3053 16.43L0.0195312 18.2L2.48497 19.72L6.96667 22.48L8.26426 23.28L9.37221 22.24C10.9094 20.8 12.5064 18.76 13.8539 16.54H15.8901C15.2114 19.98 13.6842 22.56 11.1689 24.55L11.119 24.59L11.0791 24.63C10.55 25.1 9.61177 25.66 8.60363 26.09L5.26981 27.53L8.27424 29.58L13.0754 32.85L14.1633 33.59L15.2713 32.89C20.7711 29.4 24.0251 23.91 24.9633 16.55H26.8099C27.4388 16.55 28.7463 16.55 29.8543 16.66L31.8007 16.85V22.01L33.9467 21.85C35.0946 21.76 37.2606 21.68 38.8975 21.68H54.5486C55.2872 21.68 56.2454 21.74 57.024 21.8C57.2036 21.81 57.3733 21.82 57.533 21.83L57.8624 23.98L58.6909 29.29L58.9903 31.2L60.9068 30.96C61.4358 30.9 62.0347 30.81 62.5937 30.74C63.0728 30.68 63.512 30.61 63.8513 30.57C64.7596 30.47 66.0273 30.34 67.4846 30.18C71.0181 29.8 75.6894 29.31 79.2229 28.89C79.4724 29.53 79.712 30.15 79.9116 30.73L80.6402 32.77L82.6166 31.88L87.4476 29.69L89.1944 28.9L88.4657 27.12C87.0584 23.65 84.1338 17.72 81.8779 14.17L81.858 14.11ZM74.0724 18.21C74.4717 18.77 74.9408 19.53 75.4399 20.46C74.302 20.59 73.1541 20.73 72.0262 20.85C72.4255 19.65 72.8547 18.36 73.2639 17.08L74.0724 18.2V18.21ZM98.4772 17.14C98.4772 20.21 95.9818 22.71 92.9175 22.71C89.8532 22.71 87.3578 20.21 87.3578 17.14C87.3578 14.07 89.8532 11.57 92.9175 11.57C95.9818 11.57 98.4772 14.07 98.4772 17.14ZM122.802 21.92L123.211 20.46C123.431 19.68 123.581 18.33 123.581 17.08C123.581 9.73002 119.329 4.98002 112.751 4.98002C106.961 4.98002 100.983 9.84002 100.983 17.96C100.983 25.62 106.123 30.98 113.479 30.98C116.414 30.98 119.598 29.94 121.994 28.21L123.411 27.18L122.573 25.64L120.556 21.92H122.802ZM137.884 22.24H126.296V14.49H139.881V22.24H137.884ZM250.875 5.38002L245.545 3.85002L243.249 3.19002L243.01 5.57002C242.8 7.62002 242.311 9.80002 241.652 11.78C240.903 9.45002 239.227 5.24002 238.468 3.73002L237.689 2.18002L236.052 2.73002L231.571 4.23002L229.884 4.80002L229.515 4.04002L227.818 4.64002L223.246 6.26002L221.09 7.03002L222.138 9.07002C222.468 9.70002 222.937 10.79 223.426 12L222.028 12.1C221.829 12.11 221.589 12.13 221.33 12.15C220.501 12.22 219.483 12.3 218.545 12.3H202.894C201.486 12.3 199.071 12.18 197.943 12.1L195.797 11.94V21.07C194.819 19.39 193.571 17.4 192.503 15.86C192.793 15.88 193.082 15.89 193.342 15.92L195.518 16.11V9.51002C196.386 8.52002 196.905 7.22002 196.905 5.82002C196.905 2.75002 194.439 0.25002 191.405 0.25002C189.419 0.25002 187.672 1.32002 186.704 2.93002L186.794 2.50002H176.603L177.102 4.91002C177.181 5.32002 177.321 6.64002 177.321 7.38002H172.241C171.562 7.38002 170.524 7.30002 169.466 7.16002L167.21 6.86002V16.13L169.416 15.9C169.815 15.86 170.354 15.83 170.883 15.81C169.715 17.99 167.829 20.57 166.182 22.2L165.433 22.94C163.966 21.3 162.149 19.41 160.432 17.8C162.309 14.89 163.587 12.15 164.086 11C164.345 10.39 164.904 9.45002 165.114 9.13002L166.192 7.55002L164.665 6.40002L161.75 4.21002L160.892 3.57002L159.883 3.93002C159.494 4.07002 158.336 4.27002 157.009 4.27002H147.167C146.378 4.27002 144.592 4.18002 143.683 4.05002L141.398 3.72002V13.34L143.534 13.18C143.743 13.16 144.003 13.14 144.302 13.12C145.121 13.05 146.249 12.95 147.167 12.95H153.196C152.507 14.11 151.639 15.34 150.7 16.42C148.295 19.15 143.873 22.65 139.461 24.28L136.627 25.33L138.703 27.53L142.416 31.46L143.424 32.53L144.742 31.89C148.095 30.25 151.569 27.74 154.683 24.74C156.799 26.94 158.646 29.17 160.083 31.26L161.361 33.11L163.048 31.62L167.14 27.99L168.547 26.75L170.294 27.96L171.742 28.96L172.919 27.65C173.009 27.55 173.089 27.45 173.179 27.35L173.478 30.41L173.638 32L175.215 32.2C176.742 32.39 178.459 32.49 180.595 32.49C183.869 32.49 185.975 30.5 185.975 27.43V21.43C186.973 23.08 188.101 25.11 189 26.93L189.928 28.82L191.764 27.79L195.947 25.45L197.664 24.49L196.725 22.75C196.595 22.5 196.446 22.23 196.276 21.95L197.913 21.83C199.061 21.74 201.227 21.66 202.864 21.66H218.515C219.254 21.66 220.212 21.72 220.99 21.78C221.42 21.81 221.789 21.83 222.068 21.84L224.144 21.92V13.87C224.683 15.25 225.173 16.58 225.442 17.4L226.091 19.37L228.037 18.65L232.639 16.94L233.866 16.48L234.016 17L236.013 16.28L240.494 14.67C240.015 15.69 239.486 16.59 238.947 17.28C236.062 20.96 231.561 23.26 228.307 24.18L225.073 25.1L227.418 27.51L231.421 31.62L232.349 32.57L233.587 32.08C238.518 30.12 242.95 26.73 246.064 22.54C249.098 18.43 250.875 12.32 251.344 10.55C251.614 9.54002 251.873 8.74002 252.133 8.12002L253.021 6.04002L250.845 5.42002L250.875 5.38002ZM180.625 30.46C180.905 30.46 181.174 30.44 181.424 30.4C181.174 30.44 180.915 30.46 180.625 30.46Z" fill="black"/>
<path d="M256.106 13.6899C255.866 14.8299 255.048 19.4999 255.048 21.5399C255.048 21.6099 255.048 21.9599 255.068 22.0499C255.377 21.4299 255.637 20.9899 255.926 20.3599L257.533 21.6399C256.874 23.6399 256.196 26.0599 255.956 27.2899C255.886 27.6199 255.826 28.1499 255.826 28.3499C255.826 28.5899 255.826 28.9899 255.846 29.3399L252.772 29.5399C252.333 28.0699 251.894 25.2899 251.894 22.2999C251.894 18.9299 252.532 15.2599 252.752 13.6299C252.842 12.9699 252.992 11.9799 253.011 11.1399L256.725 11.4499C256.525 11.9599 256.196 13.2999 256.106 13.6899ZM261.685 24.1899C261.685 25.1599 262.604 25.5299 264.41 25.5299C266.367 25.5299 267.944 25.3499 269.94 24.9399L270.01 28.5499C268.563 28.8099 266.826 28.9699 264.231 28.9699C260.388 28.9699 258.481 27.5399 258.481 25.1899C258.481 24.2399 258.611 23.3199 258.881 22.1799L261.915 22.4399C261.765 23.1399 261.695 23.6299 261.695 24.1999L261.685 24.1899ZM269.331 12.7699V16.1999C266.457 16.4399 262.614 16.4599 259.669 16.1999L259.649 12.7899C262.524 13.1399 266.876 13.0299 269.331 12.7699Z" fill="black"/>
<path d="M36.9417 56.42C38.9879 57.37 41.1838 58.44 42.5014 59.17L39.3173 61.35C37.9798 60.47 35.5443 59.02 33.3384 58.01L35.165 56.43H28.8167L31.0127 58.01C29.2759 59.2 26.6208 60.61 24.6445 61.38C24.0256 60.74 22.9276 59.73 22.1191 59.14C23.8959 58.52 26.0918 57.4 27.5191 56.43H22.1391V53.5H23.8759L23.5864 41.53L25.5228 41.84C26.2016 41.4 26.8604 40.92 27.3694 40.5L28.138 41.42H36.3927V53.5H38.0596C38.0995 52.97 38.1295 52.42 38.1495 51.85H36.8519V49.34H38.2593L38.2992 47.95H36.8519V45.44H38.3491L38.369 44.03H36.8119V41.48H41.1639C41.1239 45.35 40.9642 50.04 40.7446 53.49H42.4116V56.42H36.9417ZM26.5509 53.49H28.108V43.5C27.4892 43.76 26.9003 44.03 26.3313 44.25L26.3513 45.44H27.6689V47.95H26.4212L26.4611 49.34H27.6689V51.85H26.531L26.5509 53.5V53.49ZM30.284 43.76V53.49H34.1269V43.76H30.284ZM33.6678 46.53H30.6833V44.62H33.6678V46.53ZM33.6478 52.21H30.6833V47.28H33.6478V52.21ZM32.4201 49.04H31.8711V50.45H32.4201V49.04ZM48.2308 55.75V57.55H45.3361V42.3H52.453V55.74H48.2408L48.2308 55.75ZM48.2308 45.39V52.65H49.5683V45.39H48.2308ZM61.2068 51.84C62.3047 54.02 63.9716 56.11 65.7783 57.41C65.0097 58.03 63.9517 59.21 63.4027 60.07C62.3446 59.1 61.3864 57.8 60.528 56.33V61.28H57.304V56C56.1861 57.63 54.8485 59.01 53.2814 59.98C52.8023 59.23 51.8341 58.07 51.1254 57.45C53.4312 56.28 55.3676 54.17 56.5753 51.84H52.9121V48.8H57.304V46.62H53.521V43.58H57.304V40.68H60.528V43.58H64.8999V46.62H60.528V48.8H65.4689V51.84H61.2068ZM77.7461 44.09C77.6164 44.68 77.4866 45.3 77.3469 45.87C77.9358 45.83 78.4448 45.8 78.8441 45.8C81.3694 45.8 83.0363 46.99 83.0363 50.29C83.0363 52.86 82.7469 56.47 81.8086 58.41C81.06 59.99 79.7624 60.54 77.9857 60.54C77.1273 60.54 76.0992 60.41 75.3106 60.23L74.7417 56.73C75.5502 56.95 76.8678 57.19 77.4167 57.19C78.1154 57.19 78.6245 56.95 78.914 56.35C79.4629 55.25 79.7225 52.68 79.7225 50.63C79.7225 49.02 79.0637 48.83 77.7062 48.83C77.4467 48.83 77.0873 48.85 76.6482 48.9C75.7698 52.33 74.1228 57.66 72.2563 60.67L68.7827 59.28C70.8689 56.46 72.2962 52.28 73.1047 49.27C72.5358 49.36 72.0467 49.42 71.7472 49.47C71.0485 49.58 69.7709 49.76 69.0422 49.89L68.7328 46.3C69.5912 46.37 70.4197 46.32 71.2981 46.3C71.9369 46.28 72.8352 46.21 73.8234 46.15C74.1328 44.43 74.2825 42.92 74.2426 41.55L78.1953 41.97C78.0456 42.63 77.8659 43.47 77.7361 44.08L77.7461 44.09ZM86.7295 44.05L86.0008 44.36C87.3184 46.43 88.9653 50.24 89.5543 52.26L86.1506 53.82C85.6215 51.27 84.1543 47.37 82.5672 45.35L84.4337 44.56C84.0145 43.7 83.4655 42.62 82.9365 41.88L85.0027 41.04C85.5517 41.85 86.3202 43.28 86.7195 44.05H86.7295ZM89.4545 42.97L87.3883 43.85C86.9491 42.95 86.2504 41.65 85.6515 40.81L87.7177 39.97C88.2866 40.81 89.0752 42.21 89.4545 42.96V42.97ZM100.783 42.68C100.714 42.97 100.654 43.3 100.604 43.6C103.199 43.51 105.415 43.25 107.9 42.63L107.92 45.69C105.854 46.06 102.91 46.35 100.185 46.46L100.055 48.04C101.023 47.84 102.071 47.73 103.109 47.73H103.239C103.329 47.27 103.389 46.78 103.419 46.48L106.653 47.25C106.563 47.47 106.413 47.87 106.283 48.26C108.739 49.16 110.456 51.12 110.456 53.74C110.456 56.84 108.769 60.01 103.209 60.85L101.452 58.06C105.844 57.58 107.162 55.38 107.162 53.59C107.162 52.47 106.543 51.48 105.365 50.93C104.197 53.81 102.49 56.03 100.903 57.33C101.053 57.86 101.213 58.39 101.382 58.89L98.328 59.79C98.2382 59.57 98.1783 59.31 98.0885 59.04C97.1003 59.48 95.9824 59.79 94.8644 59.79C93.1776 59.79 91.7003 58.78 91.7003 56.33C91.7003 53.49 93.9361 50.52 97.0404 49.03C97.0803 48.19 97.1502 47.36 97.24 46.54H96.8907C95.613 46.54 93.9062 46.43 92.8082 46.39L92.7184 43.35C93.5069 43.46 95.4434 43.66 97.0005 43.66H97.5295C97.5694 43.35 97.6193 43.07 97.6393 42.78C97.6792 42.34 97.7291 41.75 97.7092 41.31L101.133 41.4C100.983 41.91 100.893 42.3 100.803 42.68H100.783ZM95.6829 56.56C96.162 56.56 96.7809 56.38 97.4197 56.03C97.2201 54.86 97.0703 53.57 97.0005 52.22C95.643 53.28 94.8045 54.66 94.8045 55.61C94.8045 56.23 95.0241 56.56 95.6829 56.56ZM100.165 53.83C101.003 52.93 101.772 51.85 102.381 50.44C101.462 50.48 100.664 50.64 99.965 50.84C99.9849 51.94 100.055 52.93 100.165 53.83ZM118.481 42.32C119.668 42.32 124.06 42.25 125.358 42.14C126.416 42.05 127.025 41.96 127.314 41.88L128.961 44.23C128.392 44.58 127.823 44.91 127.274 45.31C126.047 46.15 124.11 47.73 122.903 48.65C123.471 48.54 123.911 48.52 124.44 48.52C128.213 48.52 131.177 50.94 131.177 54.26C131.177 57.58 128.692 60.71 123.002 60.71C119.908 60.71 117.333 59.26 117.333 56.84C117.333 54.9 119.09 53.1 121.595 53.1C124.27 53.1 125.987 54.66 126.366 56.75C127.244 56.16 127.664 55.3 127.664 54.22C127.664 52.33 125.727 51.14 123.312 51.14C120.108 51.14 117.802 53.08 115.696 55.65L113.28 53.14C114.688 52.04 117.253 49.86 118.551 48.78C119.778 47.77 121.825 46.18 122.873 45.24C121.775 45.26 119.509 45.35 118.331 45.44C117.672 45.48 116.884 45.55 116.355 45.64L116.245 42.19C116.924 42.28 117.762 42.32 118.481 42.32ZM122.324 57.68C122.673 57.68 123.002 57.66 123.312 57.64C123.202 56.43 122.543 55.64 121.625 55.64C120.896 55.64 120.487 56.08 120.487 56.52C120.487 57.2 121.216 57.69 122.334 57.69L122.324 57.68ZM139.851 41.71L143.604 41.12C143.674 41.56 143.734 42.37 143.844 42.92C143.884 43.25 144.023 43.91 144.173 44.77C145.86 44.51 147.357 44.24 148.056 44.11C148.785 43.98 149.773 43.76 150.382 43.58L151.02 47.06C150.451 47.1 149.443 47.26 148.735 47.35C147.896 47.48 146.409 47.72 144.762 47.99C144.942 48.96 145.131 49.97 145.331 51C147.158 50.69 148.805 50.41 149.723 50.23C150.581 50.05 151.5 49.83 152.138 49.66L152.837 53.16C152.178 53.2 151.17 53.38 150.332 53.51C149.363 53.66 147.737 53.93 145.94 54.21C146.249 55.82 146.509 57.18 146.668 57.93C146.818 58.59 147.038 59.4 147.237 60.17L143.415 60.83C143.305 59.97 143.265 59.18 143.125 58.52C143.015 57.84 142.756 56.45 142.446 54.78C140.36 55.13 138.474 55.46 137.575 55.64C136.587 55.82 135.749 55.97 135.25 56.1L134.501 52.58C135.12 52.56 136.218 52.43 136.956 52.32C137.925 52.17 139.791 51.88 141.857 51.55C141.658 50.54 141.458 49.5 141.288 48.54C139.462 48.83 137.885 49.09 137.296 49.2C136.547 49.35 135.958 49.49 135.14 49.71L134.441 46.08C135.21 46.04 135.908 45.99 136.597 45.9C137.296 45.81 138.883 45.59 140.68 45.31C140.53 44.5 140.39 43.86 140.33 43.48C140.18 42.82 140.021 42.27 139.851 41.72V41.71ZM170.315 57.22L168.847 60.56C165.863 59.37 158.676 57.83 155.163 57.3L156.5 53.93C160.323 54.5 167.28 56.13 170.315 57.21V57.22ZM169.307 50.4L168.009 53.74C165.504 52.79 159.734 51.47 156.371 50.92L157.598 47.69C160.802 48.22 166.542 49.47 169.307 50.4ZM170.844 44.35L169.486 47.67C166.981 46.75 160.503 45.27 157.359 44.88L158.586 41.71C161.511 42.06 168.079 43.38 170.844 44.35ZM178.679 44.42C178.42 45.56 177.651 50.69 177.651 52.74C177.651 52.81 177.651 53.16 177.671 53.25C177.931 52.61 178.22 52.19 178.51 51.53L180.117 52.83C179.458 54.81 178.799 57.03 178.539 58.31C178.47 58.62 178.41 59.12 178.41 59.34C178.41 59.58 178.41 59.98 178.43 60.33L175.425 60.55C174.966 59.05 174.527 56.48 174.527 53.49C174.527 50.12 175.146 45.99 175.385 44.36C175.475 43.7 175.605 42.69 175.625 41.87L179.288 42.18C179.088 42.66 178.779 44.03 178.699 44.42H178.679ZM189.789 43.36C189.769 43.78 189.749 44.5 189.719 45.43C190.837 45.3 191.915 45.14 192.903 44.92V48.24C191.915 48.37 190.837 48.5 189.699 48.57C189.739 50.59 189.849 52.16 189.918 53.48C191.785 54.25 193.142 55.4 194.131 56.32L192.334 59.11C191.525 58.34 190.727 57.68 189.988 57.11C189.699 59.18 188.341 60.45 185.467 60.45C182.372 60.45 180.326 59.13 180.326 56.64C180.326 54.15 182.342 52.59 185.427 52.59C185.796 52.59 186.175 52.61 186.525 52.63C186.455 51.46 186.395 50.12 186.375 48.74C185.956 48.76 185.537 48.76 185.147 48.76C183.83 48.76 182.512 48.72 181.215 48.63L181.195 45.46C182.472 45.59 183.79 45.66 185.127 45.66C185.546 45.66 185.936 45.66 186.355 45.64C186.335 44.61 186.335 43.79 186.315 43.4C186.315 43.07 186.225 42.34 186.135 41.88H189.938C189.868 42.3 189.829 42.87 189.809 43.35L189.789 43.36ZM185.157 57.31C186.215 57.31 186.624 56.74 186.624 55.53V55.38C186.145 55.25 185.656 55.18 185.157 55.18C184.129 55.18 183.44 55.58 183.44 56.28C183.44 57.05 184.209 57.31 185.157 57.31ZM200.329 43.49H211.528C212.227 43.49 213.285 43.45 213.615 43.42C213.595 43.95 213.545 44.92 213.545 45.64V57.06C213.545 57.81 213.585 59.06 213.654 59.92H209.792C209.792 59.55 209.812 59.17 209.812 58.82H200.169C199.331 58.82 197.954 58.89 197.165 58.97V55.16C198.023 55.23 199.032 55.29 200.06 55.29H209.832V46.93H200.319C199.331 46.93 198.103 46.97 197.424 47.02V43.32C198.303 43.41 199.531 43.47 200.319 43.47L200.329 43.49ZM221.081 43.49H232.28C232.979 43.49 234.037 43.45 234.366 43.42C234.346 43.95 234.296 44.92 234.296 45.64V57.06C234.296 57.81 234.336 59.06 234.406 59.92H230.543C230.543 59.55 230.563 59.17 230.563 58.82H220.921C220.083 58.82 218.705 58.89 217.917 58.97V55.16C218.775 55.23 219.783 55.29 220.811 55.29H230.583V46.93H221.071C220.083 46.93 218.855 46.97 218.176 47.02V43.32C219.054 43.41 220.282 43.47 221.071 43.47L221.081 43.49ZM238.319 57.13C238.319 55.77 239.287 54.71 240.624 54.71C241.962 54.71 242.95 55.77 242.95 57.13C242.95 58.49 241.982 59.57 240.624 59.57C239.267 59.57 238.319 58.49 238.319 57.13ZM238.798 45.89L238.668 42.39H242.601L242.471 45.89L241.902 53.33H239.377L238.808 45.89H238.798ZM246.773 57.13C246.773 55.77 247.741 54.71 249.079 54.71C250.416 54.71 251.405 55.77 251.405 57.13C251.405 58.49 250.436 59.57 249.079 59.57C247.721 59.57 246.773 58.49 246.773 57.13ZM247.252 45.89L247.122 42.39H251.055L250.925 45.89L250.356 53.33H247.831L247.262 45.89H247.252Z" fill="black"/>
<path d="M15.4116 8.19998C15.232 8.70998 15.0024 9.27998 14.7628 9.90998H26.7906C27.5591 9.90998 28.9965 9.84998 30.0346 9.66998V14.62C28.8268 14.5 27.4693 14.5 26.7906 14.5H23.1373C22.5784 22.15 19.6638 27.67 14.1739 31.15L9.37282 27.88C10.5506 27.37 11.6686 26.71 12.3773 26.08C15.5614 23.56 17.6575 20.02 18.1566 14.5H12.6767C11.4689 16.69 9.7621 19.09 7.99537 20.74L3.51367 17.98C5.60979 16.36 7.37652 13.87 8.55434 11.95C9.35286 10.63 9.91182 9.03998 10.2911 7.89998C10.6704 6.78998 10.9399 5.46998 10.9998 4.44998L16.5096 5.55998C16.1303 6.36998 15.6811 7.53998 15.4216 8.19998H15.4116ZM28.0882 8.01998L25.2933 9.21998C24.6745 7.98998 23.8161 6.21998 23.0275 5.04998L25.8024 3.90998C26.541 5.01998 27.5691 6.96998 28.0981 8.01998H28.0882ZM31.7414 6.54998L28.9765 7.74998C28.3876 6.51998 27.4394 4.74998 26.6508 3.60998L29.4157 2.46998C30.1843 3.60998 31.2423 5.52998 31.7414 6.54998ZM38.8782 14.29H54.5292C55.8567 14.29 57.3041 14.14 58.1525 14.08V19.81C57.3839 19.78 55.737 19.63 54.5292 19.63H38.8782C37.2013 19.63 34.9854 19.72 33.7776 19.81V14.08C34.9554 14.17 37.4309 14.29 38.8782 14.29ZM73.6937 9.36998C72.6956 12.34 70.5396 19.18 69.1222 23.17C72.2763 22.87 75.7798 22.45 78.4948 22.12C77.5566 20.11 76.5784 18.28 75.7 17.05L80.1817 15.19C82.3078 18.52 85.1924 24.34 86.6098 27.82L81.7787 30.01C81.4294 29.02 80.9802 27.88 80.4811 26.68C75.6201 27.28 67.1558 28.15 63.5924 28.54C62.8538 28.63 61.6161 28.81 60.6479 28.93L59.8194 23.62C60.8774 23.62 62.3248 23.62 63.3229 23.59C63.4726 23.59 63.6224 23.59 63.7621 23.56C65.4689 19.06 67.7647 11.53 68.653 8.31998C69.0922 6.72998 69.2719 5.64998 69.4216 4.53998L75.0811 5.70998C74.642 6.69998 74.1628 7.98998 73.6937 9.36998ZM96.4915 17.15C96.4915 19.11 94.8845 20.72 92.9281 20.72C90.9717 20.72 89.3647 19.11 89.3647 17.15C89.3647 15.19 90.9717 13.58 92.9281 13.58C94.8845 13.58 96.4915 15.19 96.4915 17.15ZM102.989 17.98C102.989 11.2 107.801 6.99998 112.761 6.99998C118.7 6.99998 121.595 11.38 121.595 17.1C121.595 18.28 121.445 19.42 121.306 19.94H109.218C109.797 22.81 111.753 23.99 114.358 23.99C115.846 23.99 117.223 23.55 118.7 22.66L120.836 26.6C118.7 28.15 115.876 29 113.49 29C107.551 29 102.989 24.95 102.989 17.98ZM116.125 15.62C116.125 13.56 115.217 12.01 112.871 12.01C111.094 12.01 109.537 13.15 109.108 15.62H116.135H116.125ZM128.303 16.5H137.895V20.25H128.303V16.5ZM162.27 10.18C161.301 12.4 159.734 15.4 157.818 18.1C160.673 20.62 164.216 24.43 165.833 26.47L161.741 30.1C159.854 27.37 157.349 24.49 154.694 21.88C151.599 25.15 147.737 28.18 143.884 30.07L140.171 26.14C144.942 24.37 149.603 20.68 152.228 17.71C154.145 15.49 155.732 12.85 156.351 10.93H147.188C145.86 10.93 144.243 11.11 143.415 11.17V6.00998C144.443 6.15998 146.329 6.24998 147.188 6.24998H157.029C158.507 6.24998 159.884 6.03998 160.563 5.79998L163.477 7.98998C163.208 8.37998 162.589 9.42998 162.27 10.18ZM171.443 26.29L167.58 23.62C169.556 21.67 171.822 18.52 173.06 15.91L177.122 17.86C175.705 20.56 173 24.55 171.433 26.29H171.443ZM191.396 2.22998C193.342 2.22998 194.899 3.81998 194.899 5.79998C194.899 7.53998 193.691 8.97998 192.074 9.30998C192.603 9.27998 193.133 9.21998 193.522 9.15998V13.9C192.524 13.81 191.226 13.78 190.368 13.78H183.999V27.4C183.999 29.23 182.881 30.46 180.616 30.46C178.849 30.46 177.142 30.4 175.485 30.19L175.046 25.72C176.284 25.96 177.551 26.05 178.26 26.05C178.969 26.05 179.258 25.81 179.288 25.03C179.318 24.19 179.318 15.13 179.318 13.78H172.241C171.353 13.78 170.055 13.81 169.207 13.9V9.12998C170.125 9.24998 171.333 9.36998 172.241 9.36998H179.318V7.35998C179.318 6.51998 179.168 5.04998 179.049 4.47998H184.319C184.229 4.89998 183.999 6.57998 183.999 7.38998V9.36998H190.338C190.577 9.36998 190.807 9.36998 191.076 9.33998C189.28 9.18998 187.892 7.65998 187.892 5.79998C187.892 3.81998 189.449 2.22998 191.396 2.22998ZM194.989 23.68L190.807 26.02C189.479 23.32 187.453 19.75 186.096 17.92L189.988 15.76C191.466 17.68 193.821 21.49 194.999 23.68H194.989ZM191.396 7.26998C192.194 7.26998 192.843 6.60998 192.843 5.79998C192.843 4.98998 192.194 4.32998 191.396 4.32998C190.597 4.32998 189.948 4.98998 189.948 5.79998C189.948 6.60998 190.597 7.26998 191.396 7.26998ZM202.894 14.29H218.545C219.873 14.29 221.31 14.14 222.169 14.08V19.81C221.4 19.78 219.753 19.63 218.545 19.63H202.894C201.218 19.63 199.002 19.72 197.794 19.81V14.08C198.972 14.17 201.447 14.29 202.894 14.29ZM231.951 15.04L227.349 16.75C226.7 14.77 224.814 9.90998 223.906 8.13998L228.477 6.51998C229.445 8.55998 231.282 12.97 231.951 15.04ZM249.428 9.99998C248.63 13 246.893 18.04 244.477 21.31C241.353 25.51 237.081 28.51 232.869 30.19L228.866 26.08C232.789 24.97 237.5 22.36 240.535 18.49C242.691 15.73 244.517 10.39 244.986 5.76998L250.317 7.29998C249.937 8.19998 249.638 9.21998 249.428 9.99998ZM239.846 12.76L235.334 14.38C234.745 12.37 233.128 8.13998 232.18 6.12998L236.662 4.62998C237.43 6.15998 239.227 10.69 239.846 12.76Z" fill="#EFEB51"/>
</g>
<defs>
<clipPath id="clip0_299_709">
<rect width="270" height="61.37" fill="white"/>
</clipPath>
</defs>
</svg>
