<svg width="270" height="62" viewBox="0 0 270 62" fill="none" xmlns="http://www.w3.org/2000/svg">
<g clip-path="url(#clip0_362_1375)">
<path d="M17.8102 22.9971C20.9102 19.5771 23.7202 15.3171 25.2502 12.3271C25.3302 12.1771 25.5402 11.8971 25.7702 11.5771C25.8702 11.4371 25.9802 11.2971 26.0902 11.1371L26.3802 10.7371L26.4102 10.7571C28.1102 12.1771 31.2402 15.3971 32.4902 17.0171L34.0102 18.9871L35.6002 17.0671L38.7502 13.2571L39.7902 12.0071L38.7802 10.7371C37.0802 8.59705 33.6102 5.37705 31.8602 3.97705L30.3002 2.71705L29.0502 4.28705L26.1302 7.97705L25.7602 8.43705L22.8102 5.56705L21.9002 4.68705L20.7202 5.13705C20.4002 5.25705 19.6602 5.39705 18.6202 5.39705H5.12023C4.40023 5.39705 2.95023 5.23705 2.43023 5.11705L-0.00976562 4.56705V14.5171L2.30023 14.1471C2.81023 14.0671 4.21023 13.9071 5.11023 13.9071H6.97023L6.65023 14.2071L3.40023 17.3271L1.79023 18.8671L3.49023 20.3071C4.92023 21.5171 7.21023 23.9571 8.72023 25.7371C10.4002 27.7571 12.5202 30.5971 13.5402 32.1971L14.8302 34.237L16.5902 32.5871L20.2302 29.1671L21.5102 27.9671L20.4902 26.5371C19.6502 25.3671 18.7102 24.1371 17.8002 23.0071L17.8102 22.9971ZM12.0602 16.6771C11.0102 15.6471 10.0702 14.7771 9.38023 14.1571L9.09023 13.8971H14.2102C13.5902 14.8071 12.8702 15.7571 12.0602 16.6771ZM76.6402 8.09705L75.9102 6.36705C75.4202 5.21705 74.4702 3.23705 73.7902 2.06705L72.8702 0.477051L71.2102 1.26705L69.7702 1.95705L69.7502 1.91705L68.0802 2.70705L65.6902 3.84705L64.5802 4.37705L64.7502 2.78705H55.7102L56.0302 5.06705C56.1202 5.70705 56.2102 7.13705 56.2102 7.69705C56.2102 7.81705 56.2102 7.94705 56.2102 8.06705H55.0002C54.0602 8.06705 52.6902 7.97705 51.6702 7.84705L49.4202 7.55705V12.2771L47.8702 8.95705L45.9302 4.79705L44.2102 9.05705C42.4802 13.3471 39.1202 17.4971 35.2302 20.1471C32.8502 21.7871 29.7602 22.9671 26.5302 23.4871L23.7402 23.937L25.1002 26.4271L27.7202 31.2271L28.4102 32.4971L29.8302 32.2271C33.0502 31.6271 36.6502 30.067 39.7002 27.9471C43.9002 25.0371 47.5002 21.0071 49.7502 16.7571L51.6202 16.5671C52.7002 16.4571 54.2502 16.4271 55.0002 16.4271H55.5202C54.9702 18.9971 54.0302 20.9971 52.5902 22.7571C51.5002 24.0971 50.1902 25.0871 49.2802 25.6771L47.1702 27.0571L49.0002 28.7971L52.5802 32.2171L53.8802 33.4571L55.2502 32.2971C56.8302 30.9571 58.1702 29.517 59.3002 27.937L59.5302 30.2871L59.6902 31.9171L61.3102 32.0771C62.4902 32.1971 64.1002 32.357 65.8102 32.357C68.5002 32.357 70.3802 30.9971 71.2602 28.4171C72.3002 25.3471 72.7102 18.3671 72.8702 13.0471V13.0171V12.9871C72.8702 12.8171 72.9502 12.0971 73.0202 11.6471L73.2402 10.2871L72.8102 10.0471L74.9702 8.95705L76.6402 8.11705V8.09705ZM63.6302 16.4071H64.8202C64.7202 19.3971 64.4102 22.4771 64.0802 23.6471C63.4302 23.6071 62.6102 23.4971 61.7902 23.3271C62.6202 21.2771 63.2202 18.9971 63.6302 16.4071ZM64.3502 7.65705C64.3602 7.24705 64.4002 6.58705 64.4402 5.98705L64.8402 6.65705C65.0702 7.04705 65.3202 7.53705 65.5602 8.05705H64.3502C64.3502 7.92705 64.3502 7.78705 64.3602 7.65705H64.3502ZM80.8202 23.607C77.7602 23.607 75.2702 20.9871 75.2702 17.7671C75.2702 14.5471 77.7602 11.9271 80.8202 11.9271C83.8802 11.9271 86.3702 14.5471 86.3702 17.7671C86.3702 20.9871 83.8802 23.607 80.8202 23.607ZM105.78 10.9871C104.88 13.8571 103.02 19.1671 100.66 22.5971C99.2602 24.6271 95.4302 29.6271 90.1802 32.0871L88.7802 32.7471L87.8002 31.5571L84.2902 27.2971L82.5602 25.1971L85.0802 24.1771C88.4902 22.7971 91.6202 20.2871 93.8902 17.1271C96.2702 13.8071 97.7502 8.61705 98.3502 4.86705L98.7102 2.60705L100.9 3.27705L105.73 4.74705L107.87 5.39705L106.98 7.45705C106.57 8.39705 106.24 9.50705 105.94 10.4971L105.78 11.0171V10.9871ZM154.67 16.4471L152.97 13.5471L151.25 16.4371C150.68 17.3871 150.01 18.2871 149.31 19.0671V8.44705C149.31 7.15705 149.49 5.93705 149.49 5.92705L149.83 3.63705H147.52H142.94H133.34L133.88 6.06705C134 6.61705 134.11 7.31705 134.11 8.72705C134.11 11.6171 134.11 17.6271 133.45 19.8971C133.16 20.9471 132.57 22.5971 131.53 24.0971L131.05 23.4971C129.09 21.0371 126.45 17.7171 124.75 15.5571C124.7 15.4871 124.64 15.4171 124.59 15.3471L125.49 14.8871L125.57 15.0671L127.5 13.9671L130.14 12.4671L131.69 11.5871L130.99 9.94705C130.38 8.49705 129.19 6.31705 128.39 5.00705L127.41 3.39705L125.75 4.28705L124.06 5.19705L124.03 5.13705L122.35 5.95705L119.71 7.24705L118.18 7.99705C117.25 7.30705 116.3 6.96705 115.32 6.96705C113.74 6.96705 112.3 7.86705 111.03 9.65705C110.59 10.2771 110.15 10.8971 109.72 11.5171C108.38 13.4271 107.12 15.2171 106.33 16.1571C105.51 17.1271 104.95 17.7571 104.21 18.4671L102.87 19.7471L104.04 21.1771L107.75 25.7071L109.61 27.9771L111.03 25.4071C111.51 24.5371 112.14 23.4071 112.74 22.3771C112.99 21.9571 113.3 21.4271 113.64 20.8671C114.29 19.7671 115 18.5671 115.58 17.6271C116.57 18.8971 118.13 20.9771 119.31 22.6571C120.33 24.0971 121.68 26.0971 122.99 28.0371C123.49 28.7871 123.99 29.517 124.45 30.187L125.98 32.437L127.66 30.3071L129.09 28.4971L129.88 29.1171L133.64 32.0571L135.08 33.1771L136.32 31.8471C138.64 29.3571 140.28 26.3271 141.18 22.8271V25.6471C141.18 26.4971 141.08 27.2871 140.99 27.7471L140.77 28.8171L141.55 29.5771L144.12 32.0671L145.43 33.3371L146.81 32.1571C146.89 32.0871 146.98 32.0071 147.08 31.9171C147.29 31.7171 147.49 31.5371 147.81 31.3371C150.52 29.6971 154.57 26.2571 156.99 22.6371L157.69 21.5971L157.05 20.5171L154.69 16.4971L154.67 16.4471ZM168.25 17.7671C168.25 20.9871 165.76 23.607 162.7 23.607C159.64 23.607 157.15 20.9871 157.15 17.7671C157.15 14.5471 159.64 11.9271 162.7 11.9271C165.76 11.9271 168.25 14.5471 168.25 17.7671ZM246.71 9.94705H245.69C246.39 8.96705 247.06 7.93705 247.69 6.87705L248.7 5.16705L247 4.13705L243.82 2.21705L242.07 1.16705L241.06 2.93705C240.83 3.33705 240.6 3.72705 240.37 4.08705H237.23V1.16705H229.58V4.10705H223.89V9.95705H221.92V4.25705H215.98L216.95 2.11705L214.3 1.75705L210.13 1.18705L208.35 0.947051L208.05 2.15705L207.67 2.06705L203.88 1.16705L202.3 0.787051L201.61 2.26705C200.59 4.47705 199.04 6.60705 197.28 8.30705V2.75705H179.45L179.07 2.60705L175.97 1.34705L173.86 0.477051L173.29 2.68705C173.16 3.18705 173 3.72705 172.83 4.28705L172.81 4.25705L171.41 6.54705L169.66 9.42705L168.93 10.6271L169.82 11.7271C170.5 12.5671 171.13 13.4471 171.64 14.2371C171.51 14.2371 171.39 14.2571 171.27 14.2571L169.17 14.3571L169.39 16.4571L169.77 20.1771L169.97 22.1471L170.13 22.1271C169.94 24.3771 169.61 26.1771 169.2 27.2571L168.52 29.0371L170.26 29.7971C170.85 30.0571 171.96 30.6671 172.38 30.9871L172.84 31.3471V33.6271H179.9V32.5171C180.05 32.6671 180.18 32.807 180.27 32.917L182.13 35.2171L183.01 33.6271H188.21V33.4471H190.41L190.43 33.6271H192.21C193.3 33.6271 194.58 33.4871 195.73 32.4571C196.23 32.0071 196.55 31.4771 196.76 30.9271C197.1 31.4471 197.41 31.9871 197.63 32.4171L198.4 33.9271L200.01 33.417C201.92 32.807 203.88 31.9271 205.7 30.8771V33.597H213.38V30.7771C215.18 31.8571 217.07 32.7271 218.91 33.3171L220.54 33.8371L221.31 32.3071C221.76 31.4171 222.68 29.9571 223.29 29.2771L225.56 26.7771L223.17 26.2071V24.6671L223.97 26.3771L225.75 25.5971C225.98 25.4971 226.22 25.3871 226.47 25.2771V33.647H234.15V32.8071H238.04V33.5271H245.89V17.7171H248.69V9.90705H246.7L246.71 9.94705ZM220.52 15.1471V11.5771H221.71V15.5871H220.52V15.1471ZM196.67 16.3371V13.0371C197.23 13.6071 197.87 14.3871 198.21 14.9471L198.88 16.0471V19.6671H197.2V16.3371H196.67ZM256.12 15.3371C255.88 16.4771 255.07 21.1471 255.07 23.1971C255.07 23.2671 255.07 23.6171 255.09 23.7071C255.4 23.0871 255.66 22.6471 255.95 22.0171L257.55 23.2971C256.89 25.2971 256.21 27.7171 255.97 28.9571C255.9 29.2871 255.84 29.8171 255.84 30.0171C255.84 30.2571 255.84 30.6571 255.86 31.0071L252.79 31.2071C252.35 29.7371 251.91 26.9571 251.91 23.9671C251.91 20.5971 252.55 16.9271 252.77 15.2971C252.86 14.6371 253.01 13.6471 253.03 12.8071L256.74 13.1171C256.54 13.6271 256.21 14.9671 256.13 15.3571L256.12 15.3371ZM261.69 25.8371C261.69 26.8071 262.61 27.1771 264.41 27.1771C266.36 27.1771 267.94 26.9971 269.94 26.5871L270.01 30.1971C268.56 30.4571 266.83 30.6171 264.24 30.6171C260.4 30.6171 258.49 29.1871 258.49 26.8371C258.49 25.8871 258.62 24.9671 258.89 23.8271L261.92 24.0871C261.77 24.7871 261.7 25.2771 261.7 25.8471L261.69 25.8371ZM269.33 14.4171V17.8471C266.46 18.0871 262.62 18.1071 259.68 17.8471L259.66 14.4371C262.53 14.7871 266.88 14.6771 269.34 14.4171H269.33Z" fill="black"/>
<path d="M34.9999 56.7469C37.0499 57.6969 39.2499 58.7669 40.5699 59.4969L37.3799 61.6769C36.0399 60.7969 33.5999 59.3469 31.3899 58.3369L33.2199 56.7569H26.8599L29.0599 58.3369C27.3199 59.5269 24.6599 60.9369 22.6799 61.7069C22.0599 61.0669 20.9599 60.0569 20.1499 59.4669C21.9299 58.8469 24.1299 57.7269 25.5599 56.7569H20.1699V53.8269H21.9099L21.6199 41.8569L23.5599 42.1669C24.2399 41.7269 24.8999 41.2469 25.4099 40.8269L26.1799 41.7469H34.4499V53.8269H36.1199C36.1599 53.2969 36.1899 52.7469 36.2099 52.1769H34.9099V49.6669H36.3199L36.3599 48.2769H34.9099V45.7669H36.4099L36.4299 44.3569H34.8699V41.8069H39.2299C39.1899 45.6769 39.0299 50.3669 38.8099 53.8169H40.4799V56.7469H34.9999ZM24.5899 53.8169H26.1499V43.8269C25.5299 44.0869 24.9399 44.3569 24.3699 44.5769L24.3899 45.7669H25.7099V48.2769H24.4599L24.4999 49.6669H25.7099V52.1769H24.5699L24.5899 53.8269V53.8169ZM28.3299 44.0869V53.8169H32.1799V44.0869H28.3299ZM31.7199 46.8569H28.7299V44.9469H31.7199V46.8569ZM31.6999 52.5369H28.7299V47.6069H31.6999V52.5369ZM30.4699 49.3669H29.9199V50.7769H30.4699V49.3669ZM46.3099 56.0769V57.8769H43.4099V42.6269H50.5399V56.0669H46.3199L46.3099 56.0769ZM46.3099 45.7169V52.9769H47.6499V45.7169H46.3099ZM59.3099 52.1669C60.4099 54.3469 62.0799 56.4369 63.8899 57.7369C63.1199 58.3569 62.0599 59.5369 61.5099 60.3969C60.4499 59.4269 59.4899 58.1269 58.6299 56.6569V61.6069H55.3999V56.3269C54.2799 57.9569 52.9399 59.3369 51.3699 60.3069C50.8899 59.5569 49.9199 58.3969 49.2099 57.7769C51.5199 56.6069 53.4599 54.4969 54.6699 52.1669H50.9999V49.1269H55.3999V46.9469H51.6099V43.9069H55.3999V41.0069H58.6299V43.9069H63.0099V46.9469H58.6299V49.1269H63.5799V52.1669H59.3099ZM75.8799 44.4169C75.7499 45.0069 75.6199 45.6269 75.4799 46.1969C76.0699 46.1569 76.5799 46.1269 76.9799 46.1269C79.5099 46.1269 81.1799 47.3169 81.1799 50.6169C81.1799 53.1869 80.8899 56.7969 79.9499 58.7369C79.1999 60.3169 77.8999 60.8669 76.1199 60.8669C75.2599 60.8669 74.2299 60.7369 73.4399 60.5569L72.8699 57.0569C73.6799 57.2769 74.9999 57.5169 75.5499 57.5169C76.2499 57.5169 76.7599 57.2769 77.0499 56.6769C77.5999 55.5769 77.8599 53.0069 77.8599 50.9569C77.8599 49.3469 77.1999 49.1569 75.8399 49.1569C75.5799 49.1569 75.2199 49.1769 74.7799 49.2269C73.8999 52.6569 72.2499 57.9869 70.3799 60.9969L66.8999 59.6069C68.9899 56.7869 70.4199 52.6069 71.2299 49.5969C70.6599 49.6869 70.1699 49.7469 69.8699 49.7969C69.1699 49.9069 67.8899 50.0869 67.1599 50.2169L66.8499 46.6269C67.7099 46.6969 68.5399 46.6469 69.4199 46.6269C70.0599 46.6069 70.9599 46.5369 71.9499 46.4769C72.2599 44.7569 72.4099 43.2469 72.3699 41.8769L76.3299 42.2969C76.1799 42.9569 75.9999 43.7969 75.8699 44.4069L75.8799 44.4169ZM84.8799 44.3769L84.1499 44.6869C85.4699 46.7569 87.1199 50.5669 87.7099 52.5869L84.2999 54.1469C83.7699 51.5969 82.2999 47.6969 80.7099 45.6769L82.5799 44.8869C82.1599 44.0269 81.6099 42.9469 81.0799 42.2069L83.1499 41.3669C83.6999 42.1769 84.4699 43.6069 84.8699 44.3769H84.8799ZM87.6099 43.2969L85.5399 44.1769C85.0999 43.2769 84.3999 41.9769 83.7999 41.1369L85.8699 40.2969C86.4399 41.1369 87.2299 42.5369 87.6099 43.2869V43.2969ZM98.9599 43.0069C98.8899 43.2969 98.8299 43.6269 98.7799 43.9269C101.38 43.8369 103.6 43.5769 106.09 42.9569L106.11 46.0169C104.04 46.3869 101.09 46.6769 98.3599 46.7869L98.2299 48.3669C99.1999 48.1669 100.25 48.0569 101.29 48.0569H101.42C101.51 47.5969 101.57 47.1069 101.6 46.8069L104.84 47.5769C104.75 47.7969 104.6 48.1969 104.47 48.5869C106.93 49.4869 108.65 51.4469 108.65 54.0669C108.65 57.1669 106.96 60.3369 101.39 61.1769L99.6299 58.3869C104.03 57.9069 105.35 55.7069 105.35 53.9169C105.35 52.7969 104.73 51.8069 103.55 51.2569C102.38 54.1369 100.67 56.3569 99.0799 57.6569C99.2299 58.1869 99.3899 58.7169 99.5599 59.2169L96.4999 60.1169C96.4099 59.8969 96.3499 59.6369 96.2599 59.3669C95.2699 59.8069 94.1499 60.1169 93.0299 60.1169C91.3399 60.1169 89.8599 59.1069 89.8599 56.6569C89.8599 53.8169 92.0999 50.8469 95.2099 49.3569C95.2499 48.5169 95.3199 47.6869 95.4099 46.8669H95.0599C93.7799 46.8669 92.0699 46.7569 90.9699 46.7169L90.8799 43.6769C91.6699 43.7869 93.6099 43.9869 95.1699 43.9869H95.6999C95.7399 43.6769 95.7899 43.3969 95.8099 43.1069C95.8499 42.6669 95.8999 42.0769 95.8799 41.6369L99.3099 41.7269C99.1599 42.2369 99.0699 42.6269 98.9799 43.0069H98.9599ZM93.8499 56.8869C94.3299 56.8869 94.9499 56.7069 95.5899 56.3569C95.3899 55.1869 95.2399 53.8969 95.1699 52.5469C93.8099 53.6069 92.9699 54.9869 92.9699 55.9369C92.9699 56.5569 93.1899 56.8869 93.8499 56.8869ZM98.3399 54.1569C99.1799 53.2569 99.9499 52.1769 100.56 50.7669C99.6399 50.8069 98.8399 50.9669 98.1399 51.1669C98.1599 52.2669 98.2299 53.2569 98.3399 54.1569ZM116.69 42.6469C117.88 42.6469 122.28 42.5769 123.58 42.4669C124.64 42.3769 125.25 42.2869 125.54 42.2069L127.19 44.5569C126.62 44.9069 126.05 45.2369 125.5 45.6369C124.27 46.4769 122.33 48.0569 121.12 48.9769C121.69 48.8669 122.13 48.8469 122.66 48.8469C126.44 48.8469 129.41 51.2669 129.41 54.5869C129.41 57.9069 126.92 61.0369 121.22 61.0369C118.12 61.0369 115.54 59.5869 115.54 57.1669C115.54 55.2269 117.3 53.4269 119.81 53.4269C122.49 53.4269 124.21 54.9869 124.59 57.0769C125.47 56.4869 125.89 55.6269 125.89 54.5469C125.89 52.6569 123.95 51.4669 121.53 51.4669C118.32 51.4669 116.01 53.4069 113.9 55.9769L111.48 53.4669C112.89 52.3669 115.46 50.1869 116.76 49.1069C117.99 48.0969 120.04 46.5069 121.09 45.5669C119.99 45.5869 117.72 45.6769 116.54 45.7669C115.88 45.8069 115.09 45.8769 114.56 45.9669L114.45 42.5169C115.13 42.6069 115.97 42.6469 116.69 42.6469ZM120.54 58.0069C120.89 58.0069 121.22 57.9869 121.53 57.9669C121.42 56.7569 120.76 55.9669 119.84 55.9669C119.11 55.9669 118.7 56.4069 118.7 56.8469C118.7 57.5269 119.43 58.0169 120.55 58.0169L120.54 58.0069ZM138.1 42.0369L141.86 41.4469C141.93 41.8869 141.99 42.6969 142.1 43.2469C142.14 43.5769 142.28 44.2369 142.43 45.0969C144.12 44.8369 145.62 44.5669 146.32 44.4369C147.05 44.3069 148.04 44.0869 148.65 43.9069L149.29 47.3869C148.72 47.4269 147.71 47.5869 147 47.6769C146.16 47.8069 144.67 48.0469 143.02 48.3169C143.2 49.2869 143.39 50.2969 143.59 51.3269C145.42 51.0169 147.07 50.7369 147.99 50.5569C148.85 50.3769 149.77 50.1569 150.41 49.9869L151.11 53.4869C150.45 53.5269 149.44 53.7069 148.6 53.8369C147.63 53.9869 146 54.2569 144.2 54.5369C144.51 56.1469 144.77 57.5069 144.93 58.2569C145.08 58.9169 145.3 59.7269 145.5 60.4969L141.67 61.1569C141.56 60.2969 141.52 59.5069 141.38 58.8469C141.27 58.1669 141.01 56.7769 140.7 55.1069C138.61 55.4569 136.72 55.7869 135.82 55.9669C134.83 56.1469 133.99 56.2969 133.49 56.4269L132.74 52.9069C133.36 52.8869 134.46 52.7569 135.2 52.6469C136.17 52.4969 138.04 52.2069 140.11 51.8769C139.91 50.8669 139.71 49.8269 139.54 48.8669C137.71 49.1569 136.13 49.4169 135.54 49.5269C134.79 49.6769 134.2 49.8169 133.38 50.0369L132.68 46.4069C133.45 46.3669 134.15 46.3169 134.84 46.2269C135.54 46.1369 137.13 45.9169 138.93 45.6369C138.78 44.8269 138.64 44.1869 138.58 43.8069C138.43 43.1469 138.27 42.5969 138.1 42.0469V42.0369ZM168.62 57.5469L167.15 60.8869C164.16 59.6969 156.96 58.1569 153.44 57.6269L154.78 54.2569C158.61 54.8269 165.58 56.4569 168.62 57.5369V57.5469ZM167.61 50.7269L166.31 54.0669C163.8 53.1169 158.02 51.7969 154.65 51.2469L155.88 48.0169C159.09 48.5469 164.84 49.7969 167.61 50.7269ZM169.15 44.6769L167.79 47.9969C165.28 47.0769 158.79 45.5969 155.64 45.2069L156.87 42.0369C159.8 42.3869 166.38 43.7069 169.15 44.6769ZM177 44.7469C176.74 45.8869 175.97 51.0169 175.97 53.0669C175.97 53.1369 175.97 53.4869 175.99 53.5769C176.25 52.9369 176.54 52.5169 176.83 51.8569L178.44 53.1569C177.78 55.1369 177.12 57.3569 176.86 58.6369C176.79 58.9469 176.73 59.4469 176.73 59.6669C176.73 59.9069 176.73 60.3069 176.75 60.6569L173.74 60.8769C173.28 59.3769 172.84 56.8069 172.84 53.8169C172.84 50.4469 173.46 46.3169 173.7 44.6869C173.79 44.0269 173.92 43.0169 173.94 42.1969L177.61 42.5069C177.41 42.9869 177.1 44.3569 177.02 44.7469H177ZM188.13 43.6869C188.11 44.1069 188.09 44.8269 188.06 45.7569C189.18 45.6269 190.26 45.4669 191.25 45.2469V48.5669C190.26 48.6969 189.18 48.8269 188.04 48.8969C188.08 50.9169 188.19 52.4869 188.26 53.8069C190.13 54.5769 191.49 55.7269 192.48 56.6469L190.68 59.4369C189.87 58.6669 189.07 58.0069 188.33 57.4369C188.04 59.5069 186.68 60.7769 183.8 60.7769C180.7 60.7769 178.65 59.4569 178.65 56.9669C178.65 54.4769 180.67 52.9169 183.76 52.9169C184.13 52.9169 184.51 52.9369 184.86 52.9569C184.79 51.7869 184.73 50.4469 184.71 49.0669C184.29 49.0869 183.87 49.0869 183.48 49.0869C182.16 49.0869 180.84 49.0469 179.54 48.9569L179.52 45.7869C180.8 45.9169 182.12 45.9869 183.46 45.9869C183.88 45.9869 184.27 45.9869 184.69 45.9669C184.67 44.9369 184.67 44.1169 184.65 43.7269C184.65 43.3969 184.56 42.6669 184.47 42.2069H188.28C188.21 42.6269 188.17 43.1969 188.15 43.6769L188.13 43.6869ZM183.49 57.6369C184.55 57.6369 184.96 57.0669 184.96 55.8569V55.7069C184.48 55.5769 183.99 55.5069 183.49 55.5069C182.46 55.5069 181.77 55.9069 181.77 56.6069C181.77 57.3769 182.54 57.6369 183.49 57.6369ZM198.69 43.8169H209.91C210.61 43.8169 211.67 43.7769 212 43.7469C211.98 44.2769 211.93 45.2469 211.93 45.9669V57.3869C211.93 58.1369 211.97 59.3869 212.04 60.2469H208.17C208.17 59.8769 208.19 59.4969 208.19 59.1469H198.53C197.69 59.1469 196.31 59.2169 195.52 59.2969V55.4869C196.38 55.5569 197.39 55.6169 198.42 55.6169H208.21V47.2569H198.68C197.69 47.2569 196.46 47.2969 195.78 47.3469V43.6469C196.66 43.7369 197.89 43.7969 198.68 43.7969L198.69 43.8169ZM219.48 43.8169H230.7C231.4 43.8169 232.46 43.7769 232.79 43.7469C232.77 44.2769 232.72 45.2469 232.72 45.9669V57.3869C232.72 58.1369 232.76 59.3869 232.83 60.2469H228.96C228.96 59.8769 228.98 59.4969 228.98 59.1469H219.32C218.48 59.1469 217.1 59.2169 216.31 59.2969V55.4869C217.17 55.5569 218.18 55.6169 219.21 55.6169H229V47.2569H219.47C218.48 47.2569 217.25 47.2969 216.57 47.3469V43.6469C217.45 43.7369 218.68 43.7969 219.47 43.7969L219.48 43.8169ZM236.75 57.4569C236.75 56.0969 237.72 55.0369 239.06 55.0369C240.4 55.0369 241.39 56.0969 241.39 57.4569C241.39 58.8169 240.42 59.8969 239.06 59.8969C237.7 59.8969 236.75 58.8169 236.75 57.4569ZM237.23 46.2169L237.1 42.7169H241.04L240.91 46.2169L240.34 53.6569H237.81L237.24 46.2169H237.23ZM245.22 57.4569C245.22 56.0969 246.19 55.0369 247.53 55.0369C248.87 55.0369 249.86 56.0969 249.86 57.4569C249.86 58.8169 248.89 59.8969 247.53 59.8969C246.17 59.8969 245.22 58.8169 245.22 57.4569ZM245.7 46.2169L245.57 42.7169H249.51L249.38 46.2169L248.81 53.6569H246.28L245.71 46.2169H245.7Z" fill="black"/>
<path d="M23.4802 11.4171C21.6702 14.9271 18.4002 19.6671 15.1402 22.9071C16.5102 24.5271 17.8902 26.3271 18.8802 27.7071L15.2402 31.1271C14.1202 29.3571 11.9402 26.4471 10.2602 24.4371C8.78023 22.6971 6.40023 20.1171 4.79023 18.7671L8.04023 15.6471C9.11023 16.6071 10.5802 17.9871 12.0802 19.5471C14.4902 17.2071 16.5502 14.2071 17.7002 11.8971H5.12023C4.08023 11.8971 2.55023 12.0771 1.99023 12.1671V7.06715C2.65023 7.21715 4.25023 7.39715 5.12023 7.39715H18.6202C19.7602 7.39715 20.7802 7.24715 21.4202 7.00715L24.4702 9.97715C24.0602 10.5471 23.7102 10.9971 23.4802 11.4171ZM36.3602 21.7971C40.9402 18.6771 44.3702 14.0271 46.0702 9.79715L48.4602 14.9271C46.4302 19.1871 42.8202 23.3571 38.5702 26.2971C35.9802 28.0971 32.6702 29.6571 29.4702 30.2571L26.8502 25.4571C30.5902 24.8571 33.8702 23.5071 36.3602 21.7971ZM37.2202 11.9871L34.0702 15.7971C32.7202 14.0571 29.5202 10.7571 27.6902 9.22715L30.6102 5.53715C32.3602 6.94715 35.6902 10.0671 37.2202 11.9871ZM62.3502 7.60715C62.3202 8.44715 62.3002 9.28715 62.2502 10.0671H66.3202C66.9602 10.0671 67.7202 9.97715 68.4302 9.82715L71.0502 11.3271C70.9702 11.8071 70.8702 12.6771 70.8702 12.9771C70.7702 16.4271 70.4402 24.6171 69.3702 27.7671C68.8102 29.4171 67.7402 30.3471 65.8102 30.3471C64.2302 30.3471 62.7102 30.1971 61.5102 30.0771L61.0302 25.2171C62.2202 25.4871 63.5202 25.6671 64.4902 25.6671C65.3502 25.6671 65.6302 25.3071 65.8902 24.5571C66.5002 22.9071 66.8602 17.6871 66.8602 14.4171H61.9002C60.9802 22.0071 58.6702 26.7771 53.9702 30.7671L50.3902 27.3471C51.5802 26.5671 52.9802 25.4571 54.1502 24.0171C56.3602 21.3171 57.4302 18.1971 57.8902 14.4171H55.0202C54.2302 14.4171 52.6102 14.4471 51.4402 14.5671V9.82715C52.6102 9.97715 54.0602 10.0671 55.0202 10.0671H58.2002C58.2302 9.31715 58.2302 8.50715 58.2302 7.69715C58.2302 7.03715 58.1302 5.50715 58.0302 4.78715H62.5602C62.4802 5.50715 62.4102 6.88715 62.3802 7.60715H62.3502ZM70.9202 8.62715L68.5002 9.82715C67.9702 8.59715 67.2302 6.82715 66.5402 5.65715L68.9302 4.51715C69.5702 5.62715 70.4602 7.57715 70.9102 8.62715H70.9202ZM74.0702 7.15715L71.6802 8.35715C71.1702 7.12715 70.3602 5.35715 69.6702 4.21715L72.0602 3.07715C72.7202 4.21715 73.6402 6.13715 74.0702 7.15715ZM84.3702 17.7771C84.3702 19.8871 82.7702 21.6171 80.8102 21.6171C78.8502 21.6171 77.2502 19.8871 77.2502 17.7771C77.2502 15.6671 78.8502 13.9371 80.8102 13.9371C82.7702 13.9371 84.3702 15.6671 84.3702 17.7771ZM103.87 10.3971C102.75 13.9671 101.02 18.5571 99.0102 21.4671C96.9002 24.5271 93.4202 28.3671 89.3202 30.2871L85.8102 26.0271C89.8802 24.3771 93.2302 21.4371 95.5002 18.2871C97.9902 14.8071 99.6202 9.49715 100.31 5.17715L105.14 6.64715C104.61 7.87715 104.2 9.31715 103.87 10.3971ZM107.81 17.4471C108.93 16.1271 110.78 13.3971 112.61 10.8171C114.21 8.56715 115.89 8.23715 118 10.5771C119.8 12.5871 121.61 14.8071 123.16 16.7871C124.86 18.9471 127.51 22.2771 129.47 24.7371L126.06 29.0571C124.41 26.6271 122.32 23.5071 120.9 21.4971C119.4 19.3671 117.21 16.4871 116.37 15.4671C115.63 14.5971 115.07 14.6271 114.44 15.6171C113.55 16.9971 111.95 19.7571 110.98 21.3771C110.37 22.4271 109.73 23.5671 109.25 24.4371L105.54 19.9071C106.35 19.1271 106.96 18.4371 107.8 17.4471H107.81ZM125.58 12.5871L122.86 13.9671C122.05 11.8971 121.54 10.6971 120.55 9.04715L123.19 7.75715C123.95 9.10715 125.02 11.2371 125.58 12.5871ZM129.14 10.7271L126.5 12.2271C125.61 10.1571 125.05 9.04715 124.06 7.45715L126.68 6.04715C127.47 7.33715 128.59 9.40715 129.15 10.7271H129.14ZM135.35 20.4471C136.06 17.9871 136.09 12.4671 136.09 8.71715C136.09 7.30715 135.99 6.43715 135.81 5.62715H140.34C140.34 5.62715 140.14 7.21715 140.14 8.65715C140.14 12.3471 140.06 18.6171 139.4 21.6471C138.61 25.1271 137.06 28.0971 134.85 30.4671L131.09 27.5271C133.4 25.6371 134.7 22.8171 135.36 20.4471H135.35ZM143.16 25.6371V8.41715C143.16 6.94715 142.93 5.62715 142.93 5.62715H147.51C147.51 5.62715 147.31 6.97715 147.31 8.44715V23.2071C149.22 22.2771 151.38 20.1171 152.95 17.4771L155.31 21.4971C153.25 24.5871 149.54 27.9171 146.72 29.6271C146.11 30.0171 145.78 30.3771 145.5 30.6171L142.93 28.1271C143.06 27.4971 143.16 26.5671 143.16 25.6371ZM166.26 17.7771C166.26 19.8871 164.66 21.6171 162.7 21.6171C160.74 21.6171 159.14 19.8871 159.14 17.7771C159.14 15.6671 160.74 13.9371 162.7 13.9371C164.66 13.9371 166.26 15.6671 166.26 17.7771ZM180.8 8.44715C179.88 10.1271 178.87 11.9871 177.85 13.7271L179.68 12.8571C180.44 14.5971 181.13 16.7871 181.48 18.5271C181.53 17.4471 181.53 16.3971 181.53 15.4671V9.40715H194.67V17.4471H184.7L184.67 18.3471H195.2V28.0971C195.2 29.4471 195.07 30.4071 194.41 31.0071C193.77 31.5771 193.09 31.6671 192.22 31.6671C192.14 30.9771 191.94 30.0771 191.69 29.2671V31.4871H189.48V26.5371H188.92V31.4871H186.76V26.5371H186.23V31.6671H183.74V26.2671C183.31 28.2471 182.7 30.1371 181.83 31.6971C181.27 31.0071 179.87 29.8071 179.13 29.4171C179.56 28.6071 179.92 27.7371 180.22 26.8071L178.82 27.3471C178.74 26.0571 178.36 24.1971 177.9 22.5771V31.6671H174.82V23.3271C174.57 25.6671 174.13 27.8871 173.57 29.4471C172.98 28.9971 171.71 28.3071 171.03 28.0071C171.69 26.2671 172.02 23.5671 172.17 21.0771L174.81 21.6171V19.6971C173.72 19.7871 172.65 19.9071 171.71 19.9971L171.33 16.2771C171.94 16.2471 172.65 16.1871 173.39 16.1571C173.67 15.7071 173.92 15.2571 174.2 14.7771C173.51 13.3971 172.34 11.7471 171.33 10.4871L173.08 7.60715L173.56 8.14715C174.19 6.52715 174.81 4.66715 175.19 3.19715L178.29 4.45715C177.35 6.58715 176.33 8.89715 175.44 10.5771C175.62 10.8471 175.8 11.1171 175.95 11.3871C176.71 9.79715 177.4 8.20715 177.93 6.82715L180.57 8.23715V4.75715H195.24V8.44715H180.75H180.8ZM177.95 15.7971C177.8 15.3171 177.65 14.8371 177.47 14.3871L176.55 15.9171L177.95 15.7971ZM180.09 20.9571C180.42 21.8571 180.7 22.9371 180.95 23.9271C181.2 22.5171 181.33 21.0771 181.43 19.6971L179.12 20.8671C179.07 20.4171 178.99 19.8771 178.87 19.2771L177.93 19.3971V21.7371L180.09 20.9571ZM184.74 12.7971V14.0571H191.15V12.7971H184.74ZM186.24 21.5271V23.5071H186.77V21.5271H186.24ZM189.49 23.5071V21.5271H188.93V23.5071H189.49ZM192.24 21.5271H191.71V23.5071H192.24V21.5271ZM192.06 28.3071C192.19 28.3071 192.24 28.2471 192.24 28.0071V26.5371H191.71V28.3071H192.07H192.06ZM214.54 25.0971C216.68 26.3271 219.34 27.3771 221.84 27.9771C221.08 28.8171 220.06 30.4371 219.55 31.4571C216.75 30.5571 213.83 28.9371 211.41 27.0171V31.6371H207.72V27.1671C205.28 29.0871 202.25 30.6471 199.43 31.5471C198.9 30.4971 197.85 28.8771 197.09 27.9771C199.73 27.3771 202.56 26.3571 204.79 25.0971H198.05V21.6771H207.71V20.8371H200.87V12.9771C200.57 13.2771 200.23 13.6071 199.9 13.9071C199.31 12.9471 198.12 11.5671 197.31 10.9371C200.16 8.65715 202.22 5.68715 203.41 3.10715L207.2 4.00715C206.82 4.75715 206.41 5.50715 205.98 6.25715H208.83C209.24 5.20715 209.62 4.09715 209.85 3.16715L214.02 3.73715C213.61 4.63715 213.18 5.47715 212.75 6.25715H219.92V9.58715H212.09V10.3971H218.52V13.1571H212.09V13.9971H218.52V16.7571H212.09V17.5971H220.51V20.8371H211.41V21.6771H221.2V25.0971H214.54ZM208.57 9.58715H204.38V10.3971H208.57V9.58715ZM208.57 13.1571H204.38V13.9971H208.57V13.1571ZM204.38 17.5971H208.57V16.7571H204.38V17.5971ZM237.77 15.7671C237.01 16.4571 236.19 17.1171 235.38 17.7471H243.92V31.5771H240.06V30.8571H232.18V31.6971H228.49V22.1571C227.35 22.7571 226.15 23.2971 224.98 23.8071C224.55 22.8771 223.45 21.0771 222.79 20.2071C225.89 19.0971 228.87 17.5971 231.59 15.7671H223.71V11.9571H231.59V9.85715H225.9V6.10715H231.59V3.16715H235.25V6.10715H240.33V7.66715C241.25 6.49715 242.06 5.23715 242.8 3.94715L245.98 5.86715C244.68 8.05715 243.21 10.0971 241.56 11.9571H246.72V15.7671H237.77ZM240.06 21.2871H232.18V22.6371H240.06V21.2871ZM240.06 27.2271V25.8771H232.18V27.2271H240.06ZM235.26 11.9571H236.43C237.17 11.2971 237.85 10.5771 238.51 9.85715H235.26V11.9571Z" fill="#EFEB51"/>
</g>
<defs>
<clipPath id="clip0_362_1375">
<rect width="270" height="61.22" fill="white" transform="translate(0 0.477051)"/>
</clipPath>
</defs>
</svg>
