<svg width="231" height="62" viewBox="0 0 231 62" fill="none" xmlns="http://www.w3.org/2000/svg">
<g clip-path="url(#clip0_232_11380)">
<path d="M127.415 32.1699C126.804 31.4189 125.062 29.927 124.261 29.4564L123.07 28.7656L124.101 27.8444C127.005 25.2511 127.395 21.5865 127.395 18.3524V14.4876H127.005V9.65147H125.022V3.98432H136.106V1.85163H142.524V3.98432H153.668V9.65147H152.286V14.4876H151.926V26.8932H145.538V25.2411H132.882C132.101 28.1948 130.749 30.5578 128.867 32.28L128.086 33.0009L127.415 32.1799V32.1699ZM145.538 19.604V19.2636H142.464V19.604H145.538ZM136.226 19.604V19.2636H133.713C133.713 19.3737 133.713 19.4939 133.703 19.604H136.236H136.226ZM166.124 31.9296C165.914 31.4389 165.513 30.7581 165.073 30.1273V32.3601H158.925V20.1847L158.254 21.0058L157.713 19.2235C157.393 18.1622 156.362 15.6891 155.751 14.6177L155.41 14.007L155.861 13.4763C158.044 10.893 160.146 6.71777 161.338 2.58255L161.618 1.61133L166.274 3.00308H185.889V8.03943H184.267V14.2372H186.67V20.6553H185.789L186.279 21.5765L183.716 22.9082L185.168 23.6992L184.597 24.6003C184.097 25.3813 183.496 26.1022 182.765 26.7831C183.756 26.8732 184.848 26.9433 186.079 26.9933L188.242 27.0834L186.77 28.6755C186.059 29.4464 185.118 30.9383 184.687 31.8495L184.387 32.4803L183.696 32.4202C180.422 32.1498 177.668 31.6192 175.275 30.7981C173.043 31.529 170.389 32.0998 167.185 32.5303L166.424 32.6304L166.124 31.9195V31.9296ZM165.073 27.4439C165.383 27.4139 165.673 27.3838 165.964 27.3538C165.703 27.0033 165.383 26.6329 165.073 26.3025V27.4439ZM165.073 23.6691C165.844 23.4589 166.574 23.2286 167.245 22.9683L165.073 21.2261V23.6691ZM166.945 14.2372V8.03943H165.944C165.663 8.75033 165.373 9.4412 165.073 10.102V14.2272H166.945V14.2372ZM17.6768 26.733L19.3789 26.1523C20.1699 25.8819 21.2413 25.4414 22.5229 24.4701C25.3865 22.3074 26.2175 20.2448 26.2175 15.2986C26.2175 14.2473 26.1474 13.4262 25.9872 12.455L25.797 11.2935H33.2664C33.2664 11.2935 33.2664 13.1559 33.2664 13.4062C34.1175 12.7153 34.8684 11.9644 35.4492 11.2835H22.5629C21.2913 11.2835 20.3702 11.3736 18.8482 11.5138L17.7468 11.624V10.5226V4.34477L18.8983 4.51499C19.9797 4.67519 21.2613 4.83539 22.5729 4.83539H38.1626C39.1939 4.83539 41.0262 4.70523 41.4868 4.57506L42.0275 4.42488L46.0125 8.11953L45.4318 8.85046C44.7709 9.67149 44.3404 10.2522 44.1501 10.5526C42.428 13.3862 39.4843 17.1209 36.8009 19.0633L36.1801 19.5139L33.1963 17.1309C32.8859 22.5678 31.4141 27.5741 24.4453 31.4489L23.8545 31.7794L17.6968 26.753L17.6768 26.733ZM77.5322 26.4226L78.8739 25.7718C82.9991 23.7893 86.1531 21.4563 88.9767 18.2924C86.5336 16.42 84.3008 14.8781 82.0079 13.4763L81.0166 12.8655L85.4422 7.58886L86.1731 8.03943C88.1656 9.25096 90.6788 10.9231 93.0518 12.6052C93.9129 11.0232 94.6438 9.31104 95.3647 7.18836C95.6551 6.3473 95.9655 5.04566 96.1056 4.26467L96.3159 3.11322L104.026 5.7966L103.395 6.84793C102.994 7.51878 102.354 8.95058 102.053 9.71154C101.342 11.5439 100.191 14.2172 98.6388 16.8606C101.452 19.1935 103.715 21.4163 105.147 22.9182L105.788 23.589L100.651 29.3463L99.9104 28.4652C98.2483 26.5127 96.4661 24.6804 94.3434 22.758C91.2796 26.2624 87.9353 28.9758 83.8902 31.2387L83.2594 31.5891L77.5322 26.4126V26.4226ZM72.6661 28.8156C71.5046 28.6955 70.0228 28.6054 69.1316 28.6054H52.3104C51.159 28.6054 49.5069 28.6855 48.2954 28.8156L47.194 28.9258V21.186L48.4456 21.2761C49.6571 21.3662 51.169 21.4664 52.3104 21.4664H69.1316C70.1229 21.4664 71.5046 21.3863 72.6561 21.2661L73.7675 21.146V28.9258L72.6661 28.8156ZM115.05 22.3375C112.176 22.3375 109.843 20.0045 109.843 17.1309C109.843 14.2573 112.176 11.9243 115.05 11.9243C117.923 11.9243 120.256 14.2573 120.256 17.1309C120.256 20.0045 117.923 22.3375 115.05 22.3375ZM49.6871 6.52753L50.8185 6.6677C51.9099 6.80788 53.4719 6.86796 54.5332 6.86796H66.7286C67.9001 6.86796 69.2618 6.78786 70.1329 6.6677L71.2743 6.5075V13.9769L70.243 13.9469C69.9627 13.9469 69.6223 13.9269 69.2418 13.9068C68.4308 13.8668 67.4595 13.8267 66.7286 13.8267H54.5633C53.3217 13.8267 51.7297 13.8868 50.7485 13.9469L49.6871 14.007V6.52753Z" fill="#EFEB51"/>
<path d="M162.309 2.85301L166.335 4.05452C165.704 5.97695 164.953 7.95945 164.082 9.88187V31.359H159.936V17.3012C159.516 17.8719 159.095 18.4126 158.675 18.9233C158.344 17.8419 157.293 15.2887 156.632 14.1172C158.945 11.3838 161.078 7.11839 162.309 2.85301ZM141.533 2.85301V4.9857H152.677V8.65032H141.533V9.85183H151.296V13.4864H128.016V9.85183H137.118V8.65032H126.034V4.9857H137.118V2.85301H141.533ZM184.898 3.99445V7.02827H177.419L177.058 7.80926H183.276V15.2286H185.679V19.6442H183.817C184.297 20.1849 184.688 20.6955 184.928 21.1461L182.164 22.5879C181.834 22.0172 181.293 21.2362 180.693 20.4852C180.302 21.7468 179.491 22.1373 177.809 22.1373H175.887C175.676 22.3776 175.466 22.5879 175.226 22.7982H180.482L181.173 22.648L183.757 24.0597C182.915 25.3814 181.744 26.4928 180.242 27.4841C182.014 27.7544 183.967 27.9046 186.039 27.9947C185.258 28.8358 184.267 30.3977 183.787 31.419C180.542 31.1487 177.719 30.608 175.286 29.7369C172.913 30.5479 170.149 31.1186 167.055 31.5392C166.665 30.608 165.764 29.2563 165.043 28.4453C167.236 28.235 169.218 27.9647 170.99 27.5742C170.48 27.2137 169.999 26.8533 169.549 26.4327C168.828 26.7632 168.047 27.0635 167.206 27.3639C166.695 26.5229 165.614 25.2913 164.863 24.7506C168.017 23.9396 170.36 22.8282 171.861 21.5666C171.441 21.2662 171.231 20.8157 171.111 20.1849C170.39 21.116 169.519 22.0472 168.587 22.7381L166.034 20.6955C166.515 20.4252 167.025 20.0647 167.476 19.6442H165.343V15.2286H167.957V7.80926H172.793L172.973 7.02827H166.485V3.99445H184.898ZM171.831 10.4826H179.221V9.8218H171.831V10.4826ZM171.831 12.8556H179.221V12.1047H171.831V12.8556ZM171.831 15.2286H179.221V14.4777H171.831V15.2286ZM176.187 19.9145H177.358C177.869 19.9145 178.019 19.7643 178.139 19.0735C178.56 19.3138 179.311 19.5541 180.002 19.7343C179.792 19.494 179.551 19.2537 179.341 19.0434L181.804 17.8119V17.5716H177.809C178.109 17.932 178.41 18.2624 178.59 18.5929L176.187 19.9145ZM169.008 17.9921L169.098 17.8719L171.05 18.9233V17.8419H174.144L173.844 17.5716H169.008V17.9921ZM175.286 19.9145H175.917C175.586 19.3738 175.046 18.743 174.445 18.1423V19.1936C174.445 19.8544 174.595 19.9145 175.286 19.9145ZM177.869 25.1411H173.093C173.784 25.5917 174.595 25.9822 175.496 26.3126C176.397 25.9521 177.208 25.5616 177.869 25.1411ZM97.0872 4.44502L102.524 6.3374C102.074 7.08835 101.413 8.59024 101.112 9.34119C100.241 11.594 98.9796 14.4176 97.3275 17.091C99.9709 19.2236 102.434 21.5366 104.416 23.6092L100.662 27.8145C98.6192 25.4115 96.5465 23.3689 94.2336 21.3263C91.6804 24.3902 88.3762 27.5742 83.39 30.3677L79.3048 26.673C84.0508 24.3902 87.4751 21.6567 90.4188 18.1423C88.3462 16.5202 85.6728 14.5377 82.5188 12.6153L85.6428 8.89062C87.9557 10.3024 90.8994 12.2849 93.3625 14.0571C94.6842 11.8644 95.5553 9.73168 96.3062 7.50888C96.6066 6.63778 96.937 5.28608 97.0872 4.44502ZM18.7484 5.49634C19.98 5.67657 21.2416 5.82676 22.5633 5.82676H38.1529C39.1442 5.82676 41.1267 5.70661 41.7575 5.52638L44.6411 8.19975C44.2806 8.65032 43.5898 9.52142 43.2894 10.002C41.7575 12.5252 38.9039 16.2799 36.2004 18.2324L32.4457 15.2286C34.6685 13.8168 36.7411 11.534 37.402 10.2724H22.5633C21.2416 10.2724 20.3104 10.3625 18.7484 10.5127V5.49634ZM70.2734 7.65907V12.9457C69.3723 12.9157 67.8103 12.8256 66.7289 12.8256H54.5636C53.3621 12.8256 51.7701 12.8857 50.6887 12.9457V7.65907C51.8602 7.80926 53.4822 7.86933 54.5336 7.86933H66.7289C67.9905 7.86933 69.4023 7.77922 70.2734 7.65907ZM32.2655 12.2849C32.2655 19.3438 32.4157 25.832 23.945 30.5479L19.7097 27.0936C20.761 26.7331 21.8724 26.2225 23.134 25.2613C26.4682 22.7381 27.2191 20.1849 27.2191 15.2887C27.2191 14.2374 27.159 13.3663 26.9788 12.2849H32.2655ZM115.04 12.9157C117.353 12.9157 119.245 14.8081 119.245 17.121C119.245 19.4339 117.353 21.3263 115.04 21.3263C112.727 21.3263 110.835 19.4339 110.835 17.121C110.835 14.8081 112.727 12.9157 115.04 12.9157ZM150.925 14.748V25.8921H146.54V24.24H132.091C131.491 26.9133 130.319 29.5867 128.186 31.5392C127.526 30.7282 125.693 29.1361 124.762 28.5955C128.096 25.6217 128.397 21.3864 128.397 18.3526V14.748H150.925ZM141.463 20.6054H146.54V18.2624H141.463V20.6054ZM132.632 20.6054H137.228V18.2624H132.722V18.4126C132.722 19.1035 132.692 19.8244 132.632 20.6054ZM72.7565 22.2575V27.8145C71.5851 27.6943 70.0531 27.6042 69.122 27.6042H52.3007C51.0692 27.6042 49.3871 27.6943 48.1856 27.8145V22.2575C49.4472 22.3476 51.0692 22.4677 52.3007 22.4677H69.122C70.2033 22.4677 71.6451 22.3776 72.7565 22.2575ZM160.948 0.359866L160.387 2.30232C159.226 6.31738 157.203 10.3425 155.1 12.8256L154.199 13.8869L154.88 15.0984C155.451 16.1097 156.452 18.5128 156.752 19.504L157.844 23.0685L157.924 22.9684V33.3615H165.634L165.784 33.7319L167.306 33.5217C170.42 33.1011 173.033 32.5505 175.256 31.8496C177.649 32.6306 180.392 33.1512 183.606 33.4115L184.988 33.5317L185.579 32.2701C186.019 31.3389 186.91 29.9772 187.491 29.3564L190.435 26.1824L186.109 25.9922C185.679 25.9722 185.268 25.9521 184.878 25.9321C185.078 25.6718 185.258 25.4115 185.429 25.1311L186.58 23.3288L185.839 22.9183L187.631 21.9771L187.451 21.6367H187.671V13.2161H185.268V9.02079H186.89V1.99192H166.415L162.87 0.930586L160.938 0.349854L160.948 0.359866ZM143.536 0.850485H135.115V2.98317H124.031V10.6528H126.014V15.4889H126.404V18.3526C126.404 21.3664 126.054 24.7706 123.44 27.1036L121.378 28.9459L123.771 30.3377C124.472 30.7482 126.114 32.16 126.644 32.8108L127.986 34.4528L129.548 33.021C131.411 31.3189 132.782 29.046 133.643 26.2425H144.547V27.8946H152.938V15.4889H153.298V10.6528H154.68V2.98317H143.536V0.850485ZM95.5353 1.78166L95.1247 4.09457C94.9946 4.81548 94.6942 6.07707 94.4239 6.85806C93.8732 8.49012 93.3125 9.87186 92.6917 11.1234C90.589 9.66159 88.4463 8.24981 86.6941 7.17846L85.2223 6.27733L84.1109 7.59899L80.9869 11.3237L79.485 13.1059L81.4775 14.3175C83.47 15.529 85.4125 16.8507 87.4851 18.4126C84.9419 21.076 82.0783 23.1085 78.4337 24.8608L75.7503 26.1524L77.9631 28.1549L82.0483 31.8496L83.1196 32.8108L84.3712 32.1099C88.226 29.9572 91.4501 27.404 94.4038 24.1799C96.1761 25.822 97.708 27.424 99.1398 29.1161L100.632 30.8683L102.164 29.1562L105.918 24.9509L107.15 23.5691L105.868 22.2274C104.527 20.8257 102.474 18.7931 99.9208 16.6404C101.032 14.6479 102.063 12.4451 102.985 10.0721C103.275 9.34119 103.886 7.96946 104.246 7.37872L105.518 5.26605L103.195 4.45503L97.7581 2.56264L95.5453 1.79167L95.5353 1.78166ZM16.7459 3.18343V12.7255L18.9387 12.5152C20.4906 12.365 21.3417 12.2849 22.5633 12.2849H24.9463L25.0063 12.6253C25.1565 13.5465 25.2166 14.2974 25.2166 15.2987C25.2166 19.9145 24.5057 21.7168 21.9224 23.6693C20.751 24.5604 19.7797 24.9609 19.0588 25.2012L15.6445 26.3727L18.4381 28.6555L22.6734 32.1099L23.7247 32.971L24.9162 32.3102C31.4545 28.6656 33.427 23.9796 34.0177 19.0634L34.9489 19.8144L36.1404 20.7656L37.3719 19.8745C40.3657 17.7117 43.3495 13.7768 45.0015 11.0634C45.0816 10.9332 45.372 10.5127 46.2031 9.47135L47.3645 8.01952L46.0028 6.75793L43.1192 4.08456L42.2881 3.31359L41.2068 3.62398C40.8463 3.7141 39.2343 3.84426 38.1529 3.84426H22.5633C21.3217 3.84426 20.1402 3.69407 19.0388 3.53387L16.7459 3.19344V3.18343ZM72.2759 5.36618L70.0031 5.67657C69.182 5.78671 67.8403 5.86681 66.7289 5.86681H54.5336C53.5023 5.86681 51.9904 5.80673 50.939 5.67657L48.6862 5.3862V15.0684L50.7989 14.9483C51.7701 14.8982 53.3421 14.8281 54.5636 14.8281H66.7289C67.4298 14.8281 68.371 14.8682 69.2021 14.9082C69.5825 14.9282 69.923 14.9382 70.2133 14.9483L72.286 15.0183V5.36618H72.2759ZM115.04 10.9132C111.616 10.9132 108.832 13.6967 108.832 17.121C108.832 20.5453 111.616 23.3288 115.04 23.3288C118.464 23.3288 121.248 20.5453 121.248 17.121C121.248 13.6967 118.464 10.9132 115.04 10.9132ZM74.7691 20.0247L72.5563 20.265C71.4549 20.3851 70.0832 20.4652 69.132 20.4652H52.3108C51.2094 20.4652 49.7175 20.3551 48.516 20.275H48.3358L46.1931 20.1048V30.0273L48.3958 29.807C49.5773 29.6868 51.1893 29.6067 52.3108 29.6067H69.132C69.973 29.6067 71.4549 29.6969 72.5663 29.807L74.7691 30.0373V20.0347V20.0247Z" fill="black"/>
<path d="M197.593 13.7368C197.353 14.8783 196.532 19.5541 196.532 21.5967C196.532 21.6668 196.532 22.0173 196.552 22.1074C196.863 21.4866 197.123 21.046 197.413 20.4152L199.025 21.6968C198.364 23.6994 197.684 26.1224 197.443 27.354C197.373 27.6844 197.313 28.2151 197.313 28.4153C197.313 28.6556 197.313 29.0561 197.333 29.4066L194.249 29.6068C193.809 28.135 193.368 25.3515 193.368 22.3577C193.368 18.9834 194.009 15.3088 194.229 13.6767C194.319 13.0159 194.47 12.0247 194.49 11.1836L198.214 11.494C198.014 12.0046 197.684 13.3463 197.593 13.7368ZM203.191 24.2501C203.191 25.2213 204.112 25.5918 205.924 25.5918C207.886 25.5918 209.468 25.4115 211.471 25.001L211.541 28.6156C210.089 28.8759 208.347 29.0361 205.744 29.0361C201.889 29.0361 199.977 27.6043 199.977 25.2513C199.977 24.3001 200.107 23.379 200.377 22.2375L203.421 22.4979C203.271 23.1987 203.201 23.6894 203.201 24.2601L203.191 24.2501ZM210.86 12.8157V16.25C207.977 16.4903 204.122 16.5103 201.168 16.25L201.148 12.8357C204.032 13.1861 208.397 13.076 210.86 12.8157Z" fill="black"/>
<path d="M15.013 56.5106C17.0656 57.4618 19.2684 58.5331 20.5901 59.264L17.396 61.4468C16.0543 60.5657 13.6113 59.1138 11.4085 58.1026L13.2408 56.5206H6.87277L9.07554 58.1026C7.33335 59.2941 4.66999 60.7059 2.68749 61.4768C2.06671 60.836 0.965319 59.8247 0.154297 59.234C1.93654 58.6132 4.13932 57.4918 5.57113 56.5206H0.164309V53.5869H1.90651L1.61614 41.6018L3.55859 41.9122C4.23945 41.4716 4.90028 40.991 5.41092 40.5705L6.1819 41.4916H14.4623V53.5869H16.1344C16.1745 53.0562 16.2045 52.5055 16.2246 51.9348H14.9229V49.4216H16.3347L16.3747 48.0299H14.9229V45.5167H16.4248L16.4448 44.1049H14.8829V41.5517H19.2484C19.2083 45.4266 19.0481 50.1225 18.8278 53.5769H20.4999V56.5106H15.013ZM4.58989 53.5769H6.15186V43.5743C5.53108 43.8346 4.94033 44.1049 4.36961 44.3252L4.38964 45.5167H5.7113V48.0299H4.45973L4.49978 49.4216H5.7113V51.9348H4.56986L4.58989 53.5869V53.5769ZM8.33461 43.8346V53.5769H12.1895V43.8346H8.33461ZM11.7289 46.6081H8.73512V44.6957H11.7289V46.6081ZM11.7089 52.2952H8.73512V47.359H11.7089V52.2952ZM10.4773 49.1212H9.92662V50.533H10.4773V49.1212ZM26.3373 55.8397V57.642H23.4336V42.3727H30.5726V55.8297H26.3473L26.3373 55.8397ZM26.3373 45.4666V52.7358H27.679V45.4666H26.3373ZM39.3537 51.9248C40.4551 54.1075 42.1272 56.2002 43.9395 57.5018C43.1685 58.1226 42.1072 59.3041 41.5565 60.1652C40.4952 59.1939 39.5339 57.8923 38.6729 56.4204V61.3767H35.4388V56.09C34.3174 57.7221 32.9757 59.1038 31.4037 60.0751C30.9231 59.3241 29.9519 58.1626 29.241 57.5419C31.5539 56.3704 33.4963 54.2577 34.7079 51.9248H31.0332V48.8809H35.4388V46.6982H31.654V43.6544H35.4388V40.7507H38.6729V43.6544H43.0584V46.6982H38.6729V48.8809H43.6291V51.9248H39.3537ZM55.9346 44.165C55.8045 44.7557 55.6743 45.3765 55.5341 45.9472C56.1249 45.9072 56.6355 45.8772 57.036 45.8772C59.5692 45.8772 61.2413 47.0687 61.2413 50.3728C61.2413 52.9461 60.951 56.5606 60.0098 58.5031C59.2588 60.0851 57.9572 60.6358 56.1749 60.6358C55.3138 60.6358 54.2825 60.5056 53.4915 60.3254L52.9208 56.821C53.7319 57.0412 55.0535 57.2815 55.6042 57.2815C56.3051 57.2815 56.8157 57.0412 57.1061 56.4405C57.6568 55.3391 57.9171 52.7658 57.9171 50.7133C57.9171 49.1012 57.2563 48.911 55.8946 48.911C55.6342 48.911 55.2738 48.931 54.8332 48.9811C53.9521 52.4154 52.3 57.7521 50.4277 60.7659L46.9433 59.3742C49.0359 56.5506 50.4677 52.3653 51.2788 49.3515C50.708 49.4416 50.2174 49.5017 49.917 49.5518C49.2162 49.6619 47.9345 49.8422 47.2036 49.9723L46.8932 46.3778C47.7543 46.4479 48.5854 46.3978 49.4665 46.3778C50.1073 46.3578 51.0084 46.2877 51.9997 46.2276C52.3101 44.5054 52.4602 42.9935 52.4202 41.6218L56.3852 42.0423C56.235 42.7032 56.0548 43.5442 55.9246 44.155L55.9346 44.165ZM64.946 44.1249L64.2151 44.4353C65.5367 46.5079 67.1888 50.3228 67.7796 52.3453L64.3653 53.9073C63.8346 51.3541 62.3627 47.4491 60.7707 45.4266L62.6431 44.6356C62.2226 43.7745 61.6719 42.6931 61.1412 41.9522L63.2138 41.1111C63.7645 41.9222 64.5355 43.354 64.936 44.1249H64.946ZM67.6794 43.0436L65.6068 43.9247C65.1663 43.0236 64.4654 41.7219 63.8646 40.8809L65.9372 40.0398C66.508 40.8809 67.2989 42.2826 67.6794 43.0336V43.0436ZM79.0438 42.7532C78.9737 43.0436 78.9136 43.374 78.8635 43.6744C81.4668 43.5843 83.6896 43.3239 86.1727 42.7032L86.1928 45.767C84.1202 46.1375 81.1664 46.4278 78.433 46.538L78.3028 48.12C79.274 47.9197 80.3254 47.8096 81.3667 47.8096H81.4969C81.587 47.349 81.647 46.8584 81.6771 46.558L84.9112 47.329C84.821 47.5493 84.6709 47.9498 84.5407 48.3403C87.0038 49.2414 88.726 51.2039 88.726 53.8272C88.726 56.9311 87.0338 60.1051 81.4568 60.9462L79.6946 58.1526C84.1001 57.672 85.4218 55.4692 85.4218 53.677C85.4218 52.5556 84.801 51.5643 83.6195 51.0136C82.4481 53.8973 80.7359 56.1201 79.1439 57.4217C79.2941 57.9524 79.4543 58.483 79.6245 58.9837L76.5606 59.8848C76.4705 59.6645 76.4104 59.4042 76.3203 59.1339C75.3291 59.5744 74.2077 59.8848 73.0862 59.8848C71.3941 59.8848 69.9122 58.8735 69.9122 56.4204C69.9122 53.5769 72.1551 50.6031 75.269 49.1112C75.3091 48.2702 75.3791 47.4391 75.4693 46.6181H75.1188C73.8372 46.6181 72.125 46.5079 71.0237 46.4679L70.9335 43.4241C71.7245 43.5342 73.667 43.7345 75.2289 43.7345H75.7596C75.7997 43.4241 75.8497 43.1437 75.8698 42.8533C75.9098 42.4128 75.9599 41.822 75.9398 41.3815L79.3742 41.4716C79.224 41.9822 79.1339 42.3727 79.0438 42.7532ZM73.9373 56.6507C74.4179 56.6507 75.0387 56.4705 75.6795 56.1201C75.4793 54.9486 75.3291 53.657 75.259 52.3053C73.8973 53.3666 73.0562 54.7483 73.0562 55.6995C73.0562 56.3203 73.2765 56.6507 73.9373 56.6507ZM78.433 53.9173C79.2741 53.0162 80.045 51.9348 80.6558 50.523C79.7346 50.5631 78.9336 50.7233 78.2327 50.9235C78.2528 52.0249 78.3229 53.0162 78.433 53.9173ZM96.8062 42.3928C97.9977 42.3928 102.403 42.3227 103.705 42.2125C104.766 42.1224 105.377 42.0323 105.667 41.9522L107.319 44.3052C106.749 44.6556 106.178 44.986 105.627 45.3865C104.396 46.2276 102.453 47.8096 101.242 48.7308C101.812 48.6206 102.253 48.6006 102.784 48.6006C106.578 48.6006 109.552 51.0236 109.552 54.3478C109.552 57.672 107.059 60.806 101.352 60.806C98.248 60.806 95.6647 59.3541 95.6647 56.9311C95.6647 54.9886 97.4269 53.1864 99.9401 53.1864C102.623 53.1864 104.346 54.7483 104.716 56.841C105.597 56.2502 106.018 55.3891 106.018 54.3078C106.018 52.4154 104.075 51.2239 101.652 51.2239C98.4382 51.2239 96.1253 53.1663 94.0126 55.7396L91.5896 53.2264C93.0014 52.125 95.5746 49.9423 96.8762 48.8609C98.1078 47.8496 100.16 46.2576 101.212 45.3164C100.11 45.3365 97.8375 45.4266 96.656 45.5167C95.9951 45.5567 95.2041 45.6268 94.6735 45.717L94.5633 42.2626C95.2442 42.3527 96.0852 42.3928 96.8062 42.3928ZM100.661 57.7722C101.011 57.7722 101.342 57.7521 101.652 57.7321C101.542 56.5206 100.881 55.7296 99.9601 55.7296C99.2292 55.7296 98.8187 56.1701 98.8187 56.6107C98.8187 57.2915 99.5496 57.7822 100.671 57.7822L100.661 57.7722ZM118.243 41.782L122.008 41.1912C122.078 41.6318 122.138 42.4428 122.248 42.9935C122.288 43.3239 122.428 43.9848 122.579 44.8459C124.271 44.5855 125.773 44.3152 126.474 44.185C127.204 44.0549 128.196 43.8346 128.807 43.6544L129.447 47.1387C128.877 47.1788 127.865 47.339 127.154 47.4291C126.313 47.5593 124.821 47.7996 123.169 48.0699C123.35 49.0411 123.54 50.0524 123.74 51.0837C125.572 50.7733 127.225 50.493 128.146 50.3127C129.007 50.1325 129.928 49.9122 130.569 49.742L131.27 53.2464C130.609 53.2865 129.598 53.4667 128.756 53.5969C127.785 53.7471 126.153 54.0174 124.351 54.2978C124.661 55.9098 124.922 57.2715 125.082 58.0225C125.232 58.6833 125.452 59.4943 125.653 60.2653L121.818 60.9261C121.708 60.065 121.668 59.274 121.527 58.6132C121.417 57.9324 121.157 56.5406 120.846 54.8685C118.754 55.2189 116.861 55.5493 115.96 55.7296C114.969 55.9098 114.128 56.06 113.627 56.1902L112.876 52.6657C113.497 52.6457 114.599 52.5155 115.34 52.4054C116.311 52.2552 118.183 51.9648 120.256 51.6344C120.055 50.6231 119.855 49.5818 119.685 48.6206C117.853 48.911 116.271 49.1713 115.68 49.2814C114.929 49.4316 114.338 49.5718 113.517 49.7921L112.816 46.1575C113.587 46.1175 114.288 46.0674 114.979 45.9773C115.68 45.8872 117.272 45.6669 119.074 45.3865C118.924 44.5755 118.784 43.9347 118.724 43.5542C118.574 42.8934 118.413 42.3427 118.243 41.792V41.782ZM148.802 57.3116L147.33 60.6558C144.336 59.4643 137.127 57.9223 133.603 57.3917L134.944 54.0174C138.779 54.5881 145.758 56.2202 148.802 57.3016V57.3116ZM147.79 50.483L146.489 53.8272C143.976 52.876 138.188 51.5543 134.814 51.0036L136.046 47.7695C139.26 48.3002 145.017 49.5518 147.79 50.483ZM149.332 44.4253L147.971 47.7495C145.458 46.8284 138.959 45.3465 135.805 44.956L137.037 41.782C139.971 42.1324 146.559 43.4541 149.332 44.4253ZM157.192 44.4954C156.932 45.6369 156.161 50.7733 156.161 52.8259C156.161 52.896 156.161 53.2464 156.181 53.3366C156.441 52.6958 156.732 52.2752 157.022 51.6144L158.634 52.916C157.973 54.8985 157.312 57.1213 157.052 58.4029C156.982 58.7133 156.922 59.214 156.922 59.4342C156.922 59.6746 156.922 60.0751 156.942 60.4255L153.928 60.6458C153.468 59.1439 153.027 56.5706 153.027 53.5769C153.027 50.2026 153.648 46.0674 153.888 44.4353C153.978 43.7745 154.108 42.7632 154.128 41.9422L157.803 42.2526C157.603 42.7332 157.292 44.1049 157.212 44.4954H157.192ZM168.336 43.4341C168.316 43.8546 168.296 44.5755 168.266 45.5067C169.388 45.3765 170.469 45.2163 171.46 44.996V48.3202C170.469 48.4504 169.388 48.5806 168.246 48.6507C168.286 50.6732 168.396 52.2452 168.467 53.5668C170.339 54.3378 171.701 55.4893 172.692 56.4104L170.89 59.204C170.079 58.433 169.278 57.7722 168.537 57.2014C168.246 59.274 166.885 60.5456 164.001 60.5456C160.897 60.5456 158.844 59.224 158.844 56.7308C158.844 54.2377 160.867 52.6757 163.961 52.6757C164.331 52.6757 164.712 52.6958 165.062 52.7158C164.992 51.5443 164.932 50.2026 164.912 48.8209C164.492 48.8409 164.071 48.8409 163.68 48.8409C162.359 48.8409 161.037 48.8008 159.736 48.7107L159.715 45.5367C160.997 45.6669 162.319 45.737 163.66 45.737C164.081 45.737 164.471 45.737 164.892 45.717C164.872 44.6857 164.872 43.8646 164.852 43.4741C164.852 43.1437 164.762 42.4128 164.672 41.9522H168.487C168.416 42.3727 168.376 42.9435 168.356 43.4241L168.336 43.4341ZM163.69 57.4017C164.752 57.4017 165.162 56.831 165.162 55.6194V55.4692C164.682 55.3391 164.191 55.269 163.69 55.269C162.659 55.269 161.968 55.6695 161.968 56.3704C161.968 57.1414 162.739 57.4017 163.69 57.4017ZM178.91 43.5642H190.144C190.845 43.5642 191.906 43.5242 192.236 43.4942C192.216 44.0248 192.166 44.996 192.166 45.717V57.1514C192.166 57.9023 192.206 59.1539 192.277 60.015H188.402C188.402 59.6445 188.422 59.264 188.422 58.9136H178.749C177.908 58.9136 176.527 58.9837 175.736 59.0638V55.249C176.597 55.3191 177.608 55.3791 178.639 55.3791H188.442V47.0086H178.9C177.908 47.0086 176.677 47.0486 175.996 47.0987V43.394C176.877 43.4841 178.109 43.5442 178.9 43.5442L178.91 43.5642ZM199.726 43.5642H210.96C211.661 43.5642 212.722 43.5242 213.053 43.4942C213.033 44.0248 212.983 44.996 212.983 45.717V57.1514C212.983 57.9023 213.023 59.1539 213.093 60.015H209.218C209.218 59.6445 209.238 59.264 209.238 58.9136H199.566C198.725 58.9136 197.343 58.9837 196.552 59.0638V55.249C197.413 55.3191 198.424 55.3791 199.456 55.3791H209.258V47.0086H199.716C198.725 47.0086 197.493 47.0486 196.812 47.0987V43.394C197.693 43.4841 198.925 43.5442 199.716 43.5442L199.726 43.5642ZM217.018 57.2215C217.018 55.8597 217.989 54.7984 219.331 54.7984C220.672 54.7984 221.664 55.8597 221.664 57.2215C221.664 58.5832 220.692 59.6645 219.331 59.6645C217.969 59.6645 217.018 58.5832 217.018 57.2215ZM217.498 45.9673L217.368 42.4628H221.313L221.183 45.9673L220.612 53.4167H218.079L217.508 45.9673H217.498ZM225.498 57.2215C225.498 55.8597 226.47 54.7984 227.811 54.7984C229.153 54.7984 230.144 55.8597 230.144 57.2215C230.144 58.5832 229.173 59.6645 227.811 59.6645C226.45 59.6645 225.498 58.5832 225.498 57.2215ZM225.979 45.9673L225.849 42.4628H229.794L229.664 45.9673L229.093 53.4167H226.56L225.989 45.9673H225.979Z" fill="black"/>
</g>
<defs>
<clipPath id="clip0_232_11380">
<rect width="230" height="61.107" fill="white" transform="translate(0.144531 0.359863)"/>
</clipPath>
</defs>
</svg>
